<svg width="200" height="200" viewBox="0 0 120 120" fill="none" xmlns="http://www.w3.org/2000/svg">
<path d="M91.0271 103.654C96.2495 95.8976 99.3215 86.6048 99.3215 76.6208C99.3215 49.8944 77.6639 28.16 50.8607 28.16C24.0575 28.16 2.3999 49.8176 2.3999 76.6208C2.3999 86.6816 5.4719 95.9744 10.6943 103.654H91.0271Z" fill="#F6F7FB"></path>
<path d="M63.3795 104.653C91.2464 104.653 113.837 104.206 113.837 103.654C113.837 103.103 91.2464 102.656 63.3795 102.656C35.5125 102.656 12.9219 103.103 12.9219 103.654C12.9219 104.206 35.5125 104.653 63.3795 104.653Z" fill="#E4EAF1"></path>
<path d="M10.4637 103.654H24.6717L24.2109 102.886L24.4413 102.272L23.6733 101.888L24.5949 101.504L24.6717 100.812H8.92773L10.4637 103.654Z" fill="#343758"></path>
<path d="M75.2837 29.2352C75.2837 29.2352 79.9685 29.312 80.8133 30.6944C81.8117 32.384 76.8965 36.0704 76.8965 36.0704C76.8965 36.0704 76.2821 32.4608 75.2837 29.2352Z" fill="#A892F7"></path>
<path d="M77.4341 39.6031C77.4341 39.6031 82.1189 40.2175 82.7333 41.7535C83.5013 43.5199 78.2021 46.5919 78.2021 46.5919C78.2021 46.5919 78.0485 42.9055 77.4341 39.6031Z" fill="#A892F7"></path>
<path d="M80.0454 52.0449C80.0454 52.0449 84.3462 51.8145 85.191 53.1201C86.1894 54.5793 81.8886 58.2657 81.8886 58.2657C81.8886 58.2657 81.1206 54.9633 80.0454 52.0449Z" fill="#A892F7"></path>
<path d="M84.1157 61.2606C84.1157 61.2606 87.4181 59.3406 88.5701 60.0318C89.9525 60.7998 88.0325 65.331 88.0325 65.331C88.0325 65.331 86.1125 63.1038 84.1157 61.2606Z" fill="#A892F7"></path>
<path d="M91.6421 67.5584C91.6421 67.5584 93.4085 65.2544 94.4069 65.3312C95.6357 65.4848 95.6357 69.248 95.6357 69.248C95.6357 69.248 93.6389 68.2496 91.6421 67.5584Z" fill="#A892F7"></path>
<path d="M98.938 70.1696C98.938 70.1696 99.9364 68.096 100.781 68.0192C101.703 67.9424 102.317 70.8608 102.317 70.8608C102.317 70.8608 100.551 70.4768 98.938 70.1696Z" fill="#A892F7"></path>
<path d="M33.3507 75.0079L32.9667 74.8543L32.5827 75.0079L32.2755 74.3167L31.8915 75.0079L31.4307 75.6223L31.1235 75.0079C31.1235 68.9407 31.3539 54.5791 33.0435 52.5055C34.0419 51.1999 35.5011 46.0543 36.1923 42.9823H38.4963C38.2659 43.8271 36.6531 51.5839 34.8867 53.7343C34.0419 55.0399 33.3507 65.7151 33.3507 75.0079Z" fill="#343758"></path>
<path d="M46.7138 47.744L41.1074 53.504L36.3458 50.816C35.7314 52.4288 35.4242 53.0432 34.9634 53.8112C34.9634 53.8112 38.8802 57.0368 40.9538 57.4976C42.9506 57.9584 48.3266 54.5024 48.3266 54.5024C48.3266 54.5024 48.8642 49.7408 46.7138 47.744Z" fill="#7C47E1"></path>
<path d="M77.9715 80.7681C77.9715 80.7681 73.7475 99.2769 72.5187 103.654H59.7699C59.1555 103.347 59.2323 102.195 59.4627 101.197C59.6931 100.045 60.6915 99.2769 61.7667 99.2001L65.2995 98.9697C65.2995 98.9697 64.1475 90.8289 66.9123 83.9169L77.9715 80.7681Z" fill="#7C47E1"></path>
<path d="M24.3648 22.3231C22.1376 26.7007 22.6752 33.6127 24.3648 39.2191C26.0544 44.8255 47.6352 42.4447 47.6352 42.4447C47.6352 42.4447 40.8 69.4783 59.7696 82.9951C78.7392 96.5119 103.546 89.6767 117.6 69.9391C117.6 69.9391 83.808 78.0031 79.2768 47.5903C74.7456 17.1775 69.5232 15.8719 65.2992 15.4111C61.152 14.9503 27.1296 16.9471 24.3648 22.3231Z" fill="#A892F7"></path>
<path d="M53.0881 29.8494C54.7847 29.8494 56.1601 28.4741 56.1601 26.7774C56.1601 25.0808 54.7847 23.7054 53.0881 23.7054C51.3915 23.7054 50.0161 25.0808 50.0161 26.7774C50.0161 28.4741 51.3915 29.8494 53.0881 29.8494Z" fill="#343758"></path>
<path d="M28.6657 31.5392C29.5988 31.5392 30.3553 30.7828 30.3553 29.8496C30.3553 28.9165 29.5988 28.16 28.6657 28.16C27.7325 28.16 26.9761 28.9165 26.9761 29.8496C26.9761 30.7828 27.7325 31.5392 28.6657 31.5392Z" fill="#7C47E1"></path>
<g opacity="0.1">
<path opacity="0.1" d="M57.3892 39.4495C60.2311 39.4495 62.5349 37.1458 62.5349 34.3039C62.5349 31.4621 60.2311 29.1583 57.3892 29.1583C54.5474 29.1583 52.2437 31.4621 52.2437 34.3039C52.2437 37.1458 54.5474 39.4495 57.3892 39.4495Z" fill="white"></path>
</g>
<path d="M66.144 17.4845C67.68 17.7149 68.9856 18.6365 69.984 19.7885C70.9824 20.9405 71.8272 22.2461 72.4416 23.6285C73.6704 26.3933 74.3616 29.3885 74.8992 32.3837C75.9744 38.2973 76.8192 44.2877 78.6624 49.9709C80.4288 55.6541 83.1168 61.1837 87.4944 65.1773C89.6448 67.1741 92.256 68.7869 95.0208 69.7853C97.8624 70.7837 100.858 71.2445 103.853 71.3981C100.858 71.4749 97.7856 71.1677 94.8672 70.2461C91.9488 69.3245 89.2608 67.7885 86.88 65.7917C84.4992 63.7949 82.656 61.2605 81.1968 58.6493C79.6608 55.9613 78.5088 53.1197 77.5872 50.2781C75.8208 44.4413 74.8992 38.4509 74.0544 32.4605C73.6704 29.4653 73.056 26.5469 71.904 23.7821C71.3664 22.3997 70.6752 21.0941 69.6768 19.9421C69.216 19.3277 68.6784 18.8669 68.064 18.4061C67.6032 18.0221 66.912 17.6381 66.144 17.4845Z" fill="#D1C0FF"></path>
<path d="M86.5735 82.611C86.5735 82.611 88.6471 99.2766 87.4183 103.654H74.6695C74.0551 103.347 74.1319 102.195 74.3623 101.197C74.5927 100.045 75.5911 99.2766 76.6663 99.1998L80.1991 98.9694C80.1991 98.9694 74.6695 88.6782 72.7495 80.1534L86.5735 82.611Z" fill="#A892F7"></path>
<path d="M51.0915 39.1424C51.0915 39.1424 49.9395 38.144 48.0963 38.144C46.2531 38.144 44.7171 39.8336 43.4883 41.3696C43.4883 41.3696 47.2515 38.528 51.0915 39.1424Z" fill="#7C47E1"></path>
<g opacity="0.3">
<path opacity="0.3" d="M47.6348 42.5215C47.6348 42.5215 55.622 41.2927 59.6924 39.9103C59.6924 39.9103 47.558 43.9039 46.4828 55.5775C46.4828 55.5775 46.022 47.8975 47.6348 42.5215Z" fill="#7C47E1"></path>
</g>
<path d="M45.4082 39.4494C45.4082 39.4494 51.4754 40.755 51.4754 51.3534C51.4754 61.9518 51.4754 87.3726 51.4754 87.3726H54.3938V51.2766C54.3938 51.2766 54.3938 40.755 48.7106 38.2206C48.7106 38.2206 46.8674 37.6062 45.4082 39.4494Z" fill="#343758"></path>
<path d="M73.0563 46.3615C73.0563 46.3615 77.1267 47.667 82.4259 47.8206C87.7251 47.9742 80.4291 59.4943 80.4291 59.4943C80.4291 59.4943 82.0419 60.2623 82.3491 60.5695C82.6563 60.8767 81.0435 63.3343 80.4291 63.1039C79.8147 62.8735 77.8179 62.1055 77.4339 61.5679C77.0499 61.0303 79.8915 53.5039 79.8915 53.5039C79.8915 53.5039 75.3603 54.1951 72.6723 53.3503C69.3699 52.2751 70.9059 47.2063 73.0563 46.3615Z" fill="#7C47E1"></path>
<path d="M82.4259 47.8206C77.1267 47.667 73.0563 46.3615 73.0563 46.3615C72.8259 46.4383 72.6723 46.515 72.4419 46.6686C72.5187 46.6686 77.5875 48.1278 82.6563 48.435C85.8051 48.6654 80.4291 59.4174 80.4291 59.4174C80.4291 59.4174 87.7251 47.9742 82.4259 47.8206Z" fill="#D1C0FF"></path>
<path d="M34.2722 49.8174C34.2722 49.8174 34.8866 49.8942 35.117 50.1246C35.3474 50.4318 34.6562 53.1966 34.349 53.1966C33.965 53.1966 32.8898 53.043 32.7362 52.9662L32.5826 53.3502C32.5826 53.3502 32.045 53.2734 32.1218 52.5822C32.1986 51.891 32.5826 50.2782 32.9666 50.0478C33.2738 49.7406 34.2722 49.8174 34.2722 49.8174Z" fill="#7C47E1"></path>
<path d="M36.1152 51.8142C36.1152 51.8142 35.3472 51.0462 35.5008 50.2782C35.6544 49.5102 36.2688 49.8942 36.576 50.9694L36.1152 51.8142Z" fill="#7C47E1"></path>
<path d="M49.5557 93.44V89.8304C49.5557 87.9872 51.0917 86.4512 52.9349 86.4512C54.7781 86.4512 56.3141 87.9872 56.3141 89.8304V93.44H49.5557Z" fill="#343758"></path>
<path d="M52.0133 93.056H50.8613V95.9744H52.0133V93.056Z" fill="#343758"></path>
<path d="M54.9318 93.056H53.7798V95.9744H54.9318V93.056Z" fill="#343758"></path>
<path d="M54.3943 57.4207H54.3175C54.3175 53.5039 54.2407 49.8175 54.2407 49.8175C53.7799 42.7519 51.1687 39.9103 49.7095 38.8351L49.7863 38.7583C51.3223 39.8335 53.9335 42.6751 54.3943 49.8175C54.3943 49.8943 54.3943 53.5039 54.3943 57.4207Z" fill="white"></path>
<path d="M54.3165 26.1631C54.6559 26.1631 54.9309 25.8881 54.9309 25.5487C54.9309 25.2094 54.6559 24.9343 54.3165 24.9343C53.9772 24.9343 53.7021 25.2094 53.7021 25.5487C53.7021 25.8881 53.9772 26.1631 54.3165 26.1631Z" fill="white"></path>
<path d="M36.4221 95.8208H26.7453C25.9005 95.8208 25.2861 95.1296 25.2861 94.3616V82.1504C25.2861 81.3056 25.9773 80.6912 26.7453 80.6912H36.4221C37.2669 80.6912 37.8813 81.3824 37.8813 82.1504V94.3616C37.9581 95.1296 37.2669 95.8208 36.4221 95.8208Z" fill="#E4EAF1"></path>
<path d="M31.7377 86.3742C32.1619 86.3742 32.5057 86.0304 32.5057 85.6063C32.5057 85.1821 32.1619 84.8383 31.7377 84.8383C31.3136 84.8383 30.9697 85.1821 30.9697 85.6063C30.9697 86.0304 31.3136 86.3742 31.7377 86.3742Z" fill="#707F8C"></path>
<path d="M30.2016 88.6014C30.6258 88.6014 30.9696 88.2576 30.9696 87.8334C30.9696 87.4093 30.6258 87.0654 30.2016 87.0654C29.7774 87.0654 29.4336 87.4093 29.4336 87.8334C29.4336 88.2576 29.7774 88.6014 30.2016 88.6014Z" fill="#707F8C"></path>
<path d="M33.2739 88.6014C33.698 88.6014 34.0419 88.2576 34.0419 87.8334C34.0419 87.4093 33.698 87.0654 33.2739 87.0654C32.8497 87.0654 32.5059 87.4093 32.5059 87.8334C32.5059 88.2576 32.8497 88.6014 33.2739 88.6014Z" fill="#707F8C"></path>
<path d="M29.894 91.1361C30.3181 91.1361 30.662 90.7923 30.662 90.3681C30.662 89.9439 30.3181 89.6001 29.894 89.6001C29.4698 89.6001 29.126 89.9439 29.126 90.3681C29.126 90.7923 29.4698 91.1361 29.894 91.1361Z" fill="#707F8C"></path>
<path d="M33.5805 91.1361C34.0047 91.1361 34.3485 90.7923 34.3485 90.3681C34.3485 89.9439 34.0047 89.6001 33.5805 89.6001C33.1563 89.6001 32.8125 89.9439 32.8125 90.3681C32.8125 90.7923 33.1563 91.1361 33.5805 91.1361Z" fill="#707F8C"></path>
<path d="M21.2839 81.2709L20.3564 81.9542L21.8143 83.9328L22.7418 83.2495L21.2839 81.2709Z" fill="#343758"></path>
<path d="M17.2956 87.3138L17.063 88.442L22.7795 89.6205L23.0121 88.4922L17.2956 87.3138Z" fill="#343758"></path>
</svg>