<svg fill="none" height="38" viewBox="0 0 68 38" width="68" xmlns="http://www.w3.org/2000/svg" xmlns:xlink="http://www.w3.org/1999/xlink"><linearGradient id="a"><stop offset="0" stop-color="#b2b2b2"/><stop offset="1" stop-color="#ededed"/></linearGradient><linearGradient id="b" gradientUnits="userSpaceOnUse" x1="38.7769" x2="62.5061" xlink:href="#a" y1="13.9094" y2="13.9094"/><linearGradient id="c"><stop offset="0" stop-color="#a3195b"/><stop offset=".0624116" stop-color="#b2374c"/><stop offset=".1587" stop-color="#c75e38"/><stop offset=".2618" stop-color="#d88026"/><stop offset=".3711" stop-color="#e69c18"/><stop offset=".4888" stop-color="#f1b10e"/><stop offset=".619" stop-color="#f9c006"/><stop offset=".7714" stop-color="#fec901"/><stop offset="1" stop-color="#fc0"/></linearGradient><linearGradient id="d" gradientUnits="userSpaceOnUse" x1="38.9475" x2="65.4233" xlink:href="#c" y1="9.92847" y2="9.92847"/><linearGradient id="e"><stop offset="0" stop-color="#a3195b"/><stop offset=".0360647" stop-color="#ab2552"/><stop offset=".1527" stop-color="#c14639"/><stop offset=".2781" stop-color="#d36224"/><stop offset=".4132" stop-color="#e17714"/><stop offset=".5626" stop-color="#eb8609"/><stop offset=".7375" stop-color="#f18f02"/><stop offset="1" stop-color="#f39200"/></linearGradient><linearGradient id="f" gradientUnits="userSpaceOnUse" x1="36.5557" x2="66.455" xlink:href="#e" y1="10.2566" y2="10.2566"/><linearGradient id="g"><stop offset="0" stop-color="#3aaa35"/><stop offset=".0838669" stop-color="#47ad32"/><stop offset=".3425" stop-color="#69b629"/><stop offset=".5883" stop-color="#81bc23"/><stop offset=".8138" stop-color="#90c01f"/><stop offset="1" stop-color="#95c11e"/></linearGradient><linearGradient id="h" gradientUnits="userSpaceOnUse" x1="38.641" x2="59.4066" xlink:href="#g" y1="16.9581" y2="16.9581"/><linearGradient id="i"><stop offset="0" stop-color="#063"/><stop offset="1" stop-color="#3aaa35"/></linearGradient><linearGradient id="j" gradientUnits="userSpaceOnUse" x1="36.6493" x2="54.1683" xlink:href="#i" y1="19.9923" y2="19.9923"/><linearGradient id="k" gradientUnits="userSpaceOnUse" x1="28.6411" x2="4.91275" xlink:href="#a" y1="13.9098" y2="13.9098"/><linearGradient id="l" gradientUnits="userSpaceOnUse" x1="28.4715" x2="1.99628" xlink:href="#c" y1="9.92807" y2="9.92807"/><linearGradient id="m" gradientUnits="userSpaceOnUse" x1="30.863" x2=".963695" xlink:href="#e" y1="10.2562" y2="10.2562"/><linearGradient id="n" gradientUnits="userSpaceOnUse" x1="28.7771" x2="8.01119" xlink:href="#g" y1="16.9581" y2="16.9581"/><linearGradient id="o" gradientUnits="userSpaceOnUse" x1="30.7203" x2="13.0401" xlink:href="#i" y1="19.9921" y2="19.9921"/><linearGradient id="p"><stop offset="0" stop-color="#2b3087"/><stop offset=".3038" stop-color="#203a9f"/><stop offset=".3503" stop-color="#1b3faa"/><stop offset=".4768" stop-color="#0f49c2"/><stop offset=".6103" stop-color="#0750d3"/><stop offset=".7543" stop-color="#0355de"/><stop offset=".9274" stop-color="#0156e1"/></linearGradient><linearGradient id="q" gradientUnits="userSpaceOnUse" x1="33.7408" x2="33.7408" xlink:href="#p" y1="32.0291" y2="27.2832"/><linearGradient id="r" gradientUnits="userSpaceOnUse" x1="33.742" x2="33.742" xlink:href="#p" y1="26.5572" y2="21.5635"/><linearGradient id="s"><stop offset="0" stop-color="#36a9e1"/><stop offset=".7804" stop-color="#2581c4" stop-opacity="0"/></linearGradient><linearGradient id="t" gradientUnits="userSpaceOnUse" x1="28.2593" x2="28.2593" xlink:href="#s" y1="23.1661" y2="26.4205"/><linearGradient id="u" gradientUnits="userSpaceOnUse" x1="24.5256" x2="24.5256" xlink:href="#s" y1="23.3657" y2="26.4209"/><linearGradient id="v" gradientUnits="userSpaceOnUse" x1="46.8989" x2="46.8989" xlink:href="#s" y1="24.1413" y2="26.3496"/><linearGradient id="w" gradientUnits="userSpaceOnUse" x1="20.7681" x2="20.7681" xlink:href="#s" y1="24.1995" y2="26.3482"/><linearGradient id="x" gradientUnits="userSpaceOnUse" x1="32.2707" x2="32.2707" xlink:href="#s" y1="22.9569" y2="26.356"/><linearGradient id="y" gradientUnits="userSpaceOnUse" x1="44.1864" x2="44.1864" xlink:href="#s" y1="23.6376" y2="26.3488"/><linearGradient id="z" gradientUnits="userSpaceOnUse" x1="40.6147" x2="40.6147" xlink:href="#s" y1="23.1588" y2="26.4209"/><linearGradient id="A" gradientUnits="userSpaceOnUse" x1="36.4535" x2="36.4535" xlink:href="#s" y1="22.9634" y2="26.3503"/><clipPath id="B"><path d="m0 0h67.4194v38h-67.4194z"/></clipPath><g clip-path="url(#B)"><path d="m66.2562 1.12603c-7.9756 1.92645-25.4086 6.17279-25.4086 6.17279l-.6369.14924v1.62799s0 .66476-.457 1.12605c-.3184.3256-.8169.4884-1.4677.5019h-1.8001l-.54-.0678c-.6369-.0814-.6508-.2171-.6785-.4477v-.0136-.1356l-.0138-1.11249-.0277-1.91289v-.29846l-.0139-1.18029.0139.01356-.0139-1.95359-.0138-.82756-.0139-.01356c.2077-.29847.3324-.6512.3324-1.00393 0-.963228-.8031-1.75009-1.7863-1.75009-.9831 0-1.7862.786862-1.7862 1.75009 0 .3663.1108.71903.3324 1.00393l-.0139.01356-.0415 2.78115.0138-.01356-.0138 1.18029-.0139 1.11246-.0138 1.11246-.0139 1.11242v.2171c0 .0136-.0138.0678-.0138.0678-.0277.1221-.0969.2578-.6647.3256l-.54.0679h-1.8554c-1.8001-.0272-1.9386-1.26172-1.9386-1.62802v-1.62799l-.6369-.14923s-17.43295-4.23278-25.39477-6.1728l-1.13543-.312032.138467 1.166722c.04154.407.235393.86827.969263 1.43806l.05539.8547c.04154.69189.44309 4.01571 3.72475 5.3995l-1.06619-.25777.27693 1.27526c.02769.1085.55387 2.3877 3.06011 3.6765l-.56771-.0678.66464 1.3431c.06923.1357 1.66159 3.2696 4.92945 3.4866l.0276.1628c.0277.1899.3878 1.8315 3.3786 2.2521.5954.0814 1.9109.1085 2.0632.1085h2.3401c-.0416.1357-.0831.2713-.1662.5155l-.1938.5834c-.0554.1628-.637 1.8722-.6785 2.0078-.1939.5834-.277.814-.4847 1.3838l-.1107.2985c-.0831-.0136-.18-.0136-.277-.0136-.6369 0-1.2046.1764-1.6893.5427-.3184.2306-.7615.6512-1.0662 1.3431-.3184.719-.2492 1.2346-.0969 1.6009l-.6508.2442-.1384.2849c-.0416.0814-.0693.1492-.1108.2306-.0277.0678-.0692.1356-.0969.2035-.0693.1356-.1385.2849-.2216.4205l-.1661.3121.0553.2849.0139.0542.0692.3528.3046.1899c.4431.2713.9832.3256 1.357.3256.8031 0 1.4678-.2171 2.0493-.6648.0139-.0135.0277-.0271.0416-.0407.0277.0407.0692.0814.0969.1086.5539.5698 1.3985.5698 1.6893.5698.2769 0 1.0108 0 1.717-.4477l.2354.3934.5677-.0271c.3738-.0136.54-.0136.8169-.0136h.36.3462l.2492-.2306.2354-.2171.0554-.2578c.0554-.2984.0969-.4748.18-.7868.1662-.0272.3462-.0543.5401-.1221-.0416.217-.0831.407-.1247.6105l-.0692.3256.18.2849.2769.4341.4847-.0271c.4015-.0136.4846-.0136 1.1492-.0136h1.4539l.2354-.0136.0416.0407.3877-.0135c.5954-.0136.6646-.0136 1.2462-.0136-.0277 1.4381-.0554 2.5505-.0831 3.5816v.0949l.0138.0814.0277.1086.0277.0678c.3462.909 2.3678 1.3024 3.6971 1.3024h.0138.0139c.8723-.0271 2.5755-.2578 3.4478-.9768l.2908-.2442v-.3799c0-.0271-.0277-.8682-.0277-.8682-.0277-.8276-.0554-1.6551-.0831-2.7405l.2216-.0135c.3738-.0136.54-.0136.8446-.0136h.2492l.0277.0271.3185-.0135c.4708-.0136.637-.0136 1.1354-.0136h.3877l.277-.312.1384-.1493.0554.1357.4708.3392.7893-.0136c.2077 0 .3738-.0136.6369-.0136l.0554.0407.3185-.0135c.4708-.0136.5123-.0136.9969-.0136l.3739-.0136.2492-.2713.1108-.1221c.0277.0271.1523.1764.1523.1764l.1246.0814.2354.1763.2908-.0135c.4708-.0136.5539-.0136 1.0385-.0136l.4431-.0136.1523-.2306.1246.095.2354.1763.2908-.0135c.5677-.0136.6646-.0136 1.2601-.0136h.3738l.2216-.2442.0277.0136.1384.0542c.4154.1628.9139.2578 1.3985.2578.9554 0 1.5924-.3256 1.8832-.9632.1523-.3392.2631-.8954-.097-1.6823-.263-.5833-.6092-.9496-1.0246-1.2345l.1938-.095-.2769-.6919-.18-.4477c-.0554-.1221-.0969-.2578-.1523-.3799l-.0969-.2442-.1246-.1221-.1662-.1628-.1662-.0678c-.18-.0814-.6508-.2713-1.3292-.2713-.4154 0-.7339.0814-.9832.2035l.0139-.0272-.0277-.2849c-.0139-.2713-.0554-.6512-.0831-.9768l-.0277-.2984c-.0415-.3799-.0831-.7597-.1246-1.1396-.0554-.5834-.1662-1.4516-.2354-1.9943-.0138-.095-.0138-.1764-.0277-.2713h1.0247c.1523 0 1.4539-.0272 2.0493-.1086 2.9908-.4205 3.3509-2.0621 3.3786-2.252l.0276-.1492h.0554c3.3509-.1221 5.0125-3.351 5.0818-3.5002l.6646-1.3431-.5677.0678c2.5062-1.2888 3.0324-3.568 3.0601-3.6765l.2769-1.27529-1.08.25777c3.2816-1.3838 3.6832-4.70761 3.7247-5.39951l.0554-.86826c.7339-.56979.9277-1.03106.9693-1.43806l.1385-1.166721z" fill="#fff"/><path d="m30.9054 32.7221c-.0277 1.6416-.0554 2.7404-.0831 3.6494 0 .0136 0 .0271.0139.0407.1107.2849 1.3708.7869 2.9078.7869.9415-.0272 2.3124-.2714 2.9216-.7869 0-.0136 0-.0271 0-.0407-.0415-1.1532-.0692-2.1571-.1108-3.6494-.9277-.0271-1.8554-.0407-2.8108-.0407s-1.9109.0136-2.8386.0407z" fill="#0156e1"/><path d="m33.6743 35.6657c-.7338 0-1.4539-.0814-2.1462-.2306 0 .1899-.0138.3663-.0138.5426.3461.1628 1.1769.4206 2.2154.4206.8308-.0271 1.7308-.2171 2.2293-.4613 0-.1628-.0138-.3391-.0138-.5155-.7339.1492-1.4816.2442-2.2709.2442z" fill="#4089f2"/><path d="m38.8817 16.2251 23.6224-5.6573s-.5816 2.6319-3.7524 3.568c-9.7342 1.6551-18.4715 2.9168-19.9808 3.1203z" fill="url(#b)"/><path d="m39.0342 14.7334c1.4539-.2035 4.2233-.9225 5.6218-3.568 11.2989-3.41879 13.3482-4.06999 13.5559-4.13782.2354-.06784 2.2154-.63763 4.2647-1.42449 1.2739-.4884 2.2293-.9361 2.9355-1.32953-.0415.5698-.4154 3.98858-3.974 4.96537-3.7247 1.03107-21.13 5.99647-22.5008 6.38987z" fill="url(#d)"/><path d="m41.0553 8.08613v.96323s.0692 2.44194-2.7555 2.46914c-.9 0-1.4262 0-1.7447 0l.1385 7.0682h.9l.4985-4.8026s4.2925.0271 5.8156-3.4731c12.3651-3.73076 13.999-4.27343 13.999-4.27343s8.3495-2.37415 8.5433-4.1378c-7.9618 1.95358-25.3947 6.18636-25.3947 6.18636z" fill="url(#f)"/><path d="m38.729 17.6632 20.673-2.3334s-1.4677 2.9303-4.3617 3.0389c-3.4201.0542-13.7635.1899-16.4083.2306z" fill="url(#h)"/><path d="m49.5433 19.1289c-2.8385-.0543-8.4741.0271-12.8912.0136l.0415 1.7365h12.8636s1.3846-.0272 1.9524-.1086c2.4647-.3391 2.6724-1.5737 2.6724-1.5737z" fill="url(#j)"/><path d="m28.5376 16.2255-23.62241-5.6709s.58156 2.6319 3.7386 3.568c9.74801 1.6687 18.48531 2.9169 19.98071 3.1339z" fill="url(#k)"/><path d="m28.4691 15.6013c-1.3708-.3935-18.77604-5.3588-22.50079-6.3899-3.55859-.97679-3.93245-4.39557-3.97399-4.96537.70618.407 1.6616.84113 2.93549 1.32953 2.04931.80043 4.04323 1.38379 4.27862 1.43806.22155.06783 2.27087.71902 13.56977 4.13778 1.3985 2.6455 4.1678 3.3645 5.6217 3.568z" fill="url(#l)"/><path d="m.969635 1.91293c.207695 1.76366 8.543385 4.13781 8.543385 4.13781s1.63388.5291 13.99898 4.27346c1.537 3.5002 5.8156 3.4731 5.8156 3.4731l.4985 4.8025h.9l.1385-7.0682c-.3047 0-.8308 0-1.7447 0-2.8247-.0271-2.7555-2.46908-2.7555-2.46908v-.96323c0-.01356-17.43294-4.24634-25.394765-6.18636z" fill="url(#m)"/><path d="m28.7729 18.5857c-2.6447-.0407-12.9881-.1628-16.4082-.2306-2.89399-.095-4.34788-3.0253-4.34788-3.0253l20.67308 2.3334z" fill="url(#n)"/><path d="m30.6847 20.8791h-13.0297s-1.3847-.0271-1.9524-.1085c-2.4647-.3392-2.6724-1.5738-2.6724-1.5738l4.6248-.0678c2.8801-.0543 8.6126.0271 13.0574.0136z" fill="url(#o)"/><path d="m33.0941 2.442c-.1939-.17637-.3185-.42056-.3185-.6919 0-.51553.4292-.936089.9554-.936089s.9554.420559.9554.936089c0 .27134-.1246.51553-.3184.6919-.2216-.2035-.4293-.42056-.637-.62406-.2077.21706-.4154.42056-.6369.62406zm.6508 1.70939c.2077.2035.4292.42056.6508.62406 0-.1628 0-.3256 0-.48839-.2216-.2035-.4293-.407-.637-.62407-.2077.2035-.4292.42057-.6508.62407v.48839c.2077-.2035.4154-.42056.637-.62406zm-.6647 1.75009c.2216-.2035.4431-.42056.6647-.62406.2215.2035.4431.42056.6646.62406 0-.14923 0-.29847 0-.4477-.2215-.2035-.4431-.407-.6508-.62406-.2215.2035-.4292.42056-.6508.62406-.0277.14923-.0277.29847-.0277.4477zm.6647-2.91682c.2077.2035.4292.42057.6508.62407 0-.1628 0-.3256 0-.4884-.2216-.2035-.4293-.42056-.637-.62406-.2077.2035-.4292.42056-.6508.62406v.4884c.2077-.2035.4154-.42057.637-.62407zm2.34 17.89434c-.0692-2.3742-.1523-7.0411-.2215-9.4152-1.1077-.1357-1.3431-.6241-1.4124-1.1667 0 0 0 0-.0138 0 0-.1086 0-.2171 0-.32565-.2354-.2035-.4708-.40699-.6923-.62406-.2354.2035-.4708.42056-.7062.62406v.32565c0 .0542-.0139.0949-.0277.1492.2492-.2171.4846-.4341.7339-.65121.2354.21711.4846.43411.7338.65121 0 .3934.0139.7868.0139 1.1803v.0678c0 .3527-.3323.6376-.7477.6376s-.7478-.2849-.7478-.6376c0-.0271 0-.0543 0-.0678 0-.3935.0139-.7869.0139-1.1803-.0969.4748-.3877.8954-1.3847 1.0039-.0831 2.3742-.1523 7.0411-.2354 9.4152h4.694zm-3.0324-11.58588c.2354-.20349.4708-.42056.6924-.62406.2354.2035.4569.42057.6923.62406 0-.14923 0-.29846 0-.44769-.2354-.2035-.4569-.407-.6923-.62407-.2216.2035-.457.42057-.6924.62407zm.0139-2.26562c.2215-.20349.4569-.42056.6785-.62406.2215.2035.4431.42057.6646.62406 0-.14923 0-.29846 0-.44769-.2215-.2035-.4431-.407-.6646-.62406-.2216.20349-.4431.42056-.6647.62406-.0138.14923-.0138.29846-.0138.44769zm-.0139 1.1396c.2354-.2035.457-.42057.6785-.62406.2216.20349.457.42056.6785.62406 0-.14923 0-.29847 0-.4477-.2215-.2035-.4569-.407-.6785-.62406-.2215.2035-.4431.42056-.6785.62406.0139.13567.0139.2849 0 .4477z" fill="#0156e1"/><path d="m34.7146 15.6282c.0969 0 .18 0 .2769.0136.0415.0543.0831.095.1246.1492-.0969-.0135-.2077-.0135-.3046-.0135-1.1493 0-2.1324.719-2.5062 1.7229.2492-1.0717 1.2323-1.8722 2.4093-1.8722zm0-.1763h.0554c-.0554-.0407-.1108-.0814-.18-.1221-1.2324 0-2.2432.8682-2.4509 2.0214.3323-1.0989 1.357-1.8993 2.5755-1.8993z" fill="#f18700"/><path d="m34.2434 15.1807c-.5816-.1764-1.2324-.0407-1.7032.407-.3877.3798-.5538.8954-.4984 1.3973.3184-.9632 1.1769-1.6687 2.2016-1.8043z" fill="#e30613"/><path d="m35.2537 15.9941c-.1385-.0271-.2908-.0407-.4431-.0407-1.1631 0-2.1324.7869-2.4093 1.8315.0415.0543.0831.095.1246.1493.6646.6512 1.7308.6647 2.4093.0135.54-.5155.6508-1.3159.3185-1.9536z" fill="#e30613"/><path d="m18.471 28.4904c-.0969-.1357-.2215-.2985-.5538-.2985-.2354 0-.4708.1357-.5678.3663-.0969.2171 0 .3663.2077.5698.3877.407.6647.6648.3877 1.3838-.1661.4342-.4569.7869-.7615 1.0175-.5262.407-1.0524.4884-1.5232.4884-.36 0-.6923-.0678-.9138-.2035 0-.0135-.0139-.0407-.0139-.0542.0831-.1628.18-.3392.2631-.502.0692-.1357.1385-.2849.2077-.4206.0139 0 .0415-.0135.0554-.0135.0554.0814.2215.2849.6646.2849.457 0 .6647-.3528.6924-.4477.0969-.2307-.0277-.3663-.1939-.5427-.0554-.0543-.1246-.1221-.18-.1764-.1938-.217-.4708-.5291-.1246-1.2617.2077-.4612.5123-.8004.8031-1.0175.36-.2577.7477-.3798 1.1908-.3798.5123 0 .7477.1492.8308.217v.0407c-.0692.1628-.1523.3256-.2215.4884-.0693.1493-.1247.2985-.1939.4477-.0277 0-.0415.0136-.0554.0136zm4.1125-1.126c-.3739.0135-.4847.0135-.9693.0135-.0138.0136-.0277.0272-.0415.0407-.097.2985-.1108.3663-.1939.6241-.2215.6783-.4431 1.4109-.6785 2.0893-.1523.4612-.3046.9496-.7477.9496-.0831 0-.2077-.0135-.2769-.1492-.0831-.1764 0-.4206.1938-1.0039.2908-.8412.5816-1.6959.8862-2.537 0-.0136-.0138-.0271-.0138-.0407-.5539.0136-.6785.0136-1.177.0136-.0138.0135-.0277.0271-.0415.0407-.1247.3798-.2216.6376-.3877 1.0989-.2354.624-.2631.6919-.4154 1.1396-.0277.0949-.0693.1763-.097.2713-.2215.5969-.3323.8954-.3461 1.1532-.0554.9361.9831.936 1.2739.936.2769 0 1.0246.0001 1.6062-.5697.3461-.3528.4431-.6648.6923-1.4788.0277-.1085.0692-.2171.0969-.312.4293-1.4245.5262-1.7501.6785-2.2521-.0277 0-.0415-.0136-.0415-.0271zm3.1432 1.4787c-.0554.2442-.2077 1.0582-.9831 1.4517-.3878.1899-.7478.1899-1.1216.1899-.1939.7869-.2493.9632-.3323 1.4245-.0139.0136-.0277.0271-.0416.0407-.5815 0-.72 0-1.2739.0136-.0138-.0136-.0138-.0272-.0277-.0407.4431-1.5195.6508-2.225 1.0385-3.6359.097-.3527.1523-.5698.2216-.8547.0138-.0136.0277-.0271.0415-.0407.2493 0 .3185 0 1.0247-.0136h.2354c.4984-.0135 1.5092-.0135 1.2185 1.4652zm-1.4262-.5833c-.0416 0-.0554 0-.1385 0-.1108.4205-.2077.8547-.3046 1.2752.1107 0 .2077 0 .3046-.0407.2492-.1221.36-.4612.4154-.6919.0554-.2984.0277-.5426-.2769-.5426zm3.9601 1.7501c.0692-.3528.0831-.4884.1523-.8412-.0138-.0135-.0138-.0271-.0277-.0407-.2769.0136-.7754.0272-1.1354.0272.0554-.3663.0692-.4477.1385-.8412h.4708.6784c.0139-.0135.0277-.0271.0416-.0407.0554-.3256.0692-.4477.1523-.8682-.0139-.0136-.0139-.0272-.0277-.0407-.2908 0-.4016 0-1.357.0135-.6508 0-.72 0-.9692 0-.0139.0136-.0277.0272-.0416.0407-.1108.7733-.2631 1.628-.4292 2.442-.1939 1.0311-.3047 1.5738-.4154 2.0486.0138.0136.0138.0271.0277.0407.4154-.0136.5123-.0136 1.1908-.0136h1.4539c.0138-.0135.0277-.0271.0415-.0407.0693-.3934.0831-.5155.1662-.9361-.0139-.0135-.0277-.0271-.0277-.0407-.3877.0272-1.0662.0407-1.3708.0407.0415-.312.0969-.624.1523-.9361h1.1077c0 .0136.0139 0 .0277-.0135zm3.9463 1.845c-.0138.0136-.0138.0272-.0277.0407-.6092.0136-.7616.0272-1.3431.0543-.0139-.0136-.0277-.0271-.0416-.0407-.0277-.0678-.0415-.1357-.0553-.2171-.0831-.3256-.1662-.6647-.2354-.9903-.0416-.1628-.0693-.3121-.1108-.4749-.0692 0-.1108 0-.18 0-.0693.8005-.0831 1.0718-.0969 1.6552-.0139.0135-.0277.0271-.0416.0407-.5954 0-.6646 0-1.2739.0135-.0138-.0135-.0277-.0271-.0415-.0407.0415-.312.2354-1.8722.2769-2.2249.0416-.407.1662-1.6009.2077-2.2792.0139-.0136.0139-.0271.0277-.0407.2077 0 1.1908-.0136 1.4262-.0136.3323 0 .6785.0136.9139.1628.4569.2714.4708.9226.4569 1.2075-.0277.7868-.4154 1.0717-.6092 1.2074.0692.2171.1523.4341.2215.6512.1246.312.277.7869.5262 1.2888zm-1.3708-3.4052c-.0416-.095-.0969-.1764-.277-.1764-.0553 0-.1246 0-.18.0136-.0277.2985-.083.8004-.1107 1.0989.1384.0136.2215-.0136.2492-.0136.2908-.0949.3462-.407.3462-.5833.0138-.095.0138-.2307-.0277-.3392zm5.8571 1.1667c-.5262.0272-.6231.0272-1.1631.0136-.0138.0136-.0138.0271-.0277.0407.0139.1492.0415.3527.0554.8004v.4613c-.0415.0136-.0969.0407-.2077.0407-.6508 0-.6785-.9225-.6923-1.2481 0-.4342.0553-1.4245.9831-1.4245.2492 0 .5261.0814.7615.2984.0139-.0135.0277-.0135.0416-.0271 0-.1492.0138-.312.0138-.4748 0-.1764.0139-.3663.0139-.5427-.0139-.0136-.0139-.0271-.0139-.0407-.3323-.1764-.7477-.2442-1.08-.2442-.3739 0-.9554.0543-1.4262.6241-.3046.3798-.5539.9903-.5816 1.8179-.0138.5562.0831 1.1125.36 1.5059.4985.7462 1.3155.7868 1.7447.7868.4708 0 .9277-.0678 1.357-.217.0138-.0136.0138-.0271.0277-.0407-.0277-.4748-.0554-.814-.0831-1.2617-.0277-.4613-.0277-.6512-.0277-.8411-.0415 0-.0554-.0136-.0554-.0272zm2.1739 2.2928c-.1246-.8818-.2215-1.7637-.3184-2.6455-.097-.9632-.1385-1.5059-.1662-1.8586-.0138-.0136-.0277-.0272-.0415-.0407-.5401.0271-.6647.0271-1.177.0135-.0138.0136-.0277.0272-.0277.0407.0554.4613.0969.9226.1523 1.723.0693.9361.1246 1.8586.18 2.7947.0139.0136.0277.0272.0416.0272.5538-.0136.7062-.0272 1.3292-.0136.0139-.0271.0139-.0271.0277-.0407zm4.2094-.0271c-.0138.0135-.0138.0271-.0277.0407-.5538 0-.6785.0135-1.2877.0271-.0139-.0136-.0277-.0271-.0415-.0271-.1524-.4342-.2493-.6919-.4016-1.0989-.3462 0-.6785 0-1.0247 0-.0415.3663-.0692.719-.083 1.0853-.0139.0136-.0277.0271-.0277.0407-.5124 0-.6924 0-1.1631.0136-.0139-.0136-.0277-.0272-.0416-.0272.0831-.407.0969-.5155.2077-1.2617.0554-.3663.1108-.719.1523-1.0853.0554-.3256.097-.6512.1385-.9768.0277-.1628.1108-1.0039.1385-1.1939.0138-.0135.0138-.0271.0277-.0271.7061 0 .8169 0 1.3985-.0136.0138.0136.0277.0272.0415.0407.0277.0814.0692.1628.1108.2578.4569 1.1125.4985 1.1939.8031 1.8722.1661.3799.3323.7597.4985 1.1396.1107.2578.2907.6648.4154.909.0415.0135.1384.2442.1661.2849zm-2.0908-1.9808c-.0831-.2442-.1662-.4884-.2493-.719-.1661-.4748-.1938-.5969-.3046-.9497 0 .3392-.0138.4477-.0415 1.004-.0139.2306-.0416.4477-.0554.6783.2077 0 .4292 0 .6508-.0136zm3.6693.7326c.4293.502.6508.7598 1.0939 1.2889.0139.0135.0416.0271.0554.0407.4985-.0136.5816-.0136 1.0662-.0136.0139-.0136.0139-.0271.0277-.0407-.1108-.3663-.2631-.814-.5123-1.6687-.1385-.4477-.7062-2.4284-.8308-2.8219-.0139-.0135-.0277-.0271-.0416-.0407-.2907 0-.4569.0136-.8862.0136-.0138.0136-.0138.0271-.0276.0407.0692.1899.3046 1.0175.36 1.1939.1107.3663.2215.7326.3184 1.0853-.2907-.3256-.5677-.6376-.8446-.9632-.6785-.814-.8031-.9633-1.0662-1.3431-.0138-.0136-.0415-.0272-.0554-.0272-.4569.0136-.5954.0136-1.0523.0136-.0139.0136-.0139.0271-.0277.0407.0969.407.1938.8004.2769 1.2074s.36 1.6552.457 2.1436c.1107.5155.1661.8275.2353 1.1531.0139.0136.0277.0272.0416.0407.4985-.0135.5262-.0135 1.0246-.0135.0139-.0136.0277-.0272.0416-.0407-.1939-.7055-.2216-.7462-.4154-1.5195-.0831-.312-.18-.6241-.2631-.9361.3462.3663.6785.7597 1.0246 1.1667zm4.7633 1.2753c-.3185-.8004-.6646-1.7501-.9554-2.5641-.1662-.4613-.277-.7733-.36-1.0311.2769 0 .3877 0 .8031.0136.0138-.0136.0138-.0271.0277-.0407-.1385-.407-.1662-.502-.2908-.8818-.0139-.0136-.0277-.0272-.0416-.0407-.1661 0-.4431 0-.6508.0135-.2215 0-.4292 0-.6507 0-.4847 0-.9555 0-1.4401 0-.0138.0136-.0138.0272-.0277.0407.1108.407.1523.5291.2354.8819.0139.0135.0277.0271.0415.0407.1108 0 .2354 0 .3601-.0136.1523 0 .3046 0 .4569-.0136.0554.1493.9554 2.944 1.1354 3.6088.0139.0135.0277.0271.0416.0271.5815-.0136.6923-.0136 1.2877-.0136.0138-.0135.0138-.0135.0277-.0271zm2.0493-3.4324c-.0554-.1492-.1246-.2984-.18-.4477-.0692-.1628-.1246-.3256-.18-.4884-.0139-.0135-.0277-.0271-.0416-.0407-.1384-.0542-.4984-.217-1.0108-.217-.4431 0-.7338.1221-.8723.3798-.1108.2171-.1246.5563.0415 1.0175.277.7462.8031 1.0447 1.177 1.2617.1108.0543.2216.1221.3323.1764.3185.1764.5539.312.6508.5427.0416.0949.1385.4477-.3323.4477-.4431 0-.7893-.2171-.9-.2849-.0139 0-.0277.0135-.0416.0135.0416.1493.097.2849.1523.4206.0554.1628.1108.3392.1662.502.0138.0135.0415.0407.0554.0542.3323.1357.72.2035 1.08.2035.4708 0 .9416-.0814 1.1216-.4884.1108-.2306.0969-.5833-.0969-1.0175-.3185-.719-.8031-.9768-1.5508-1.3838-.3878-.2035-.5955-.3527-.6924-.5698-.0969-.2306.0277-.3663.2631-.3663.3323 0 .5954.1628.8031.2985.0277 0 .0416-.0136.0554-.0136z" fill="url(#q)"/><path d="m22.1689 21.6795c-.0277.0949-.0554.1763-.0969.2713-.1246.3527-.6646 2.1299-.8031 2.5234-.0554.1763-.1108.3391-.1662.5155-.0277.095-.0831.2578-.1384.4613.4292 0 .8585-.0136 1.2877-.0407.0138.0135.0138.0271.0277.0407-.1523.4205-.1939.5426-.3323.9768-.0139.0135-.0416.0271-.0554.0407-.637 0-1.2878 0-1.9247 0-.2354 0-.4015.0135-.7062.0135-.0138-.0135-.0138-.0271-.0277-.0407.1939-.5698.277-.8004.4847-1.3838.0969-.2849.5677-1.6958.6784-2.0078.0693-.1899.1247-.3799.1939-.5834.1246-.3798.1662-.5019.2492-.7733.0139-.0135.0277-.0271.0554-.0407.5954 0 .7616 0 1.2185-.0271.0416.0271.0554.0407.0554.0543zm4.6387 0c-.1108.5426-.1801.8682-.4847 2.3741-.0277.1085-.0415.2171-.0692.3392-.1662.8547-.2354 1.1938-.5677 1.5601-.54.6105-1.3293.6105-1.6339.6105-.3047 0-1.4124 0-1.4401-.9903-.0138-.2849.0692-.597.2354-1.221.0277-.095.0554-.19.0831-.2849.1246-.4749.1385-.5427.3185-1.1939.1384-.5019.2077-.7597.3046-1.1667.0138-.0136.0277-.0271.0415-.0407.54 0 .6647 0 1.2462-.0271.0139.0135.0139.0271.0277.0407-.2354.8954-.4431 1.7907-.6646 2.6726-.1523.6105-.2077.8682-.0969 1.0582.0692.1356.2077.1628.3046.1628.4708 0 .5815-.5156.6923-1.004.1662-.719.3323-1.4787.4985-2.2113.0554-.2713.0692-.3392.1385-.6648.0138-.0135.0277-.0271.0415-.0407.4985 0 .6231-.0135 1.0108-.0271 0 .0271.0139.0407.0139.0543zm3.0601 3.5815c-.0693.4613-.097.5563-.1662 1.0989-.0138.0136-.0277.0272-.0277.0407-.2215.095-.5677.1628-1.0246.1628-.4431 0-1.1355-.0407-1.5647-.5969-.3739-.4748-.4016-1.1532-.2769-1.8315.083-.4477.3046-1.3702.9831-2.0078.54-.502 1.08-.5563 1.4954-.5563.1662 0 .6231.0136.9277.19 0 .0135.0139.0271.0277.0407-.0415.2035-.0692.3934-.0969.5833-.0277.1764-.0554.3392-.0831.5156-.0138.0135-.0277.0135-.0415.0135-.097-.0949-.2908-.2849-.637-.2849-.4292 0-.6646.2442-.7754.407-.1661.2171-.3185.5562-.3877 1.0446-.0692.5156 0 .9497.2216 1.1803.1938.2035.4292.2307.6231.2307.3323 0 .54-.095.7615-.2442.0139 0 .0277 0 .0416.0135zm1.8693 1.2075c-.5678-.0136-.7339-.0136-1.357.0271-.0139-.0136-.0139-.0271-.0277-.0407.0554-.4748.1385-1.2346.2215-2.1164.0277-.3392.1524-1.8043.1939-2.6319.0138-.0136.0277-.0271.0277-.0407.54 0 .6923 0 1.2046-.0271.0139.0135.0139.0271.0277.0407 0 .0814-.0692 1.0446-.083 1.1803-.0277.2984-.0416.5833-.0693.8818.277-.4884.5262-.9768.7893-1.4652.1523-.2849.1661-.3392.2631-.5834.0138-.0135.0277-.0271.0415-.0407.5539-.0135.637-.0135 1.1493-.0271 0 .0136.0138.0271.0138.0407-.2354.3799-.3184.5291-.5123.8683-.2077.3663-.4292.7325-.6646 1.0853.1523.3663.3046.719.4707 1.0853.1385.312.3739.8004.5124 1.0989.0969.1899.1938.3799.3046.5698 0 .0136-.0138.0271-.0138.0407-.7339.0271-.9693.0271-1.5093.0678-.0139-.0135-.0277-.0271-.0416-.0407-.0277-.0542-.0415-.1221-.0692-.1763-.2215-.6512-.2492-.7326-.4016-1.1396-.1246-.3121-.2492-.6241-.36-.9361-.0692 1.3702-.083 1.6822-.083 2.2249 0 .0271-.0139.0407-.0277.0543zm3.8078-2.632c.0277.3256.0415.6648.0692.9904.0416.814.0554.8547.1108 1.6009-.0139.0135-.0277.0271-.0415.0407-.5262 0-.5678 0-1.0939.0271-.0139-.0136-.0277-.0271-.0416-.0407 0-.3527.0139-.6783 0-1.221 0-.5155-.0277-1.8451-.0277-2.2656-.0138-.4206-.0277-.8411-.0415-1.2617.0138-.0136.0277-.0271.0415-.0407.4847 0 .6231 0 1.1078-.0271.0138.0135.0277.0271.0554.0271.2077.407.2907.5562.8446 1.4109.2215.3392.4569.6783.6785 1.0175-.0416-.3799-.0692-.7733-.1108-1.1531-.0138-.1764-.0969-1.0582-.1246-1.2482.0138-.0135.0277-.0271.0277-.0407.4431-.0135.6231-.0135.9277-.0271.0139.0136.0277.0271.0416.0407.0415.4206.2215 2.5098.263 2.9846.0831.8954.1385 1.3838.18 1.7637-.0138.0136-.0276.0271-.0415.0407-.5123 0-.6092 0-1.1354.0271-.0139-.0135-.0277-.0271-.0554-.0407-.36-.5698-.54-.8411-.8862-1.3566-.2354-.4206-.4985-.8412-.7477-1.2482zm6.0233-1.75c.6646.624.8862 1.6551.9554 2.0078.0554.2985.0969.5969.0969.8954 0 .3256-.0692.6241-.2215.8818-.4016.6648-1.2047.6784-1.4262.6784-.2216 0-1.0108-.0136-1.6062-.6648-.3047-.3392-.5816-.8954-.6647-1.7772-.0415-.3799-.1246-1.3974.3462-2.0214.3739-.502.9139-.5427 1.1908-.5427.2077.0136.7893.0271 1.3293.5427zm-.6785.9225c-.0415-.095-.2077-.4613-.5262-.4613-.0969 0-.1938.0543-.2631.1221-.1107.1357-.1661.3799-.1384.8411.0138.1628.0277.3663.0554.5834.0277.1899.0553.3663.0969.5427.0415.2035.1523.624.4015.814.0831.0678.1939.1085.2908.1085s.1939-.0407.2493-.1085c.18-.1764.1661-.5698.1523-.814-.0139-.19-.0416-.3663-.0693-.5563 0-.1221-.1107-.7326-.2492-1.0717zm4.4032.3934c.0277.2171.0416.4341.0693.6512.083.8004.1661 1.5873.2215 2.3877-.0138.0136-.0277.0272-.0415.0407-.1939-.0135-.3877-.0135-.5816-.0135-.3046 0-.54 0-.9416.0271-.0138-.0136-.0277-.0271-.0553-.0407-.0277-.095-.0693-.1764-.1108-.2578-.2077-.5019-.2354-.5562-.4293-1.0446-.1523-.3663-.3046-.7462-.4431-1.1125-.1246-.312-.2492-.624-.3738-.936-.36-.8954-.4016-1.004-.5539-1.3838.0139-.0136.0139-.0272.0277-.0407.54-.0136.637-.0136 1.177-.0543.0138.0136.0277.0271.0415.0407.1523.4477.36.9904.5539 1.4923.1938.5155.3877 1.0446.5954 1.5737.0554.1628.1246.3121.18.4749-.0139-.1493-.0139-.2985-.0277-.4613-.1246-1.3702-.1385-1.6144-.3046-3.0389.0138-.0136.0138-.0271.0277-.0407.6092 0 .7338-.0136 1.2739-.0271.0138.0135.0277.0271.0415.0407.6646 1.5601.7616 1.7907 1.2877 2.9439.0831.1899.1662.3663.2493.5562-.1108-.6376-.1523-.9089-.2908-1.9536-.1246-.9089-.1523-1.0581-.2492-1.5194.0138-.0136.0138-.0271.0277-.0407.4569-.0136.5538-.0136 1.0108-.0271.0138.0135.0277.0271.0415.0407.0138.1221.0277.2442.0415.3663.0831.5562.18 1.438.2354 1.9942.0416.3799.0831.7598.1246 1.1396.0277.3528.0831.909.1108 1.2482-.0138.0135-.0138.0271-.0277.0407-.2077-.0136-.4015-.0136-.5954-.0136-.2908 0-.5538 0-.9554.0271-.0138-.0135-.0415-.0271-.0554-.0407-.0831-.1763-.4292-1.0446-.5123-1.2481-.1246-.2985-.2492-.5834-.3739-.8683-.1523-.2984-.2907-.6105-.4154-.9225z" fill="url(#r)"/><path d="m28.3439 23.1718c-.4015.0271-.7892.0678-1.1769.1085-.1247.3121-.1939.6241-.2493.8819-.1384.7597-.0554 1.3431.2493 1.7229.3738.4749.9554.5427 1.4677.5427.3739 0 .7062-.0543.9277-.1357.0554-.3934.0693-.5426.1108-.8004-.1662.0814-.36.1357-.6231.1357-.1939 0-.4846-.0272-.72-.2714-.2493-.2577-.3323-.7326-.2493-1.3024.0416-.407.1524-.6919.2631-.8818z" fill="url(#t)"/><path d="m24.2043 23.6471c-.36.0542-.7338.1221-1.08.1763-.0139.0814-.0416.1628-.0692.2713l-.0831.2849c-.18.6377-.2493.9226-.2354 1.1803.0277.5834.4431.8547 1.3016.8547.2769 0 1.0246 0 1.5231-.5562.3046-.3392.3739-.6512.54-1.4923l.0693-.3392.1384-.6647c-.2769.0271-.5677.0678-.8446.1085-.0831.3798-.1662.7597-.2631 1.126-.1108.4884-.2354 1.1125-.8308 1.1125-.2493 0-.36-.1221-.4154-.2307-.1385-.2442-.0554-.5426.0831-1.1531.0692-.2307.1107-.4613.1661-.6783z" fill="url(#u)"/><path d="m47.2725 25.1529-.2631.0814c-.0831-.1899-.1662-.3663-.2492-.5562l-.1247-.2849c-.0138-.0271-.0138-.0407-.0277-.0678-.2907-.0678-.5815-.1357-.8723-.1899.0277.0407.0415.0949.0554.1356l.0415.095c.1108.2578.2216.5155.3324.7733.083.217.4015.9632.4984 1.1938.36-.0135.6093-.0271.9001-.0271h.4846c-.0138-.2442-.0554-.5562-.0831-.8276l-.0277-.312c-.0138-.1764-.0415-.3527-.0554-.5427-.2354-.0678-.4846-.122-.72-.1899.0416.2442.0692.4477.1108.719z" fill="url(#v)"/><path d="m19.9812 26.3329h1.8693c.1108-.3392.1523-.4749.2631-.7869-.3738.0271-.7615.0271-1.1354.0271h-.18l.0415-.1763c.0554-.2035.097-.3528.1385-.4613.0277-.095.0554-.1764.0831-.2713.0277-.0814.0554-.1628.0831-.2442.0138-.0543.0415-.1357.0692-.2307-.3877.0814-.7616.1628-1.1354.2578-.097.2849-.18.5427-.2216.6376-.18.5291-.2631.7733-.4292 1.2482h.0692c.1662.0135.3046 0 .4846 0z" fill="url(#w)"/><path d="m34.0493 26.3061c-.0692-.1357-.1523-.2849-.2215-.4206-.1385-.2984-.3739-.7868-.5123-1.1124-.1662-.3663-.3185-.7326-.4708-1.0854l-.0277-.0678.0415-.0543c.1247-.2035.2493-.407.3739-.6105-.2631 0-.5262 0-.7754.0136-.1523.2849-.3046.5562-.457.8411l-.263-.0814.0553-.7461c-.3323.0135-.6646.0271-.9831.0407-.0415.5698-.0831 1.0989-.1107 1.3295-.0554.6783-.1247 1.2888-.1801 1.7365-.0138.095-.0138.1899-.0276.2713.3323-.0135.5261-.0135.7615-.0135h.3739c0-.4748.0138-.8411.0831-2.13l.263-.0407c.1108.3121.2354.6241.3601.9361.0969.2714.1384.3935.2354.6512.0415.1221.0969.2714.1661.4748.0139.0272.0277.0679.0416.095 0 .0136.0138.0271.0138.0407.3739-.0136.6231-.0271 1.0385-.0407z" fill="url(#x)"/><path d="m43.1046 23.9857c.1524.3663.2908.7462.4431 1.1125.0554.1356.097.2442.1385.3256.0969.2306.1385.3527.2908.719.0138.0407.0277.0814.0554.1221.0138.0271.0277.0543.0277.0814.36-.0136.5815-.0271.8861-.0271h.4708c-.0692-.8005-.1523-1.5873-.2215-2.2792 0-.0136 0-.0136 0-.0272-.18-.0407-.3739-.0678-.5539-.1085.0139.2306.0416.4884.0693.8004.0138.1493.0138.2985.0276.4613l-.263.0543c-.0554-.1628-.1247-.3121-.18-.4749-.0693-.1899-.1385-.3798-.2216-.5698-.0554-.1356-.0969-.2577-.1523-.3934-.3185-.0543-.6369-.1085-.9693-.1628.0554.1357.097.2442.1523.3663z" fill="url(#y)"/><path d="m38.7842 23.1586c-.0277.2849-.0277.6105.0139.9497.0692.7326.2907 1.316.6369 1.6958.3739.407.8862.6105 1.5093.6105s1.0662-.2035 1.3154-.6105c.1247-.217.1939-.4884.2077-.814.0139-.2577-.0277-.5291-.083-.8682-.0416-.2035-.0831-.407-.1524-.597-.36-.0542-.72-.0949-1.08-.1356.0831.3256.1385.6512.1385.6647.0277.2035.0554.3799.0692.5698.0139.3392.0138.7191-.1939.9226-.0969.0949-.2215.1356-.3461.1356s-.2631-.0542-.3739-.1356c-.2631-.2035-.3877-.5834-.4569-.8954-.0416-.19-.0692-.3663-.0969-.5563-.0277-.217-.0554-.4205-.0693-.5969 0-.095 0-.1764 0-.2578-.3461-.0271-.6923-.0542-1.0385-.0814z" fill="url(#z)"/><path d="m34.6446 22.9683c0 .2035.0138.6241.0138 1.0582 0 .4613.0139.9361.0139 1.1939v1.126c.4015-.0136.4985-.0136.9-.0136l-.0277-.2577c-.0277-.4206-.0415-.5834-.0831-1.2346-.0276-.3256-.0415-.6648-.0692-.9904l.2631-.0814c.2492.407.5262.8276.7893 1.2482l.1107.1628c.277.4205.4431.6919.7616 1.1803.4431-.0136.5677-.0136.9693-.0136l-.0139-.095c-.0415-.3663-.0969-.814-.1661-1.5737-.0277-.2306-.0693-.8276-.1247-1.4381 0-.0407-.0138-.0949-.0138-.1356-.2354-.0136-.4846-.0272-.72-.0407.0277.3391.0692.6919.0969 1.031l-.2492.0814c-.2354-.3391-.4708-.6783-.6924-1.0175-.0277-.0542-.0692-.1085-.0969-.1492-.5677-.0271-1.1077-.0407-1.6616-.0407z" fill="url(#A)"/></g></svg>