<svg fill="none" height="42" viewBox="0 0 39 42" width="39" xmlns="http://www.w3.org/2000/svg" xmlns:xlink="http://www.w3.org/1999/xlink"><linearGradient id="a" gradientUnits="userSpaceOnUse" x1="19.0974" x2="19.0974" y1="2.8649" y2="38.5425"><stop offset=".1263" stop-color="#2561ae"/><stop offset=".2144" stop-color="#255ca7"/><stop offset=".3427" stop-color="#264c93"/><stop offset=".495" stop-color="#283374"/><stop offset=".5437" stop-color="#282968"/></linearGradient><path d="m36.1951 18.6181 1.7777-1.7806c.2183-.2187.2963-.5623.1716-.8434-.1248-.2968-.4055-.4842-.7174-.4842h-2.3079v-3.3113c0-.2812-.1559-.5467-.4054-.6873-3.5398-1.95236-6.7989-3.24875-9.9489-3.95161-.0624-.01562-.1091-.01562-.1715-.01562h-.0156c-.5302-1.64002-1.7777-2.85831-3.5086-3.43622.2183-.23429.2651-.49982.2651-.67163 0-.20305-.078-.656-.655-.96839-.0467-.18743-.1403-.34362-.2963-.45295.0468-.21867 0-.45296-.1403-.62477-.0624-.0781-.1403-.14057-.2183-.20305l-.1715-.624769c-.0936-.328003-.4055-.562291-.7485-.562291-.3431 0-.655.234288-.7486.562291l-.1715.624769c-.078.04686-.1559.12495-.2183.20305-.1403.18743-.1871.4061-.1403.62477-.156.10933-.2495.28114-.2963.45295-.577.31239-.655.74972-.655.96839 0 .15619.0468.45296.3275.7341-1.6529.60915-2.8537 1.81183-3.3683 3.37375-.0156 0-.0156 0-.0312 0-.0623 0-.1091 0-.1715.01562-3.2123.68724-6.47144 1.9524-9.96447 3.87351-.2495.1406-.40544.4061-.40544.6873v3.3894h-2.479419c-.327471 0-.60816.203-.7329113.4998-.109157.2967-.0311877.6404.2027203.859l1.94923 1.7962v5.4199c0 .2968.17153.5779.45222.7029l1.49701.7028c.10916.3436.21832.7029.34307 1.0777.18712.5311.35866.9528.5146 1.3277.34306.8434.77969 1.7025 1.2631 2.5771.93563 1.6557 2.05839 3.2176 3.33708 4.6389 1.21631 1.3745 2.65101 2.6709 4.24151 3.8424.7329.531 1.5126 1.0464 2.3859 1.5775.7797.4686 1.6217.9215 2.5106 1.3432l.1092.0469c.1091.0469.2183.0781.343.0781.1248 0 .2339-.0312.3431-.0781l.1091-.0469c.8733-.4373 1.7154-.8902 2.5106-1.3588.8577-.5311 1.6374-1.0465 2.3703-1.5776.7329-.5466 1.4814-1.1558 2.2143-1.8118.7018-.6248 1.3723-1.312 2.0116-2.0305 1.2787-1.4369 2.4015-2.9989 3.3371-4.6389.4834-.859.9045-1.7181 1.2631-2.5615.2028-.453.3743-.9059.5302-1.3433.1248-.3748.2495-.7341.3587-1.0933l1.5438-.6716c.2807-.125.4678-.4061.4678-.7185v-3.1395c0-.1718-.0468-.328-.1559-.4686.0779-.1249.1091-.2499.1091-.4061z" fill="#fff"/><path d="m31.1916 29.9543c-.9512 1.5776-2.0584 3.0458-3.3059 4.3734s-2.6197 2.5616-4.1012 3.6237c-.7329.531-3.8204 2.2804-4.6001 2.6709-.7797-.3905-7.4695-4.9513-8.7326-6.279-1.24751-1.3432-2.37027-2.8114-3.3059-4.389-.95122-1.5619-1.73092-3.2488-2.32348-4.9981.12475.4373.26509.8903.40544 1.3276.15594.4374.31188.8747.499 1.2964.35866.8591.7641 1.6869 1.21632 2.4991.92004 1.6088 1.99602 3.1238 3.24352 4.5139 1.2319 1.3901 2.6354 2.6241 4.1168 3.733.7485.5467 1.5282 1.0621 2.3235 1.5307s1.6217.9059 2.4482 1.312l.1092.0469.1091-.0469c.8265-.4061 1.653-.8434 2.4483-1.3276.7952-.4842 1.5749-.9996 2.3078-1.5463.7485-.5467 1.4659-1.1402 2.152-1.765.6861-.6247 1.3411-1.2808 1.9492-1.9836 1.2319-1.3901 2.3235-2.9052 3.2436-4.514.4522-.8122.8576-1.64 1.2319-2.4834.1871-.4217.343-.8591.5146-1.2964.1559-.4373.2962-.8747.421-1.312-.6238 1.7806-1.4034 3.4518-2.3703 5.0137z" fill="#faad1b"/><path d="m34.699 19.9906.7017.0781v-1.7806l1.9961-1.9993h-3.0876v-4.0922c-2.5886-1.437-5.9413-3.03011-9.7462-3.88916 0 .03124.0156.04685.0156.07809l.2807.31239.9044.59353.2183 1.40575.0312.0624c3.3839.7029 5.5514 2.3273 6.9393 3.8111v.0625c-1.4034-1.4994-4.1012-2.7021-7.3135-3.3269l-.2339-.3905-.2027-1.26511-.7485-.4842-.4523-.51543c-.2963-2.18669-1.8556-3.59241-3.8828-4.01413l-.0156-.28115-.2183-.18743v-.35924c.3742-.09371.6393-.24991.6393-.42172s-.2495-.328-.6393-.42171v-.37486l-.5458-.29677-.0312-.20305h.1871l.078-.28114h-.2183l-.3119-1.077728-.3119 1.077728h-.1715l.0779.28114h.1872l-.0312.20305-.5458.29677v.37486c-.3743.09371-.6238.2499-.6238.42171s.2495.32801.6238.42172v.35924l-.2183.18743-.0156.32801c-1.9025.51543-3.3995 1.85868-3.6802 3.98289l-.4522.51543-.7485.4842-.1871 1.26519-.2807.4373c-2.90046.6091-5.48904 1.7025-7.28233 3.2488v-.0313c1.71532-1.4838 3.82049-3.0925 6.89253-3.7642l.0779-.1249.2183-1.40575.9045-.59353.2807-.31239c0-.03124.0156-.06247.0156-.09371-3.78935.84343-7.14203 2.40538-9.7462 3.81108v4.1703h-3.243521l2.198731 2.0305v5.7635l1.82448.859c1.32548 4.5296 4.88088 11.1521 14.36191 15.7286 9.5123-4.5765 13.0677-11.2302 14.3776-15.7598l1.8868-.8278v-3.1395l-.1559-.203c-.2183-.2968-.4055-.5154-.577-.7341z" fill="url(#a)"/><g fill="#fff"><path d="m30.176 29.6747c-.8733 1.4369-1.8869 2.7802-3.0252 4.0141-1.1384 1.2183-2.4015 2.3429-3.7582 3.3269-.6705.4842-1.3722.9528-2.0895 1.3745-.6862.4061-1.4035.7809-2.1208 1.1402-.7173-.3593-1.4346-.7341-2.1208-1.1402-.7173-.4217-1.419-.8903-2.1051-1.3745-1.3567-.9684-2.6198-2.093-3.7737-3.3113-1.154-1.2183-2.16759-2.5615-3.02525-4.0141-.87326-1.437-1.59058-2.9677-2.13636-4.5764.10915.4061.23391.8122.37425 1.2183.14035.3904.29628.7965.45222 1.187.32747.781.70173 1.5463 1.10717 2.2804.84206 1.4838 1.84007 2.8583 2.96287 4.1235 1.1227 1.2651 2.4014 2.4053 3.7737 3.4206.6861.4998 1.4034.9684 2.1207 1.4057.7329.4374 1.4815.8278 2.2456 1.2027l.0935.0469.0936-.0469c.7641-.3749 1.5126-.781 2.2455-1.2027.7329-.4373 1.4346-.9059 2.1208-1.4213.6861-.4998 1.341-1.0465 1.9648-1.6244.6237-.5779 1.2319-1.1715 1.7933-1.8119 1.1227-1.2651 2.1207-2.6552 2.9628-4.1234.421-.7341.7953-1.4995 1.1228-2.2804.1715-.3905.3118-.781.4678-1.1715.1403-.4061.2651-.7965.3898-1.2026-.5302 1.6087-1.2631 3.1394-2.1363 4.5608z"/><path d="m13.5393 10.6974.0935-.74968.7173-.4061.4835-.53105s.1715-3.01451 3.4774-3.87356c0 0-2.0116.51543-2.651 2.85831-.1871.65601.078 1.39011.078 1.39011l-.078 1.43697s-1.5438.1406-2.3858.4842z"/><path d="m20.181 5.18681s2.0432.15623 2.7295 1.84351c.0156 0-1.0762-1.28108-2.7295-1.84351z"/><path d="m18.6371 5.13594s-1.3411.96839-1.1696 5.54486l.5458-.0313c-.0156 0-.4834-4.12345.6238-5.51356z"/><path d="m12.4623 12.9534c.8267-.1875 1.2479-.2656 2.0901-.3906.3276.2031.4991.2968.8267.4843 0 1.078.0156 1.2967.0156 2.3747-.312.2187-.4679.3437-.7799.5937-.8579 0-1.279 0-2.1369 0-.0156-1.5936-.0156-1.4842-.0156-3.0621zm1.6846.3905c-.2028.0313-.2964.0469-.4991.0782 0 .8436 0 1.0467.0156 1.8903.2027 0 .2963-.0156.4991-.0156 0-.8749 0-1.0936-.0156-1.9529z"/><path d="m15.8954 12.3745c.9046-.0937 1.3569-.125 2.2616-.1562v.7967c-.4055.0157-.6239.0157-1.0294.0469v.6718c.3431-.0156.5147-.0156.8578-.0313v.625c-.3431 0-.5147.0156-.8422.0156v.8749c.4211 0 .6395 0 1.0606-.0157v.7968c-.9047 0-1.3726 0-2.2772 0-.0156-1.7966-.0312-1.8122-.0312-3.6245z"/><path d="m18.545 12.2043c.4991-.0156.733-.0156 1.2322 0v2.9997c.4367 0 .6551 0 1.0918.0156v.7967c-.9203 0-1.3882 0-2.3085 0-.0155-1.8903-.0155-1.9216-.0155-3.812z"/><path d="m22.88 13.9276c0-.5155 0-.7655 0-1.4998.4835.0625.7175.0937 1.201.1719 0 1.7341-.0156 1.6872-.0156 3.4214-.4835 0-.7175 0-1.2166 0 0-.7343 0-.9843 0-1.4998-.2028-.0156-.2964-.0156-.4991-.0156v1.5154c-.4836 0-.7331 0-1.2167 0 0-1.8591.0156-1.8904.0156-3.7495.4836.0312.7331.0468 1.2323.1093v1.5155c.1871.0156.2963.0156.4991.0312z"/><path d="m24.7028 12.7033c.4836.0937.7331.1406 1.2167.2499v3.0621c-.4836 0-.7331 0-1.2167 0-.0156-1.6872-.0156-1.6247 0-3.312z"/><path d="m24.7037 12.7038s.6083.1094 1.4505.2968c.4212.0938.8111.2031.8111.2031l-1.3882.5781z"/><path d="m13.7107 12.7038s-.6083.1094-1.4506.2968c-.4211.0938-.811.2031-.811.2031l1.3882.5781z"/><path d="m8.86301 16.95c-.45222 2.0148-.70172 4.0766-1.09157 6.1071.63935-.2343.95122-.3593 1.59057-.5623.06238-.3593.09357-.5623.15594-.9684.37425-.1094.57695-.1562.95125-.2499.0468.3592.0779.5466.1247.859.655-.1874.9668-.2655 1.6218-.3905-.3587-1.5931-.6705-3.1863-.998-4.7794zm.79529 3.4674c.09356-.7966.18712-1.5931.28069-2.3897.06241 0 .09351 0 .15591-.0156.0936.7497.1872 1.4994.2807 2.2491-.2963.0625-.43661.0937-.7173.1562z"/><path d="m22.4766 16.95c-1.1386 0-2.2773 0-3.4315 0v.828h.9203v3.562c.6395 0 .967.0156 1.6065.0156 0-1.2029 0-2.3903 0-3.5933h.9047c0-.3124 0-.4843 0-.8123z"/><path d="m29.041 16.95h-1.6218c-.0156 1.6712-.0312 3.3268-.0468 4.9981 1.0136.2811 1.9804.5935 2.9629.9528.0155-.3593.0155-.5623.0311-.9997-.5769-.1874-.8576-.2655-1.419-.4217.0312-1.5307.0624-3.0301.0936-4.5295z"/><path d="m12.6686 16.95c-.0156 1.5775-.0156 3.1394-.0312 4.7169.6549-.1093.9668-.1561 1.6218-.1874 0-.6091 0-.9215 0-1.5307.421-.0156.6237-.0156 1.0448-.0312.4366-.2655.6549-.4061 1.0915-.656 0-.656 0-.984 0-1.64-.4366-.2655-.6549-.3905-1.0915-.656h-2.6354zm2.1831 2.1242c-.2339 0-.3586.0156-.5925.0156 0-.5155 0-.7654 0-1.2808h.5925z"/><path d="m16.9247 21.3712c.6551-.0156.9826-.0156 1.6221-.0312 0-1.4686 0-2.9371 0-4.39h-1.6221c.0156 1.4685 0 2.9371 0 4.4212z"/><path d="m25.154 20.806c-.3743-.0313-.5458-.0469-.9201-.0625-.0467.328-.0779.4842-.1247.781-.6238-.0469-.9356-.0625-1.5594-.0937.3587-1.4839.6394-2.9833.9512-4.4828h2.2923c.3899 1.6088.6706 3.2332 1.0604 4.842-.6237-.0781-.9356-.1093-1.5594-.1718-.0624-.3124-.0779-.4686-.1403-.8122zm-.577-2.9364c-.0936.7653-.1403 1.187-.2339 1.9836.2807.0156.421.0156.6861.0313-.1247-.8122-.1871-1.2496-.3119-2.0149-.0467.0156-.0779.0156-.1403 0z"/><path d="m32.3755 19.4766c.0156-.6091.0156-.9059.0312-1.4369.2651.0156.4054.0156.6705.0468 0 .3593-.0156.5623-.0156.9684.6394.0781.9513.1094 1.6062.1875 0-.578 0-.8591 0-1.3589l1.1851-.9372h-2.2767-1.6841c-.4366.2968-.6549.453-1.0916.781-.0156.6872-.0312 1.0933-.0467 1.8899.4366.453.6549.7029 1.1071 1.2183.4678.1562.7017.2343 1.1851.3905-.0155.6404-.0155.9684-.0311 1.5307-.2807-.0937-.4211-.1406-.7018-.2343.0156-.3436.0156-.5311.0156-.9059-.6549-.1875-.9824-.2812-1.6217-.453-.0156.453-.0156.6716-.0312 1.0777.4054.4686.6081.7185 1.0292 1.1715.7173.2811 1.0915.4217 1.8556.7185.4523-.1406.6862-.2343 1.1384-.4842v-2.4522c-.4678-.5936-.7017-.8903-1.1539-1.4214-.4679-.1249-.7018-.1874-1.1696-.2968z"/><path d="m4.78988 16.9494h-2.18314l1.12275.9372v5.7791c.43663.2655.65494.3592 1.09157.4998.63935-.2499.96682-.3905 1.62176-.6404.43663-.4686.65495-.7029 1.07598-1.1871.01559-.656.01559-1.0464.03119-1.8118-.62376.1406-.93563.2187-1.55939.3593-.01559.7184-.01559 1.0777-.01559 1.7181-.28069.0937-.42104.1405-.68613.2343.01559-1.5776.03119-3.1551.04678-4.717.28069-.0157.42103-.0157.70172-.0313 0 .5155-.01559.8122-.01559 1.4057.62375-.0937.93563-.1249 1.57498-.2186.01559-.6404.01559-.9528.01559-1.5151-.42103-.328-.63935-.4842-1.06038-.7966z"/><path d="m21.7736 23.7575s.2964.1406.5927.3905c0 0 .6395-.2812.3744-1.2342.0156.4687-.3276.7968-.9671.8437z"/><path d="m15.6459 22.8841s.5303.4687.6863.5155l-.3276.0469s.546.4062.9047.3906l-.4523.2968c0-.0156-.6707-.5468-.8111-1.2498z"/><path d="m16.0821 26.7734s-.0623 1.8122.6863 2.5621c0 0-.7175-.6405-1.0138-1.7029z"/><path d="m22.3338 27.1005s-.2028 1.6404-.9826 2.3747c0 0 .8578-.5312 1.1698-1.5936z"/></g><path d="m22.7869 22.5223c-.3431-.0781-.6395.2656-.7331.3749-.0936.125-.156.2969-.6083.4687.4523.0313 1.2166-.2656 1.279-.3749.0156.2031.0156.5624-.3743 1.1404l.3431.2656c0 .0157.6551-.7811.0936-1.8747z" fill="#d71921"/><path d="m19.4809 29.1432c.078.4374.9982.4062 1.3258.2499.3275-.1562.4367-.6093.4367-.6093s-.0468.0469-.234.1563c-.1871.1093-.4991.1249-.4991.1249s.4211-.1874.6239-.4999.1248-.5468.1248-.5468-.1716.3437-.4211.5468c-.2496.2031-.7331.2812-.7331.2812s.6083-.3281.7799-.5624c.1715-.2344.2183-.5312.2183-.5312s-.9202.6093-.7955.5156c.1248-.0938.6084-.6406.6084-.6406l-.4212-.0781-.2807.2031.0156.0469c.0311.0781.0311.1718-.0156.2499l-.2652.625c-.0156.0468-.0468.0781-.078.1093z" fill="#fff"/><path d="m19.8248 32.8764c-.0936.0468-.312.125-.6083.125-.4056 0-.7955-.0157-.9827-.2031-.3119-.2813-.4523-.6406-.4523-.6406 0 .1875-.0156.375-.1248.4999 0 0 .5771.3281.6551.8437.0624.3906 1.5754.4687 1.6845-.0937.0936-.5.3276-.7343.546-.75-.078-.1874-.0936-.4999-.0936-.4999s-.3744.5624-.6239.7187z" fill="#fff"/><path d="m22.2106 26.6304s.0156-.8749-.6395-1.0936c.0156.2655-.1404.5311-.2028.6249.2028-.0938-.1091.2968-.1247.4374-.0312.2812-.2496.5-.7175.5156-.078-.0156-.1404-.0313-.1716-.0469l.5459.4843c.5459-.0937.7019-.7499.7019-.7967 0-.0313.0468.0624.0936.2655.0156.0313.0936.7031 0 1.1874.3587-.6874.2495-1.6404.2495-1.6404-.0156-.1094-.0467-.1719-.0467-.1875-.0312-.0937.3119.25.3119.25z" fill="#d71921"/><path d="m17.5023 27.6175h-.0156s.078.0937.1872.2187c.156.1718.3431.3749.4211.4218.078.0625-.3119-.2031-.5771-.3749-.1248-.0782-.2339-.1563-.2339-.1563s.0156.0781.0467.1875c.0312.1094.0936.2344.1716.3593.1716.2344.7799.5625.7799.5625s-.4835-.0782-.7331-.2813c-.2495-.2031-.4211-.5468-.4211-.5468s-.078.2344.1248.5468c.2027.3125.6239.5.6239.5s-.2964-.0156-.4992-.125c-.1871-.1094-.2339-.1562-.2339-.1562s.1092.453.4367.6093c.3276.1562 1.2478.1874 1.3258-.25l-.3899-.375c-.0312-.0312-.0624-.0624-.078-.1093l-.2652-.6249c-.0312-.0781-.0312-.1719-.0156-.25l.0156-.0469-.1716-.1093-.1247-.0781-.3588.0624z" fill="#fff"/><path d="m15.3486 25.5066c-.2183.453-.1247.8435-.8888 1.5307.0467.0313.1559-.0312.2027-.0312-.3743.4217-.3275 1.0621-.2963 1.2339.0624.0156.2807-.1093.3431-.1406.0623-.0312-.1404.8278.3274 1.5619.0624-.1093.1248-.1093.156-.2499.0312.0157.0624.0313.0935.0469.4523.2655 1.2475 1.0933 1.575 1.64.0936-.0469.2027-.1093.2027-.1093s.0468.2343.2028.531c.1091.2031.4834.5467.4834.5467-.0468-.3436-.2339-.984-.1872-1.3276-.8264-.328-1.5905-1.2027-1.7309-1.4214.1092.0625.2963.0313.3275.0625-.0156-.0156-.2495-.2499-.5146-.5623-.2495-.3124-.5146-.6872-.577-.9996 0 0 .6082-.781.6238-1.4838 0-.3124.0935-.6873.2651-1.0309.1091-.2187.2495-.4217.4054-.5779-.7485.2186-1.0136.7653-1.0136.7809z" fill="#fff"/><path d="m20.6032 26.7245c.0312.0312.0624.0625.1092.0625.078 0 .1248-.0625.1404-.125.0936-.0469.1871-.125.2339-.2031.0156.0469.0156.2343-.2183.3749-.2652.1719-.468-.0624-.468-.0624.0936.0156.156-.0157.2028-.0469z" fill="#d71921"/><path d="m20.8531 26.6586c0-.0621-.0155-.0932-.062-.1242.1086-.1087.2946-.0932.2946-.0932v.0155c-.062.0777-.1395.1553-.2326.2019z" fill="#fff"/><path d="m17.7811 26.7256c-.0312.0313-.0624.0625-.1092.0625-.078 0-.1248-.0625-.1404-.1249-.0935-.0469-.1871-.125-.2339-.2031-.0156.0468-.0156.2343.2184.3749.2651.1719.4679-.0625.4679-.0625-.0936.0156-.156-.0156-.2028-.0469z" fill="#d71921"/><path d="m17.5306 26.6619c0-.0622.0155-.0932.062-.1243-.1085-.1087-.2946-.0932-.2946-.0932v.0155c.062.0777.1395.1554.2326.202z" fill="#fff"/><path d="m17.749 29.6609c0 .1562.0624.5468.4523.828-.1248-.4062.0468-.828.0468-.828s-.3431.0469-.4991 0z" fill="#fff"/><path d="m20.4322 29.6609c-.1404.0469-.4991 0-.4991 0s.1715.4218.0468.828c.3899-.2812.4523-.6718.4523-.828z" fill="#fff"/><path d="m18.4207 29.6892s.5927-.1093.7643-.1093c.2027 0 .6551.125.6551.125s.0935.2343.0312.3593c0 0-.0468-.1875-.1092-.1875-.0156 0-.3588 0-.5771 0-.234 0-.7175 0-.7331 0-.0624 0-.1092.1875-.1092.1875 0-.1094 0-.3593.078-.375z" fill="#fff"/><path d="m18.0937 32.452.3276.1562c-.0468-.0625-.2496-.5155-.2028-.828-.2495.5156-.1248.6718-.1248.6718z" fill="#fff"/><path d="m20.0276 32.452s.1404-.1562-.1247-.6718c.0468.3125-.1716.7655-.2028.828z" fill="#fff"/><path d="m18.7488 30.5479.4368.7968-.0624-.8124s.4679.1719.6239.7343c.1404.5468.1092.6718-.4523.7343-.9827 0-.9827-.25-.9827-.25-.0156-.5156.4367-1.203.4367-1.203z" fill="#d71921"/><path d="m19.5755 32.5909s-.2808.0469-.5148.0469c-.2963 0-.4523-.0469-.5147-.0625-.0156 0-.0312-.0156-.0312-.0313-.0156-.0468-.0624-.1718-.0156-.2968 0 0 .0312.1562.078.1562h.9827c.0468 0 .0935-.1406.0935-.1406.0156.0625 0 .3125-.0779.3281z" fill="#fff"/><path d="m21.5711 25.5368c-.1872.2968-.3119.6405-.3119.6405.0156.3749-.1092.578-.2184.6874-.0156.0156-.0468.0469-.0624.0625-.2964.1875-.6083.1406-.6239.1406 0 0 .3743.2031.7331 0 .1716-.0937.1871-.4374.1871-.4374.4056-.3125.2964-1.0936.2964-1.0936z" fill="#fff"/><path d="m20.3072 23.6943c.1559.1718.2183.2499.2651.4217-.6394-.531-1.8869-.7185-2.6666.125.3743-.906 1.9337-1.0934 2.4327-1.1246 0 0-1.2007-.5311-2.6822.1562-.1247.0624-.2495.1249-.3742.1874-.0936.0625-.6394-.1562-.8421-.4061-.3119-.3124-.5302-.5467-.8732-.5311-.156.1875-.2495.578-.2183.9528.0311.3749.1247.7497.3274.9216.1092-.0938.3275-.2656.3275-.2656s-.2807-.2499-.3587-.7028c-.0156-.0938-.0156-.1875-.0156-.2968 0-.0469.0156-.1406.0312-.1874.0156.0468.1092.1249.156.1718.1403.1249.3586.2343.4366.2499h.0156c.0936.0312-.2807.0625-.2807.0625s.2339.3123.7485.4373c.0156 0-.4054.2655-1.2943 1.4994.1248-.1249.2339-.2499.3743-.3436.1559-.1093.5458-.2655.5458-.2655.1091-.0937.2183-.1718.3586-.2031-.1871.2031-.3119.4374-.3898.656-.2183.6873 0 1.3589-.0156 1.4214-.0312.0781.2963-.2812.2963-.2812s-.0624.1719-.0936.4374c-.0468.2655-.078.7185.1091 1.2339.0312.1093.078.2187.1404.328-.0312-.1249-.0312-.2499-.0468-.3592-.0156-.328.0468-.9372.0468-.9372.1559.2499.421.3905.7641.4842l.499-.4686c-.078.0313-.421.0937-.5926-.0781-.0156.0469-.0312.0625-.0156.1406 0 0-.3274-.0937-.2962-.5154-.2807-.3905-.156-.5155.0155-.453-.0779-.1874-.3586-.5467-.2962-1.1558 0-.0625.0156-.1406.0311-.2187 0 0 .0156-.0624.0624-.1562-.0156.0469-.0468.2812-.0468.3437.1248.7965.8265 1.3588.8109 1.2651s.078-.1874-.0312-.2968c.1248.0157.2651.1406.4211.4999.0468.0937.4366.3904.4366.3904v.0157l.2963.203-.4834-.0937c-.0312 0-.0624 0-.0936.0156l-.2027.0937.2495.0469c.0312.0156.078.0312.0936.0468l.3118.3124-.3898-.1718-.1092-.0312c-.0468-.0156-.0935 0-.1403.0156l-.1871.125h.2027c.0468 0 .1091.0156.1403.0624l.156.1562-.0312.1875c-.0156.0624-.0156.1249.0156.1718l.0779.2343c.0156.0468.0468.078.078.0937l.5926.3123c.0623.0313.1403.0313.2027 0l.577-.3123c.0467-.0157.0779-.0625.0779-.0937l.078-.2343c.0156-.0625.0156-.125.0156-.1718l-.0312-.1875.2183-.1718c.0312-.0156.0624-.0312.0936-.0312h.1871l-.1871-.125c-.0312-.0156-.078-.0312-.1092-.0156l-.499.203.3119-.3123c.0312-.0313.0624-.0469.0936-.0469l.2495-.0468-.2339-.0938c-.0156-.0156-.0312-.0156-.0624 0l-.499.0938.2807-.2031.3118-.0469.0156-.0156v-.0156c.0312-.0469 0-.2655.0312-.2968v.0157c.0468.0156.2183-.3905.5146-.578-.0935.125-.0779.2343-.0312.2968.499-.203.7174-1.0621.7329-1.312 0-.0156-.2027-.8591-1.1383-1.2339zm-1.4034.531c.0623-.1562.2806-.2811.2806-.2811s.2184.0937.2807.2811c.7329.0625 1.0604.4686 1.1852.7341-.0624-.0937-.7797-.4842-1.4659-.2186-.7485-.3593-1.4034.2499-1.4034.2499.2339-.781 1.1539-.7497 1.1228-.7654zm.2806 1.5932c-.343-.4842-1.1383-.3436-1.419-.0937.421-.656 1.2475-.5779 1.2475-.5779l.1871-.1718s.078.0937.156.1718c.0779-.0625.9044-.0625 1.341.5154-.0779-.0781-.9824-.4217-1.5126.1562z" fill="#d71921"/><path d="m18.1708 26.7731.3588.0625c-.0312-.2031-.5148-.7968-.9515-.9999 0 0 .1404.2968.0624.3281-.078.0312-.4367-.4375-.5147-.5624 0 0-.0156.2499.2027.4999.1872.25.5148.0781.8423.6718z" fill="#fff"/><path d="m20.1819 26.8034-.3432.0468c.0624-.2031.5771-.8124.9359-.9686 0 0-.1404.2968-.0624.3281.078.0312.4211-.4218.4991-.5468 0 0 .0312.2343-.1872.4843-.1715.2187-.5147.0625-.8422.6562z" fill="#fff"/><path d="m17.4376 26.9415-.0156-.0156s0 0-.0156-.0156c-.1091-.0938-.2963-.3125-.2807-.7499 0 0-.078-.3906-.2652-.6718 0 0-.156.828.2652 1.1404 0 0-.0624.4219.2963.5156 0 0 .2496.0937.6239-.0781-.0935.0156-.4211.0156-.6083-.125z" fill="#fff"/><path d="m22.8493 25.5056c.2183.453.1247.8435.8888 1.5307-.0468.0312-.1559-.0312-.2027-.0312.3742.4217.3275 1.0621.2963 1.2339-.0624.0156-.2807-.1094-.3431-.1406s.1403.8278-.3275 1.5619c-.0623-.1093-.1247-.1093-.1559-.2499-.0312.0156-.0624.0312-.0936.0469-.4522.2655-1.2475 1.0933-1.575 1.64-.0935-.0469-.2027-.1094-.2027-.1094s-.0468.2343-.2027.5311c-.1091.203-.4834.5467-.4834.5467.0468-.3437.2339-.984.1871-1.3277.8265-.328 1.5906-1.2026 1.7309-1.4213-.1091.0625-.2962.0312-.3274.0625.0156-.0156.2495-.2499.5146-.5623.2495-.3124.5146-.6873.5769-.9996 0 0-.6081-.781-.6237-1.4839 0-.3124-.0936-.6872-.2651-1.0308-.1092-.2187-.2495-.4218-.4054-.5779.7485.2186 1.0136.7653 1.0136.7809z" fill="#fff"/><path d="m12.824 24.5545s.156.4374.1248.7967c-.0312.3437-.3276.7187-.3276.7187s.4992-.2968.5148-.2968.0779-.625.0779-.6406c.0156-.0156-.3431-.5937-.3431-.5937z" fill="#fff"/><path d="m11.0599 27.4112-.2024.0624-.1558.1404s.2804.0936.4361-.1092c.0311-.0312.0467-.078.0623-.1092" fill="#d71921"/><path d="m11.0593 27.4078-.0931-.0466.2481-.1553s.0621.0621 0 .2019c0 0-.062.0311-.155 0z" fill="#fff"/><path d="m9.67183 29.1132c.10919-.0469.67067-.5468.62387-.5156-.0468.0313-.68626.25-.65506.2343.04679-.0156.51476-.4686.51476-.4686l-.38998-.0469-.76428.2343c-.0312.125.07798.375-.18718.7031.09359.1874.46793.2968.46793.2968s.32755.0156.85791-.2812c.0468-.1094.1091-.2187.2183-.3125-.078.0469-.79545.2188-.68627.1563z" fill="#fff"/><path d="m12.6837 24.2548c-.2964.0938-.3744.4843-.39.6093s.0156.2969-.2651.6249c.3587-.1718.811-.7342.811-.8436.1092.1562.39.3906.2184 1.0467l.3744-.0781c.0155-.0156.1559-.7655-.7487-1.3592z" fill="#d71921"/><path d="m9.65581 29.7184c.07799.1406.29635.4687.76429.5624-.2808-.3124-.312-.7811-.312-.7811s-.29632.2031-.45229.2187z" fill="#fff"/><path d="m11.8395 31.7692c-.1092-.0781-.3431-.3437-.3431-.7499.2184.2969.6083.4062.6083.4062s-.1092.2812-.2652.3437z" fill="#fff"/><path d="m12.1827 29.614-.234.4843.0156-.5156s-.2495.1563-.2495.75c0 .3593.1092.6093.3899.7342.2496-.0937.4991-.6093.4991-.6093-.3431-.2499-.4211-.8436-.4211-.8436z" fill="#d71921"/><path d="m8.65843 28.6576-.10902.1872.21804.312c.1246-.1092.14018-.2496.15575-.4992-.01557 0-.09345-.0156-.26477 0z" fill="#d71921"/><path d="m13.5244 27.4104c-.0156.3436-.078.9684.6237 1.4838-.2651-.2655-.499-1.4057.0156-1.9836.2651-.2968.4366-1.1559.8421-1.562.0156-.0156.0312-.0468.0312-.0468-.7018.3749-1.2787.7653-1.2475.7029.0935-.1406.4522-.8435 1.0291-1.109-.2027 0-1.4658.4217-2.1207 1.0777.0156-.0781-.0156-.2655.0468-.3905-.0156.0157-1.0136.4061-1.653.9684 0-.0625.0624-.203.0936-.2499-.7173.2499-1.34109 1.1715-1.34109 1.1715s.03119.1249.04678.1718c-.03119.0156-.07797.0468-.07797.0468-.70172.4686-1.10716.9059-1.10716.9059l.31187-.0156.7641-.2343c.09357-.0312.60817-.1874.68617-.2499.2027.3905 1.4658.6092 1.4814.5936-.3431.1405-.7485.1561-.7953.1405l-.9045.453s1.0136-.4217 1.8869.0781c.3899.2655.6549.5154.6549.859l.0468-.0781c-.0468-.4217-.1871-.7809-1.0136-1.2026 0 0 .6238-.0157 1.2163.1874-.1091-.2968-.0467-.9215.0624-1.2808.2027-.6404 0-1.2651-.2651-1.765.2027.1562.7329.7029.6862 1.3277zm-2.3859.4842c-.6082-.1406-1.0448-.0313-1.1072 0l.8421-.8435.0156.2499c.2339-.3748.2807-.4373.6705-.5779.0624.3437.0624.7498-.421 1.1715zm1.4814-1.4682c-.1403.1562-.2963.5466-.2495.7028-.4054.2656-.421 1.0934-.421 1.0934-.1092-.3124-.078-1.0621 0-1.2339.0779-.1562.8109-.7029.6705-.5623z" fill="#d71921"/><path d="m13.8528 29.5956s.2651-.0469.6551.25c-.1248-.1563-.2184-.7968-.2184-.7968-.6551.2812-.9514-.9218-.9514-1.0468 0 0-.234.8124.2027 1.6405 0 0-.2651-.2656-.8578-.3906 0 0 .7798.8592.1715 1.0936.3588 1.0311-.3899 1.3748-.3899 1.3748l.0312-.4843c-.0936.1094-.1092.4999-.5927.6405-.078.2188.078.4687.078.4687l.1091-.1406s.3588.25.39.2812c.1404-.1406.6863-.5624.9826-.7186 0-.1406-.0156-.6249.0468-.9218.156-.5468.5148-.6874.7487-.6561-.0624-.125-.1248-.4375-.4055-.5937z" fill="#fff"/><path d="m10.0311 27.8968c.0312-.4375.3587-.9374.9515-1.2342-.0936.0937-.1716.1875-.156.2812 0 0 .6239-.6874 1.8093-.6874-1.279.3749-1.7469 1.0623-1.7469 1.0623l-.0156-.2499z" fill="#fff"/><path d="m10.0311 27.896s.2964-.2031 1.1074 0l-.4991.1094c-.078-.0781-.3899-.1406-.6083-.1094z" fill="#fff"/><path d="m12.9307 27.4735-.5459-.3281c-.234.1094-.39.4218-.4212 1.0936-.0156-.0156.234-.5155.9671-.7655z" fill="#fff"/><path d="m14.038 29.7697s.6707.2187.8267.5781c.4836.0781 1.4506.7811 1.6222 1.1873 0 0 0-.7968-1.3882-1.531 0 0-.6551-.3281-.8111-.9687 0 0-.3275.4843-.5303.4375-.078-.0156-.4211.4999.1404.6249-.0312-.0937.3119-.2031.1403-.3281z" fill="#fff"/><path d="m25.3739 24.5522s-.156.4375-.1248.7968c.0312.3437.3276.7187.3276.7187s-.4992-.2969-.5148-.2969-.078-.6249-.078-.6405c-.0156-.0156.3432-.5937.3432-.5937z" fill="#fff"/><path d="m27.1364 27.409.2025.0624.1558.1404s-.2804.0936-.4361-.1092c-.0312-.0312-.0467-.078-.0623-.1092" fill="#d71921"/><path d="m27.1358 27.4056.0931-.0466-.2481-.1553s-.062.0621 0 .2019c0 0 .062.031.155 0z" fill="#fff"/><path d="m28.5234 29.1109c-.1092-.0468-.6707-.5468-.6239-.5155.0468.0312.6863.2499.6551.2343-.0468-.0156-.5147-.4687-.5147-.4687l.3899-.0469.7643.2344c.0312.125-.078.3749.1872.703-.0936.1875-.468.2969-.468.2969s-.3275.0156-.8578-.2813c-.0468-.1093-.1092-.2187-.2184-.3124.078.0469.7955.2187.6863.1562z" fill="#fff"/><path d="m25.5153 24.2526c.2963.0937.3743.4843.3899.6093s-.0156.2968.2652.6249c-.3588-.1719-.8111-.7343-.8111-.8436-.1092.1562-.39.3905-.2184 1.0467l-.3743-.0781c-.0156-.0156-.156-.7655.7487-1.3592z" fill="#d71921"/><path d="m28.5399 29.7162c-.078.1406-.2964.4687-.7643.5624.2807-.3125.3119-.7811.3119-.7811s.2964.203.4524.2187z" fill="#fff"/><path d="m26.357 31.767c.1092-.0781.3432-.3437.3432-.7499-.2184.2968-.6083.4062-.6083.4062s.1092.2812.2651.3437z" fill="#fff"/><path d="m26.0116 29.6128.234.4843-.0156-.5156s.2495.1563.2495.7499c0 .3594-.1091.6093-.3899.7343-.2496-.0937-.4991-.6093-.4991-.6093.3431-.25.4211-.8436.4211-.8436z" fill="#d71921"/><path d="m29.5518 28.6554.109.1872-.2181.312c-.1245-.1092-.1401-.2496-.1557-.4992 0 0 .0779-.0156.2648 0z" fill="#d71921"/><path d="m24.6722 27.4102c.0156.3436.0779.9684-.6238 1.4838.2651-.2655.499-1.4057-.0156-1.9836-.2651-.2968-.4366-1.1559-.8421-1.562-.0155-.0156-.0311-.0468-.0311-.0468.7017.3749 1.2787.7653 1.2475.7029-.0936-.1406-.4523-.8435-1.0292-1.109.2027 0 1.4658.4217 2.1207 1.0777-.0156-.0781.0156-.2655-.0467-.3905.0156.0157 1.0136.4061 1.6529.9684 0-.0624-.0624-.203-.0936-.2499.7174.2499 1.3411 1.1715 1.3411 1.1715s-.0312.1249-.0468.1718c.0312.0156.078.0468.078.0468.7017.4686 1.1072.9059 1.1072.9059l-.3119-.0156-.7641-.2343c-.0936-.0312-.6082-.1874-.6861-.2499-.2028.3905-1.4659.6092-1.4815.5936.3431.1405.7485.1561.7953.1405l.9045.453s-1.0136-.4217-1.8869.0781c-.3898.2655-.6549.5154-.6549.859l-.0468-.0781c.0468-.4217.1871-.7809 1.0136-1.2026 0 0-.6238-.0157-1.2163.1874.1091-.2968.0468-.9215-.0624-1.2808-.2027-.6404 0-1.2651.2651-1.7649-.2027.1561-.7329.7028-.6861 1.3276zm2.3858.4842c.6082-.1406 1.0448-.0313 1.1072 0l-.8421-.8435-.0156.2499c-.2339-.3748-.2807-.4373-.6705-.5779-.0624.3437-.0624.7498.421 1.1715zm-1.4814-1.4682c.1404.1562.2963.5466.2495.7028.4054.2656.421 1.0934.421 1.0934.1092-.3124.078-1.0621 0-1.2339-.0779-.1562-.8108-.7029-.6705-.5623z" fill="#d71921"/><path d="m24.3446 29.5955s-.2651-.0469-.6551.2499c.1248-.1562.2184-.7967.2184-.7967.6551.2812.9515-.9218.9515-1.0468 0 0 .2339.8124-.2028 1.6405 0 0 .2652-.2656.8579-.3906 0 0-.7799.8592-.1716 1.0936-.3588 1.0311.3899 1.3748.3899 1.3748l-.0312-.4843c.0936.1094.1092.4999.5927.6405.078.2188-.0779.4687-.0779.4687l-.1092-.1406s-.3588.25-.39.2812c-.1403-.1406-.6863-.5624-.9826-.7186 0-.1406.0156-.6249-.0468-.9218-.156-.5468-.5147-.6874-.7487-.6561.0624-.125.1248-.4375.4055-.5937z" fill="#fff"/><path d="m28.1666 27.8945c-.0312-.4374-.3588-.9373-.9515-1.2342.0936.0938.1716.1875.156.2812 0 0-.6239-.6874-1.8093-.6874 1.279.375 1.7469 1.0624 1.7469 1.0624l.0156-.25z" fill="#fff"/><path d="m28.1644 27.8938s-.2963-.2031-1.123 0l.4991.1093c.0936-.0781.4056-.1406.6239-.1093z" fill="#fff"/><path d="m25.2798 27.4712.5459-.328c.234.1093.3899.4218.4211 1.0936 0-.0157-.2495-.5156-.967-.7656z" fill="#fff"/><path d="m24.1579 29.7655s-.6707.2187-.8267.5781c-.4835.0781-1.4506.7811-1.6221 1.1873 0 0 0-.7968 1.3882-1.531 0 0 .6551-.3281.811-.9687 0 0 .3276.4843.5304.4375.078-.0156.4211.4999-.1404.6249.0312-.0937-.2964-.2031-.1404-.3281z" fill="#fff"/></svg>