<svg fill="none" height="102" viewBox="0 0 134 102" width="134" xmlns="http://www.w3.org/2000/svg" xmlns:xlink="http://www.w3.org/1999/xlink"><linearGradient id="a"><stop offset="0" stop-color="#ffda12"/><stop offset="1" stop-color="#ff4e02"/></linearGradient><linearGradient id="b" gradientUnits="userSpaceOnUse" x1="74.0538" x2="74.4031" xlink:href="#a" y1="3.88086" y2="20.0028"/><linearGradient id="c"><stop offset="0" stop-color="#e42b2e"/><stop offset="1" stop-color="#feda02"/></linearGradient><linearGradient id="d" gradientUnits="userSpaceOnUse" x1="76.9491" x2="72.6391" xlink:href="#c" y1="9.81008" y2="18.3501"/><linearGradient id="e" gradientUnits="userSpaceOnUse" x1="65.2012" x2="65.586" xlink:href="#a" y1="3" y2="18.86"/><linearGradient id="f"><stop offset="0" stop-color="#ff4e02"/><stop offset="1" stop-color="#ffda12"/></linearGradient><linearGradient id="g" gradientUnits="userSpaceOnUse" x1="65.0615" x2="65.3541" xlink:href="#f" y1="6" y2="17.5994"/><linearGradient id="h" gradientUnits="userSpaceOnUse" x1="80.5269" x2="80.7258" xlink:href="#a" y1="9.2207" y2="23.6665"/><linearGradient id="i" gradientUnits="userSpaceOnUse" x1="80.5468" x2="80.6578" xlink:href="#f" y1="12.4102" y2="22.1046"/><linearGradient id="j" gradientUnits="userSpaceOnUse" x1="87.0588" x2="87.1817" xlink:href="#a" y1="15.1406" y2="28.2272"/><linearGradient id="k" gradientUnits="userSpaceOnUse" x1="86.4071" x2="86.4591" xlink:href="#f" y1="19.2891" y2="26.553"/><linearGradient id="l" gradientUnits="userSpaceOnUse" x1="91.112" x2="91.143" xlink:href="#a" y1="28.9102" y2="36.0643"/><linearGradient id="m" gradientUnits="userSpaceOnUse" x1="90.3811" x2="90.3991" xlink:href="#f" y1="29.8906" y2="34.6434"/><linearGradient id="n" gradientUnits="userSpaceOnUse" x1="56.4757" x2="56.9255" xlink:href="#a" y1="4.5293" y2="22.2283"/><linearGradient id="o" gradientUnits="userSpaceOnUse" x1="56.6684" x2="57.0864" xlink:href="#f" y1="7.58008" y2="20.6945"/><linearGradient id="p" gradientUnits="userSpaceOnUse" x1="45.7441" x2="45.8617" xlink:href="#a" y1="14.2305" y2="27.8975"/><linearGradient id="q" gradientUnits="userSpaceOnUse" x1="46.2727" x2="46.326" xlink:href="#f" y1="17.75" y2="26.0045"/><linearGradient id="r" gradientUnits="userSpaceOnUse" x1="962.903" x2="671.321" y1="301.719" y2="322.832"><stop offset="0" stop-color="#e64529"/><stop offset="1" stop-color="#fccb11"/></linearGradient><linearGradient id="s" gradientUnits="userSpaceOnUse" x1="494.069" x2="679.251" xlink:href="#c" y1="212.093" y2="177.691"/><linearGradient id="t" gradientUnits="userSpaceOnUse" x1="40.066" x2="40.1034" xlink:href="#a" y1="25.25" y2="33.5648"/><linearGradient id="u" gradientUnits="userSpaceOnUse" x1="41.8768" x2="41.9088" xlink:href="#f" y1="26.1504" y2="32.554"/><radialGradient id="v" cx="67.3699" cy="35.8091" gradientUnits="userSpaceOnUse" r="14.78"><stop offset="0" stop-color="#ee7429"/><stop offset=".67" stop-color="#ee7429"/><stop offset=".73" stop-color="#ee7729"/><stop offset=".79" stop-color="#f07f28"/><stop offset=".85" stop-color="#f28d27"/><stop offset=".91" stop-color="#f5a023"/><stop offset=".97" stop-color="#f9b91c"/><stop offset="1" stop-color="#fccb11"/></radialGradient><linearGradient id="w" gradientUnits="userSpaceOnUse" x1="67.4205" x2="67.4205" y1="81.3206" y2="104.241"><stop offset="0" stop-color="#e74c2a"/><stop offset="1" stop-color="#fccb0f"/></linearGradient><linearGradient id="x" gradientUnits="userSpaceOnUse" x1="66.9099" x2="66.9653" xlink:href="#a" y1="71.2793" y2="78.8533"/><linearGradient id="y"><stop offset="0" stop-color="#ffda02"/><stop offset="1" stop-color="#ee7429"/></linearGradient><linearGradient id="z" gradientUnits="userSpaceOnUse" x1="67.5505" x2="67.5505" xlink:href="#y" y1="28.9199" y2="42.6199"/><linearGradient id="A" gradientUnits="userSpaceOnUse" x1="59.1941" x2="59.2451" xlink:href="#a" y1="63.7598" y2="68.8122"/><linearGradient id="B" gradientUnits="userSpaceOnUse" x1="75.7844" x2="75.7334" xlink:href="#a" y1="63.7598" y2="68.8122"/><linearGradient id="C"><stop offset="0" stop-color="#e64529"/><stop offset=".28" stop-color="#e64529"/><stop offset=".5" stop-color="#eb6928"/><stop offset=".93" stop-color="#f7a721"/><stop offset="1" stop-color="#f7a721"/></linearGradient><linearGradient id="D" gradientUnits="userSpaceOnUse" x1="78.0602" x2="94.4102" xlink:href="#C" y1="57.1098" y2="43.3498"/><linearGradient id="E" gradientUnits="userSpaceOnUse" x1="56.2699" x2="39.9199" xlink:href="#C" y1="57.1098" y2="43.3498"/><linearGradient id="F" gradientUnits="userSpaceOnUse" x1="67.3592" x2="67.3592" xlink:href="#y" y1="41.4902" y2="68.9302"/><path d="m49.2501 27.6894s-4.08-3.85-4.25-3.89c-.33-.1-1.76 3.41-1.52 3.61l5.73.28zm42.09 1.31c.19-.34-2-5.45-2.27-5.54-.07 0-1.89 4-1.89 4s4.13 1.65 4.16 1.59zm-7.84-8s3.45-.83 3.43-.86c-.7962-1.0277-1.6616-1.9999-2.59-2.91 0 .06-.84 3.77-.84 3.77zm-6-5.1s2.68-1.68 2.66-1.72c-.7066-.6114-1.525-1.08-2.41-1.38 0 .07-.25 3.1-.25 3.1zm-28.86 2.6c.11.12 5.58 2.29 5.58 2.29s-.95-6.2-1-6.15c-1.6594 1.1123-3.1889 2.4071-4.56 3.86zm18.1-8c0 .13 3.7 4.7 3.7 4.7s3.47-3.8 3.43-3.81c-2.3109-.6899-4.7204-.9906-7.13-.89zm-5.44.61c-1.3956.3729-2.7653.8373-4.1 1.39-.12 0 3.5 2.79 3.5 2.79.2838-1.38.4842-2.7758.6-4.18zm-19.38 21.14c-.33 0-.6 3.29-.3 3.39.09 0 4.53-1.54 4.53-1.54s-4.09-1.86-4.23-1.85z" fill="#ea5e28"/><path d="m44.4191 26.7204c.15 0 3.31.27 3.31.27s-2.3-2.12-2.48-2.27-1.11 2-.83 2zm-2.07 6.28c-.27-.1-.37 1.82-.09 1.77l3.05-.8-3-1zm46.75-8.23-1.1 2.33s2.11.86 2.35.86c-.2466-1.1019-.665-2.1582-1.24-3.13zm-4.6-6.33-.38 1.93s1.48-.35 1.65-.45-1.14-1.57-1.27-1.48zm-6.44-4.83-.1 1.54s1.16-.78 1.28-.89-1.09-.76-1.18-.65zm-28.06 4.64c0 .07 3.49 1.59 3.49 1.59s-.56-3.42-.65-3.84-3 2-2.84 2.25zm18-7.16c0 .06 2.37 3.29 2.37 3.29s2.22-2.55 2.2-2.7c-1.4812-.4438-3.0247-.6431-4.57-.59zm-7.63 3.13.21-2.4-2.19.68z" fill="#f29524"/><g fill="#fccb11"><path d="m60.0999 13.5294.02-1.17-.95.31z"/><path d="m70.3707 13.7001 1.41-1.75-2.81-.37z"/><path d="m50.8594 18.0493 2.08 1.13-.56-2.4c-.367.1853-.7041.4246-1 .71-.21.2-.51.56-.51.56"/><path d="m78.2402 14.7292.59-.49-.52-.29z"/><path d="m84.72 19-.22 1 .88-.26z"/><path d="m88.6309 26.9305 1.22.48-.67-1.68z"/><path d="m44.9707 26.2991 1.63.22-1.28-1.15z"/></g><path d="m75.7605 10.8309c-1.58 1.9-4.42 4-5.28 7.69 1.4561.2937 2.8634.792 4.18 1.48-.38-2.42 1.82-5.51 3.07-8 .674-1.3125.916-2.80445.6915-4.26271s-.904-2.8083-1.9415-3.85733c1.65 1.87 1 4.89-.72 7.00004" fill="url(#b)"/><path d="m71.8791 17.5001c.7536.1521 1.4834.4043 2.17.75.9-4.64 3.47-5.64 3.82-9.67002-.86 3.23002-4.85 4.77002-6 8.92002" fill="url(#d)"/><path d="m73.5891 17.2305c.2891-1.4401.8786-2.8031 1.73-4-1.0921 1.02-1.9545 2.2609-2.53 3.64.2559.1292.5238.233.8.31" fill="#fedc32"/><path d="m62.1096 11.52c.35 2.63.76 5.37 0 7.34 2.2734-.6476 4.6533-.8346 7-.55-.61-4.15-2.11-5.38-3.23-7.66-1.33-2.77-.47-6.41-1.63-7.65.09 1.8-2.57 5.43-2.14 8.52z" fill="url(#e)"/><path d="m63.331 17.6c1.4787-.2577 2.9794-.3682 4.4799-.33-.7-5.6-3.61-4.88-3.63-11.27-3 7 .1701 7-.8499 11.57" fill="url(#g)"/><path d="m64.4796 16.5191c0 .05 2.18-.09 2.18-.09-.19-2.82-2.66-4.43-2.79-7.14004-.92 3.11004 1 4.00004.61 7.23004z" fill="#fedc32"/><path d="m80.6802 14.7007c-1.81 1-4.49 3-5.19 5.7 1.6055.8247 3.0514 1.9286 4.27 3.26.6942-2.4065 2.012-4.5868 3.82-6.32 1.74-1.74 3.75-5.34 3.09-8.12-.8 3.31-3.47 4-6 5.48" fill="url(#h)"/><path d="m76.4805 20.1002c1.017.5607 1.9693 1.2314 2.84 2 3-6.52 4.47-4.53 6.29-9.69-2.92 3.49-6.26 1.94-9.13 7.65" fill="url(#i)"/><path d="m83.6309 14.8498c-3.14 2.31-3.76 1.21-6 4.89.5206.3065 1.0246.6403 1.51 1 1.41-3.58 2.87-3.49 4.54-5.9" fill="#fedc32"/><path d="m88.7391 20.4506c-2.27.66-5.54 1.37-8.37 3.93.9744 1.1743 1.8006 2.464 2.46 3.84 1-2.47 4.71-4.5 7.15-5.85s5.42-5 5.41-7.23c-.53 2.35-4.11 4.58-6.65 5.31" fill="url(#j)"/><path d="m81.5391 24.5491c.4802.6288.9051 1.2979 1.27 2 2.94-3.94 5.57-3.16 9.66-7.26-3.41 2.72-8 2.2-10.93 5.28" fill="url(#k)"/><path d="m82.4492 24.59c.1434.2657.3072.5198.49.76 1.2688-1.4583 2.8565-2.6046 4.64-3.35-1.8736.4865-3.6223 1.366-5.13 2.58" fill="#fedc32"/><path d="m83.2597 29.2702c.8406 2.1635 1.2549 4.4692 1.22 6.79 1.74-1.17 6.41-1.47 9-1.73 3.11-.31 6.5403-3.62 7.5103-4.76-1.163.8454-2.5189 1.3862-3.9442 1.5731s-2.8748.014-4.2161-.5031c-1.94-.68-4.29-1.73-7-1.73-.8958-.0037-1.7877.1175-2.65.36" fill="url(#l)"/><path d="m84.4306 30.0506c.4859 1.4859.775 3.029.86 4.59 4.62-1.85 8.58.17 12.55-2.95-2.66.58-4.57-.11-6.58-.8-1.552-.6165-3.2005-.955-4.87-1-.6706.0022-1.3398.0624-2 .18" fill="url(#m)"/><path d="m85.3594 30.6291c.3231.8945.538 1.8244.64 2.77 3.38-1.32 5.93.11 8.79-.89-3.42 0-6-2.28-9.38-1.88" fill="#fedc32"/><path d="m54.0509 13.2293c0 2.33.21 6.33 1.84 9 1.4332-1.1724 3.0344-2.123 4.75-2.82-2.1117-1.7813-3.5047-4.2688-3.92-7-.28-3.18-1.35-6.64-3.59-7.88 1.59 1.74.92 5.47.92 8.75" fill="url(#n)"/><path d="m56.3803 20.7001c.8148-.6676 1.7476-1.1764 2.75-1.5-3.87-4.69-2.6-8.4-4.38-11.62002.63 2.53002-1.32 7.26002 1.63 13.12002z" fill="url(#o)"/><path d="m57.7292 18.8395c-2.19-3.55-2.09-4.3-2.53-6.57-.0738 2.49.3794 4.9675 1.33 7.27.3794-.2669.7808-.5011 1.2-.7" fill="#fedc32"/><path d="m44.3391 22.7405c2.9058.8082 5.4229 2.6365 7.09 5.15.9523-1.9011 2.2435-3.6124 3.81-5.05-2.55-2.84-7.6-3.84-8.42-3.94-3.41-.46-7-1.29-8.7-4.67.4 4 3.9 7.76 6.22 8.51" fill="url(#p)"/><path d="m51.2609 26c.7005-1.2673 1.5984-2.4151 2.66-3.4-6.15-4.43-8.37-1.47-13.79-4.85 3.61 5.74 5.8 2.77 11.13 8.25" fill="url(#q)"/><path d="m52.5 22.89c-4.88-3.12-5.9-1.6-10-3.14 3.07 2.48 3.7.5 8.54 5 .4603-.6537.9648-1.2752 1.51-1.86" fill="#fedc32"/><path d="m41 36.2998c-3.2-.19-8.43 1.67-10 3.82 2.51-1.27 7.88-.64 10.75.68 2.12 1 6.66 1.57 9.12.57-1.48-2.59-1.12-7.11-1.12-7.11-1.15 1-6.62 2.16-8.76 2" fill="url(#r)"/><path d="m41.6809 37c-2.3555-.1642-4.7102.3309-6.8 1.43 7.21.24 8.67 3.39 14.49 2.13-.3833-1.4955-.6375-3.0211-.76-4.56-2.2223.7837-4.5769 1.1235-6.93 1" fill="url(#s)"/><path d="m31.1895 25.8401c3.3146.271 6.4323 1.6849 8.82 4 1.68 1.61 4.27 3.4 9.79 3.72.1903-1.7035.6353-3.3687 1.32-4.94-1.43.58-7.22.14-9.69-1.75-1.5-1.15-4.21-1.61-6.53-1.61-1.2623-.0581-2.5235.1356-3.71.57" fill="url(#t)"/><path d="m35.7305 26.1704c6.31 2.75 5.23 6 13.08 6.38.4-2.38.72-2.69.72-2.69-2.749.0648-5.4687-.5756-7.9-1.86-1.93-.93-3.51-1.85-5.56-1.85" fill="url(#u)"/><path d="m48.3308 30.5495c-3.039-.0065-6.0077-.9148-8.53-2.61 2.65 2.32 3.62 3.37 8.25 3.92.0398-.4465.1338-.8864.28-1.31" fill="#fedc32"/><path d="m67.3699 51.7691c8.947 0 16.2-7.2529 16.2-16.2 0-8.947-7.253-16.2-16.2-16.2s-16.2 7.253-16.2 16.2c0 8.9471 7.253 16.2 16.2 16.2z" fill="url(#v)"/><path d="m131.57 11.6-3 1.16c1.809-2.8437 2.821-6.12129 2.93-9.49v-.22l-.15.16s-1.57 1.52-2.88 2.6c-1.234 1.09148-2.544 2.094-3.92 3-4.543 2.8952-9.244 5.5359-14.08 7.91-1.383.6277-2.72 1.3529-4 2.17-.888.6475-1.878 1.1411-2.93 1.46-1.441.3051-2.908.4692-4.38.49h-1.4c-6.39 0-7.72 5.6-8.42 8.57-1.19 5-3.44 7.21-4.68 8.08-1.0355.7099-2.1538 1.2909-3.33 1.73-.3302-.0583-.6647-.0884-1-.09-1.0188.0378-2.0279.2127-3 .52-.14 0-.43.12-.55.15-.4557-.1306-.8977-.3047-1.32-.52-.621-.235-1.2065-.5547-1.74-.95l.6-.09c.3023-.0164.5906-.1324.82-.33l.06-.09-.2-.08c-.5515-.355-1.0385-.8014-1.44-1.32-.3355-.4518-.5208-.9974-.53-1.56v-.22c.016-.8015-.1058-1.5997-.36-2.36v-.74-.15c0-3.11-3.66-4.07-5.84-4.16h-.2c-3.64 0-5.57 1.07-6.5 1.9-.3226-.1067-.6602-.1608-1-.16-.637-.0455-1.2733.097-1.83.41-.642.4265-1.1047 1.0743-1.3 1.82-.0771.3075-.1174.623-.12.94.0325.8881.34 1.7442.88 2.45.5964.8035 1.2659 1.55 2 2.23l.22.2-.07-.29c-.0778-.3987-.118-.8038-.12-1.21v-.12c-.0006-.2346.0195-.4689.06-.7.1807.0887.3787.1365.58.14h.08c.36 0 .83-.11 1.28-.13h.1.61c.1743.4884.2689 1.0016.28 1.52.0128.4934-.1269.9788-.4 1.39-1 1.49-3.75 1.74-4.36 1.77-.7486-.1897-1.5109-.3201-2.28-.39-.2097-.0149-.4203-.0149-.63 0-.339-.0009-.6762.0497-1 .15-1.1305-.429-2.2049-.9931-3.2-1.68-1.23-.87-3.49-3.08-4.67-8.08-.7-3-2-8.57-8.42-8.57h-.82c-1.6779-.0047-3.3518-.1654-5-.48-1.0496-.3775-2.0554-.8669-3-1.46-1.2773-.8222-2.6144-1.5476-4-2.17-5.0211-2.4193-9.8782-5.1652-14.54-8.22-1.63347-1.08914-3.17526-2.30987-4.61-3.65-.56622-.51333-1.1037-1.05749-1.61-1.63l-.16-.21v.37c.02291 1.64698.27534 3.28273.75 4.86.48937 1.6238 1.22094 3.1645 2.17 4.57l-3-1.87.08.24c.88045 2.4956 2.07685 4.8683 3.56 7.06l-.14-.08-3.5-2.22 1.76 3.72c1.16023 2.3056 2.74063 4.3743 4.66 6.1l-3-.51 1.86 2.41c1.33718 1.6308 2.9315 3.0326 4.72 4.15l-3.27.5 1.44 1.63c1.4558 1.5044 3.1962 2.7044 5.12 3.53l-3.67.64 2.19 1.64c1.4402 1.0171 3.0431 1.7814 4.74 2.26-.4725.3497-.8225.8396-1 1.4v.08l1 .63c1.004.6357 2.082 1.1461 3.21 1.52-.5374.3548-.9913.8223-1.33 1.37l-.57 1 1 .6c1.281.6742 2.6941 1.0599 4.14 1.13-.3281.4577-.5751.9685-.73 1.51l-.3.95.87.45c.9482.3982 1.9725.5826 3 .54h.17c-.6081.6625-1.0322 1.4727-1.23 2.35l-.23 1.33 1.35.06h.72c.9462.0004 1.8915-.0597 2.83-.18-.1639.3631-.2912.7417-.38 1.13l-.38 1.61 1.64-.16h.13l.25.35c.7239.8763 1.5731 1.6412 2.52 2.27l-1.8.26.87 1c.7703.823 1.7034 1.4769 2.74 1.92l-2 .35 1.3 1c.6564.6226 1.4569 1.0727 2.33 1.31-.105.0981-.1929.213-.26.34l-.21.54.48.32c.5427.3334 1.1193.6083 1.72.82-.2613.1985-.4849.4424-.66.72l-.33.58.75.45c.6453.3882 1.3776.6082 2.13.64-.1546.249-.282.5138-.38.79l-.16.56.52.28c.5388.2191 1.119.3181 1.7.29-.2906.3656-.4834.7993-.56 1.26l-.15.79h.8.4c.5149-.0018 1.0292-.0352 1.54-.1-.075.1849-.1352.3755-.18.57l-.22 1 1-.09c.5372-.0403 1.0696-.1307 1.59-.27-.0564.1951-.0866.3969-.09.6.0013.196.0282.391.08.58l.17.53h.55.11c.5863-.0017 1.1691-.0893 1.73-.26.0152.1017.0386.202.07.3l.09.47h.57.75.76.25l-.15.53.68.12h.37c.3956.0036.7907-.0299 1.18-.1-.73 1-1.45 1.94-2.08 2.7-1.38 1.64-2.38 2.58-2.38 2.59l2.68 4.84 4.1 3.58 2.64 4.09 5.74 1.82 5.72-1.82 2.63-4.12 4.06-3.57 2.74-4.88c-.7067-.5992-1.3501-1.2694-1.92-2-.8094-1.0213-1.5574-2.0899-2.24-3.2.1231.0099.2469.0099.37 0l.83-.07v-.1s-.08-.38-.11-.59c.3129.0233.6271.0233.94 0h.76.63l.11-.59c.009-.0395.009-.0805 0-.12.5571.1839 1.1348.2981 1.72.34l.75.06.16-.67c.0558-.1607.0829-.3299.08-.5-.0014-.2008-.0352-.4-.1-.59.4839.1355.9794.2259 1.48.27l1.09.11-.25-1.08c0-.16-.06-.27-.11-.42.4606.0625.9253.0893 1.39.08h1.37l-.24-.94c-.0522-.4139-.2183-.8051-.48-1.13.5367.0394 1.073-.0825 1.54-.35l.52-.27-.15-.69c-.0664-.2527-.1674-.4949-.3-.72.7561-.0365 1.4913-.2598 2.14-.65l.78-.39-.41-.71c-.126-.2335-.2958-.4406-.5-.61.5249-.1701 1.0207-.4197 1.47-.74l.48-.32-.18-.68c-.0516-.1338-.1338-.2536-.24-.35.8943-.2405 1.731-.6588 2.46-1.23l1.29-1-2-.35c1.0148-.4528 1.9344-1.0942 2.71-1.89l.86-1-1.8-.27.09-.06h.79l.25-.82c.5044-.435.9695-.9135 1.39-1.43l.38-.5c.65.12 1.08.16 1.17.17l1.65.15-.39-1.61c-.102-.3599-.232-.711-.39-1.05.939.1178 1.884.1746 2.83.17h.72l1.35-.06-.24-1.33c-.196-.8758-.617-1.6856-1.22-2.35h.17c1.028.0529 2.055-.1319 3-.54l.88-.45-.3-.95c-.155-.5415-.402-1.0523-.73-1.51 1.471-.0721 2.907-.4754 4.2-1.18l1-.6-.56-1c-.33-.533-.765-.9925-1.28-1.35 1.118-.371 2.186-.8782 3.18-1.51l1-.65v-.07c-.27-.5209-.633-.9885-1.07-1.38 1.721-.4732 3.347-1.2376 4.81-2.26l2.19-1.65-3.67-.63c1.924-.8256 3.664-2.0256 5.12-3.53l1.44-1.63-3.27-.49c1.756-1.1375 3.325-2.5409 4.65-4.16l1.85-2.42-3 .52c1.93-1.7159 3.512-3.7868 4.66-6.1l1.77-3.73-3.48 2.23h-.09c1.46-1.9709 2.66-4.122 3.57-6.4z" fill="#221f21"/><path d="m64.5398 97.0692-1.43-1.92-1.65-.58-2.06-2.65.11-.1c1.1314-1.6576 2.1697-3.377 3.11-5.15.23-.69.77-2.2 1.14-3.25-.2264.1212-.4601.2281-.7.32l-.47.16.12-.84c-.4389.2263-.9261.3429-1.42.34h-.18l-.78-.08.63-.47c.2176-.1639.3982-.3717.53-.61h-.48-.25-.78l.55-.44c-.1529.0147-.307.0147-.46 0-.4155.0184-.8227-.1209-1.14-.39l-.24-.22.24-.22c.1423-.1656.2501-.3579.3171-.5657.0669-.2077.0917-.4268.0729-.6443-.3063.165-.6526.2412-1 .22-.1726.0217-.3473.0217-.52 0h-.11l-.07-.1c-.1658-.3067-.2485-.6514-.24-1-.5129.4439-1.1718.6825-1.85.67h-.31l-.22-.17v-.3c0-.15 0-.34.07-.53-.5015.1542-1.0257.2219-1.55.2-.4 0-.71 0-.72 0h-.22v-.22c-.031-.281.0175-.5651.14-.82-.763.3468-1.5833.5502-2.42.6h-.3l-.07-.22c-.0519-.304-.0406-.6155.0334-.9149s.209-.5803.3966-.8251c-.7927.2649-1.6102.4491-2.44.55h-.41l.1-.41c.1061-.4293.289-.8359.54-1.2-.7426.159-1.5005.2361-2.26.23h-.38-.35l.07-.33c.2167-.7247.6622-1.3597 1.27-1.81-.3307.0528-.665.0796-1 .08-.5156.0195-1.0288-.0798-1.5-.29l-.23-.11.07-.25c.1673-.4958.4642-.9378.86-1.28h-.12c-.9771.0339-1.9471-.1793-2.82-.62l-.24-.16.13-.25c.3376-.4514.7759-.8178 1.28-1.07-.8713-.1793-1.702-.5184-2.45-1l-.22-.14.09-.23c.07-.14.28-.36.9-.66-1.2397-.1936-2.4174-.6729-3.44-1.4l-.57-.42 2.59-.45c-1.5233-.3859-2.9086-1.1894-4-2.32l-.36-.41 2.25-.35c-1.3374-.6397-2.5158-1.5688-3.45-2.72l-.47-.62.77.13c.4393.083.8836.1365 1.33.16-1.5183-1.0178-2.7453-2.4136-3.56-4.05l-.44-.95.89.57c.4213.2522.8805.4346 1.36.54-.797-.8458-1.371-1.8768-1.67-3l-.11-.49.49.13c.1897.0485.3843.0754.58.08h.15c-1.0056-1.1965-1.6935-2.6273-2-4.16l.56-.22c.76 1.12 8.75 5.64 10.45 6.35.765.3456 1.5036.7466 2.21 1.2.5364.4066 1.1482.7024 1.8.87.85 0 2.72.24 3 .27h.27c3 0 3.83 2.31 4.35 4.49.3185 1.8496 1.304 3.5182 2.77 4.69.62.4196 1.2924.7558 2 1 .1837-.0763.3812-.1138.58-.11h.31c.4215.043.8393.1165 1.25.22.26 0 2.06-.13 2.76-1.15.1709-.3272.2601-.6908.2601-1.06 0-.3691-.0892-.7328-.2601-1.06l-1.79-.1v-.45c-.1316.1335-.2068.3126-.21.5l-.11.83-.46-.72c-.3106-.4794-.4417-1.0532-.37-1.62.0785-.291.2691-.5391.53-.69.2773-.1701.5948-.2633.92-.27.2253-.0001.4476.0512.65.15.37-.4 1.35-1.13 3.54-1.13h.11c.12 0 3 .16 2.9 2v.34h-.07c.2027.4871.2949 1.013.27 1.54 0 .25.12 1 .44 1.16l-.26.54c-.0766-.0211-.1505-.0513-.22-.09.3945.5191.9237.9203 1.53 1.16.2846.1483.5871.2592.9.33.1328-.0213.2634-.0548.39-.1.5112-.1659 1.043-.2602 1.58-.28.2053.0007.4099.0242.61.07.7064-.2471 1.3785-.5831 2-1 1.4605-1.1848 2.4354-2.8642 2.74-4.72.52-2.18 1.32-4.49 4.35-4.49h.28c.25 0 2.11-.25 3-.27.6518-.1676 1.2637-.4634 1.8-.87.7018-.4436 1.4336-.8379 2.19-1.18 1.71-.71 9.6902-5.24 10.4602-6.35l.55.22c-.302 1.5344-.99 2.9663-2 4.16h.15c.199-.004.397-.0308.59-.08l.49-.13-.12.49c-.293 1.1234-.864 2.1551-1.6602 3 .4792-.1072.9382-.2895 1.3602-.54l.84-.57-.45.95c-.809 1.637-2.0333 3.0334-3.5501 4.05.4459-.0169.8902-.0637 1.3299-.14l.77-.13-.4899.62c-.9141 1.1527-2.0808 2.0799-3.4101 2.71l2.25.35-.36.41c-1.0955 1.1253-2.4792 1.9278-4 2.32l2.6.45-.57.42c-1.016.7168-2.1823 1.1922-3.41 1.39.3602.1285.676.3575.91.66l.09.23-.21.14c-.7531.4786-1.5865.8173-2.46 1 .5059.2496.9447.6165 1.28 1.07l.14.25-.25.16c-.8682.4436-1.8357.6571-2.81.62h-.12c.3929.3428.6865.7849.85 1.28l.07.25-.23.11c-.4797.203-1 .292-1.52.26-.3349.0001-.6693-.0267-1-.08.6052.4508 1.0474 1.086 1.26 1.81l.06.33h-.34-.43c-.7594.0056-1.5172-.0715-2.26-.23.2471.3664.4297.7722.54 1.2l.09.41h-.41c-.8295-.1019-1.6469-.2862-2.44-.55.1876.2448.3227.5257.3967.8251s.0853.6109.0333.9149l-.06.22h-.25c-.8366-.0498-1.6569-.2532-2.42-.6.1226.2549.1711.539.14.82v.22h-.26s-.33 0-.73 0c-.5242.0211-1.0482-.0465-1.55-.2 0 .19 0 .38.08.53v.3l-.32.06h-.3c-.6822.0189-1.3464-.2204-1.86-.67.012.3489-.071.6945-.24 1l-.06.1h-.12c-.1727.0209-.3473.0209-.52 0-.3472.0201-.6932-.056-1-.22-.0163.2181.0107.4373.0793.6449.0686.2077.1776.3997.3207.5651l.23.22-.24.22c-.3172.2691-.7244.4084-1.14.39-.1529.0147-.307.0147-.46 0l.56.44h-.78-.26-.47c.1319.2383.3125.4461.53.61l.63.47-.79.08h-.17c-.4494.0333-.9006-.035-1.32-.2l.12.84-.48-.16c-.2389-.0939-.4726-.2007-.7-.32.37 1 .91 2.56 1.15 3.25.9366 1.7752 1.975 3.4947 3.11 5.15l.09.1-.33 2-1.52 1-1.49 1.29-2.18 1.34-1.44.81z" fill="#9a1c22"/><path d="m63.3196 60.9991s.91-1.23 3.36-1c0 0 2.53.09 2.6 1.71 0 0-.49-.15-.42-.07s.59.42.61 1.81.68 1.59.68 1.59c-.2173-.0431-.4212-.1372-.5951-.2746-.1738-.1373-.3126-.3139-.4049-.5154 0 0-.36 1.32 2 2.41-.3765.0721-.7652.048-1.13-.07 0 0-.21.43.69.71 0 0-1.41.15-2-.46 0 0 0 .46.78 1.18 0 0-1.32.13-1.7-.68l.21 1.54s-1-.75-1.11-1.09c0 0-.83.94-1.23 1l.12-1.5s-1 1-1.8.61c.2317-.1046.4398-.2551.6117-.4425.1719-.1873.304-.4076.3883-.6475-.531.3388-1.1503.5127-1.78.5l.7-.73c-.4477.101-.9123.101-1.36 0 0 0 2-.72 2-1.75.0314-.6184-.096-1.2346-.37-1.79h1.56l-1.5-1.6.9-.68s-1 .09-1.83.25zm-1.46 1.38c.32-.41 1.69 0 1.69 0l-1.43.33 3.18.15c-1.3-1.68-3.19-2.19-3.89-1.61s.15 1.77.15 1.77c.0189-.2544.1248-.4945.3-.68zm10.69 8.29c-.27.18-.12 2.2-.12 2.2.066.9236-.1134 1.8482-.52 2.68l.85-.76.66 1.27c.44-.15 1-1.76 1-1.76.08.72 1.6.37 1.6.37 0 .33 1.4-1 1.4-1l1.39 1.21v-2l1.81 1c.0076-.6249-.1257-1.2436-.39-1.81l1.74.45-.61-1.76 1.45.06-.73-1.33h1.81c0-.52-1.21-1.4-1.21-1.4.7351-.024 1.4672-.1042 2.19-.24-.1-.45-1.58-1.3-1.58-1.3h2.61l-1.13-1.33c.7542-.0074 1.5041-.1151 2.23-.32-.7721-.6838-1.6292-1.2653-2.55-1.73 1.1316.082 2.269-.0159 3.37-.29-.11-.58-2.34-1.52-2.34-1.52 1.1993-.0223 2.3874-.235 3.52-.63-.5904-.4199-1.2161-.788-1.87-1.1 1.0174-.3183 2.0019-.7336 2.94-1.24-.836-.3496-1.713-.5915-2.61-.72.4269-.1068.8188-.3223 1.1377-.6254.3189-.3032.554-.6837.6823-1.1046 0 0-3.6.43-5.91.49s-3 2-3.87 5.51-4.55 5-4.55 5c-4 1.73-3.72 6.12-3.72 6.12.5002-.7379.9544-1.506 1.36-2.3zm24.24-17.4c4.7804-2.79 5.0004-5.65 5.0004-5.65-2.3204 2.54-12.6904 7.51-12.6904 7.51 3.69.87 7.64-1.86 7.64-1.86zm-1.47 3.6c4.62-1.87 5.6804-4.82 5.6804-4.82-9.7104 4.82-11.8104 5.17-11.8104 5.17s1.66 1.55 6.22-.35zm5.8404-2.06c-5.1704 3.31-12.5804 5-12.5804 5 2.3563.5045 4.8093.2987 7.0486-.5913s4.1643-2.4243 5.5318-4.4087zm-1.8904 4.34-11.63 3c2.0354.5011 4.1633.4893 6.1931-.0343 2.0297-.5236 3.8978-1.5426 5.4369-2.9657zm-1.54 3.47c-2.2004.0083-4.3958.2125-6.56.61-1.4669.3539-2.9574.6012-4.46.74 4.3 2.66 11-1.35 11-1.35zm-1.95 3.15c-.61-.35-10 0-9.93.07 3.73 2.53 9.93-.07 9.93-.07zm-2.61 2.4c-1-.73-8.05-.93-8.05-.93 1.54 2.83 8.05.93 8.05.93zm-1.28 2.48c-.93-.94-7.55-1.9-7.55-1.9 1.77 3.25 7.55 1.9 7.55 1.9zm-2.24 2.25c-.16-1-6.33-2.83-6.33-2.83.21 2.7 6.33 2.83 6.33 2.83zm-1.44 2.31c-.16-1-1.54-1.7-1.54-1.7-4.24-1.48-4.4-2-4.4-2 .19 3.08 5.94 3.72 5.94 3.72zm-2.38 1.38c-.26-1.51-4.83-3.59-4.83-3.59.07 2.66 4.82 3.54 4.82 3.54zm-2.39 1.23c0-1.26-1.82-2.32-1.82-2.32-.8631-.295-1.6373-.8042-2.25-1.48.06 3 4.07 3.8 4.07 3.8zm-2.53.57c0-.54-3.34-3.53-3.34-3.53.06 3 3.34 3.53 3.34 3.53zm-2.48.71-2.33-3.89c-.1392.4111-.1875.8475-.1417 1.2791s.1848.8482.4073 1.2208c.2224.3727.5231.6927.8813.9379.3581.2451.7652.4097 1.1931.4822zm-2.58.54c.25-1.09-1.48-4-1.48-4-1 3.28 1.48 4 1.48 4zm-2.19.68c.16-.8-.94-4.5-.94-4.5-1.76 2.38.94 4.5.94 4.5zm-11.19-7.32c.0586-1.2756-.2652-2.5396-.9297-3.63-.6646-1.0904-1.6397-1.9574-2.8003-2.49 0 0-3.64-1.51-4.55-5s-1.56-5.45-3.87-5.51-5.91-.49-5.91-.49c.1283.4209.3634.8014.6823 1.1046.3189.3031.7109.5186 1.1377.6254-.8937.1288-1.7674.3707-2.6.72.9339.5079 1.9153.9232 2.93 1.24-.6539.312-1.2796.6801-1.87 1.1 1.1166.3902 2.2875.6028 3.47.63 0 0-2.23.94-2.32 1.52 1.0975.2746 2.2317.3724 3.36.29-.9208.4647-1.7779 1.0462-2.55 1.73.7317.2124 1.4883.3268 2.25.34l-1.12 1.33h2.54s-1.49.85-1.58 1.3c.7196.1347 1.4483.2149 2.18.24 0 0-1.23.88-1.2 1.4h1.81l-.72 1.33 1.44-.06-.6 1.76 1.73-.45c-.2639.5669-.4005 1.1847-.4 1.81l1.82-1v2l1.39-1.21s.37 1.87.73 2c0 0 .64-.63.67-1 0 0 1.51.48 1.6-.37 0 0 .61 1.61 1 1.76l.66-1.27.85.76c-.4066-.8318-.586-1.7564-.52-2.68 0 0 .15-2-.12-2.2.4154.8213.8865 1.6131 1.41 2.37zm-17.95-17.87s-10.36-5-12.67-7.51c0 0 .25 2.86 5 5.65 0 0 3.94 2.73 7.63 1.86zm-.04 2.09s-2.11-.35-11.81-5.17c0 0 1 2.92 5.59 4.82s6.22.35 6.22.35zm.61 2.61s-7.41-1.71-12.58-5c1.3689 1.9824 3.2941 3.5151 5.5329 4.4049s4.6908 1.0969 7.0471.5951zm.95 2.27-11.64-3c1.5411 1.4232 3.411 2.4421 5.4423 2.9657 2.0313.5235 4.1607.5353 6.1977.0343zm.96 1.9c-1.5065-.139-3.0006-.3897-4.47-.75-2.1649-.3912-4.36-.592-6.56-.6 0 0 6.72 4 11 1.35zm.8 1.87c.1-.08-9.31-.42-9.93-.07 0 0 6.21 2.6 9.93.07zm.74 1.4s-7.1.2-8.06.93c0 0 6.52 1.9 8.06-.93zm.77 1.52s-6.62.95-7.55 1.89c0 0 5.79 1.35 7.55-1.89zm1.33 1.37s-6.13 1.84-6.29 2.84c0 0 6.14-.13 6.33-2.83zm1.04 1.4s-.16.54-4.4 2c0 0-1.38.74-1.54 1.71 0 0 5.75-.65 5.94-3.73zm1.16 1.44s-4.56 2-4.84 3.5c0 0 4.76-.87 4.82-3.54zm1.61 1.05c-.6048.6802-1.3771 1.1904-2.24 1.48 0 0-1.82 1.06-1.82 2.32 0 0 4-.84 4.06-3.8zm1.93.78s-3.3 3-3.34 3.53c0 0 3.28-.54 3.34-3.53zm1.73.44-2.61 3.73c.432-.04.8502-.1732 1.2257-.3904.3756-.2173.6995-.5134.9495-.868s.4202-.7592.4987-1.1859.0635-.8653-.0439-1.2857zm2.84.55s-1.1 3.7-.94 4.5c0 0 2.7-2.12.94-4.5zm10.52 3.74c-.69 0-1-.9-1-.9v2.18c-.2215.013-.4431-.0233-.6489-.1063s-.3906-.2106-.5411-.3737c.0219.591.1665 1.1709.4248 1.7029.2582.532.6244 1.0044 1.0752 1.3871-.0324-.3733-.0892-.7441-.17-1.11.2451.281.5562.4966.9053.6275s.7253.173 1.0947.1225c-.398-.3229-.6762-.7701-.79-1.27.3678.1724.7776.2349 1.18.18-.1313-.0899-.2431-.2053-.329-.3393s-.144-.2838-.171-.4407c1.64.71 2.14 0 2.14 0-3.62-.42-3-5.43-3-5.43-.5529 1.1878-.6175 2.5451-.18 3.78zm-9.36-3.77s.67 5-3 5.43c0 0 .5.67 2.14 0-.0269.1569-.0851.3067-.171.4407-.0858.134-.1977.2494-.329.3393.4253.0691.8615.0063 1.25-.18-.1193.4975-.3965.9431-.79 1.27.3694.0505.7456.0084 1.0947-.1225s.6602-.3465.9053-.6275c-.0929.3653-.1631.736-.21 1.11.4499-.3835.8154-.8561 1.0736-1.3879.2581-.5318.4033-1.1113.4264-1.7021-.1541.1612-.3409.2874-.5479.3702s-.4294.1202-.6521.1098v-2.18s-.31.85-1 .9c.4376-1.2349.3729-2.5922-.18-3.78zm1.56 10.92.11 1.29.62-1-.09 1.86.69-1 .41 1.14.46-1.5.58 1.32.38-2 .44 1.93.55-1.17.43 1.41.54-.91.5.84v-1.86l.7 1 .19-1.18.34.46c.41-.89-1.17-4.85-1.17-4.85-.15.46-.51 1.37-.51 1.37l-.3-.51c-.19.45-.7 2.13-.7 2.13-.1779-.9659-.5159-1.8954-1-2.75-.3552.8989-.6362 1.8253-.84 2.77-.0703-.7555-.2806-1.4913-.62-2.17l-.51.54c.0295-.4851-.132-.9624-.45-1.33-.5195 1.5564-.9305 3.1469-1.23 4.76zm10.33 5.29-3.16-5.22c.09 2.84 3.16 5.22 3.16 5.22zm-.29 1.74-3.42-6.14c.37 3.34 3.43 6.15 3.43 6.15zm-1.41 1.01c0-1.9-2.68-6.54-2.68-6.54 0 3.13 2.68 6.54 2.68 6.54zm-3.48-6.14c-.52 3.25 2.06 7.56 2.06 7.56.26-1.5-2.06-7.56-2.06-7.56zm.37 8.39c.62-2-1.35-8.3-1.35-8.3-.4444 2.8399.0285 5.7474 1.35 8.3zm-6.51-.91c2.14-2.09 2.32-7.53 2.32-7.53-1.1833 2.3682-1.9512 4.922-2.27 7.55zm-1.27-1.45c2.74-2.41 2.74-6.51 2.74-6.51-1.2354 2.02-2.1591 4.2146-2.74 6.51zm2.28-7.12c-.63.88-3.37 5.89-3.37 5.89 1.79.08 3.37-5.89 3.37-5.89zm-.69-.62-3.09 4.82c1.48-.11 3.09-4.82 3.09-4.82zm11.77-20.22c-.21-.32-3.14.25-3.47.79s-1.39.39-1.39.39c.15.35.78.5.78.5-.74.4-2.21-.22-2.21-.22l-.18 1.4-1.3-.93-1.36.93-.18-1.4s-1.46.62-2.21.22c0 0 .64-.15.78-.5 0 0-1.07.14-1.39-.39s-3.25-1.11-3.46-.79c.9205.3604 1.7856.8485 2.57 1.45.7337.5566 1.5596.9797 2.44 1.25-.3325.096-.6842.1041-1.0207.0235-.3365-.0807-.6464-.2472-.8993-.4835 0 0 1 1.42.84 5.29-.543-.3269-.9401-.8493-1.11-1.46-.1647 1.0474.0709 2.1185.66 3 .3087.4293.5013.9311.5591 1.4567s-.0211 1.0572-.2291 1.5433c.2045-.1189.3833-.2775.5258-.4664s.2459-.4042.3042-.6336l-.05 2.77s.89 0 1.1-.65c.1197.5971.0957 1.2141-.07 1.8l.25-.06v1.26s.66.07.66-1l.46 2.12c.3707-.6008.5648-1.2939.56-2h.47c-.0114.7042.1758 1.3973.54 2l.47-2.12c0 1.08.66 1 .66 1v-1.26l.24.06c-.1657-.5859-.1897-1.2029-.07-1.8.22.63 1.11.65 1.11.65l-.05-2.77c.0573.2311.1614.448.3059.6372s.3263.3467.5341.4628c-.2178-.4829-.3038-1.0148-.2494-1.5417.0545-.527.2475-1.0301.5594-1.4583.5944-.8794.8338-1.9512.67-3-.1698.6107-.567 1.1331-1.11 1.46-.17-3.87.84-5.29.84-5.29-.257.233-.5686.3973-.906.4777-.3373.0804-.6896.0743-1.024-.0177.8838-.2694 1.7132-.6925 2.45-1.25.7857-.5995 1.6506-1.0874 2.57-1.45" fill="#ea5e28"/><path d="m81.3504 85.4602c-1.82-1.63-3.9-4.49-6.42-9.18-.42-1.23-1.37-4-2-5.82.4024.2169.8202.404 1.25.5599l.84.2901-.22-1.49c.7901.4002 1.6643.6059 2.55.6h.32l1.4-.13-1.12-.85c-.4163-.2817-.7592-.6588-1-1.1.2864.0166.5736.0166.86 0h.45l1.39-.08-1-.8c.2637.0508.5314.0776.8.08.7535.0351 1.4925-.2148 2.07-.7l.42-.38-.42-.4c-.5196-.6025-.7785-1.3867-.72-2.18.5297.2781 1.1219.4158 1.72.4.335.0013.6695-.0255 1-.08h.2l.12-.15c.3169-.5776.4658-1.2323.43-1.89.5334.445 1.151.7779 1.8159.9789.6649.2011 1.3635.266 2.0541.1911l.56-.08-.09-.54c0-.27-.09-.62-.13-1 .905.2664 1.8472.3846 2.79.35h1.29.39l.09-.38c.0583-.5028-.0248-1.0119-.24-1.47 1.3712.6145 2.8407.9802 4.34 1.08h.43l.12-.41c.0864-.5445.0636-1.1007-.0668-1.6363-.1305-.5356-.3661-1.04-.6932-1.4837 1.4088.4924 2.8676.8278 4.3496 1l.75.06-.19-.82c-.195-.7733-.534-1.5028-1-2.15 1.315.2797 2.656.4171 4 .41h.69.62l-.12-.62c-.379-1.303-1.181-2.4427-2.28-3.24.62.0888 1.245.1355 1.87.14.934.0522 1.868-.1085 2.73-.47l.41-.2-.15-.43c-.271-.8933-.796-1.6887-1.51-2.29h.2c1.789.0798 3.566-.3171 5.15-1.15l.43-.28-.26-.46c-.593-.8103-1.376-1.4627-2.28-1.9 1.566-.3426 3.061-.9515 4.42-1.8l.46-.28-.26-.38c-.445-.5102-.994-.9193-1.61-1.2 2.197-.3663 4.284-1.2169 6.11-2.49l1-.75-4.64-.81c2.728-.6946 5.213-2.127 7.18-4.14l.67-.76-4-.61c2.397-1.1439 4.503-2.8158 6.16-4.89l.85-1.1-1.37.23c-.787.1343-1.582.2145-2.38.24 4-2.39 6.25-7 6.37-7.25l.81-1.71-1.61 1c-.75.4627-1.571.8004-2.43 1 2.17-2.17 4.13-6.58 4.13-6.58-.93.3374-1.891.5819-2.87.73-.093.0101-.187.0101-.28 0 1.799-2.1478 3.021-4.71876 3.55-7.47004l.15-1.41-1 1c-4.21 3.86-15.82 10.18004-18.88 11.45004-1.361.6036-2.672 1.3159-3.92 2.13-1.003.6944-2.125 1.1994-3.31 1.49-1.739.3792-3.52.5371-5.2996.47h-.5c-5.44 0-6.88 4.16-7.81 8.06-1.23 5.2-3.61 7.53-4.93 8.47-1.1301.7795-2.3571 1.4082-3.65 1.87-.358-.0782-.7237-.1151-1.09-.11-.9673.0381-1.9255.2028-2.85.49-.2351.0781-.4758.1383-.72.18-.5511-.1298-1.0848-.3245-1.59-.58-1.0947-.4297-2.0473-1.1571-2.75-2.1.94 0 1.67-.08 1.67-.08-.4763-.2977-.8722-.7078-1.1529-1.1943s-.4377-1.0344-.4571-1.5957c-.007-.9274-.1245-1.8505-.35-2.75v-.62c.12-3.37-5-3.63-5.22-3.63h-.19c-3.93 0-5.68 1.28-6.36 2-.353-.1798-.7439-.2724-1.14-.27-.587.0132-1.1599.1823-1.66.49-.2383.1297-.4458.3095-.608.527-.1623.2175-.2755.4675-.332.733-.1034.5015-.097 1.0195.0186 1.5183.1157.4988.3379.9668.6514 1.3717.35.54.93 1.27.93 1.27-.0323-.3326-.0323-.6675 0-1 .0291-.4755.1845-.9346.45-1.33 0 0-.61 1.09 1.58.89.5582-.0815 1.1273-.0441 1.67.11.61 1.59.59 2.87-.06 3.82-1.24 1.84-4.46 2-4.95 2.06-.7287-.1877-1.471-.3181-2.22-.39h-.57c-.3422-.0103-.6828.051-1 .18-1.26-.4612-2.4537-1.0866-3.55-1.86-1.32-.93-3.69-3.26-4.93-8.47-.93-3.9-2.37-8.06-7.8-8.06h-.51c-1.7762-.0188-3.5482-.176-5.3-.47-1.1455-.3668-2.2356-.8883-3.24-1.55-1.2499-.8099-2.5604-1.522-3.92-2.13-5.9167-2.8355-11.6009-6.1323-17.00001-9.86004-1.07105-.76269-2.07473-1.61582-3-2.55l.27 1.41c.73226 2.92709 2.09768 5.65794 4 8.00004-1.23242-.3965-2.42713-.9018-3.57-1.51 0 0 1.91 4.67 4.09 6.84-.86515-.1994-1.69246-.5371-2.45-1l-1.6-1 .81 1.71c.11.22 2.35 4.86 6.38001 7.25-.798-.0245-1.5932-.1047-2.38001-.24l-1.39-.23.86 1.1c1.65711 2.0789 3.76751 3.7515 6.17001 4.89l-4.09.62.67.76c1.9611 2.0135 4.438 3.4492 7.16 4.15l-4.63.81 1 .75c1.8266 1.2731 3.9138 2.1237 6.11 2.49-1.62.64-1.79 1.61-1.79 1.61l.38.25c1.3621.8433 2.8562 1.4518 4.42 1.8-.9057.4345-1.6892 1.0874-2.28 1.9l-.27.46.45.28c1.5402.8047 3.2635 1.1941 5 1.13h.2c-.674.619-1.1652 1.4111-1.42 2.29l-.13.43.4.2c.8631.3598 1.7962.5205 2.73.47.6224-.0045 1.2439-.0513 1.86-.14-1.0955.8-1.8968 1.9387-2.28 3.24l-.11.62h.62.69c1.3442.0078 2.6853-.1296 4-.41-.4576.652-.7961 1.3799-1 2.15l-.17.73.75-.07c1.4864-.168 2.949-.5035 4.36-1-.3335.4533-.5697.9707-.6936 1.5197-.1239.5489-.1329 1.1176-.0264 1.6703l.12.41h.44c1.4958-.1014 2.9618-.4671 4.33-1.08-.22.4566-.3033.9671-.24 1.47l.09.38h.39 1.3c.9395.0341 1.8783-.0841 2.78-.35 0 .33-.09.68-.13 1l-.09.54.55.08c.1832.0097.3668.0097.55 0 1.2204.0269 2.4073-.4008 3.33-1.2-.0262.6645.1257 1.3239.44 1.91l.14.15h.19c.3106.0523.625.0791.94.08.6013.0158 1.1967-.1219 1.73-.4.0585.7933-.2005 1.5775-.72 2.18l-.41.4.41.39c.5763.4792 1.3112.7254 2.06.69.2751-.0029.5495-.0296.82-.08l-1 .8 1.4.08h.45c.2864.0163.5736.0163.86 0-.2379.4433-.5813.8211-1 1.1l-1.13.85 1.4.13h.33c.8824.0059 1.7535-.1999 2.54-.6001l-.22 1.4901.85-.29c.4325-.1571.8536-.3442 1.26-.56-.67 1.86-1.62 4.59-2.05 5.82-1.7338 3.4126-3.9987 6.528-6.71 9.23l2.39 4.14 4 3.55 2.58 4 5.19 1.59 5.19-1.59 2.58-4 4-3.54z" fill="#9a1c22"/><path d="m61.0006 30.2705s1.63-2.21 6-1.86c0 0 4.55.17 4.68 3.08 0 0-.89-.29-.77-.13s1.06.74 1.09 3.24 1.21 2.85 1.21 2.85c-.3674-.0973-.707-.279-.9917-.5308-.2847-.2517-.5067-.5665-.6483-.9192 0 0-.67 2.37 3.65 4.32-.7408.0789-1.4893.0452-2.22-.1.3823.538.8814.9824 1.46 1.3 0 0-2.53.25-3.52-.83 0 0 .06.83 1.41 2.1 0 0-2.37.23-3-1.22l.19 2.8c-.8546-.4243-1.5543-1.1064-2-1.95 0 0-1.54 1.69-2.28 1.85l.22-2.7c-.7747.8045-1.8248 1.2867-2.94 1.35.6995-.5675 1.2089-1.3351 1.46-2.2-.9561.6044-2.0691.914-3.2.89l1.2-1.31c-.8028.1851-1.6372.1851-2.44 0 0 0 3.55-1.28 3.65-3.15.0593-1.0842-.1502-2.1663-.61-3.15h2.79l-2.69-3 1.6-1.22s-1.8.16-3.27.45zm-2.7 2.48c.59-.72 3.19.05 3.19.05-.79-.008-1.5793.0489-2.36.17.06.55.31.61 1.23.64.32 0 1.55-.1 2.58-.09.5589.0064 1.1168.0498 1.67.13-2.33-3-5.72-3.92-7-2.87s.24 3.18.24 3.18c.0204-.4354.1663-.8556.42-1.21zm18.87 16.75c-.49.33.23 2.13.23 2.13.1208 1.6466-.1967 3.2958-.92 4.78l1.52-1.35 1.2 2.28c.8-.27 1.8-3.15 1.8-3.15.2845 1.2099.8653 2.3301 1.69 3.26l1.19-2.61c0 .6 1.2 1.74 1.2 1.74.65-.22 1.3-3.58 1.3-3.58l2.49 2.17v-3.59l3.27 1.85c-.0006-1.125-.2427-2.2367-.71-3.26l3.09.81-1.08-3.15 2.6.11-1.29-2.39c.5096.0297 1.0205.0297 1.53 0 .92 0 1.92-.15 1.92-.15-.5763-.9728-1.3747-1.7952-2.33-2.4 1.3177-.022 2.6303-.1693 3.92-.44-.6674-.9037-1.4663-1.7026-2.37-2.37 0 0 .52.06 1.82.09 1.1404 0 2.2804-.05 2.2804-.05s-.63-1-1.08-1.55c-.4504-.55-.8104-.89-.8104-.89 1.3184-.0087 2.6304-.1936 3.9004-.55-1.374-1.2778-2.953-2.3156-4.6704-3.07 2.0594-.0189 4.1124-.2095 6.1404-.57-1.199-1.1773-2.625-2.0992-4.19-2.71 2.131-.0509 4.24-.439 6.25-1.15-1.067-.7437-2.194-1.396-3.37-1.95 1.837-.5707 3.616-1.3175 5.31-2.23-1.29-.76-5-1.26-5-1.26 3.32-.92 3.53-3.14 3.53-3.14-3.494.4579-7.008.7382-10.5304.84-4.13.08-5.33 3.7-7 9.88s-8.15 8.92-8.15 8.92c-7.22 3.1-6.67 11-6.67 11 .74-.6961 1.4099-1.4631 2-2.29zm43.9004-33.12c8.06-4.59 9-10.15003 9-10.15003-4.15 4.56003-22.77 13.50003-22.77 13.50003 6.64 1.55 13.72-3.35 13.72-3.35zm-2.59 6.45c8.19-3.39 10.15-8.52 10.15-8.52-17.4 8.65-21.33 9.16-21.33 9.16s3 2.77 11.18-.64zm9.64-3.16c-9.5 5.59-21.91 8.47-21.91 8.47 15.21 2.94 21.91-8.47 21.91-8.47zm-3.12 7.46-20.45 5.09c3.561.9493 7.304.9804 10.881.0902 3.576-.8901 6.868-2.6724 9.569-5.1802zm-2.6 6.05s-7.37 0-11.52 1.06c-2.629.6439-5.304 1.0852-8 1.32 7.72 4.78 19.53-2.38 19.53-2.38zm-3.4 5.69c-5.843-.6885-11.747-.6885-17.59 0 6.68 4.56 17.59 0 17.59 0zm-4.67 4.27c-1.73-1.33-14.25-1.7-14.25-1.7 2.77 5.07 14.25 1.7 14.25 1.7zm-2.4 4.36c-1.68-1.67-13.2304-3.35-13.2304-3.35 3.1704 5.82 13.2304 3.35 13.2304 3.35zm-3.94 4c-2.63-2.74-11.0704-5-11.0704-5 .34 4.84 11.0704 5 11.0704 5zm-2.57 4.08c-.272-.7579-.726-1.4373-1.322-1.978-.597-.5407-1.318-.926-2.098-1.122-2.5072-.7487-4.8726-1.9077-7.0004-3.43.34 5.53 10.4104 6.5 10.4104 6.5zm-4.01 2.57c-.46-2.65-8.6604-6-8.6604-6 .12 4.78 8.6604 6 8.6604 6zm-4.2604 2.31c0-2.25-3.29-4.15-3.29-4.15-1.533-.5368-2.9079-1.4476-4-2.65.11 5.3 7.32 6.8 7.32 6.8zm-4.53 1c0-1-6-6.34-6-6.34.11 5.35 6 6.34 6 6.34zm-4.43 1.26-4.22-7c-.2341.7372-.3082 1.516-.2175 2.2842s.3442 1.5082.7436 2.1707c.3993.6624.9354 1.2321 1.5724 1.671s1.3603.7369 2.1215.8741zm-4.67.92c.45-2-2.65-7.26-2.65-7.26-1.72 5.89 2.65 7.26 2.65 7.26zm-3.95 1.26c.29-1.45-1.67-8.08-1.67-8.08-3.17 4.27 1.67 8.08 1.67 8.08zm-20.08-13.11s.55-7.86-6.69-11c0 0-6.51-2.71-8.14-8.91s-2.82-9.88-6.95-9.88c-3.5516.0116-7.0978-.2794-10.6-.87.2296.7547.6519 1.4367 1.2254 1.9785.5734.5419 1.2781.9249 2.0446 1.1115-1.6095.2353-3.1822.6755-4.68 1.31 1.6903.9186 3.4651 1.6721 5.3 2.25-1.1759.5737-2.303 1.2426-3.37 2 2.0071.7057 4.113 1.0905 6.24 1.14-1.6136.6137-3.0989 1.5226-4.38 2.68 1.9939.5108 4.056.7031 6.11.57 0 0-3.44 1.83-4.47 3.07 1.3105.4176 2.6874.5872 4.06.5-.3535.3125-.6874.6465-1 1-.3666.4594-.7008.944-1 1.45.7188.1076 1.4435.171 2.17.19.7976.0219 1.5957-.0048 2.39-.08-1.1325.4559-2.1109 1.2262-2.82 2.22 1.2903.2444 2.5975.3881 3.91.43-.9408.6075-1.7198 1.4346-2.27 2.41.5088.0979 1.0231.1647 1.54.2.602.0565 1.208.0565 1.81 0-.235.3189-.4488.653-.64 1-.37.69-.66 1.31-.66 1.31l2.62-.11-1.15 3.24 3.1-.81c-.4674 1.0229-.7063 2.1354-.7 3.26l3.25-1.85v3.58l2.5-2.18s.65 3.37 1.31 3.59c0 0 1.14-1.14 1.19-1.74l1.19 2.61c.8213-.9337 1.4045-2.0522 1.7-3.26 0 0 1.08 2.88 1.84 3.14l1.19-2.28 1.52 1.36c-.7288-1.4823-1.0466-3.1331-.92-4.78 0 0 .27-3.64-.22-4 0 0 2.23 4.18 2.45 4.12zm-32.05-31.79s-1.57-1-3.75-2.11c-5.64-2.82-14.84997-7.89-18.79998-11.14003.4836 1.53108 1.1949 2.98066 2.11001 4.30003 1.74149 2.1272 3.86447 3.9111 6.25997 5.26 2.5502 1.6534 5.3847 2.8198 8.36 3.44 1.9046.3601 3.8502.451 5.78.27zm-.16 3.46s-3.89-.53-21.27997-9.18c0 0 1.99999 5.15 10.13997 8.54 8.14 3.39 11.19.64 11.19.64zm1.15 4.67s-12.49-2.89-22.28997-8.79c0 0 6.99997 11.73 22.27997 8.79zm1.65 4.09-20.84997-5.3c2.76307 2.5434 6.11557 4.3595 9.75527 5.2847s7.4525.9304 11.0947.0153zm1.68 3.34c-2.6965-.2348-5.371-.6761-8-1.32-4.15-1-11.41-1-11.41-1s11.65 7.1 19.41 2.32zm1.5 3.34c-5.8231-.4003-11.6668-.4003-17.49 0 0 0 10.79 4.61 17.49 0zm1.32 2.54s-9.19-.27-14.09 1.67c0 0 11.32 3.4 14.09-1.67zm1.42 2.71s-11.55 1.72-13.22 3.38c0 0 10.05 2.44 13.22-3.38zm1.79 2.36s-8.08 2.09-10.83 5c0 0 10.49-.12 10.83-5zm1.9 2.54c-.3811.3095-.7894.584-1.22.82-1.8929.9904-3.8626 1.8264-5.89 2.5-.7314.3062-1.3925.7586-1.9428 1.3295s-.9781 1.2483-1.2572 1.9905c0 0 10-1.11 10.31-6.64zm2.15 3.26s-8.09 3.19-8.54 5.84c0 0 8.42-1.06 8.54-5.84zm3 1.35c-1.0945 1.1995-2.4686 2.1099-4 2.65 0 0-3.28 1.9-3.28 4.15 0 0 7.2-1.5 7.32-6.8zm3.26 1.5s-5.93 5.35-6 6.34c0 0 5.87-1 6-6.34zm2.65.57-4.21 7c.7604-.1385 1.4826-.4373 2.1184-.8767s1.1707-1.0093 1.5691-1.6716c.3983-.6623.6509-1.4019.7411-2.1695.0901-.7677.0156-1.5457-.2186-2.2822zm3.12.69s-3.12 5.3-2.66 7.26c0 0 4.38-1.37 2.66-7.26zm2.94.4s-2 6.63-1.67 8.08c0 0 4.83-3.81 1.67-8.08zm18.87 6.71c-1.25-.1-1.83-1.61-1.83-1.61l.08 3.82c-1.86-.16-2.12-.49-2.12-.49.0148 1.0201.261 2.0236.7201 2.9348.459.9111 1.1189 1.7062 1.9299 2.3252-.056-.672-.1529-1.3399-.29-2 1.92 1.8 3.56 1.35 3.56 1.35-.7053-.5866-1.2003-1.387-1.41-2.28.6329.2592 1.3259.3355 2 .22-.84-.63-.79-1.24-.79-1.24 2.94 1.25 3.74-.1 3.74-.1-6.5-.73-5.27-9.7-5.27-9.7-1.73 2.85-.32 6.77-.32 6.77zm-16.8-6.77s1.19 9-5.32 9.71c0 0 .9 1.22 3.85 0-.1073.5576-.4308 1.0501-.9 1.37.6903.1252 1.402.0488 2.05-.22-.206.897-.7058 1.6994-1.42 2.28 0 0 1.65.45 3.57-1.35-.1371.6601-.2339 1.328-.29 2 .8143-.5365 1.4784-1.2716 1.9298-2.1359s.6752-1.8294.6502-2.8041c-.6519.173-1.3261.2471-2 .22v-3.91s-.58 1.51-1.83 1.61c0 0 1.4-3.92-.32-6.77zm2.74 19.6.19 2.3 1.19-1.82-.15 3.31 1.25-1.73.73 2 .81-2.69 1.06 2.36.68-3.65.76 3.45 1-2.11.78 2.55.79-1.83 1.07 1.68v-3.31l1.22 1.84.33-2.11.8.89c-.18-1.27-.22-1.45-.38-2.31-.4898-2.1974-1.1279-4.359-1.91-6.47-.24.82-.91 2.46-.91 2.46l-.53-.92c-.33.82-1.25 3.85-1.25 3.85 0-1.69-1.73-4.95-1.73-4.95-.678 1.6197-1.2231 3.2919-1.63 5-.1223-1.3581-.4989-2.6811-1.11-3.9l-.91 1c.0535-.8751-.2372-1.7363-.81-2.4-.9384 2.794-1.6769 5.6512-2.21 8.55zm18.38 9.28s-3.33-4.76-4.09-6c-.5621-.9418-1.0664-1.9169-1.51-2.92 1.39 6.55 5.6 8.91 5.6 8.91zm-.75 2.52-5.72-10.22c.6238 3.9906 2.6653 7.6226 5.75 10.23zm-2.12 2.56c-1-6-4.8-11.72-4.8-11.72-.06 5.62 4.8 11.72 4.8 11.72zm-6.25-11c-.91 5.81 3.7 13.56 3.7 13.56 0-5.66-3.7-13.56-3.7-13.56zm1.45 16.7c-.13-6.35-3.18-16.42-3.18-16.42-1.54 7.88 3.18 16.46 3.18 16.46zm-5.15 1.58c2.77-8.39.19-18 .19-18-1.8239 5.852-1.89 12.1107-.19 18zm-4.57-1.7c3.83-6.54 3.13-16.3 3.13-16.3-2.74 6.45-3.13 16.3-3.13 16.3zm-2.74-3.08c3.85-3.8 4.13-13.55 4.13-13.55-3.17 5.48-4.09 13.55-4.09 13.55zm-2.31-2.64c4.9-4.33 4.9-11.68 4.9-11.68-2.2152 3.6228-3.8674 7.561-4.9 11.68zm4-13.11c-1.16 1.58-6.12 10.82-6.12 10.82 4.56-3.73 6.06-10.82 6.06-10.82zm-1.21-.82s-1.71 2.84-2.55 4.2-3.34 4.46-3.34 4.46c3.75-1 5.89-8.66 5.89-8.66zm21.21-36.23c-1.81-.54-5.64.46-6.21 1.41s-2.5.71-2.5.71c.26.64 1.42.9 1.42.9-1.36.71-4-.38-4-.38l-.27 2.49-2.44-1.66-2.46 1.66-.32-2.49s-2.62 1.09-4 .38c0 0 1.14-.26 1.41-.9 0 0-1.93.25-2.51-.71s-5.83-2-6.21-1.41c1.6618.6344 3.2242 1.5032 4.64 2.58 1.3202 1.0014 2.8062 1.763 4.39 2.25 0 0-1.41.64-3.46-.84 0 0 1.83 2.57 1.5 9.51-.972-.5912-1.686-1.5265-2-2.62 0 0-.63 2.18 1.18 5.44s.58 5.32.58 5.32c.3755-.2119.7034-.4988.9632-.8429s.4459-.738.5468-1.1571l-.09 5s1.59 0 2-1.15c.2206 1.0745.176 2.1866-.13 3.24l.41-.15.06 2.28s1.19.13 1.19-1.82l.83 3.81c.682-1.0932 1.0296-2.3619 1-3.65h.92c-.0289 1.288.3186 2.5565 1 3.65l.83-3.81c0 2 1.19 1.82 1.19 1.82l-.02-2.28.46.14c-.3113-1.0523-.3593-2.1649-.14-3.24.39 1.12 2 1.15 2 1.15l-.1-5c.1031.4182.2901.8112.5497 1.155s.5863.6313.9603.845c0 0-1.24-2 .57-5.32s1.19-5.44 1.19-5.44c-.314 1.0935-1.028 2.0288-2 2.62-.29-6.91 1.51-9.48 1.51-9.48-2 1.48-3.46.84-3.46.84 1.6098-.4857 3.12-1.2544 4.46-2.27 1.4009-1.0826 2.9501-1.9582 4.6-2.6" fill="#e6273d"/><path d="m63.5605 92.0006c.8014-2.5946 1.2488-5.2856 1.33-8-.7632 2.6035-1.2098 5.2896-1.33 8zm7.86.43c-.4345-3.0796-1.0759-6.1265-1.92-9.12.1804 3.1189.8276 6.1931 1.92 9.12zm-10.34-3.11c.8561-2.0207 1.4412-4.1458 1.74-6.32-.7497 2.0597-1.3316 4.1766-1.74 6.33zm6.07 5.39c.6642-3.944.6844-7.9695.06-11.92-1 5.47-.49 8.09-.06 11.92zm5.91-7c-.3402-1.7163-.8597-3.3921-1.55-5 .1331 1.7622.663 3.4715 1.55 5zm-14-.93c.9807-1.5837 1.6872-3.3213 2.09-5.14-.8035 1.6679-1.5015 3.3846-2.09 5.14zm16.61.08c-.6085-1.7855-1.3334-3.5292-2.17-5.22.4365 1.8459 1.1694 3.6087 2.17 5.22" fill="url(#w)"/><path d="m71.4995 71.9993-.5 1.29-.47-.81c-.36 1.08-.73 2.33-.73 2.34l-1.39-.19c-.1537-1.1179-.4916-2.2026-1-3.21-.38 1.07-.76 2.51-1 3.47l-1.41-.17c-.0529-.9038-.2663-1.791-.63-2.62l-1.37 1.45v-1.77c0-.16 0-.31 0-.47-.39 1.31-.77 2.9-1.06 4.22l.3-.33.16 1.8h1.13v1.41l.69-.69.49 1 .76-2.47.89 2 .26-1.42h1.38l.34 1.45.91-1.91.75 2.48.46-1.22.57.57-.11-3.2 1.58 2.37.31-2 .29.38c-.3509-1.5149-.7917-3.0075-1.32-4.47z" fill="url(#x)"/><path d="m63.6705 30.9199 3.25 3.49h-3.38c.2714.835.3834 1.7136.33 2.59-.0637.4535-.22.889-.4591 1.2795s-.556.7276-.9309.9905l1.52-.34-1.33 1.4c.2839-.1182.5581-.2586.82-.42l1.43-.91-.33 1.62c-.0517.2403-.1358.4724-.25.69.1949-.1386.3758-.296.54-.47l1.39-1.43-.27 3.21c.27-.28.58-.57.84-.88l.83-1 .39 1.26c.1369.2113.3055.4002.5.56-.0425-.4523-.0425-.9076 0-1.36.06-.74.16-1.47.16-1.47.235.4878.5343.9418.89 1.35.57.66.65.5 1 .62-.3303-.5127-.539-1.0942-.61-1.7-.04-.5059-.04-1.0141 0-1.52.2188.3752.4662.7329.74 1.07.4629.4745 1.0421.8193 1.68 1-.2548-.3357-.4602-.7061-.61-1.1h.81c-2.29-1.85-1.8-3.71-1.77-3.8l.44-1.57c.0327-.4231-.0204-.8485-.1561-1.2506-.1358-.4021-.3514-.7727-.6339-1.0894l-.13-.13c-.0782-.092-.1324-.2019-.1576-.32-.0253-.118-.0209-.2405.0128-.3564.0337-.116.0956-.2218.1802-.3079s.1893-.1499.3046-.1857c-.91-1.39-3.7-1.52-3.73-1.52-.18 0-.37 0-.56 0z" fill="url(#z)"/><path d="m59.1991 64.0798-1 .07c-.1227.206-.2598.4031-.41.59-.2918.3724-.6276.7082-1 1l.28-.1 1.08-.47-.1 1.18c-.0288.1884-.0791.373-.15.55.1021-.0306.2023-.0674.3-.11l1.12-.49-.12 1.2c-.0721.4671-.2426.9136-.5 1.31.5447-.2394 1.0399-.5786 1.46-1l1.6-1.5-.31 1.69c.3293-.5555.5784-1.1548.74-1.78-.4107.131-.839.1984-1.27.2h-.73v-2.66c-.3041.1858-.6457.302-1 .34" fill="url(#A)"/><path d="m75.7795 64.0798 1 .07c.1227.206.2597.4031.41.59.2917.3724.6275.7082 1 1l-.28-.1-1.08-.47.1 1.18c.0287.1884.0791.373.15.55-.1022-.0306-.2024-.0674-.3-.11l-1.12-.49.12 1.2c.0721.4671.2425.9136.5 1.31-.5448-.2394-1.04-.5786-1.46-1l-1.6-1.5.31 1.69c-.3294-.5555-.5785-1.1548-.74-1.78.4106.131.8389.1984 1.27.2h.73v-2.66c.304.1858.6456.302 1 .34" fill="url(#B)"/><path d="m61.6699 31.9203c-.7429-.2331-1.5124-.3709-2.29-.41-.2743-.0254-.5509.0098-.8101.1031s-.4947.2425-.6899.4369c-.0572-.1568-.0706-.3262-.0389-.49s.1074-.3159.2189-.44c.2741-.1833.6009-.2712.93-.25 1.1561.0811 2.2624.5021 3.18 1.21z" fill="#fedc11"/><path d="m78.6702 62.9198c-.23-1.21-.61-2.77-1-4.23-.1787.734-.1813 1.4999-.0075 2.235s.519 1.4188 1.0075 1.995zm4-.51c-.3784-1.3683-.9013-2.6924-1.56-3.95-.1022.737-.0123 1.4879.2611 2.18.2733.692.7207 1.3017 1.2989 1.77zm2.39-2.47c.3499.5231.8066.9661 1.34 1.3l-2-3.33c.0516.7109.2783 1.398.66 2zm5.6.11c-.78-.84-1.87-1.91-3-3 .5918 1.3385 1.6615 2.4082 3 3zm5.44-.7c-.6616-1.0179-1.552-1.8672-2.6-2.48-.8784-.3365-1.7168-.7691-2.5-1.29 1.07 2.15 3.6299 3.29 5.1299 3.8zm3.79-2.35c-1.8604-1.6044-3.9291-2.9499-6.15-4 1 2.17 4.17 3.41 6.15 4zm4.5298-2.23c-.488-.6341-1.118-1.1445-1.84-1.49-2.153-.7123-4.2574-1.5641-6.2998-2.55 1.59 2.51 5.9398 3.63 8.1398 4zm1.73-4.13c-1.347-.6579-2.733-1.2324-4.15-1.72-1.51-.57-2.9998-1.05-3.9998-1.37 1.25 2 5.2698 2.82 8.1798 3.13zm1.32-3.34c.819-.0035 1.637-.0536 2.45-.15-3.154-.9021-6.365-1.5969-9.61-2.08 1.85 1.81 4.81 2.23 7.16 2.23zm-.56-3.82c1.612-.0187 3.219-.1861 4.8-.5-3.34-.4443-6.701-.718-10.07-.82 1.568.9986 3.417 1.4618 5.27 1.32zm-2.91-4.08c1.544.5143 3.163.7644 4.79.74 2.28-.0473 4.545-.3833 6.74-1h-1.39c-3.29 0-7.51.12-10.14.23zm7-4.55c-1.827.4507-3.676.8045-5.54 1.06 1.195.3511 2.435.523 3.68.51 3.556-.1507 7.045-1.0145 10.26-2.54-2.824.0849-5.635.4196-8.4 1zm-3-2.85c.72.06 1.44.09 2.14.09 4.365-.0142 8.629-1.3227 12.25-3.76zm-10.9998-9.31c-3.49.09-4.6 2.92-6.29 9.36s-8.28 9.27-8.55 9.38c-1.5387.6453-2.8927 1.6632-3.94 2.962-1.0474 1.2987-1.7554 2.8376-2.06 4.478.1-.19.24-.1.37 0s.32.19.45 0l.83.55c-.16.6.26 1.16.33 2.16.0326.8503-.0244 1.7017-.17 2.54l.27-.23 1.15 2.2c.3885-.7035.7228-1.4356 1-2.19l1.36.18c.1326.7177.4155 1.3993.83 2l.7-1.52 1.12-2.43.2299 2.65c.0958.24.2347.4603.4101.65.2933-.8357.5272-1.6912.7-2.56l.22-1.2 2.26 2 .19-2.67 3 1.1c-.1447-.5873-.3353-1.1624-.5701-1.72l-.5799-1.33 3.23.85-1-2.89 2.4.1-1.2601-2.32s1.4101.09 2.3001.07 1-.12 1-.12c-.4174-.4985-.8867-.951-1.4-1.35-.4624-.358-.943-.6918-1.4401-1 1.4438-.0335 2.8837-.1638 4.3101-.39-.5067-.6019-1.1038-1.1215-1.7701-1.54-.91-.6-1.79-1.23-1.79-1.23l3.1601.28c.6669.0504 1.3373.0303 1.9998-.06-.377-.6178-.8306-1.1856-1.3498-1.69l-.92-.86c.6994.1259 1.4094.1829 2.12.17.7398-.0301 1.4748-.1204 2.1998-.27-1.018-.749-2.0723-1.4465-3.1598-2.09l-1.93-1.11c.39.05 2.25-.14 3.3198-.18 1.093-.0224 2.182-.1226 3.26-.3-.887-.6445-1.824-1.2196-2.8-1.72l-2.1798-1 2.2398-.16c1.565-.1053 3.114-.3803 4.62-.82-.686-.4583-1.401-.8724-2.14-1.24-.698-.3064-1.416-.5637-2.15-.77.788-.0734 1.57-.2004 2.34-.38 1.316-.3409 2.585-.8413 3.78-1.49-1.011-.2749-2.036-.4985-3.07-.67l-2.79-.38c.921-.23 1.823-.5275 2.7-.89.894-.3008 1.68-.8571 2.26-1.6-3.112.4667-6.253.7107-9.3999.73zm12.9498 5.17h1c5.522-.0161 10.814-2.2162 14.72-6.12-5.027 2.5281-10.284 4.5706-15.7 6.1zm-.61-4.29c.656.1524 1.327.2262 2 .22 2.397-.0991 4.753-.6558 6.94-1.64 3.419-1.3004 6.429-3.4889 8.72-6.34-5.727 2.9287-11.625 5.5133-17.66 7.74zm.42-4.31h.24c5.41 0 10.54-3.49 10.59-3.53 4.51-2.64 6.7-5.3 7.74-7.13996-4.9 3.69996-14.39 8.55996-18.66 10.67996" fill="url(#D)"/><path d="m55.6599 62.9198c.23-1.21.61-2.77 1-4.23.1787.734.1812 1.4999.0075 2.235-.1738.7351-.519 1.4188-1.0075 1.995zm-4-.51c.3784-1.3683.9013-2.6924 1.56-3.95.1022.737.0122 1.4879-.2611 2.18-.2733.692-.7207 1.3017-1.2989 1.77zm-2.39-2.47c-.3499.5231-.8066.9661-1.34 1.3l2-3.33c-.0516.7109-.2783 1.398-.66 2zm-5.6.11c.78-.84 1.87-1.91 3-3-.5918 1.3385-1.6615 2.4082-3 3zm-5.44-.7c.6616-1.0179 1.5519-1.8672 2.6-2.48.8784-.3365 1.7168-.7691 2.5-1.29-1.07 2.15-3.63 3.29-5.13 3.8zm-3.79-2.35c1.8604-1.6044 3.9291-2.9499 6.15-4-1 2.17-4.17 3.41-6.15 4zm-4.53-2.23c.488-.6341 1.1183-1.1445 1.84-1.49 2.1532-.7123 4.2576-1.5641 6.3-2.55-1.59 2.51-5.94 3.63-8.14 4zm-1.73-4.13c1.3467-.6579 2.7327-1.2324 4.15-1.72 1.51-.57 3-1.05 4-1.37-1.25 2-5.27 2.82-8.18 3.13zm-1.32-3.34c-.8188-.0035-1.6368-.0536-2.45-.15 3.1546-.9021 6.3648-1.5969 9.61-2.08-1.85 1.81-4.81 2.23-7.16 2.23zm.56-3.82c-1.6119-.0187-3.2187-.1861-4.8-.5 3.3406-.4443 6.7016-.718 10.07-.82-1.5676.9986-3.4168 1.4618-5.27 1.32zm2.91-4.08c-1.5437.5143-3.1631.7644-4.79.74-2.2799-.0473-4.5446-.3833-6.74-1h1.39c3.29 0 7.51.12 10.14.23zm-7-4.55c1.8267.4507 3.676.8045 5.54 1.06-1.1947.3511-2.4348.523-3.68.51-3.5556-.1507-7.0447-1.0145-10.26-2.54 2.824.0849 5.635.4196 8.4 1zm3-2.85c-.72.06-1.44.09-2.14.09-4.3653-.0142-8.6284-1.3227-12.25-3.76zm11-9.31c3.49.09 4.6 2.92 6.29 9.36s8.28 9.27 8.55 9.38c1.5387.6453 2.8926 1.6632 3.94 2.962 1.0474 1.2987 1.7553 2.8376 2.06 4.478-.1-.19-.24-.1-.37 0s-.32.19-.45 0l-.83.55c.16.6-.26 1.16-.33 2.16-.0326.8503.0244 1.7017.17 2.54l-.27-.23-1.15 2.2c-.3885-.7035-.7228-1.4356-1-2.19l-1.36.18c-.1327.7177-.4155 1.3993-.83 2l-.7-1.52-1.12-2.43-.23 2.65c-.0957.24-.2347.4603-.41.65-.2933-.8357-.5272-1.6912-.7-2.56l-.22-1.2-2.26 2-.19-2.67-3 1.1c.1446-.5873.3352-1.1624.57-1.72l.58-1.33-3.23.85 1-2.89-2.4.1 1.26-2.32s-1.41.09-2.3.07-1-.12-1-.12c.4174-.4985.8867-.951 1.4-1.35.4624-.358.943-.6918 1.44-1-1.4437-.0335-2.8836-.1638-4.31-.39.5066-.6019 1.1038-1.1215 1.77-1.54.91-.6 1.79-1.23 1.79-1.23l-3.16.28c-.6669.0504-1.3373.0303-2-.06.3772-.6178.8308-1.1856 1.35-1.69l.92-.86c-.6994.1259-1.4094.1829-2.12.17-.7394-.0301-1.4752-.1204-2.2-.27 1.0178-.749 2.0724-1.4465 3.16-2.09l1.93-1.11c-.39.05-2.25-.14-3.32-.18-1.0924-.0224-2.1818-.1226-3.26-.3.8877-.6445 1.8238-1.2196 2.8-1.72l2.18-1-2.24-.16c-1.5651-.1053-3.1142-.3803-4.62-.82.6863-.4583 1.4011-.8724 2.14-1.24.6979-.3064 1.4163-.5637 2.15-.77-.7877-.0734-1.5695-.2004-2.34-.38-1.3159-.3409-2.5853-.8413-3.78-1.49 1.0114-.2749 2.0361-.4985 3.07-.67l2.79-.38c-.9206-.23-1.823-.5275-2.7-.89-.8936-.3008-1.6794-.8571-2.26-1.6 3.112.4667 6.2533.7107 9.4.73zm-12.95 5.17c-.34 0-.66 0-1 0-5.5223-.0161-10.814-2.2162-14.71997-6.12 5.02747 2.5281 10.28457 4.5706 15.69997 6.1zm.61-4.29c-.6556.1524-1.3269.2262-2 .22-2.3967-.0991-4.7524-.6558-6.94-1.64-3.4186-1.3004-6.42868-3.4889-8.71997-6.34 5.72767 2.9287 11.62477 5.5133 17.65997 7.74zm-.42-4.31h-.24c-5.41 0-10.54-3.49-10.59-3.53-4.50997-2.64-6.69998-5.3-7.73998-7.13996 4.89998 3.69996 14.38998 8.55996 18.65998 10.67996" fill="url(#E)"/><path d="m64.3792 46.9002-.2-1.58c-.3203.1858-.6547.3463-1 .48-.5221.2528-1.0904.3957-1.67.42-.4124-.0093-.8207-.0836-1.21-.22.7337 2.6162 1.0011 5.3411.79 8.05l-.09 1.23-1-.62c-.2859-.1956-.5536-.4165-.8-.66.2163.8724.5528 1.7104 1 2.49.6268 1.0773.9932 2.2861 1.07 3.53l1.1.16-.07 4.12c.13-.0359.2504-.1004.3524-.1886.1021-.0882.1832-.1979.2376-.3214l.68-2 .67 2c.1895.81.2167 1.6495.08 2.47l.24-.06v1.36l1.22-.13.33 1.5c.071-.3892.1045-.7843.1-1.18v-.75h2.26v.72c-.0025.3952.0276.7899.09 1.18l.33-1.5 1.22.13v-1.36l.24.06c-.1417-.8206-.1111-1.6618.09-2.47l.66-2 .68 2c.0581.1221.1403.2311.2418.3205.1014.0893.2198.1572.3482.1995l-.08-4.09 1.1-.16c.0768-1.2439.4433-2.4527 1.07-3.53.4445-.7844.7809-1.6254 1-2.5-.2573.2344-.535.4453-.83.63l-1 .62v-1.19c-.2041-2.7094.0666-5.4337.8-8.05-.3949.1227-.8065.1835-1.22.18-.5904-.0059-1.1742-.1247-1.72-.35l-.94-.55-.21 1.58-3-2zm-2.38-2.41.6.21 1.62.51-.22-1.09c-.6711.2122-1.3669.3366-2.07.37zm8.57.71 1.6-.5.6-.21c-.7029-.0351-1.3984-.1595-2.07-.37zm-12.13-2.57c.2219.1944.4557.3747.7.54l.59-.13c-.3149-.1682-.583-.4122-.78-.71-.607-.3987-1.2866-.6739-2-.81.5381.3109 1.0381.6834 1.49 1.11zm17.35-.3c-.2029.2861-.4746.5165-.79.67l.59.13c.2468-.1537.4779-.3312.69-.53.4539-.4241.9537-.7964 1.49-1.11-.714.134-1.394.4094-2 .81" fill="url(#F)"/><path d="m84 64.3906c-.4834.0027-.9607.1083-1.4.31-3.566 1.547-7.3067 2.6552-11.14 3.3h-.3-.26c-1.24.13-2.45.21-3.72.26s-2.47-.07-3.71-.18h-.26-.3c-3.8557-.5502-7.6323-1.5573-11.25-3-.4383-.1917-.9116-.2904-1.39-.29-.6393.0102-1.2621.2042-1.7941.5589-.532.3546-.9506.8549-1.2059 1.4411-.2529.5641-.3463 1.1866-.27 1.8-.69.54-1.15.87-2 1.44l-1 .72 1.11.56c1.56.81 3.11 1.52 4.76 2.18.455.1935.9457.2889 1.44.28.1465.0103.2935.0103.44 0 .4304.4607.9706.8047 1.57 1 3.5155.9477 7.1106 1.5703 10.74 1.86h.76 2.35.11c.81 0 1.61 0 2.36-.08h.74c3.6254-.3633 7.2103-1.0562 10.71-2.07.5958-.1909 1.1305-.5359 1.55-1 .1498.0103.3002.0103.45 0 .4909-.0129.9753-.1145 1.43-.3 1.63-.7 3.17-1.45 4.73-2.28l1.09-.59-1-.7c-.82-.55-1.28-.88-2-1.4.062-.6503-.0592-1.305-.35-1.89-.2694-.5686-.6939-1.0496-1.2246-1.3875-.5308-.3379-1.1462-.519-1.7754-.5225" fill="#221f21"/><path d="m84.0002 65.1409c.4928-.0068.977.1293 1.3941.392.4171.2626.7491.6406.9559 1.088.3044.5853.3758 1.2641.2 1.9.94.69 1.42 1 2.4 1.7-1.52.82-3.06 1.57-4.66 2.25-.3667.1455-.7558.2267-1.15.24-.2502.0026-.4995-.0311-.74-.1-.3404.5016-.8303.883-1.4 1.09-3.458.9895-6.9995 1.659-10.58 2h-.22c-.1726-.0227-.3474-.0227-.52 0-.77 0-1.55.07-2.32.08h-.16c-.7734 0-1.5434 0-2.31 0 0 0-.34 0-.53 0h-.21c-3.587-.2675-7.1419-.8633-10.62-1.78-.6182-.1807-1.1573-.5648-1.53-1.09-.2368.0714-.4827.1085-.73.11-.4001-.0021-.7965-.0766-1.17-.22-1.59-.65-3.14-1.36-4.69-2.15 1-.68 1.44-1 2.36-1.75-.1627-.6399-.0807-1.3175.23-1.9.2003-.4499.5252-.833.9363-1.1041s.8913-.4189 1.3837-.4259c.3767-.0032.7494.0789 1.09.24 3.8633 1.5104 7.891 2.5609 12 3.13 1.27.11 2.51.16 3.78.18s2.52-.13 3.79-.26c4.1116-.6792 8.1359-1.8094 12-3.37.3178-.1564.6658-.2417 1.02-.25" fill="#b02528"/><path d="m68.4506 74.1404v-.48c-.0715-.0544-.1384-.1146-.2-.18h-.67-.88v.69h-.26-.75-.48c-1.5-.17-2.21-.17-3.74-.39h-.25v-.26-.2h-.07l-.42.29h-.08-.09c-1.35-.2-2-.33-3.35-.64l-.21.03.06-.24.32-1.5c-.36.21-.54.31-.92.51h-.08-.1l-.43-.11-.19.69-.06.25-.24-.07-.73-.21-.24-.07.06-.24.2-.7-.43-.13h-.09v-.08c-.23-.36-.33-.54-.54-.9v-.06l-.59 1.41-.08.24-.23-.08c-.29-.09-.44-.14-.72-.25l-.24-.09.09-.23.1-.27.15-.43c-.63-.22-1-.38-1.63-.63l-.29.67-.1.23-.22-.09c-.29-.12-.43-.18-.7-.31l-.24-.1.11-.21.23-.51.82-1.87.1-.23.23.11.65.27.24.09-.1.23-.27.63c.59.25 1 .39 1.58.61v-.11l.2-.58.09-.24.23.08.67.23.24.08.19.06.67.21.24.08-.07.24-.11.32v.19l.15.24c.46.14.73.21 1.21.34l.24-.13.13-.52.06-.25.25.06.68.17h.19l.24.05c1.23.27 1.84.38 3.11.57h.09l.07.08c.11.15.17.23.3.38v-.17-.25h.25c1.1572.1582 2.3224.2517 3.49.28h.44 1.58 1.55.14l.07.07.38.32.33-.37.06-.07h.1c1.11-.08 1.67-.15 2.78-.3h.1l.09.07.36.27v-.19-.25h.24c1.25-.2 1.85-.33 3.1-.63h.1.08c.1389.0907.2824.1742.43.25h.06v-.07l.25-.43v-.08h.11c1.08-.29 1.61-.46 2.68-.83h.09l.11.05.44.22-.08-.19.12-.12.23-.09c1.0201-.3554 2.0214-.7626 3-1.22h.09.1l.47.17h.11v.09c.36.79.54 1.18.91 2v.09.1c-.08.2-.11.3-.19.49v.09h-.1c-1.0403.4848-2.1051.9154-3.19 1.29l-.23.08-.23.08c-.28.11-.43.15-.72.25l-.25.12-.08-.23-.1-.26v-.19c-.63.21-1 .34-1.68.51l.13.44.06.24-.24.07-.73.19-.24.06-.12-.23v-.21c-.12.17-.17.26-.29.44v.08h-.09c-1.31.31-2 .44-3.34.65h-.24-.24c-.29 0-.44.06-.74.1h-.25v-.25l-.05-.34v-.1c-.65.08-1.07.12-1.72.18v.09.34.42h-.25-.74-.48c-.3 0-.44 0-.75 0zm-3.31-1.21h.34v-.87h-.31v.28.49.1zm-6.65-.84c.64.14 1 .21 1.68.31l.13-.83c-.62-.1-1-.18-1.64-.3-.07.31-.11.53-.17.82zm8.22.19h.85.82v-.18h-.88-.78v.17zm4-.34v.19c.64 0 1-.09 1.67-.17v-.2c-.62.09-1 .13-1.65.18zm8.02-1.46v.09.1c.61-.17 1-.29 1.61-.49l-.06-.2c-.6.2-1 .32-1.61.5zm3.81-1.32.13.34.22.54c.6-.24 1-.39 1.6-.66l-.06-.15-.32-.71c-.6.26-1 .41-1.57.64" fill="#fff"/><path d="m50.2808 67.6996.66.28c-.15.36-.22.54-.38.9.82.34 1.22.5 2.06.8.13-.37.19-.56.33-.93l.67.23c-.33 1-.51 1.5-.84 2.5l-.72-.26c.14-.37.2-.56.33-.92-.83-.31-1.26-.47-2.08-.82-.15.36-.23.54-.38.91l-.69-.31c.41-1 .63-1.43 1-2.38zm33.96-.32.48.18c.37.78.55 1.18.91 2-.09.2-.12.3-.2.49-1.26.56-1.9.81-3.17 1.28-.4-1.08-.59-1.61-1-2.68 1.02-.3593 2.0213-.7699 3-1.23zm-1.51 3.04c.84-.31 1.25-.49 2.08-.86-.23-.52-.35-.79-.59-1.31-.8.36-1.2.52-2 .83.2.53.3.81.51 1.34zm-28.68-1.29.68.21-.2.62.27.42c.54.17.83.24 1.4.4l.42-.24c.06-.25.09-.37.16-.63l.69.17c-.1.39-.14.57-.23 1-.35.21-.54.31-.9.51-.28-.07-.41-.1-.67-.18-.11.37-.15.56-.27.94l-.72-.21c.12-.38.17-.57.27-.93l-.67-.21c-.23-.36-.33-.53-.53-.89.11-.38.19-.56.3-.93zm26.54-.2.46.21c.32 1 .5 1.42.83 2.36l-.72.24-.22-.74c-.86.28-1.29.41-2.14.64.07.28.11.41.19.68l-.73.19c-.25-1-.38-1.43-.63-2.39l.25-.43c1.1-.29 1.64-.46 2.71-.83zm-2 2.03c.85-.24 1.27-.36 2.1-.64-.08-.27-.13-.41-.22-.68-.82.28-1.23.4-2.07.64.08.27.11.41.19.68zm-20.69-.8c1.24.28 1.87.38 3.12.56l.31.39c-.11.8-.16 1.2-.26 2l-.43.28c-1.34-.2-2-.32-3.32-.63zm2.47 2.51c.09-.53.12-.8.2-1.33-.85-.13-1.28-.2-2.12-.38-.11.52-.16.79-.26 1.32.87.18 1.3.26 2.18.39zm16.39-2.67.43.25c.21.82.31 1.24.52 2.06l-.28.43c-1.32.3-2 .44-3.32.64-.18-1.1-.27-1.66-.46-2.76 1.25-.2 1.87-.32 3.11-.62zm-2.22 1.55c.85-.15 1.27-.25 2.13-.44 0-.14 0-.21-.09-.34-.84.19-1.26.28-2.12.43 0 .14.05.21.08.35zm.18 1c.88-.15 1.32-.24 2.19-.44 0-.14-.06-.21-.09-.34-.86.19-1.3.27-2.16.43 0 .13 0 .2.06.35zm-12.9-1.73c1.4.17 2.1.23 3.51.29v.68c-1.14 0-1.72-.1-2.85-.22v.34c1 .11 1.51.15 2.51.2v.68c-1 0-1.53-.1-2.55-.21v.34c1.18.14 1.77.18 3 .24v.67c-1.49-.07-2.24-.13-3.72-.32.12-1.08.18-1.62.32-2.69zm11.22-.11.41.3c.15 1 .22 1.44.37 2.41-.3 0-.44.07-.75.1 0-.27 0-.41-.09-.68-.87.11-1.32.15-2.2.22 0 .28 0 .42.06.69h-.75c-.06-1-.1-1.45-.16-2.41.13-.15.2-.22.32-.37 1.12-.08 1.69-.14 2.79-.31zm-2.32 1.62c.86-.08 1.3-.12 2.17-.24l-.1-.69c-.85.12-1.28.16-2.13.23 0 .28 0 .42.06.7zm-4.78-1.25h1.61 1.56l.37.33c0 .55 0 .82.08 1.37h-.37l.38.33v.68h-.74c0-.13 0-.2 0-.34l-.37-.33h-.76c-.34 0-.65 0-1.09 0v.68h-.74c0-1.09 0-1.63.06-2.72zm1.71.69c-.3 0-.61 0-1 0v.68h1.11 1.07c0-.27 0-.42 0-.68h-1.12zm-17.65-4.77-.2.45c-.27.6-.44 1-.64 1.46l-.41.93-.2.46.46.2.7.31.46.2.2-.47.18-.44 1.18.46-.15.43-.17.46.47.17c.29.12.43.16.73.26l.47.16.16-.47.31-.91.29.48.11.16.17.06.2.06c0 .14-.07.28-.12.46l-.14.48.48.14.73.21.48.14.14-.49.06-.25v-.2h.2.19l.17-.09c.169-.0793.3327-.1695.49-.27l-.21 1-.1.48.47.12c1.32.3 2 .43 3.36.63h.19.17l.49.06c1.2434.1749 2.4951.285 3.75.33h1.76v-.68h1.17l.07.06v.13.49h.49.75.15.36.72.51v-.5-.18l1.24-.14v.2l.06.49.48-.06c.31 0 .46-.06.75-.1h.24.27c1.33-.2 2-.34 3.33-.65h.2.17l.47-.12c.3-.08.45-.11.73-.2l.5-.13-.14-.48v-.19l1.2-.37.06.2.17.47.47-.16.71-.24.26-.09.23-.09c1.29-.46 2-.73 3.2-1.28l.18-.09.12-.26c.07-.2.11-.3.19-.5l.08-.2-.09-.2-.18-.43c-.25-.52-.43-.9-.72-1.53l-.08-.18-.2-.07-.48-.18-.19-.06-.2.08c-.9592.4521-1.9404.856-2.94 1.21l-.47.17h-.08l-.19.07c-1.06.36-1.59.52-2.68.82h-.19l-.11.18c-.0467.0938-.1002.184-.16.27l-.31-.08-.18-.1h-.19c-1.23.3-1.84.42-3.08.62l-.49.08h-.06-.19c-1.11.16-1.65.22-2.76.3h-.2l-.14.15-.2.23-.25-.2-.14-.14h-.2c-.67 0-1.12 0-1.55 0s-.91 0-1.58 0h-.17-.27c-1.1577-.0291-2.3128-.1226-3.46-.28l-.5-.06h-.09-.2c-1.26-.19-1.86-.29-3.09-.56l-.48-.11-.63-.15-.48-.12-.13.48-.09.42h-.06l-1-.27s0 0 0-.07c0-.13.07-.23.13-.39l.15-.48-.48-.15-.62-.19-.48-.16c-.26-.09-.4-.13-.66-.24l-.47-.16-.17.47-.17.45-1.09-.42.18-.45.2-.46-.46-.19-.65-.28zm32.89 2.27 1.11-.42.1.23.08.17c-.4.18-.73.3-1.14.47 0-.14-.09-.27-.15-.41zm-24.11 2.63c0-.11 0-.22.07-.33l1.16.21v.34c-.43-.07-.76-.13-1.18-.22" fill="#221f21"/><path d="m103.931 71.5799c-.511.0088-1.016-.0972-1.48-.31-1.63-.71-2.4603-1.06-4.0003-1.68l-2.17-.81c-.47-.17-.85-.32-1.18-.46s-1-.37-1-.37l-2.3-.74c-1.53-.5-2.28-.72-3.8-1.14l-.8-.22-.2-.05c-2.33-.58-4.59-1.08-6.9-1.52l-1.78-.35h-.09c-.1531.0099-.3068.0099-.46 0-1.59-.23-2.37-.33-4-.47l-.36-.06-1.82-.11c-1.07-.06-1.7-.09-2.48-.11h-1.66c-.52 0-1 0-1.32 0s-1.29 0-1.29 0l-2.49.14c-1.63.11-2.42.18-4 .37l-.92.11-1.1.16-1.06.16-2.27.38c-1.45.27-2.16.43-3.64.77l-2.36.55c-.29.11-.6.21-.92.3l-2 .57c-.51.14-1.17.31-1.46.35-.3303.0558-.6649.0826-1 .08-.383-.0026-.7648-.0428-1.14-.12-.4027.5965-.9589 1.0732-1.61 1.38-1.12.5-2.24 1-3.35 1.36-.67.22-1.33.51-2 .72-2.45.81-4 .75-5.71-1.26-.56-.67-.8-1-1.32-1.73l-2-2.75c-.64-.88-1.09-1.52-1.81-2.57-.4117-.5814-.6032-1.2903-.54-2 .0595-.655.2906-1.2828.67-1.82.2773-.4561.6448-.8509 1.08-1.16.16-.11.33-.22.52-.33l.43-.23c2.19-.92 4.37-1.8 6.47-2.65.395-.154.8034-.2712 1.22-.35.2774-.0481.5585-.0715.84-.07.2579.0005.5153.0206.77.06.4058.0483.8029.1526 1.18.31 1-.35 1.71-.6 2.44-.84l.68-.22.68-.21.92-.28 2-.61c.9-.26 1.69-.48 2.91-.78l2.59-.64.29-.07 3.17-.64c1.16-.23 1.92-.36 2.75-.5l-.17-1.43 2.67-.31c2.76-.34 5.55-.58 8.29-.71h.17c.3708.0058.7397.0527 1.1.14.4357.1099.8557.2746 1.25.49.3427.1912.6587.4265.94.7h.31c1.7 0 2.58 0 4.3.16l2.67.16c.92.08 2.85.22 4.62.48s3.12.59 3.12.59c2.7.53 5.49 1.16 8.28 1.9l2.6.67v.08c2 .61 4 1.28 6.06 2 .4043.144.7843.3462 1.1303.6.343.2448.658.5265.94.84l.11.13h.06c.273-.057.551-.0871.83-.09h.35c.148.0124.295.0358.44.07l.26.07h.12.21l.19.08c1.8.71 3.62 1.48 5.43 2.29.348.1626.682.3533 1 .57.435.3144.811.7038 1.11 1.15.436.5787.687 1.276.72 2 .038.4175.018.8382-.06 1.25-.035.1843-.096.3627-.18.53-.1.2-.24.43-.24.43-.48.67-.71 1-1.2 1.69 0 0-2.37 3.19-3.09 4.12-.153.1892-.324.3634-.51.52-.361.2932-.757.5385-1.18.73-.323.1494-.658.2731-1 .37-.379.1085-.767.1756-1.16.2h-.27" fill="#9a1c22"/><path d="m103.93 70.8991c-.416.0107-.829-.0713-1.21-.24-1.71-.75-4.59-1.9-4.59-1.9l-1.64-.61-1.14-.45c-.349-.1493-.6837-.33-1-.54-.1556-.0929-.2999-.2037-.43-.33l-.14.29-1.78-.55c-1.55-.5-2.29-.73-3.82-1.15l-.82-.23h-.18c-2.35-.59-4.61-1.09-6.94-1.54 0 0-2.23-.35-2.35-.38-1.61-.23-2.4-.32-4-.47l-2.19-.17c-1.07-.06-3-.11-3-.11h-1.29c-.51 0-.86 0-1.17 0-.4036-.0147-.8051-.0649-1.2-.15-.2156-.0518-.4264-.1221-.63-.21v.37l-2.06.14c-1.63.1-2.44.18-4.08.38l-.92.1-1.12.17-.8.11-.68-.48.15.55-2.11.39c-1.46.28-2.17.44-3.66.79l-1.82.43-1.41.43c-.77.21-1.17.32-2 .57-.33.09-1.09.29-1.37.33-.2948.0425-.5921.0658-.89.07-.5017.0031-1.0008-.0711-1.48-.22-.3734.6761-.946 1.2208-1.64 1.56-1.0472.481-2.1225.8984-3.22 1.25-.67.23-1.23.48-2 .74-2.54.85-3.89.26-4.92-1-.54-.69-.79-1-1.32-1.73l-1.53-2s-1.39-2-2.28-3.25c-.3103-.4619-.4548-1.0153-.41-1.57.0478-.5397.2375-1.0573.55-1.5.2271-.3893.5297-.7293.89-1l.51-.31c.14-.09 4.7-2 6.79-2.83.3517-.1407.7169-.2446 1.09-.31.2377-.0431.4785-.0665.72-.07.2231-.0149.4469-.0149.67 0 .4328.0606.854.1853 1.25.37 1.4-.49 2.25-.79 3.34-1.13l.67-.22.91-.28 1.46-.44c1.18-.34 2-.57 3.46-1l2-.48.65-.09.65.33c.3.14.59.29.89.45l-.22-1.09 2-.38c1.41-.27 2.24-.42 3.38-.59l-.18-1.41 2-.25c2.74-.32 5.51-.55 8.23-.69h.15c.3143.003.6269.0467.93.13.379.09.7429.2349 1.08.43.3737.2037.7115.4672 1 .78h.58c1.69 0 2.56 0 4.27.15l2 .12s3.25.27 6.3.75c.81.13 2 .4 2 .4 2.7.52 5.47 1.15 8.24 1.88l2 .51s4.42 1.44 6.63 2.2c.357.1244.693.2996 1 .52.303.2118.578.4604.82.74.131.1312.248.2753.35.43l.45-.1c.234-.0461.472-.0695.71-.07h.29c.156.0097.31.0365.46.08h.13.14.18l.14.05c1.79.71 3.61 1.48 5.4 2.29.321.1355.627.3066.91.51.392.2691.731.6081 1 1 .362.4807.571 1.0591.6 1.66.002.3128-.032.6248-.1.93-.029.1343-.073.2651-.13.39-.052.1164-.115.227-.19.33-.47.67-.71 1-1.2 1.68l-1 1.35s-1.37 1.78-2.12 2.77c-.119.1566-.261.2948-.42.41-.308.2479-.643.4593-1 .63-.299.138-.611.2485-.93.33-.326.0958-.661.1561-1 .18h-.22" fill="#fff"/><path d="m111.2 60.5496c-.217-.3264-.492-.611-.81-.84-.26-.1751-.535-.329-.82-.46-1.79-.8-3.59-1.57-5.38-2.27h-.09-.15-.16c-.151-.037-.305-.0638-.46-.08h-.33c-.205.0021-.409.0222-.61.06-.274.0486-.542.1257-.8.23-.135-.2666-.303-.5152-.5-.74-.221-.24-.466-.4577-.73-.65-.252-.1826-.5282-.3306-.8199-.44-2.39-.83-4.78-1.6-7.13-2.31h-.13l-1.28-.54c-2.76-.72-5.53-1.35-8.21-1.87l-1.35-.26h-.12v.12.26c-.1974-.1546-.4164-.2793-.65-.37-.2826-.1023-.5738-.1793-.87-.23-2-.3-3-.4-4.94-.58h-.17-.18c-.1565-.0114-.3136-.0114-.47 0v-.15h-.13l-1.33-.08c-1.69-.1-2.5601-.14-4.2401-.16h-.8299l-.18-.19c-.249-.2748-.5433-.5048-.87-.68-.2973-.1609-.6129-.2851-.94-.37-.2686-.0648-.5438-.0983-.82-.1h-.11c-2.71.13-5.47.37-8.19.69l-1.35.16h-.12v.13l.16 1.27c-1.42.2-2.28.34-3.88.65l-1.33.26h-.12v.12l.31 1.56c-.63-.34-1.27-.67-1.89-1l-.44-.22h-.05l-.47.12-.61.14-1.3.33c-1.66.43-2.53.67-4 1.12l-.85.26-.91.27c-1.43.46-2.33.76-4 1.35l-.25.09c-.3747-.2162-.7901-.3524-1.22-.4-.1998-.0146-.4003-.0146-.6 0-.2062-.0202-.4139-.0202-.62 0-.3403.0622-.6748.1525-1 .27-2.11.85-4.28 1.73-6.45 2.65-.2592.1245-.5069.2718-.74.44-.3032.2155-.5585.4912-.75.81-.2589.3661-.4175.7936-.46 1.24-.0423.4335.0672.8683.31 1.23.91 1.31 1.37 2 2.35 3.31.12.16.33.47.33.47l.1.14 1 1.35c.52.7.77 1 1.3 1.72 1.26 1.74 3.29 1.22 4.28.88.67-.27 1.37-.52 2.05-.75 1-.36 2.13-.81 3.16-1.28.7422-.3686 1.3174-1.0046 1.61-1.78.5532.2603 1.1587.3903 1.77.38.271-.0004.5418-.0205.81-.06.27-.05 1.19-.28 1.29-.31.83-.26 1.23-.37 2-.59.3829-.1046.7573-.2383 1.12-.4.2564-.1105.4929-.2625.7-.45l.07.2v.11h.11l1.18-.24c1.49-.36 2.22-.51 3.69-.79l1.4-.27h.14v-.13s-.2-.81-.32-1.27l1.23.85.44.3.52-.08 1.14-.16.92-.12c1.66-.19 2.46-.27 4.11-.37l1.45-.05h.12v-.12l-.07-.88c.099.1123.2135.2099.34.29.3175.2274.6782.3874 1.06.47.3571.0861.7226.1331 1.09.14h1.15 1.48c1 0 1.68 0 2.86.13l1.3399.07h.1201v-.1c.2378.1058.491.1733.75.2 1.61.15 2.4.24 4 .49h.3c.2205.001.4399-.0327.65-.1v.06.12h.12l1.36.26c2.32.44 4.6 1 7 1.53l.1999.06.8001.22c1.54.42 2.29.65 3.85 1.15l1.15.38h.11v-.1l.23-.52v.05c.2251.3313.5183.6109.8599.82.3126.2027.6483.3672 1 .49.3.14.6801.29 1.1301.45l1.08.4h.1v-.09c.2095.1789.4457.3239.7.43 1.7399.68 2.5699 1 4.2999 1.79.314.14.656.2083 1 .2h.19c.308-.0147.614-.0651.91-.15.297-.0839.587-.1875.87-.31.312-.142.604-.3235.87-.54.136-.1247.262-.2583.38-.4.18-.21 1.09-1.41 1.84-2.43l.07-.1.05-.11c.076-.1546.14-.3151.19-.48h.08.1l.06-.08.65-.9c.47-.67.72-1 1.18-1.68.11-.1577.192-.3338.24-.52.056-.2629.083-.5312.08-.8-.024-.4936-.199-.9681-.5-1.36" fill="#fccb11"/><path d="m110.72 60.8807c-.175-.2721-.399-.5094-.66-.7-.228-.1589-.473-.293-.73-.4-1.78-.81-3.59-1.57-5.34-2.27l-.32-.08s-.32-.07-.45-.08h-.22c-.17-.0134-.34-.0134-.51 0-.418.0861-.817.2452-1.18.47 0 0-.13-.27-.17-.38-.116-.2901-.281-.5576-.49-.79-.178-.2182-.383-.4131-.61-.58-.213-.1511-.4495-.266-.7-.34-2.44-.85-4.88-1.65-7.28-2.35l-.34-.11-.89-.23c-2.75-.72-5.49-1.34-8.16-1.86l-.86-.18v.22s-.06.34-.12.71c-.1227-.2041-.2743-.3893-.45-.55-.2245-.2189-.4894-.3921-.78-.51-.2359-.089-.4806-.1527-.73-.19-2-.3-3-.41-4.91-.58h-.1-.14c-.1691-.0007-.3375.0229-.5.07-.2145.0633-.4171.1613-.6.29v-.5h-.9c-1.67-.11-2.54-.13-4.2-.15h-.77l-.27.28c-.0698-.2379-.1929-.4568-.36-.64-.2088-.2305-.4558-.4233-.73-.57-.2536-.142-.5264-.2464-.81-.31-.2174-.0652-.443-.0989-.67-.1h-.09c-2.69.14-5.43.38-8.14.71l-.9.1v.21s.08.76.13 1.16h-.09c-1.74.25-2.59.39-4.33.73l-.87.16.2 1.06c.1.48.16.77.26 1.27-1-.55-2-1.07-3-1.57l-.22-.11h-.07l-.32.08-.68.16-.37.09-.85.22c-1.77.45-2.65.69-4.42 1.24l-.45.13-.22.07-.23.07c-1.74.54-2.63.84-4.42 1.47l-.53.19c-.0852-.0668-.1755-.127-.27-.18-.3064-.1774-.6475-.2865-1-.32-.173-.015-.347-.015-.52 0-.173-.015-.347-.015-.52 0-.2978.0485-.5895.129-.87.24-2.09.84-4.26 1.73-6.44 2.65l-.2.11c-.4015.2231-.7442.5385-1 .92-.2217.3051-.3408.6728-.34 1.05.011.2629.0829.5196.21.75.9 1.31 1.36 2 2.33 3.3.2309.2953.534.526.88.67l.45.14-.3.13-.25.11.67.91c.52.68.77 1 1.31 1.71.77 1.06 2 1.21 3.58.71 2.11-.79 3.53-1.32 5.18-2 .428-.2028.7938-.5167 1.0594-.9089s.4212-.8484.4506-1.3211c.5846.5276 1.3533.8042 2.14.77.2445-.0021.4885-.0222.73-.06.25 0 1.19-.28 1.2-.28.84-.26 1.23-.37 2-.59.3398-.105.6737-.2285 1-.37.4076-.2055.7529-.5162 1-.9l.15-.19c.09.29.19.59.19.59l.06.19.8-.19c1.5-.35 2.22-.51 3.71-.79l.92-.18-.22-.92c-.13-.52-.2-.8-.32-1.31.83.55 1.66 1.12 2.48 1.69l.29.21.35-.06 1.12-.19h.38l.6-.08c1.66-.2 2.48-.27 4.14-.39h.91l-.2-3.02h.33c.0616.5543.2315 1.0911.5 1.58.1483.2874.3604.5371.62.73.2601.1799.5519.3089.86.38.3279.0766.6633.1168 1 .12h1.14.9c1.38 0 2.08.05 3.47.13l.89.06v-.55c.1702.1579.3581.2955.56.41.2331.1372.4917.2256.76.26 1.62.14 2.41.24 4 .47h.2c.2609.0234.5237-.0107.77-.1.2286-.1058.4407-.2439.63-.41.058-.0447.1116-.095.16-.15l-.19.89.9.17c2.33.45 4.62 1 7 1.55l.21.06.81.22c1.55.43 2.3.66 3.86 1.16l.76.25.34-.73c.15-.36.27-.61.38-.88 0 .19.08.38.11.53v.17c.0341.2605.1263.51.27.73.1751.2649.4075.487.68.65.2746.1781.566.3288.87.45l1.1.44.72.27.09-.17.14-.25c.0887.1813.2108.3441.36.48.19.1826.4191.3194.67.4 1.73.68 2.57 1 4.31 1.8.236.1035.492.1546.75.15h.16c.267-.014.532-.0576.79-.13.263-.0739.521-.1675.77-.28.261-.1156.506-.2635.73-.44.16-.14.27-.26.27-.26l.09-.11c.75-1 1-1.36 1.78-2.38v-.07c.169-.3063.258-.6502.26-1v-.11l.28.13.16.07.43-.59 1.14-1.64c.178-.3023.265-.6495.25-1-.027-.365-.162-.7134-.39-1" fill="#9a1c22"/><path d="m37.6808 65.9996c-1.87.82-3.06 1.23-5.18 2-1 .32-2 .33-2.54-.43s-.78-1-1.29-1.7c1-.43 1.5-.65 2.48-1.05l1 1.45c1.45-.6 2.17-.89 3.62-1.42-.57-1-.85-1.44-1.39-2.4-1.87.71-2.81 1.09-4.72 1.89-.3938.1922-.8362.2619-1.27.2-.4474-.073-.8584-.2908-1.17-.62-.95-1.31-1.33-1.83-2.23-3.14-.0993-.152-.1452-.3327-.1308-.5137.0145-.181.0886-.352.2108-.4863.1899-.2713.4442-.4912.74-.64.1171-.0626.2373-.1194.36-.17 2.13-.89 4-1.66 6.16-2.52.2227-.0896.4539-.1566.69-.2.2483-.0412.5017-.0412.75 0 .2443.0325.4811.1069.7.22.1631.0964.2977.2345.39.4.36.77.48 1 .84 1.8-1.1.39-1.65.61-2.76 1-.29-.54-.43-.82-.73-1.36-1.61.63-2.43 1-4.08 1.66.54.88.82 1.31 1.4 2.19 1.6333-.7 3.3-1.3667 5-2 .3892-.1622.8197-.1972 1.23-.1.2196.0533.4259.1508.6065.2867.1805.1358.3315.3071.4435.5033.61 1.21.91 1.82 1.55 3 .1662.3525.1925.7548.0737 1.126-.1187.3711-.3738.6834-.7137.874zm3.32-1.72c-.2191-.0623-.422-.1714-.5947-.3199s-.311-.3328-.4053-.5401c-1-2-1.76-3.73-2.65-5.75l-.77.26c-.26-.55-.38-.84-.63-1.4 1.8-.63 2.7-.93 4.47-1.48.21.58.31.87.53 1.44l-.83.26c.74 1.9266 1.5167 3.8366 2.33 5.73.89-.27 1.34-.4 2.23-.65-.68-1.93-1.4-3.83-2.06-5.83l-.83.25-.52-1.46c1.77-.53 2.65-.78 4.4-1.22.16.59.25.89.41 1.49l-.75.19c.67 2.18 1.16 3.75 1.87 5.87.0738.2039.1056.4206.0936.6371s-.0677.4284-.1636.6229c-.05.09-.1.15-.13.2-.167.2774-.4147.4972-.71.63-.2891.1351-.5905.2423-.9.32-.81.23-1.75.47-2.56.71-.5798.1861-1.2007.2034-1.79.05zm7.21-3.12.79-.16c-.75-2.56-1.46-5.12-2.15-7.69l.68-.16c1.9 1 3.74 2 5.56 3.12-.21-1-.31-1.55-.51-2.59l-.8.15-.3-1.53c1.71-.33 2.57-.47 4.28-.72.09.68.14 1 .23 1.7l-.88.13c.4067 2.6066.8433 5.21 1.31 7.81l-.47.07c-1.74-1.2267-3.52-2.4-5.34-3.52.3 1.15.44 1.73.73 2.88l.75-.15c.13.56.2.83.34 1.38-1.5.29-2.25.45-3.76.81l-.48-1.5zm19.18-2.21h-.79c0-1.16 0-1.74 0-2.89-.74-.84-1.16-1.28-1.16-1.3.0006-.0346.0101-.0684.0276-.0982s.0425-.0545.0724-.0718l.3-.26c.13-.11.24-.17.37-.29.1419-.1174.2462-.2739.3-.45 0-1.2 0-1.8 0-3-.0006-.1909-.076-.374-.21-.51-.1409-.156-.3064-.2877-.49-.39-.1888-.0955-.3864-.1726-.59-.23-.1625-.0461-.3312-.0664-.5-.06-2.71.13-5.4.36-8.09.69.07.58.1.88.18 1.46l1-.12c.15 1.18.21 1.77.36 3l-1.24.15c.1.79.16 1.18.28 2l1.2-.14c.15 1.22.24 1.84.4 3.07l-.85.1c.08.59.13.88.21 1.47 1.68-.19 2.52-.27 4.19-.38 0-.6-.07-.89-.12-1.5l-1 .08c-.24-1.28-.24-1.95-.39-3.17 1.25-.11 1.88-.11 3.15-.2v.47c.06.84.13 1.51.21 2 .0497.4407.182.8682.39 1.26.0858.1716.2088.3219.36.44.1676.1098.3541.1878.55.23.2668.0574.5376.0942.81.11h1.1c0-.62 0-.93 0-1.55zm-6.57-4.95c-.09-1-.13-1.58-.22-2.64 1.23-.1 1.85-.15 3.08-.2 0 1.07.07 1.59.12 2.65-1.2.06-1.78.09-3 .19zm7.37 4.83h.69c0-2.19.09-4.36.13-6.55h-.75c0-.63 0-1 0-1.58 1.68 0 2.5 0 4.16.14 0 .63 0 1-.08 1.59h-.88c-.1133 2.1733-.23 4.3533-.35 6.54l.89.03c0 .65-.06 1-.11 1.6-1.46-.09-2.19-.12-3.65-.13 0-.64 0-1 0-1.6zm11.64 1.04c-.0989.3632-.3041.6886-.5892.9344-.285.2459-.637.401-1.0108.4456-1.64-.25-2.46-.34-4.09-.49-.3454-.0204-.6734-.158-.93-.39-.2583-.2999-.3972-.6843-.39-1.08l.15-2c.87.06 1.31.1 2.18.19-.07.6-.1.89-.16 1.49 1 .1 1.55.16 2.59.3.12-.82.19-1.22.3-2-1.4-.19-2.11-.27-3.51-.4-.1466-.0238-.2885-.0711-.42-.14-.1518-.0857-.29-.1935-.41-.32-.127-.1345-.2347-.286-.32-.45-.0865-.1662-.1246-.3533-.11-.54.11-1.38.17-2.08.26-3.47.0134-.1135.0585-.2209.13-.31.1033-.1611.244-.2949.41-.39.1105-.0714.2277-.1317.35-.18.0964-.0104.1936-.0104.29 0h.16c1.93.17 2.92.28 4.85.57.2 0 .38.1.55.14.2602.0799.4876.2419.648.4619.1605.2199.2454.4859.242.7581-.14.8-.2 1.2-.34 2-1-.16-1.45-.24-2.42-.36.08-.54.12-.8.19-1.35-1.12-.14-1.69-.22-2.8-.33-.08.76-.12 1.15-.21 1.92 1.49.15 2.23.24 3.71.46.3344.1003.633.2947.86.56.2213.2851.3346.6393.32 1-.22 1.2-.33 1.79-.55 3zm26.1702 8.25c-.188.2372-.427.4287-.7.56-.174.0764-.355.1366-.54.18-.46.082-.934.037-1.37-.13-1.75-.77-2.41-1-4.1402-1.73-.86-.43-1.15-1.12-.83-1.78s.59-1 1-1.74c.9302.35 1.3902.54 2.3202.92-.31.51-.47.77-.8 1.29 1.11.45 1.67.67 2.77 1.16l1.19-1.74c-1.52-.66-2.27-1-3.77-1.56-.174-.0538-.334-.1435-.47-.2635-.137-.1199-.246-.2673-.322-.4325-.075-.1652-.115-.3445-.117-.5261-.001-.1817.036-.3615.109-.5279.65-1.23.83-1.6 1.45-2.83.097-.184.226-.3498.38-.49.175-.1066.368-.1811.57-.22.162-.0235.327-.0235.49 0 .18.0115.358.0451.53.1 1.78.71 3.56 1.47 5.31 2.25.204.0897.398.2003.58.33.172.134.323.2923.45.47.111.1631.189.3466.23.54.043.1503.043.3096 0 .46-.47.67-.7 1-1.18 1.66-1.06-.49-1.59-.72-2.64-1.18.3-.45.44-.68.73-1.14-1.22-.53-1.83-.79-3-1.29-.37.67-.57 1-1 1.66 1.59.65 2.39 1 4 1.71.334.1888.602.4748.77.82.088.152.134.3244.134.5 0 .1755-.046.348-.134.5zm-25.0002-8.06.6.11c.2-.92.31-1.38.5-2.3l-1-.19c.17-.77.23-1.17.38-1.94.42.07.62.1 1 .19.19-.87.27-1.3.43-2.16-.26-.06-.39-.09-.66-.13.12-.62.17-.93.29-1.56 2.71.53 5.42 1.15 8.11 1.85-.33 1.15-.51 1.72-.86 2.86l-2.33-.6c.13-.45.19-.68.31-1.13-.88-.22-1.32-.33-2.19-.51-.18.76-.27 1.15-.46 1.91.83.19 1.25.28 2.08.49-.2.76-.3 1.14-.52 1.9-.82-.2-1.22-.29-2-.47l-.53 2.07c.8.17 1.21.27 2 .46.17-.58.25-.86.41-1.44.89.21 1.33.33 2.22.56-.4 1.26-.62 1.9-1 3.15-2.34-.57-4.69-1.1-7-1.55.13-.63.2-.94.33-1.57zm19.4702-2.25c-.072-.1924-.181-.369-.32-.52-.143-.1586-.3041-.2996-.4802-.42-.3029-.2124-.6417-.3682-1-.46-2.39-.86-4.31-1.42-6.74-2.14-.19.6-.29.9-.47 1.5l.81.24c-.27.83-.41 1.25-.7 2.08-.42-.13-.64-.18-1.06-.3l-.63 1.9c.4.13.62.18 1 .29-.3.88-.46 1.31-.79 2.19l-.81-.17c-.22.6-.32.9-.55 1.51 1.57.43 2.34.67 3.91 1.17.27-.59.4-.88.65-1.48l-.87-.27c.36-.85.53-1.27.88-2.12 1 .3 1.47.47 2.46.81l-.11.22c-.26.67-.48 1.21-.64 1.64-.14.363-.2013.7515-.18 1.14.0001.1795.0484.3556.14.51.1212.1552.2664.2903.43.4.2309.1437.4754.2642.73.36.29.13.65.28 1.07.43.32-.58.48-.88.8-1.45l-.71-.28c.43-.83.56-1.16 1.08-2.09-.15-.39-.27-.68-.36-.9l-.17-.41h.09.13.17c.18 0 .35-.1.52-.15s.38-.12.45-.24c.46-.92.69-1.38 1.1302-2.31.037-.0834.056-.1737.056-.265s-.019-.1816-.056-.265zm-3.9502 1.98-2.33-.78c.29-.71.42-1.06.69-1.78l2.4.8c-.3.7-.45 1.06-.76 1.76" fill="#fff"/></svg>