<svg width="289" height="221" viewBox="0 0 289 221" fill="none" xmlns="http://www.w3.org/2000/svg">
<path d="M38 2C38.5523 2 39 1.55228 39 1C39 0.447715 38.5523 0 38 0C37.4477 0 37 0.447715 37 1C37 1.55228 37.4477 2 38 2Z" fill="#7C47E1"/>
<path d="M1 2C1.55228 2 2 1.55228 2 1C2 0.447715 1.55228 0 1 0C0.447715 0 0 0.447715 0 1C0 1.55228 0.447715 2 1 2Z" fill="#7C47E1"/>
<path d="M38 13C38.5523 13 39 12.5523 39 12C39 11.4477 38.5523 11 38 11C37.4477 11 37 11.4477 37 12C37 12.5523 37.4477 13 38 13Z" fill="#7C47E1"/>
<path d="M1 13C1.55228 13 2 12.5523 2 12C2 11.4477 1.55228 11 1 11C0.447715 11 0 11.4477 0 12C0 12.5523 0.447715 13 1 13Z" fill="#7C47E1"/>
<path d="M38 25C38.5523 25 39 24.5523 39 24C39 23.4477 38.5523 23 38 23C37.4477 23 37 23.4477 37 24C37 24.5523 37.4477 25 38 25Z" fill="#7C47E1"/>
<path d="M1 25C1.55228 25 2 24.5523 2 24C2 23.4477 1.55228 23 1 23C0.447715 23 0 23.4477 0 24C0 24.5523 0.447715 25 1 25Z" fill="#7C47E1"/>
<path d="M38 36C38.5523 36 39 35.5523 39 35C39 34.4477 38.5523 34 38 34C37.4477 34 37 34.4477 37 35C37 35.5523 37.4477 36 38 36Z" fill="#7C47E1"/>
<path d="M1 36C1.55228 36 2 35.5523 2 35C2 34.4477 1.55228 34 1 34C0.447715 34 0 34.4477 0 35C0 35.5523 0.447715 36 1 36Z" fill="#7C47E1"/>
<path d="M38 48C38.5523 48 39 47.5523 39 47C39 46.4477 38.5523 46 38 46C37.4477 46 37 46.4477 37 47C37 47.5523 37.4477 48 38 48Z" fill="#7C47E1"/>
<path d="M1 48C1.55228 48 2 47.5523 2 47C2 46.4477 1.55228 46 1 46C0.447715 46 0 46.4477 0 47C0 47.5523 0.447715 48 1 48Z" fill="#7C47E1"/>
<path d="M38 59C38.5523 59 39 58.5523 39 58C39 57.4477 38.5523 57 38 57C37.4477 57 37 57.4477 37 58C37 58.5523 37.4477 59 38 59Z" fill="#7C47E1"/>
<path d="M1 59C1.55228 59 2 58.5523 2 58C2 57.4477 1.55228 57 1 57C0.447715 57 0 57.4477 0 58C0 58.5523 0.447715 59 1 59Z" fill="#7C47E1"/>
<path d="M38 71C38.5523 71 39 70.5523 39 70C39 69.4477 38.5523 69 38 69C37.4477 69 37 69.4477 37 70C37 70.5523 37.4477 71 38 71Z" fill="#7C47E1"/>
<path d="M1 71C1.55228 71 2 70.5523 2 70C2 69.4477 1.55228 69 1 69C0.447715 69 0 69.4477 0 70C0 70.5523 0.447715 71 1 71Z" fill="#7C47E1"/>
<path d="M38 82C38.5523 82 39 81.5523 39 81C39 80.4477 38.5523 80 38 80C37.4477 80 37 80.4477 37 81C37 81.5523 37.4477 82 38 82Z" fill="#7C47E1"/>
<path d="M1 82C1.55228 82 2 81.5523 2 81C2 80.4477 1.55228 80 1 80C0.447715 80 0 80.4477 0 81C0 81.5523 0.447715 82 1 82Z" fill="#7C47E1"/>
<path d="M38 94C38.5523 94 39 93.5523 39 93C39 92.4477 38.5523 92 38 92C37.4477 92 37 92.4477 37 93C37 93.5523 37.4477 94 38 94Z" fill="#7C47E1"/>
<path d="M1 94C1.55228 94 2 93.5523 2 93C2 92.4477 1.55228 92 1 92C0.447715 92 0 92.4477 0 93C0 93.5523 0.447715 94 1 94Z" fill="#7C47E1"/>
<path d="M38 105C38.5523 105 39 104.552 39 104C39 103.448 38.5523 103 38 103C37.4477 103 37 103.448 37 104C37 104.552 37.4477 105 38 105Z" fill="#7C47E1"/>
<path d="M1 105C1.55228 105 2 104.552 2 104C2 103.448 1.55228 103 1 103C0.447715 103 0 103.448 0 104C0 104.552 0.447715 105 1 105Z" fill="#7C47E1"/>
<path d="M50 2C50.5523 2 51 1.55228 51 1C51 0.447715 50.5523 0 50 0C49.4477 0 49 0.447715 49 1C49 1.55228 49.4477 2 50 2Z" fill="#7C47E1"/>
<path d="M13 2C13.5523 2 14 1.55228 14 1C14 0.447715 13.5523 0 13 0C12.4477 0 12 0.447715 12 1C12 1.55228 12.4477 2 13 2Z" fill="#7C47E1"/>
<path d="M50 13C50.5523 13 51 12.5523 51 12C51 11.4477 50.5523 11 50 11C49.4477 11 49 11.4477 49 12C49 12.5523 49.4477 13 50 13Z" fill="#7C47E1"/>
<path d="M13 13C13.5523 13 14 12.5523 14 12C14 11.4477 13.5523 11 13 11C12.4477 11 12 11.4477 12 12C12 12.5523 12.4477 13 13 13Z" fill="#7C47E1"/>
<path d="M50 25C50.5523 25 51 24.5523 51 24C51 23.4477 50.5523 23 50 23C49.4477 23 49 23.4477 49 24C49 24.5523 49.4477 25 50 25Z" fill="#7C47E1"/>
<path d="M13 25C13.5523 25 14 24.5523 14 24C14 23.4477 13.5523 23 13 23C12.4477 23 12 23.4477 12 24C12 24.5523 12.4477 25 13 25Z" fill="#7C47E1"/>
<path d="M50 36C50.5523 36 51 35.5523 51 35C51 34.4477 50.5523 34 50 34C49.4477 34 49 34.4477 49 35C49 35.5523 49.4477 36 50 36Z" fill="#7C47E1"/>
<path d="M13 36C13.5523 36 14 35.5523 14 35C14 34.4477 13.5523 34 13 34C12.4477 34 12 34.4477 12 35C12 35.5523 12.4477 36 13 36Z" fill="#7C47E1"/>
<path d="M50 48C50.5523 48 51 47.5523 51 47C51 46.4477 50.5523 46 50 46C49.4477 46 49 46.4477 49 47C49 47.5523 49.4477 48 50 48Z" fill="#7C47E1"/>
<path d="M13 48C13.5523 48 14 47.5523 14 47C14 46.4477 13.5523 46 13 46C12.4477 46 12 46.4477 12 47C12 47.5523 12.4477 48 13 48Z" fill="#7C47E1"/>
<path d="M50 59C50.5523 59 51 58.5523 51 58C51 57.4477 50.5523 57 50 57C49.4477 57 49 57.4477 49 58C49 58.5523 49.4477 59 50 59Z" fill="#7C47E1"/>
<path d="M13 59C13.5523 59 14 58.5523 14 58C14 57.4477 13.5523 57 13 57C12.4477 57 12 57.4477 12 58C12 58.5523 12.4477 59 13 59Z" fill="#7C47E1"/>
<path d="M50 71C50.5523 71 51 70.5523 51 70C51 69.4477 50.5523 69 50 69C49.4477 69 49 69.4477 49 70C49 70.5523 49.4477 71 50 71Z" fill="#7C47E1"/>
<path d="M13 71C13.5523 71 14 70.5523 14 70C14 69.4477 13.5523 69 13 69C12.4477 69 12 69.4477 12 70C12 70.5523 12.4477 71 13 71Z" fill="#7C47E1"/>
<path d="M50 82C50.5523 82 51 81.5523 51 81C51 80.4477 50.5523 80 50 80C49.4477 80 49 80.4477 49 81C49 81.5523 49.4477 82 50 82Z" fill="#7C47E1"/>
<path d="M13 82C13.5523 82 14 81.5523 14 81C14 80.4477 13.5523 80 13 80C12.4477 80 12 80.4477 12 81C12 81.5523 12.4477 82 13 82Z" fill="#7C47E1"/>
<path d="M50 94C50.5523 94 51 93.5523 51 93C51 92.4477 50.5523 92 50 92C49.4477 92 49 92.4477 49 93C49 93.5523 49.4477 94 50 94Z" fill="#7C47E1"/>
<path d="M13 94C13.5523 94 14 93.5523 14 93C14 92.4477 13.5523 92 13 92C12.4477 92 12 92.4477 12 93C12 93.5523 12.4477 94 13 94Z" fill="#7C47E1"/>
<path d="M50 105C50.5523 105 51 104.552 51 104C51 103.448 50.5523 103 50 103C49.4477 103 49 103.448 49 104C49 104.552 49.4477 105 50 105Z" fill="#7C47E1"/>
<path d="M13 105C13.5523 105 14 104.552 14 104C14 103.448 13.5523 103 13 103C12.4477 103 12 103.448 12 104C12 104.552 12.4477 105 13 105Z" fill="#7C47E1"/>
<path d="M62 2C62.5523 2 63 1.55228 63 1C63 0.447715 62.5523 0 62 0C61.4477 0 61 0.447715 61 1C61 1.55228 61.4477 2 62 2Z" fill="#7C47E1"/>
<path d="M25 2C25.5523 2 26 1.55228 26 1C26 0.447715 25.5523 0 25 0C24.4477 0 24 0.447715 24 1C24 1.55228 24.4477 2 25 2Z" fill="#7C47E1"/>
<path d="M62 13C62.5523 13 63 12.5523 63 12C63 11.4477 62.5523 11 62 11C61.4477 11 61 11.4477 61 12C61 12.5523 61.4477 13 62 13Z" fill="#7C47E1"/>
<path d="M25 13C25.5523 13 26 12.5523 26 12C26 11.4477 25.5523 11 25 11C24.4477 11 24 11.4477 24 12C24 12.5523 24.4477 13 25 13Z" fill="#7C47E1"/>
<path d="M62 25C62.5523 25 63 24.5523 63 24C63 23.4477 62.5523 23 62 23C61.4477 23 61 23.4477 61 24C61 24.5523 61.4477 25 62 25Z" fill="#7C47E1"/>
<path d="M25 25C25.5523 25 26 24.5523 26 24C26 23.4477 25.5523 23 25 23C24.4477 23 24 23.4477 24 24C24 24.5523 24.4477 25 25 25Z" fill="#7C47E1"/>
<path d="M62 36C62.5523 36 63 35.5523 63 35C63 34.4477 62.5523 34 62 34C61.4477 34 61 34.4477 61 35C61 35.5523 61.4477 36 62 36Z" fill="#7C47E1"/>
<path d="M25 36C25.5523 36 26 35.5523 26 35C26 34.4477 25.5523 34 25 34C24.4477 34 24 34.4477 24 35C24 35.5523 24.4477 36 25 36Z" fill="#7C47E1"/>
<path d="M62 48C62.5523 48 63 47.5523 63 47C63 46.4477 62.5523 46 62 46C61.4477 46 61 46.4477 61 47C61 47.5523 61.4477 48 62 48Z" fill="#7C47E1"/>
<path d="M25 48C25.5523 48 26 47.5523 26 47C26 46.4477 25.5523 46 25 46C24.4477 46 24 46.4477 24 47C24 47.5523 24.4477 48 25 48Z" fill="#7C47E1"/>
<path d="M62 59C62.5523 59 63 58.5523 63 58C63 57.4477 62.5523 57 62 57C61.4477 57 61 57.4477 61 58C61 58.5523 61.4477 59 62 59Z" fill="#7C47E1"/>
<path d="M25 59C25.5523 59 26 58.5523 26 58C26 57.4477 25.5523 57 25 57C24.4477 57 24 57.4477 24 58C24 58.5523 24.4477 59 25 59Z" fill="#7C47E1"/>
<path d="M62 71C62.5523 71 63 70.5523 63 70C63 69.4477 62.5523 69 62 69C61.4477 69 61 69.4477 61 70C61 70.5523 61.4477 71 62 71Z" fill="#7C47E1"/>
<path d="M25 71C25.5523 71 26 70.5523 26 70C26 69.4477 25.5523 69 25 69C24.4477 69 24 69.4477 24 70C24 70.5523 24.4477 71 25 71Z" fill="#7C47E1"/>
<path d="M62 82C62.5523 82 63 81.5523 63 81C63 80.4477 62.5523 80 62 80C61.4477 80 61 80.4477 61 81C61 81.5523 61.4477 82 62 82Z" fill="#7C47E1"/>
<path d="M25 82C25.5523 82 26 81.5523 26 81C26 80.4477 25.5523 80 25 80C24.4477 80 24 80.4477 24 81C24 81.5523 24.4477 82 25 82Z" fill="#7C47E1"/>
<path d="M62 94C62.5523 94 63 93.5523 63 93C63 92.4477 62.5523 92 62 92C61.4477 92 61 92.4477 61 93C61 93.5523 61.4477 94 62 94Z" fill="#7C47E1"/>
<path d="M25 94C25.5523 94 26 93.5523 26 93C26 92.4477 25.5523 92 25 92C24.4477 92 24 92.4477 24 93C24 93.5523 24.4477 94 25 94Z" fill="#7C47E1"/>
<path d="M62 105C62.5523 105 63 104.552 63 104C63 103.448 62.5523 103 62 103C61.4477 103 61 103.448 61 104C61 104.552 61.4477 105 62 105Z" fill="#7C47E1"/>
<path d="M25 105C25.5523 105 26 104.552 26 104C26 103.448 25.5523 103 25 103C24.4477 103 24 103.448 24 104C24 104.552 24.4477 105 25 105Z" fill="#7C47E1"/>
<path d="M74 2C74.5523 2 75 1.55228 75 1C75 0.447715 74.5523 0 74 0C73.4477 0 73 0.447715 73 1C73 1.55228 73.4477 2 74 2Z" fill="#7C47E1"/>
<path d="M74 13C74.5523 13 75 12.5523 75 12C75 11.4477 74.5523 11 74 11C73.4477 11 73 11.4477 73 12C73 12.5523 73.4477 13 74 13Z" fill="#7C47E1"/>
<path d="M74 25C74.5523 25 75 24.5523 75 24C75 23.4477 74.5523 23 74 23C73.4477 23 73 23.4477 73 24C73 24.5523 73.4477 25 74 25Z" fill="#7C47E1"/>
<path d="M74 36C74.5523 36 75 35.5523 75 35C75 34.4477 74.5523 34 74 34C73.4477 34 73 34.4477 73 35C73 35.5523 73.4477 36 74 36Z" fill="#7C47E1"/>
<path d="M74 48C74.5523 48 75 47.5523 75 47C75 46.4477 74.5523 46 74 46C73.4477 46 73 46.4477 73 47C73 47.5523 73.4477 48 74 48Z" fill="#7C47E1"/>
<path d="M74 59C74.5523 59 75 58.5523 75 58C75 57.4477 74.5523 57 74 57C73.4477 57 73 57.4477 73 58C73 58.5523 73.4477 59 74 59Z" fill="#7C47E1"/>
<path d="M74 71C74.5523 71 75 70.5523 75 70C75 69.4477 74.5523 69 74 69C73.4477 69 73 69.4477 73 70C73 70.5523 73.4477 71 74 71Z" fill="#7C47E1"/>
<path d="M74 82C74.5523 82 75 81.5523 75 81C75 80.4477 74.5523 80 74 80C73.4477 80 73 80.4477 73 81C73 81.5523 73.4477 82 74 82Z" fill="#7C47E1"/>
<path d="M74 94C74.5523 94 75 93.5523 75 93C75 92.4477 74.5523 92 74 92C73.4477 92 73 92.4477 73 93C73 93.5523 73.4477 94 74 94Z" fill="#7C47E1"/>
<path d="M74 105C74.5523 105 75 104.552 75 104C75 103.448 74.5523 103 74 103C73.4477 103 73 103.448 73 104C73 104.552 73.4477 105 74 105Z" fill="#7C47E1"/>
<path d="M86 2C86.5523 2 87 1.55228 87 1C87 0.447715 86.5523 0 86 0C85.4477 0 85 0.447715 85 1C85 1.55228 85.4477 2 86 2Z" fill="#7C47E1"/>
<path d="M86 13C86.5523 13 87 12.5523 87 12C87 11.4477 86.5523 11 86 11C85.4477 11 85 11.4477 85 12C85 12.5523 85.4477 13 86 13Z" fill="#7C47E1"/>
<path d="M86 25C86.5523 25 87 24.5523 87 24C87 23.4477 86.5523 23 86 23C85.4477 23 85 23.4477 85 24C85 24.5523 85.4477 25 86 25Z" fill="#7C47E1"/>
<path d="M86 36C86.5523 36 87 35.5523 87 35C87 34.4477 86.5523 34 86 34C85.4477 34 85 34.4477 85 35C85 35.5523 85.4477 36 86 36Z" fill="#7C47E1"/>
<path d="M86 48C86.5523 48 87 47.5523 87 47C87 46.4477 86.5523 46 86 46C85.4477 46 85 46.4477 85 47C85 47.5523 85.4477 48 86 48Z" fill="#7C47E1"/>
<path d="M86 59C86.5523 59 87 58.5523 87 58C87 57.4477 86.5523 57 86 57C85.4477 57 85 57.4477 85 58C85 58.5523 85.4477 59 86 59Z" fill="#7C47E1"/>
<path d="M86 71C86.5523 71 87 70.5523 87 70C87 69.4477 86.5523 69 86 69C85.4477 69 85 69.4477 85 70C85 70.5523 85.4477 71 86 71Z" fill="#7C47E1"/>
<path d="M86 82C86.5523 82 87 81.5523 87 81C87 80.4477 86.5523 80 86 80C85.4477 80 85 80.4477 85 81C85 81.5523 85.4477 82 86 82Z" fill="#7C47E1"/>
<path d="M86 94C86.5523 94 87 93.5523 87 93C87 92.4477 86.5523 92 86 92C85.4477 92 85 92.4477 85 93C85 93.5523 85.4477 94 86 94Z" fill="#7C47E1"/>
<path d="M86 105C86.5523 105 87 104.552 87 104C87 103.448 86.5523 103 86 103C85.4477 103 85 103.448 85 104C85 104.552 85.4477 105 86 105Z" fill="#7C47E1"/>
<path d="M99 2C99.5523 2 100 1.55228 100 1C100 0.447715 99.5523 0 99 0C98.4477 0 98 0.447715 98 1C98 1.55228 98.4477 2 99 2Z" fill="#7C47E1"/>
<path d="M99 13C99.5523 13 100 12.5523 100 12C100 11.4477 99.5523 11 99 11C98.4477 11 98 11.4477 98 12C98 12.5523 98.4477 13 99 13Z" fill="#7C47E1"/>
<path d="M99 25C99.5523 25 100 24.5523 100 24C100 23.4477 99.5523 23 99 23C98.4477 23 98 23.4477 98 24C98 24.5523 98.4477 25 99 25Z" fill="#7C47E1"/>
<path d="M99 36C99.5523 36 100 35.5523 100 35C100 34.4477 99.5523 34 99 34C98.4477 34 98 34.4477 98 35C98 35.5523 98.4477 36 99 36Z" fill="#7C47E1"/>
<path d="M99 48C99.5523 48 100 47.5523 100 47C100 46.4477 99.5523 46 99 46C98.4477 46 98 46.4477 98 47C98 47.5523 98.4477 48 99 48Z" fill="#7C47E1"/>
<path d="M99 59C99.5523 59 100 58.5523 100 58C100 57.4477 99.5523 57 99 57C98.4477 57 98 57.4477 98 58C98 58.5523 98.4477 59 99 59Z" fill="#7C47E1"/>
<path d="M99 71C99.5523 71 100 70.5523 100 70C100 69.4477 99.5523 69 99 69C98.4477 69 98 69.4477 98 70C98 70.5523 98.4477 71 99 71Z" fill="#7C47E1"/>
<path d="M99 82C99.5523 82 100 81.5523 100 81C100 80.4477 99.5523 80 99 80C98.4477 80 98 80.4477 98 81C98 81.5523 98.4477 82 99 82Z" fill="#7C47E1"/>
<path d="M99 94C99.5523 94 100 93.5523 100 93C100 92.4477 99.5523 92 99 92C98.4477 92 98 92.4477 98 93C98 93.5523 98.4477 94 99 94Z" fill="#7C47E1"/>
<path d="M99 105C99.5523 105 100 104.552 100 104C100 103.448 99.5523 103 99 103C98.4477 103 98 103.448 98 104C98 104.552 98.4477 105 99 105Z" fill="#7C47E1"/>
<path d="M111 2C111.552 2 112 1.55228 112 1C112 0.447715 111.552 0 111 0C110.448 0 110 0.447715 110 1C110 1.55228 110.448 2 111 2Z" fill="#7C47E1"/>
<path d="M111 13C111.552 13 112 12.5523 112 12C112 11.4477 111.552 11 111 11C110.448 11 110 11.4477 110 12C110 12.5523 110.448 13 111 13Z" fill="#7C47E1"/>
<path d="M111 25C111.552 25 112 24.5523 112 24C112 23.4477 111.552 23 111 23C110.448 23 110 23.4477 110 24C110 24.5523 110.448 25 111 25Z" fill="#7C47E1"/>
<path d="M111 36C111.552 36 112 35.5523 112 35C112 34.4477 111.552 34 111 34C110.448 34 110 34.4477 110 35C110 35.5523 110.448 36 111 36Z" fill="#7C47E1"/>
<path d="M111 48C111.552 48 112 47.5523 112 47C112 46.4477 111.552 46 111 46C110.448 46 110 46.4477 110 47C110 47.5523 110.448 48 111 48Z" fill="#7C47E1"/>
<path d="M111 59C111.552 59 112 58.5523 112 58C112 57.4477 111.552 57 111 57C110.448 57 110 57.4477 110 58C110 58.5523 110.448 59 111 59Z" fill="#7C47E1"/>
<path d="M111 71C111.552 71 112 70.5523 112 70C112 69.4477 111.552 69 111 69C110.448 69 110 69.4477 110 70C110 70.5523 110.448 71 111 71Z" fill="#7C47E1"/>
<path d="M111 82C111.552 82 112 81.5523 112 81C112 80.4477 111.552 80 111 80C110.448 80 110 80.4477 110 81C110 81.5523 110.448 82 111 82Z" fill="#7C47E1"/>
<path d="M111 94C111.552 94 112 93.5523 112 93C112 92.4477 111.552 92 111 92C110.448 92 110 92.4477 110 93C110 93.5523 110.448 94 111 94Z" fill="#7C47E1"/>
<path d="M111 105C111.552 105 112 104.552 112 104C112 103.448 111.552 103 111 103C110.448 103 110 103.448 110 104C110 104.552 110.448 105 111 105Z" fill="#7C47E1"/>
<path d="M123 2C123.552 2 124 1.55228 124 1C124 0.447715 123.552 0 123 0C122.448 0 122 0.447715 122 1C122 1.55228 122.448 2 123 2Z" fill="#7C47E1"/>
<path d="M123 13C123.552 13 124 12.5523 124 12C124 11.4477 123.552 11 123 11C122.448 11 122 11.4477 122 12C122 12.5523 122.448 13 123 13Z" fill="#7C47E1"/>
<path d="M123 25C123.552 25 124 24.5523 124 24C124 23.4477 123.552 23 123 23C122.448 23 122 23.4477 122 24C122 24.5523 122.448 25 123 25Z" fill="#7C47E1"/>
<path d="M123 36C123.552 36 124 35.5523 124 35C124 34.4477 123.552 34 123 34C122.448 34 122 34.4477 122 35C122 35.5523 122.448 36 123 36Z" fill="#7C47E1"/>
<path d="M123 48C123.552 48 124 47.5523 124 47C124 46.4477 123.552 46 123 46C122.448 46 122 46.4477 122 47C122 47.5523 122.448 48 123 48Z" fill="#7C47E1"/>
<path d="M123 59C123.552 59 124 58.5523 124 58C124 57.4477 123.552 57 123 57C122.448 57 122 57.4477 122 58C122 58.5523 122.448 59 123 59Z" fill="#7C47E1"/>
<path d="M123 71C123.552 71 124 70.5523 124 70C124 69.4477 123.552 69 123 69C122.448 69 122 69.4477 122 70C122 70.5523 122.448 71 123 71Z" fill="#7C47E1"/>
<path d="M123 82C123.552 82 124 81.5523 124 81C124 80.4477 123.552 80 123 80C122.448 80 122 80.4477 122 81C122 81.5523 122.448 82 123 82Z" fill="#7C47E1"/>
<path d="M123 94C123.552 94 124 93.5523 124 93C124 92.4477 123.552 92 123 92C122.448 92 122 92.4477 122 93C122 93.5523 122.448 94 123 94Z" fill="#7C47E1"/>
<path d="M123 105C123.552 105 124 104.552 124 104C124 103.448 123.552 103 123 103C122.448 103 122 103.448 122 104C122 104.552 122.448 105 123 105Z" fill="#7C47E1"/>
<path d="M135 2C135.552 2 136 1.55228 136 1C136 0.447715 135.552 0 135 0C134.448 0 134 0.447715 134 1C134 1.55228 134.448 2 135 2Z" fill="#7C47E1"/>
<path d="M135 13C135.552 13 136 12.5523 136 12C136 11.4477 135.552 11 135 11C134.448 11 134 11.4477 134 12C134 12.5523 134.448 13 135 13Z" fill="#7C47E1"/>
<path d="M135 25C135.552 25 136 24.5523 136 24C136 23.4477 135.552 23 135 23C134.448 23 134 23.4477 134 24C134 24.5523 134.448 25 135 25Z" fill="#7C47E1"/>
<path d="M135 36C135.552 36 136 35.5523 136 35C136 34.4477 135.552 34 135 34C134.448 34 134 34.4477 134 35C134 35.5523 134.448 36 135 36Z" fill="#7C47E1"/>
<path d="M135 48C135.552 48 136 47.5523 136 47C136 46.4477 135.552 46 135 46C134.448 46 134 46.4477 134 47C134 47.5523 134.448 48 135 48Z" fill="#7C47E1"/>
<path d="M135 59C135.552 59 136 58.5523 136 58C136 57.4477 135.552 57 135 57C134.448 57 134 57.4477 134 58C134 58.5523 134.448 59 135 59Z" fill="#7C47E1"/>
<path d="M135 71C135.552 71 136 70.5523 136 70C136 69.4477 135.552 69 135 69C134.448 69 134 69.4477 134 70C134 70.5523 134.448 71 135 71Z" fill="#7C47E1"/>
<path d="M135 82C135.552 82 136 81.5523 136 81C136 80.4477 135.552 80 135 80C134.448 80 134 80.4477 134 81C134 81.5523 134.448 82 135 82Z" fill="#7C47E1"/>
<path d="M135 94C135.552 94 136 93.5523 136 93C136 92.4477 135.552 92 135 92C134.448 92 134 92.4477 134 93C134 93.5523 134.448 94 135 94Z" fill="#7C47E1"/>
<path d="M135 105C135.552 105 136 104.552 136 104C136 103.448 135.552 103 135 103C134.448 103 134 103.448 134 104C134 104.552 134.448 105 135 105Z" fill="#7C47E1"/>
<path d="M148 2C148.552 2 149 1.55228 149 1C149 0.447715 148.552 0 148 0C147.448 0 147 0.447715 147 1C147 1.55228 147.448 2 148 2Z" fill="#7C47E1"/>
<path d="M148 13C148.552 13 149 12.5523 149 12C149 11.4477 148.552 11 148 11C147.448 11 147 11.4477 147 12C147 12.5523 147.448 13 148 13Z" fill="#7C47E1"/>
<path d="M148 25C148.552 25 149 24.5523 149 24C149 23.4477 148.552 23 148 23C147.448 23 147 23.4477 147 24C147 24.5523 147.448 25 148 25Z" fill="#7C47E1"/>
<path d="M148 36C148.552 36 149 35.5523 149 35C149 34.4477 148.552 34 148 34C147.448 34 147 34.4477 147 35C147 35.5523 147.448 36 148 36Z" fill="#7C47E1"/>
<path d="M148 48C148.552 48 149 47.5523 149 47C149 46.4477 148.552 46 148 46C147.448 46 147 46.4477 147 47C147 47.5523 147.448 48 148 48Z" fill="#7C47E1"/>
<path d="M148 59C148.552 59 149 58.5523 149 58C149 57.4477 148.552 57 148 57C147.448 57 147 57.4477 147 58C147 58.5523 147.448 59 148 59Z" fill="#7C47E1"/>
<path d="M148 71C148.552 71 149 70.5523 149 70C149 69.4477 148.552 69 148 69C147.448 69 147 69.4477 147 70C147 70.5523 147.448 71 148 71Z" fill="#7C47E1"/>
<path d="M148 82C148.552 82 149 81.5523 149 81C149 80.4477 148.552 80 148 80C147.448 80 147 80.4477 147 81C147 81.5523 147.448 82 148 82Z" fill="#7C47E1"/>
<path d="M148 94C148.552 94 149 93.5523 149 93C149 92.4477 148.552 92 148 92C147.448 92 147 92.4477 147 93C147 93.5523 147.448 94 148 94Z" fill="#7C47E1"/>
<path d="M148 105C148.552 105 149 104.552 149 104C149 103.448 148.552 103 148 103C147.448 103 147 103.448 147 104C147 104.552 147.448 105 148 105Z" fill="#7C47E1"/>
<path d="M160 2C160.552 2 161 1.55228 161 1C161 0.447715 160.552 0 160 0C159.448 0 159 0.447715 159 1C159 1.55228 159.448 2 160 2Z" fill="#7C47E1"/>
<path d="M160 13C160.552 13 161 12.5523 161 12C161 11.4477 160.552 11 160 11C159.448 11 159 11.4477 159 12C159 12.5523 159.448 13 160 13Z" fill="#7C47E1"/>
<path d="M160 25C160.552 25 161 24.5523 161 24C161 23.4477 160.552 23 160 23C159.448 23 159 23.4477 159 24C159 24.5523 159.448 25 160 25Z" fill="#7C47E1"/>
<path d="M160 36C160.552 36 161 35.5523 161 35C161 34.4477 160.552 34 160 34C159.448 34 159 34.4477 159 35C159 35.5523 159.448 36 160 36Z" fill="#7C47E1"/>
<path d="M160 48C160.552 48 161 47.5523 161 47C161 46.4477 160.552 46 160 46C159.448 46 159 46.4477 159 47C159 47.5523 159.448 48 160 48Z" fill="#7C47E1"/>
<path d="M160 59C160.552 59 161 58.5523 161 58C161 57.4477 160.552 57 160 57C159.448 57 159 57.4477 159 58C159 58.5523 159.448 59 160 59Z" fill="#7C47E1"/>
<path d="M160 71C160.552 71 161 70.5523 161 70C161 69.4477 160.552 69 160 69C159.448 69 159 69.4477 159 70C159 70.5523 159.448 71 160 71Z" fill="#7C47E1"/>
<path d="M160 82C160.552 82 161 81.5523 161 81C161 80.4477 160.552 80 160 80C159.448 80 159 80.4477 159 81C159 81.5523 159.448 82 160 82Z" fill="#7C47E1"/>
<path d="M160 94C160.552 94 161 93.5523 161 93C161 92.4477 160.552 92 160 92C159.448 92 159 92.4477 159 93C159 93.5523 159.448 94 160 94Z" fill="#7C47E1"/>
<path d="M160 105C160.552 105 161 104.552 161 104C161 103.448 160.552 103 160 103C159.448 103 159 103.448 159 104C159 104.552 159.448 105 160 105Z" fill="#7C47E1"/>
<path d="M172 2C172.552 2 173 1.55228 173 1C173 0.447715 172.552 0 172 0C171.448 0 171 0.447715 171 1C171 1.55228 171.448 2 172 2Z" fill="#7C47E1"/>
<path d="M172 13C172.552 13 173 12.5523 173 12C173 11.4477 172.552 11 172 11C171.448 11 171 11.4477 171 12C171 12.5523 171.448 13 172 13Z" fill="#7C47E1"/>
<path d="M172 25C172.552 25 173 24.5523 173 24C173 23.4477 172.552 23 172 23C171.448 23 171 23.4477 171 24C171 24.5523 171.448 25 172 25Z" fill="#7C47E1"/>
<path d="M172 36C172.552 36 173 35.5523 173 35C173 34.4477 172.552 34 172 34C171.448 34 171 34.4477 171 35C171 35.5523 171.448 36 172 36Z" fill="#7C47E1"/>
<path d="M172 48C172.552 48 173 47.5523 173 47C173 46.4477 172.552 46 172 46C171.448 46 171 46.4477 171 47C171 47.5523 171.448 48 172 48Z" fill="#7C47E1"/>
<path d="M172 59C172.552 59 173 58.5523 173 58C173 57.4477 172.552 57 172 57C171.448 57 171 57.4477 171 58C171 58.5523 171.448 59 172 59Z" fill="#7C47E1"/>
<path d="M172 71C172.552 71 173 70.5523 173 70C173 69.4477 172.552 69 172 69C171.448 69 171 69.4477 171 70C171 70.5523 171.448 71 172 71Z" fill="#7C47E1"/>
<path d="M172 82C172.552 82 173 81.5523 173 81C173 80.4477 172.552 80 172 80C171.448 80 171 80.4477 171 81C171 81.5523 171.448 82 172 82Z" fill="#7C47E1"/>
<path d="M172 94C172.552 94 173 93.5523 173 93C173 92.4477 172.552 92 172 92C171.448 92 171 92.4477 171 93C171 93.5523 171.448 94 172 94Z" fill="#7C47E1"/>
<path d="M172 105C172.552 105 173 104.552 173 104C173 103.448 172.552 103 172 103C171.448 103 171 103.448 171 104C171 104.552 171.448 105 172 105Z" fill="#7C47E1"/>
<path d="M184 2C184.552 2 185 1.55228 185 1C185 0.447715 184.552 0 184 0C183.448 0 183 0.447715 183 1C183 1.55228 183.448 2 184 2Z" fill="#7C47E1"/>
<path d="M184 13C184.552 13 185 12.5523 185 12C185 11.4477 184.552 11 184 11C183.448 11 183 11.4477 183 12C183 12.5523 183.448 13 184 13Z" fill="#7C47E1"/>
<path d="M184 25C184.552 25 185 24.5523 185 24C185 23.4477 184.552 23 184 23C183.448 23 183 23.4477 183 24C183 24.5523 183.448 25 184 25Z" fill="#7C47E1"/>
<path d="M184 36C184.552 36 185 35.5523 185 35C185 34.4477 184.552 34 184 34C183.448 34 183 34.4477 183 35C183 35.5523 183.448 36 184 36Z" fill="#7C47E1"/>
<path d="M184 48C184.552 48 185 47.5523 185 47C185 46.4477 184.552 46 184 46C183.448 46 183 46.4477 183 47C183 47.5523 183.448 48 184 48Z" fill="#7C47E1"/>
<path d="M184 59C184.552 59 185 58.5523 185 58C185 57.4477 184.552 57 184 57C183.448 57 183 57.4477 183 58C183 58.5523 183.448 59 184 59Z" fill="#7C47E1"/>
<path d="M184 71C184.552 71 185 70.5523 185 70C185 69.4477 184.552 69 184 69C183.448 69 183 69.4477 183 70C183 70.5523 183.448 71 184 71Z" fill="#7C47E1"/>
<path d="M184 82C184.552 82 185 81.5523 185 81C185 80.4477 184.552 80 184 80C183.448 80 183 80.4477 183 81C183 81.5523 183.448 82 184 82Z" fill="#7C47E1"/>
<path d="M184 94C184.552 94 185 93.5523 185 93C185 92.4477 184.552 92 184 92C183.448 92 183 92.4477 183 93C183 93.5523 183.448 94 184 94Z" fill="#7C47E1"/>
<path d="M184 105C184.552 105 185 104.552 185 104C185 103.448 184.552 103 184 103C183.448 103 183 103.448 183 104C183 104.552 183.448 105 184 105Z" fill="#7C47E1"/>
<path d="M196 2C196.552 2 197 1.55228 197 1C197 0.447715 196.552 0 196 0C195.448 0 195 0.447715 195 1C195 1.55228 195.448 2 196 2Z" fill="#7C47E1"/>
<path d="M196 13C196.552 13 197 12.5523 197 12C197 11.4477 196.552 11 196 11C195.448 11 195 11.4477 195 12C195 12.5523 195.448 13 196 13Z" fill="#7C47E1"/>
<path d="M196 25C196.552 25 197 24.5523 197 24C197 23.4477 196.552 23 196 23C195.448 23 195 23.4477 195 24C195 24.5523 195.448 25 196 25Z" fill="#7C47E1"/>
<path d="M196 36C196.552 36 197 35.5523 197 35C197 34.4477 196.552 34 196 34C195.448 34 195 34.4477 195 35C195 35.5523 195.448 36 196 36Z" fill="#7C47E1"/>
<path d="M196 48C196.552 48 197 47.5523 197 47C197 46.4477 196.552 46 196 46C195.448 46 195 46.4477 195 47C195 47.5523 195.448 48 196 48Z" fill="#7C47E1"/>
<path d="M196 59C196.552 59 197 58.5523 197 58C197 57.4477 196.552 57 196 57C195.448 57 195 57.4477 195 58C195 58.5523 195.448 59 196 59Z" fill="#7C47E1"/>
<path d="M196 71C196.552 71 197 70.5523 197 70C197 69.4477 196.552 69 196 69C195.448 69 195 69.4477 195 70C195 70.5523 195.448 71 196 71Z" fill="#7C47E1"/>
<path d="M196 82C196.552 82 197 81.5523 197 81C197 80.4477 196.552 80 196 80C195.448 80 195 80.4477 195 81C195 81.5523 195.448 82 196 82Z" fill="#7C47E1"/>
<path d="M196 94C196.552 94 197 93.5523 197 93C197 92.4477 196.552 92 196 92C195.448 92 195 92.4477 195 93C195 93.5523 195.448 94 196 94Z" fill="#7C47E1"/>
<path d="M196 105C196.552 105 197 104.552 197 104C197 103.448 196.552 103 196 103C195.448 103 195 103.448 195 104C195 104.552 195.448 105 196 105Z" fill="#7C47E1"/>
<path d="M209 2C209.552 2 210 1.55228 210 1C210 0.447715 209.552 0 209 0C208.448 0 208 0.447715 208 1C208 1.55228 208.448 2 209 2Z" fill="#7C47E1"/>
<path d="M209 13C209.552 13 210 12.5523 210 12C210 11.4477 209.552 11 209 11C208.448 11 208 11.4477 208 12C208 12.5523 208.448 13 209 13Z" fill="#7C47E1"/>
<path d="M209 25C209.552 25 210 24.5523 210 24C210 23.4477 209.552 23 209 23C208.448 23 208 23.4477 208 24C208 24.5523 208.448 25 209 25Z" fill="#7C47E1"/>
<path d="M209 36C209.552 36 210 35.5523 210 35C210 34.4477 209.552 34 209 34C208.448 34 208 34.4477 208 35C208 35.5523 208.448 36 209 36Z" fill="#7C47E1"/>
<path d="M209 48C209.552 48 210 47.5523 210 47C210 46.4477 209.552 46 209 46C208.448 46 208 46.4477 208 47C208 47.5523 208.448 48 209 48Z" fill="#7C47E1"/>
<path d="M209 59C209.552 59 210 58.5523 210 58C210 57.4477 209.552 57 209 57C208.448 57 208 57.4477 208 58C208 58.5523 208.448 59 209 59Z" fill="#7C47E1"/>
<path d="M209 71C209.552 71 210 70.5523 210 70C210 69.4477 209.552 69 209 69C208.448 69 208 69.4477 208 70C208 70.5523 208.448 71 209 71Z" fill="#7C47E1"/>
<path d="M209 82C209.552 82 210 81.5523 210 81C210 80.4477 209.552 80 209 80C208.448 80 208 80.4477 208 81C208 81.5523 208.448 82 209 82Z" fill="#7C47E1"/>
<path d="M209 94C209.552 94 210 93.5523 210 93C210 92.4477 209.552 92 209 92C208.448 92 208 92.4477 208 93C208 93.5523 208.448 94 209 94Z" fill="#7C47E1"/>
<path d="M209 105C209.552 105 210 104.552 210 104C210 103.448 209.552 103 209 103C208.448 103 208 103.448 208 104C208 104.552 208.448 105 209 105Z" fill="#7C47E1"/>
<path d="M38 117C38.5523 117 39 116.552 39 116C39 115.448 38.5523 115 38 115C37.4477 115 37 115.448 37 116C37 116.552 37.4477 117 38 117Z" fill="#7C47E1"/>
<path d="M1 117C1.55228 117 2 116.552 2 116C2 115.448 1.55228 115 1 115C0.447715 115 0 115.448 0 116C0 116.552 0.447715 117 1 117Z" fill="#7C47E1"/>
<path d="M38 129C38.5523 129 39 128.552 39 128C39 127.448 38.5523 127 38 127C37.4477 127 37 127.448 37 128C37 128.552 37.4477 129 38 129Z" fill="#7C47E1"/>
<path d="M1 129C1.55228 129 2 128.552 2 128C2 127.448 1.55228 127 1 127C0.447715 127 0 127.448 0 128C0 128.552 0.447715 129 1 129Z" fill="#7C47E1"/>
<path d="M38 140C38.5523 140 39 139.552 39 139C39 138.448 38.5523 138 38 138C37.4477 138 37 138.448 37 139C37 139.552 37.4477 140 38 140Z" fill="#7C47E1"/>
<path d="M1 140C1.55228 140 2 139.552 2 139C2 138.448 1.55228 138 1 138C0.447715 138 0 138.448 0 139C0 139.552 0.447715 140 1 140Z" fill="#7C47E1"/>
<path d="M38 152C38.5523 152 39 151.552 39 151C39 150.448 38.5523 150 38 150C37.4477 150 37 150.448 37 151C37 151.552 37.4477 152 38 152Z" fill="#7C47E1"/>
<path d="M1 152C1.55228 152 2 151.552 2 151C2 150.448 1.55228 150 1 150C0.447715 150 0 150.448 0 151C0 151.552 0.447715 152 1 152Z" fill="#7C47E1"/>
<path d="M38 163C38.5523 163 39 162.552 39 162C39 161.448 38.5523 161 38 161C37.4477 161 37 161.448 37 162C37 162.552 37.4477 163 38 163Z" fill="#7C47E1"/>
<path d="M1 163C1.55228 163 2 162.552 2 162C2 161.448 1.55228 161 1 161C0.447715 161 0 161.448 0 162C0 162.552 0.447715 163 1 163Z" fill="#7C47E1"/>
<path d="M38 175C38.5523 175 39 174.552 39 174C39 173.448 38.5523 173 38 173C37.4477 173 37 173.448 37 174C37 174.552 37.4477 175 38 175Z" fill="#7C47E1"/>
<path d="M1 175C1.55228 175 2 174.552 2 174C2 173.448 1.55228 173 1 173C0.447715 173 0 173.448 0 174C0 174.552 0.447715 175 1 175Z" fill="#7C47E1"/>
<path d="M38 186C38.5523 186 39 185.552 39 185C39 184.448 38.5523 184 38 184C37.4477 184 37 184.448 37 185C37 185.552 37.4477 186 38 186Z" fill="#7C47E1"/>
<path d="M1 186C1.55228 186 2 185.552 2 185C2 184.448 1.55228 184 1 184C0.447715 184 0 184.448 0 185C0 185.552 0.447715 186 1 186Z" fill="#7C47E1"/>
<path d="M38 198C38.5523 198 39 197.552 39 197C39 196.448 38.5523 196 38 196C37.4477 196 37 196.448 37 197C37 197.552 37.4477 198 38 198Z" fill="#7C47E1"/>
<path d="M1 198C1.55228 198 2 197.552 2 197C2 196.448 1.55228 196 1 196C0.447715 196 0 196.448 0 197C0 197.552 0.447715 198 1 198Z" fill="#7C47E1"/>
<path d="M38 209C38.5523 209 39 208.552 39 208C39 207.448 38.5523 207 38 207C37.4477 207 37 207.448 37 208C37 208.552 37.4477 209 38 209Z" fill="#7C47E1"/>
<path d="M1 209C1.55228 209 2 208.552 2 208C2 207.448 1.55228 207 1 207C0.447715 207 0 207.448 0 208C0 208.552 0.447715 209 1 209Z" fill="#7C47E1"/>
<path d="M38 221C38.5523 221 39 220.552 39 220C39 219.448 38.5523 219 38 219C37.4477 219 37 219.448 37 220C37 220.552 37.4477 221 38 221Z" fill="#7C47E1"/>
<path d="M1 221C1.55228 221 2 220.552 2 220C2 219.448 1.55228 219 1 219C0.447715 219 0 219.448 0 220C0 220.552 0.447715 221 1 221Z" fill="#7C47E1"/>
<path d="M50 117C50.5523 117 51 116.552 51 116C51 115.448 50.5523 115 50 115C49.4477 115 49 115.448 49 116C49 116.552 49.4477 117 50 117Z" fill="#7C47E1"/>
<path d="M13 117C13.5523 117 14 116.552 14 116C14 115.448 13.5523 115 13 115C12.4477 115 12 115.448 12 116C12 116.552 12.4477 117 13 117Z" fill="#7C47E1"/>
<path d="M50 129C50.5523 129 51 128.552 51 128C51 127.448 50.5523 127 50 127C49.4477 127 49 127.448 49 128C49 128.552 49.4477 129 50 129Z" fill="#7C47E1"/>
<path d="M13 129C13.5523 129 14 128.552 14 128C14 127.448 13.5523 127 13 127C12.4477 127 12 127.448 12 128C12 128.552 12.4477 129 13 129Z" fill="#7C47E1"/>
<path d="M50 140C50.5523 140 51 139.552 51 139C51 138.448 50.5523 138 50 138C49.4477 138 49 138.448 49 139C49 139.552 49.4477 140 50 140Z" fill="#7C47E1"/>
<path d="M13 140C13.5523 140 14 139.552 14 139C14 138.448 13.5523 138 13 138C12.4477 138 12 138.448 12 139C12 139.552 12.4477 140 13 140Z" fill="#7C47E1"/>
<path d="M50 152C50.5523 152 51 151.552 51 151C51 150.448 50.5523 150 50 150C49.4477 150 49 150.448 49 151C49 151.552 49.4477 152 50 152Z" fill="#7C47E1"/>
<path d="M13 152C13.5523 152 14 151.552 14 151C14 150.448 13.5523 150 13 150C12.4477 150 12 150.448 12 151C12 151.552 12.4477 152 13 152Z" fill="#7C47E1"/>
<path d="M50 163C50.5523 163 51 162.552 51 162C51 161.448 50.5523 161 50 161C49.4477 161 49 161.448 49 162C49 162.552 49.4477 163 50 163Z" fill="#7C47E1"/>
<path d="M13 163C13.5523 163 14 162.552 14 162C14 161.448 13.5523 161 13 161C12.4477 161 12 161.448 12 162C12 162.552 12.4477 163 13 163Z" fill="#7C47E1"/>
<path d="M50 175C50.5523 175 51 174.552 51 174C51 173.448 50.5523 173 50 173C49.4477 173 49 173.448 49 174C49 174.552 49.4477 175 50 175Z" fill="#7C47E1"/>
<path d="M13 175C13.5523 175 14 174.552 14 174C14 173.448 13.5523 173 13 173C12.4477 173 12 173.448 12 174C12 174.552 12.4477 175 13 175Z" fill="#7C47E1"/>
<path d="M50 186C50.5523 186 51 185.552 51 185C51 184.448 50.5523 184 50 184C49.4477 184 49 184.448 49 185C49 185.552 49.4477 186 50 186Z" fill="#7C47E1"/>
<path d="M13 186C13.5523 186 14 185.552 14 185C14 184.448 13.5523 184 13 184C12.4477 184 12 184.448 12 185C12 185.552 12.4477 186 13 186Z" fill="#7C47E1"/>
<path d="M50 198C50.5523 198 51 197.552 51 197C51 196.448 50.5523 196 50 196C49.4477 196 49 196.448 49 197C49 197.552 49.4477 198 50 198Z" fill="#7C47E1"/>
<path d="M13 198C13.5523 198 14 197.552 14 197C14 196.448 13.5523 196 13 196C12.4477 196 12 196.448 12 197C12 197.552 12.4477 198 13 198Z" fill="#7C47E1"/>
<path d="M50 209C50.5523 209 51 208.552 51 208C51 207.448 50.5523 207 50 207C49.4477 207 49 207.448 49 208C49 208.552 49.4477 209 50 209Z" fill="#7C47E1"/>
<path d="M13 209C13.5523 209 14 208.552 14 208C14 207.448 13.5523 207 13 207C12.4477 207 12 207.448 12 208C12 208.552 12.4477 209 13 209Z" fill="#7C47E1"/>
<path d="M50 221C50.5523 221 51 220.552 51 220C51 219.448 50.5523 219 50 219C49.4477 219 49 219.448 49 220C49 220.552 49.4477 221 50 221Z" fill="#7C47E1"/>
<path d="M13 221C13.5523 221 14 220.552 14 220C14 219.448 13.5523 219 13 219C12.4477 219 12 219.448 12 220C12 220.552 12.4477 221 13 221Z" fill="#7C47E1"/>
<path d="M62 117C62.5523 117 63 116.552 63 116C63 115.448 62.5523 115 62 115C61.4477 115 61 115.448 61 116C61 116.552 61.4477 117 62 117Z" fill="#7C47E1"/>
<path d="M25 117C25.5523 117 26 116.552 26 116C26 115.448 25.5523 115 25 115C24.4477 115 24 115.448 24 116C24 116.552 24.4477 117 25 117Z" fill="#7C47E1"/>
<path d="M62 129C62.5523 129 63 128.552 63 128C63 127.448 62.5523 127 62 127C61.4477 127 61 127.448 61 128C61 128.552 61.4477 129 62 129Z" fill="#7C47E1"/>
<path d="M25 129C25.5523 129 26 128.552 26 128C26 127.448 25.5523 127 25 127C24.4477 127 24 127.448 24 128C24 128.552 24.4477 129 25 129Z" fill="#7C47E1"/>
<path d="M62 140C62.5523 140 63 139.552 63 139C63 138.448 62.5523 138 62 138C61.4477 138 61 138.448 61 139C61 139.552 61.4477 140 62 140Z" fill="#7C47E1"/>
<path d="M25 140C25.5523 140 26 139.552 26 139C26 138.448 25.5523 138 25 138C24.4477 138 24 138.448 24 139C24 139.552 24.4477 140 25 140Z" fill="#7C47E1"/>
<path d="M62 152C62.5523 152 63 151.552 63 151C63 150.448 62.5523 150 62 150C61.4477 150 61 150.448 61 151C61 151.552 61.4477 152 62 152Z" fill="#7C47E1"/>
<path d="M25 152C25.5523 152 26 151.552 26 151C26 150.448 25.5523 150 25 150C24.4477 150 24 150.448 24 151C24 151.552 24.4477 152 25 152Z" fill="#7C47E1"/>
<path d="M62 163C62.5523 163 63 162.552 63 162C63 161.448 62.5523 161 62 161C61.4477 161 61 161.448 61 162C61 162.552 61.4477 163 62 163Z" fill="#7C47E1"/>
<path d="M25 163C25.5523 163 26 162.552 26 162C26 161.448 25.5523 161 25 161C24.4477 161 24 161.448 24 162C24 162.552 24.4477 163 25 163Z" fill="#7C47E1"/>
<path d="M62 175C62.5523 175 63 174.552 63 174C63 173.448 62.5523 173 62 173C61.4477 173 61 173.448 61 174C61 174.552 61.4477 175 62 175Z" fill="#7C47E1"/>
<path d="M25 175C25.5523 175 26 174.552 26 174C26 173.448 25.5523 173 25 173C24.4477 173 24 173.448 24 174C24 174.552 24.4477 175 25 175Z" fill="#7C47E1"/>
<path d="M62 186C62.5523 186 63 185.552 63 185C63 184.448 62.5523 184 62 184C61.4477 184 61 184.448 61 185C61 185.552 61.4477 186 62 186Z" fill="#7C47E1"/>
<path d="M25 186C25.5523 186 26 185.552 26 185C26 184.448 25.5523 184 25 184C24.4477 184 24 184.448 24 185C24 185.552 24.4477 186 25 186Z" fill="#7C47E1"/>
<path d="M62 198C62.5523 198 63 197.552 63 197C63 196.448 62.5523 196 62 196C61.4477 196 61 196.448 61 197C61 197.552 61.4477 198 62 198Z" fill="#7C47E1"/>
<path d="M25 198C25.5523 198 26 197.552 26 197C26 196.448 25.5523 196 25 196C24.4477 196 24 196.448 24 197C24 197.552 24.4477 198 25 198Z" fill="#7C47E1"/>
<path d="M62 209C62.5523 209 63 208.552 63 208C63 207.448 62.5523 207 62 207C61.4477 207 61 207.448 61 208C61 208.552 61.4477 209 62 209Z" fill="#7C47E1"/>
<path d="M25 209C25.5523 209 26 208.552 26 208C26 207.448 25.5523 207 25 207C24.4477 207 24 207.448 24 208C24 208.552 24.4477 209 25 209Z" fill="#7C47E1"/>
<path d="M62 221C62.5523 221 63 220.552 63 220C63 219.448 62.5523 219 62 219C61.4477 219 61 219.448 61 220C61 220.552 61.4477 221 62 221Z" fill="#7C47E1"/>
<path d="M25 221C25.5523 221 26 220.552 26 220C26 219.448 25.5523 219 25 219C24.4477 219 24 219.448 24 220C24 220.552 24.4477 221 25 221Z" fill="#7C47E1"/>
<path d="M74 117C74.5523 117 75 116.552 75 116C75 115.448 74.5523 115 74 115C73.4477 115 73 115.448 73 116C73 116.552 73.4477 117 74 117Z" fill="#7C47E1"/>
<path d="M74 129C74.5523 129 75 128.552 75 128C75 127.448 74.5523 127 74 127C73.4477 127 73 127.448 73 128C73 128.552 73.4477 129 74 129Z" fill="#7C47E1"/>
<path d="M74 140C74.5523 140 75 139.552 75 139C75 138.448 74.5523 138 74 138C73.4477 138 73 138.448 73 139C73 139.552 73.4477 140 74 140Z" fill="#7C47E1"/>
<path d="M74 152C74.5523 152 75 151.552 75 151C75 150.448 74.5523 150 74 150C73.4477 150 73 150.448 73 151C73 151.552 73.4477 152 74 152Z" fill="#7C47E1"/>
<path d="M74 163C74.5523 163 75 162.552 75 162C75 161.448 74.5523 161 74 161C73.4477 161 73 161.448 73 162C73 162.552 73.4477 163 74 163Z" fill="#7C47E1"/>
<path d="M74 175C74.5523 175 75 174.552 75 174C75 173.448 74.5523 173 74 173C73.4477 173 73 173.448 73 174C73 174.552 73.4477 175 74 175Z" fill="#7C47E1"/>
<path d="M74 186C74.5523 186 75 185.552 75 185C75 184.448 74.5523 184 74 184C73.4477 184 73 184.448 73 185C73 185.552 73.4477 186 74 186Z" fill="#7C47E1"/>
<path d="M74 198C74.5523 198 75 197.552 75 197C75 196.448 74.5523 196 74 196C73.4477 196 73 196.448 73 197C73 197.552 73.4477 198 74 198Z" fill="#7C47E1"/>
<path d="M74 209C74.5523 209 75 208.552 75 208C75 207.448 74.5523 207 74 207C73.4477 207 73 207.448 73 208C73 208.552 73.4477 209 74 209Z" fill="#7C47E1"/>
<path d="M74 221C74.5523 221 75 220.552 75 220C75 219.448 74.5523 219 74 219C73.4477 219 73 219.448 73 220C73 220.552 73.4477 221 74 221Z" fill="#7C47E1"/>
<path d="M86 117C86.5523 117 87 116.552 87 116C87 115.448 86.5523 115 86 115C85.4477 115 85 115.448 85 116C85 116.552 85.4477 117 86 117Z" fill="#7C47E1"/>
<path d="M86 129C86.5523 129 87 128.552 87 128C87 127.448 86.5523 127 86 127C85.4477 127 85 127.448 85 128C85 128.552 85.4477 129 86 129Z" fill="#7C47E1"/>
<path d="M86 140C86.5523 140 87 139.552 87 139C87 138.448 86.5523 138 86 138C85.4477 138 85 138.448 85 139C85 139.552 85.4477 140 86 140Z" fill="#7C47E1"/>
<path d="M86 152C86.5523 152 87 151.552 87 151C87 150.448 86.5523 150 86 150C85.4477 150 85 150.448 85 151C85 151.552 85.4477 152 86 152Z" fill="#7C47E1"/>
<path d="M86 163C86.5523 163 87 162.552 87 162C87 161.448 86.5523 161 86 161C85.4477 161 85 161.448 85 162C85 162.552 85.4477 163 86 163Z" fill="#7C47E1"/>
<path d="M86 175C86.5523 175 87 174.552 87 174C87 173.448 86.5523 173 86 173C85.4477 173 85 173.448 85 174C85 174.552 85.4477 175 86 175Z" fill="#7C47E1"/>
<path d="M86 186C86.5523 186 87 185.552 87 185C87 184.448 86.5523 184 86 184C85.4477 184 85 184.448 85 185C85 185.552 85.4477 186 86 186Z" fill="#7C47E1"/>
<path d="M86 198C86.5523 198 87 197.552 87 197C87 196.448 86.5523 196 86 196C85.4477 196 85 196.448 85 197C85 197.552 85.4477 198 86 198Z" fill="#7C47E1"/>
<path d="M86 209C86.5523 209 87 208.552 87 208C87 207.448 86.5523 207 86 207C85.4477 207 85 207.448 85 208C85 208.552 85.4477 209 86 209Z" fill="#7C47E1"/>
<path d="M86 221C86.5523 221 87 220.552 87 220C87 219.448 86.5523 219 86 219C85.4477 219 85 219.448 85 220C85 220.552 85.4477 221 86 221Z" fill="#7C47E1"/>
<path d="M99 117C99.5523 117 100 116.552 100 116C100 115.448 99.5523 115 99 115C98.4477 115 98 115.448 98 116C98 116.552 98.4477 117 99 117Z" fill="#7C47E1"/>
<path d="M99 129C99.5523 129 100 128.552 100 128C100 127.448 99.5523 127 99 127C98.4477 127 98 127.448 98 128C98 128.552 98.4477 129 99 129Z" fill="#7C47E1"/>
<path d="M99 140C99.5523 140 100 139.552 100 139C100 138.448 99.5523 138 99 138C98.4477 138 98 138.448 98 139C98 139.552 98.4477 140 99 140Z" fill="#7C47E1"/>
<path d="M99 152C99.5523 152 100 151.552 100 151C100 150.448 99.5523 150 99 150C98.4477 150 98 150.448 98 151C98 151.552 98.4477 152 99 152Z" fill="#7C47E1"/>
<path d="M99 163C99.5523 163 100 162.552 100 162C100 161.448 99.5523 161 99 161C98.4477 161 98 161.448 98 162C98 162.552 98.4477 163 99 163Z" fill="#7C47E1"/>
<path d="M99 175C99.5523 175 100 174.552 100 174C100 173.448 99.5523 173 99 173C98.4477 173 98 173.448 98 174C98 174.552 98.4477 175 99 175Z" fill="#7C47E1"/>
<path d="M99 186C99.5523 186 100 185.552 100 185C100 184.448 99.5523 184 99 184C98.4477 184 98 184.448 98 185C98 185.552 98.4477 186 99 186Z" fill="#7C47E1"/>
<path d="M99 198C99.5523 198 100 197.552 100 197C100 196.448 99.5523 196 99 196C98.4477 196 98 196.448 98 197C98 197.552 98.4477 198 99 198Z" fill="#7C47E1"/>
<path d="M99 209C99.5523 209 100 208.552 100 208C100 207.448 99.5523 207 99 207C98.4477 207 98 207.448 98 208C98 208.552 98.4477 209 99 209Z" fill="#7C47E1"/>
<path d="M99 221C99.5523 221 100 220.552 100 220C100 219.448 99.5523 219 99 219C98.4477 219 98 219.448 98 220C98 220.552 98.4477 221 99 221Z" fill="#7C47E1"/>
<path d="M111 117C111.552 117 112 116.552 112 116C112 115.448 111.552 115 111 115C110.448 115 110 115.448 110 116C110 116.552 110.448 117 111 117Z" fill="#7C47E1"/>
<path d="M111 129C111.552 129 112 128.552 112 128C112 127.448 111.552 127 111 127C110.448 127 110 127.448 110 128C110 128.552 110.448 129 111 129Z" fill="#7C47E1"/>
<path d="M111 140C111.552 140 112 139.552 112 139C112 138.448 111.552 138 111 138C110.448 138 110 138.448 110 139C110 139.552 110.448 140 111 140Z" fill="#7C47E1"/>
<path d="M111 152C111.552 152 112 151.552 112 151C112 150.448 111.552 150 111 150C110.448 150 110 150.448 110 151C110 151.552 110.448 152 111 152Z" fill="#7C47E1"/>
<path d="M111 163C111.552 163 112 162.552 112 162C112 161.448 111.552 161 111 161C110.448 161 110 161.448 110 162C110 162.552 110.448 163 111 163Z" fill="#7C47E1"/>
<path d="M111 175C111.552 175 112 174.552 112 174C112 173.448 111.552 173 111 173C110.448 173 110 173.448 110 174C110 174.552 110.448 175 111 175Z" fill="#7C47E1"/>
<path d="M111 186C111.552 186 112 185.552 112 185C112 184.448 111.552 184 111 184C110.448 184 110 184.448 110 185C110 185.552 110.448 186 111 186Z" fill="#7C47E1"/>
<path d="M111 198C111.552 198 112 197.552 112 197C112 196.448 111.552 196 111 196C110.448 196 110 196.448 110 197C110 197.552 110.448 198 111 198Z" fill="#7C47E1"/>
<path d="M111 209C111.552 209 112 208.552 112 208C112 207.448 111.552 207 111 207C110.448 207 110 207.448 110 208C110 208.552 110.448 209 111 209Z" fill="#7C47E1"/>
<path d="M111 221C111.552 221 112 220.552 112 220C112 219.448 111.552 219 111 219C110.448 219 110 219.448 110 220C110 220.552 110.448 221 111 221Z" fill="#7C47E1"/>
<path d="M123 117C123.552 117 124 116.552 124 116C124 115.448 123.552 115 123 115C122.448 115 122 115.448 122 116C122 116.552 122.448 117 123 117Z" fill="#7C47E1"/>
<path d="M123 129C123.552 129 124 128.552 124 128C124 127.448 123.552 127 123 127C122.448 127 122 127.448 122 128C122 128.552 122.448 129 123 129Z" fill="#7C47E1"/>
<path d="M123 140C123.552 140 124 139.552 124 139C124 138.448 123.552 138 123 138C122.448 138 122 138.448 122 139C122 139.552 122.448 140 123 140Z" fill="#7C47E1"/>
<path d="M123 152C123.552 152 124 151.552 124 151C124 150.448 123.552 150 123 150C122.448 150 122 150.448 122 151C122 151.552 122.448 152 123 152Z" fill="#7C47E1"/>
<path d="M123 163C123.552 163 124 162.552 124 162C124 161.448 123.552 161 123 161C122.448 161 122 161.448 122 162C122 162.552 122.448 163 123 163Z" fill="#7C47E1"/>
<path d="M123 175C123.552 175 124 174.552 124 174C124 173.448 123.552 173 123 173C122.448 173 122 173.448 122 174C122 174.552 122.448 175 123 175Z" fill="#7C47E1"/>
<path d="M123 186C123.552 186 124 185.552 124 185C124 184.448 123.552 184 123 184C122.448 184 122 184.448 122 185C122 185.552 122.448 186 123 186Z" fill="#7C47E1"/>
<path d="M123 198C123.552 198 124 197.552 124 197C124 196.448 123.552 196 123 196C122.448 196 122 196.448 122 197C122 197.552 122.448 198 123 198Z" fill="#7C47E1"/>
<path d="M123 209C123.552 209 124 208.552 124 208C124 207.448 123.552 207 123 207C122.448 207 122 207.448 122 208C122 208.552 122.448 209 123 209Z" fill="#7C47E1"/>
<path d="M123 221C123.552 221 124 220.552 124 220C124 219.448 123.552 219 123 219C122.448 219 122 219.448 122 220C122 220.552 122.448 221 123 221Z" fill="#7C47E1"/>
<path d="M135 117C135.552 117 136 116.552 136 116C136 115.448 135.552 115 135 115C134.448 115 134 115.448 134 116C134 116.552 134.448 117 135 117Z" fill="#7C47E1"/>
<path d="M135 129C135.552 129 136 128.552 136 128C136 127.448 135.552 127 135 127C134.448 127 134 127.448 134 128C134 128.552 134.448 129 135 129Z" fill="#7C47E1"/>
<path d="M135 140C135.552 140 136 139.552 136 139C136 138.448 135.552 138 135 138C134.448 138 134 138.448 134 139C134 139.552 134.448 140 135 140Z" fill="#7C47E1"/>
<path d="M135 152C135.552 152 136 151.552 136 151C136 150.448 135.552 150 135 150C134.448 150 134 150.448 134 151C134 151.552 134.448 152 135 152Z" fill="#7C47E1"/>
<path d="M135 163C135.552 163 136 162.552 136 162C136 161.448 135.552 161 135 161C134.448 161 134 161.448 134 162C134 162.552 134.448 163 135 163Z" fill="#7C47E1"/>
<path d="M135 175C135.552 175 136 174.552 136 174C136 173.448 135.552 173 135 173C134.448 173 134 173.448 134 174C134 174.552 134.448 175 135 175Z" fill="#7C47E1"/>
<path d="M135 186C135.552 186 136 185.552 136 185C136 184.448 135.552 184 135 184C134.448 184 134 184.448 134 185C134 185.552 134.448 186 135 186Z" fill="#7C47E1"/>
<path d="M135 198C135.552 198 136 197.552 136 197C136 196.448 135.552 196 135 196C134.448 196 134 196.448 134 197C134 197.552 134.448 198 135 198Z" fill="#7C47E1"/>
<path d="M135 209C135.552 209 136 208.552 136 208C136 207.448 135.552 207 135 207C134.448 207 134 207.448 134 208C134 208.552 134.448 209 135 209Z" fill="#7C47E1"/>
<path d="M135 221C135.552 221 136 220.552 136 220C136 219.448 135.552 219 135 219C134.448 219 134 219.448 134 220C134 220.552 134.448 221 135 221Z" fill="#7C47E1"/>
<path d="M148 117C148.552 117 149 116.552 149 116C149 115.448 148.552 115 148 115C147.448 115 147 115.448 147 116C147 116.552 147.448 117 148 117Z" fill="#7C47E1"/>
<path d="M148 129C148.552 129 149 128.552 149 128C149 127.448 148.552 127 148 127C147.448 127 147 127.448 147 128C147 128.552 147.448 129 148 129Z" fill="#7C47E1"/>
<path d="M148 140C148.552 140 149 139.552 149 139C149 138.448 148.552 138 148 138C147.448 138 147 138.448 147 139C147 139.552 147.448 140 148 140Z" fill="#7C47E1"/>
<path d="M148 152C148.552 152 149 151.552 149 151C149 150.448 148.552 150 148 150C147.448 150 147 150.448 147 151C147 151.552 147.448 152 148 152Z" fill="#7C47E1"/>
<path d="M148 163C148.552 163 149 162.552 149 162C149 161.448 148.552 161 148 161C147.448 161 147 161.448 147 162C147 162.552 147.448 163 148 163Z" fill="#7C47E1"/>
<path d="M148 175C148.552 175 149 174.552 149 174C149 173.448 148.552 173 148 173C147.448 173 147 173.448 147 174C147 174.552 147.448 175 148 175Z" fill="#7C47E1"/>
<path d="M148 186C148.552 186 149 185.552 149 185C149 184.448 148.552 184 148 184C147.448 184 147 184.448 147 185C147 185.552 147.448 186 148 186Z" fill="#7C47E1"/>
<path d="M148 198C148.552 198 149 197.552 149 197C149 196.448 148.552 196 148 196C147.448 196 147 196.448 147 197C147 197.552 147.448 198 148 198Z" fill="#7C47E1"/>
<path d="M148 209C148.552 209 149 208.552 149 208C149 207.448 148.552 207 148 207C147.448 207 147 207.448 147 208C147 208.552 147.448 209 148 209Z" fill="#7C47E1"/>
<path d="M148 221C148.552 221 149 220.552 149 220C149 219.448 148.552 219 148 219C147.448 219 147 219.448 147 220C147 220.552 147.448 221 148 221Z" fill="#7C47E1"/>
<path d="M160 117C160.552 117 161 116.552 161 116C161 115.448 160.552 115 160 115C159.448 115 159 115.448 159 116C159 116.552 159.448 117 160 117Z" fill="#7C47E1"/>
<path d="M160 129C160.552 129 161 128.552 161 128C161 127.448 160.552 127 160 127C159.448 127 159 127.448 159 128C159 128.552 159.448 129 160 129Z" fill="#7C47E1"/>
<path d="M160 140C160.552 140 161 139.552 161 139C161 138.448 160.552 138 160 138C159.448 138 159 138.448 159 139C159 139.552 159.448 140 160 140Z" fill="#7C47E1"/>
<path d="M160 152C160.552 152 161 151.552 161 151C161 150.448 160.552 150 160 150C159.448 150 159 150.448 159 151C159 151.552 159.448 152 160 152Z" fill="#7C47E1"/>
<path d="M160 163C160.552 163 161 162.552 161 162C161 161.448 160.552 161 160 161C159.448 161 159 161.448 159 162C159 162.552 159.448 163 160 163Z" fill="#7C47E1"/>
<path d="M160 175C160.552 175 161 174.552 161 174C161 173.448 160.552 173 160 173C159.448 173 159 173.448 159 174C159 174.552 159.448 175 160 175Z" fill="#7C47E1"/>
<path d="M160 186C160.552 186 161 185.552 161 185C161 184.448 160.552 184 160 184C159.448 184 159 184.448 159 185C159 185.552 159.448 186 160 186Z" fill="#7C47E1"/>
<path d="M160 198C160.552 198 161 197.552 161 197C161 196.448 160.552 196 160 196C159.448 196 159 196.448 159 197C159 197.552 159.448 198 160 198Z" fill="#7C47E1"/>
<path d="M160 209C160.552 209 161 208.552 161 208C161 207.448 160.552 207 160 207C159.448 207 159 207.448 159 208C159 208.552 159.448 209 160 209Z" fill="#7C47E1"/>
<path d="M160 221C160.552 221 161 220.552 161 220C161 219.448 160.552 219 160 219C159.448 219 159 219.448 159 220C159 220.552 159.448 221 160 221Z" fill="#7C47E1"/>
<path d="M172 117C172.552 117 173 116.552 173 116C173 115.448 172.552 115 172 115C171.448 115 171 115.448 171 116C171 116.552 171.448 117 172 117Z" fill="#7C47E1"/>
<path d="M172 129C172.552 129 173 128.552 173 128C173 127.448 172.552 127 172 127C171.448 127 171 127.448 171 128C171 128.552 171.448 129 172 129Z" fill="#7C47E1"/>
<path d="M172 140C172.552 140 173 139.552 173 139C173 138.448 172.552 138 172 138C171.448 138 171 138.448 171 139C171 139.552 171.448 140 172 140Z" fill="#7C47E1"/>
<path d="M172 152C172.552 152 173 151.552 173 151C173 150.448 172.552 150 172 150C171.448 150 171 150.448 171 151C171 151.552 171.448 152 172 152Z" fill="#7C47E1"/>
<path d="M172 163C172.552 163 173 162.552 173 162C173 161.448 172.552 161 172 161C171.448 161 171 161.448 171 162C171 162.552 171.448 163 172 163Z" fill="#7C47E1"/>
<path d="M172 175C172.552 175 173 174.552 173 174C173 173.448 172.552 173 172 173C171.448 173 171 173.448 171 174C171 174.552 171.448 175 172 175Z" fill="#7C47E1"/>
<path d="M172 186C172.552 186 173 185.552 173 185C173 184.448 172.552 184 172 184C171.448 184 171 184.448 171 185C171 185.552 171.448 186 172 186Z" fill="#7C47E1"/>
<path d="M172 198C172.552 198 173 197.552 173 197C173 196.448 172.552 196 172 196C171.448 196 171 196.448 171 197C171 197.552 171.448 198 172 198Z" fill="#7C47E1"/>
<path d="M172 209C172.552 209 173 208.552 173 208C173 207.448 172.552 207 172 207C171.448 207 171 207.448 171 208C171 208.552 171.448 209 172 209Z" fill="#7C47E1"/>
<path d="M172 221C172.552 221 173 220.552 173 220C173 219.448 172.552 219 172 219C171.448 219 171 219.448 171 220C171 220.552 171.448 221 172 221Z" fill="#7C47E1"/>
<path d="M184 117C184.552 117 185 116.552 185 116C185 115.448 184.552 115 184 115C183.448 115 183 115.448 183 116C183 116.552 183.448 117 184 117Z" fill="#7C47E1"/>
<path d="M184 129C184.552 129 185 128.552 185 128C185 127.448 184.552 127 184 127C183.448 127 183 127.448 183 128C183 128.552 183.448 129 184 129Z" fill="#7C47E1"/>
<path d="M184 140C184.552 140 185 139.552 185 139C185 138.448 184.552 138 184 138C183.448 138 183 138.448 183 139C183 139.552 183.448 140 184 140Z" fill="#7C47E1"/>
<path d="M184 152C184.552 152 185 151.552 185 151C185 150.448 184.552 150 184 150C183.448 150 183 150.448 183 151C183 151.552 183.448 152 184 152Z" fill="#7C47E1"/>
<path d="M184 163C184.552 163 185 162.552 185 162C185 161.448 184.552 161 184 161C183.448 161 183 161.448 183 162C183 162.552 183.448 163 184 163Z" fill="#7C47E1"/>
<path d="M184 175C184.552 175 185 174.552 185 174C185 173.448 184.552 173 184 173C183.448 173 183 173.448 183 174C183 174.552 183.448 175 184 175Z" fill="#7C47E1"/>
<path d="M184 186C184.552 186 185 185.552 185 185C185 184.448 184.552 184 184 184C183.448 184 183 184.448 183 185C183 185.552 183.448 186 184 186Z" fill="#7C47E1"/>
<path d="M184 198C184.552 198 185 197.552 185 197C185 196.448 184.552 196 184 196C183.448 196 183 196.448 183 197C183 197.552 183.448 198 184 198Z" fill="#7C47E1"/>
<path d="M184 209C184.552 209 185 208.552 185 208C185 207.448 184.552 207 184 207C183.448 207 183 207.448 183 208C183 208.552 183.448 209 184 209Z" fill="#7C47E1"/>
<path d="M184 221C184.552 221 185 220.552 185 220C185 219.448 184.552 219 184 219C183.448 219 183 219.448 183 220C183 220.552 183.448 221 184 221Z" fill="#7C47E1"/>
<path d="M196 117C196.552 117 197 116.552 197 116C197 115.448 196.552 115 196 115C195.448 115 195 115.448 195 116C195 116.552 195.448 117 196 117Z" fill="#7C47E1"/>
<path d="M196 129C196.552 129 197 128.552 197 128C197 127.448 196.552 127 196 127C195.448 127 195 127.448 195 128C195 128.552 195.448 129 196 129Z" fill="#7C47E1"/>
<path d="M196 140C196.552 140 197 139.552 197 139C197 138.448 196.552 138 196 138C195.448 138 195 138.448 195 139C195 139.552 195.448 140 196 140Z" fill="#7C47E1"/>
<path d="M196 152C196.552 152 197 151.552 197 151C197 150.448 196.552 150 196 150C195.448 150 195 150.448 195 151C195 151.552 195.448 152 196 152Z" fill="#7C47E1"/>
<path d="M196 163C196.552 163 197 162.552 197 162C197 161.448 196.552 161 196 161C195.448 161 195 161.448 195 162C195 162.552 195.448 163 196 163Z" fill="#7C47E1"/>
<path d="M196 175C196.552 175 197 174.552 197 174C197 173.448 196.552 173 196 173C195.448 173 195 173.448 195 174C195 174.552 195.448 175 196 175Z" fill="#7C47E1"/>
<path d="M196 186C196.552 186 197 185.552 197 185C197 184.448 196.552 184 196 184C195.448 184 195 184.448 195 185C195 185.552 195.448 186 196 186Z" fill="#7C47E1"/>
<path d="M196 198C196.552 198 197 197.552 197 197C197 196.448 196.552 196 196 196C195.448 196 195 196.448 195 197C195 197.552 195.448 198 196 198Z" fill="#7C47E1"/>
<path d="M196 209C196.552 209 197 208.552 197 208C197 207.448 196.552 207 196 207C195.448 207 195 207.448 195 208C195 208.552 195.448 209 196 209Z" fill="#7C47E1"/>
<path d="M196 221C196.552 221 197 220.552 197 220C197 219.448 196.552 219 196 219C195.448 219 195 219.448 195 220C195 220.552 195.448 221 196 221Z" fill="#7C47E1"/>
<path d="M209 117C209.552 117 210 116.552 210 116C210 115.448 209.552 115 209 115C208.448 115 208 115.448 208 116C208 116.552 208.448 117 209 117Z" fill="#7C47E1"/>
<path d="M209 129C209.552 129 210 128.552 210 128C210 127.448 209.552 127 209 127C208.448 127 208 127.448 208 128C208 128.552 208.448 129 209 129Z" fill="#7C47E1"/>
<path d="M209 140C209.552 140 210 139.552 210 139C210 138.448 209.552 138 209 138C208.448 138 208 138.448 208 139C208 139.552 208.448 140 209 140Z" fill="#7C47E1"/>
<path d="M209 152C209.552 152 210 151.552 210 151C210 150.448 209.552 150 209 150C208.448 150 208 150.448 208 151C208 151.552 208.448 152 209 152Z" fill="#7C47E1"/>
<path d="M209 163C209.552 163 210 162.552 210 162C210 161.448 209.552 161 209 161C208.448 161 208 161.448 208 162C208 162.552 208.448 163 209 163Z" fill="#7C47E1"/>
<path d="M209 175C209.552 175 210 174.552 210 174C210 173.448 209.552 173 209 173C208.448 173 208 173.448 208 174C208 174.552 208.448 175 209 175Z" fill="#7C47E1"/>
<path d="M209 186C209.552 186 210 185.552 210 185C210 184.448 209.552 184 209 184C208.448 184 208 184.448 208 185C208 185.552 208.448 186 209 186Z" fill="#7C47E1"/>
<path d="M209 198C209.552 198 210 197.552 210 197C210 196.448 209.552 196 209 196C208.448 196 208 196.448 208 197C208 197.552 208.448 198 209 198Z" fill="#7C47E1"/>
<path d="M209 209C209.552 209 210 208.552 210 208C210 207.448 209.552 207 209 207C208.448 207 208 207.448 208 208C208 208.552 208.448 209 209 209Z" fill="#7C47E1"/>
<path d="M209 221C209.552 221 210 220.552 210 220C210 219.448 209.552 219 209 219C208.448 219 208 219.448 208 220C208 220.552 208.448 221 209 221Z" fill="#7C47E1"/>
<path d="M103.5 124C110.404 124 116 118.404 116 111.5C116 104.596 110.404 99 103.5 99C96.5964 99 91 104.596 91 111.5C91 118.404 96.5964 124 103.5 124Z" fill="#9364ED"/>
<path d="M103 164.831V64.0758C103 58.4781 107.489 54 113.101 54H222.899C228.417 54 233 58.4781 233 64.0758V164.924C233 170.429 228.511 175 222.899 175H113.101C107.489 174.907 103 170.429 103 164.831Z" fill="#7C47E1"/>
<path d="M103 43.6395C103 41.0878 105.102 39 107.67 39H160.33C162.898 39 165 41.0878 165 43.6395V63.8213C165 66.373 162.898 68.4608 160.33 68.4608H114.151L103 76V43.6395Z" fill="#A892F7"/>
<path d="M148 57C149.657 57 151 55.6568 151 54C151 52.3431 149.657 51 148 51C146.343 51 145 52.3431 145 54C145 55.6568 146.343 57 148 57Z" fill="#5E27C9"/>
<path d="M135 57C136.657 57 138 55.6568 138 54C138 52.3431 136.657 51 135 51C133.343 51 132 52.3431 132 54C132 55.6568 133.343 57 135 57Z" fill="#5E27C9"/>
<path d="M122 57C123.657 57 125 55.6568 125 54C125 52.3431 123.657 51 122 51C120.343 51 119 52.3431 119 54C119 55.6568 120.343 57 122 57Z" fill="#5E27C9"/>
<path d="M224 175C224 175 216.721 164.284 214.384 160.631C211.113 155.387 203.262 143.399 194.102 138.435C191.018 136.749 187.559 136 184.008 136C172.044 136 133.068 136 124.189 136.749C117.646 137.311 106.243 146.77 104 167.562C104.935 171.214 108.486 174.867 113.347 174.867L224 175Z" fill="#16C2F8"/>
<path d="M225.928 170H182.09C180.365 170 179 171.377 179 173.116V175H226V170H225.928Z" fill="#0B0E34"/>
<path d="M226 169.929L243.793 123.672C244.64 121.412 246.759 120 249.159 120H281.498C283.263 120 284.463 121.766 283.828 123.46L265.258 170H226V169.929Z" fill="#9364ED"/>
<path d="M226 175H264.671C265.941 175 267 173.864 267 172.5C267 171.136 265.941 170 264.671 170H226V175Z" fill="#9364ED"/>
<path d="M262.92 146.329C264.195 142.388 263.525 138.642 261.424 137.961C259.322 137.28 256.584 139.923 255.309 143.864C254.034 147.805 254.704 151.552 256.805 152.232C258.907 152.913 261.645 150.27 262.92 146.329Z" fill="white"/>
<path d="M251 170H194V171H251V170Z" fill="#0B0E34"/>
<path d="M211.813 174.958C211.626 174.958 211.44 174.958 211.346 174.958C204.434 161.415 195.093 149.564 195 149.376L195.467 149C195.654 149.188 204.995 161.227 212 174.958C211.907 175.052 211.907 174.958 211.813 174.958Z" fill="#0B0E34"/>
<path d="M284.948 46.8647L288.799 42.985C289.067 42.7143 289.067 42.3534 288.799 42.0827L284.948 38.203C284.679 37.9323 284.321 37.9323 284.052 38.203L280.201 42.0827C279.933 42.3534 279.933 42.7143 280.201 42.985L284.052 46.8647C284.231 47.0451 284.679 47.0451 284.948 46.8647Z" fill="#9364ED"/>
<path d="M180.518 114.557C180.518 114.557 181.365 128.388 184 136H168L169.129 114L180.518 114.557Z" fill="#343758"/>
<path d="M204 132C205.105 132 206 131.105 206 130C206 128.895 205.105 128 204 128C202.895 128 202 128.895 202 130C202 131.105 202.895 132 204 132Z" fill="#FFC800"/>
<path d="M169.117 120.691C169.117 120.691 173.506 152 164.167 152C157.163 152 151.56 134.149 152.027 128.916C152.588 123.682 154.549 94.1491 155.949 90.4108C157.35 86.6724 179.949 86.6724 181.724 94.8033C183.498 102.841 186.019 123.682 169.117 120.691Z" fill="#FFBECD"/>
<path d="M170.407 120.466C170.407 120.466 166.358 120.078 163 116C163 116 164.877 123.282 171 126L170.407 120.466Z" fill="#343758"/>
<path d="M172 112.208C175.899 114.078 178.998 112 178.998 112C178.998 112 179.198 116.675 175.799 116.986C172.9 117.298 172 112.208 172 112.208Z" fill="#343758"/>
<path d="M177.12 110C176.509 110 176.102 109.911 176 109.821L176.305 109.107C176.305 109.107 177.629 109.464 178.036 108.929C178.341 108.571 177.629 106.786 176.814 105.357L177.629 105C178.036 105.804 179.461 108.393 178.85 109.375C178.341 109.821 177.73 110 177.12 110Z" fill="#343758"/>
<path d="M182.151 105.598C182.52 105.187 182.487 104.553 182.078 104.183C181.668 103.812 181.037 103.845 180.668 104.256C180.299 104.667 180.332 105.3 180.741 105.671C181.151 106.042 181.782 106.009 182.151 105.598Z" fill="#343758"/>
<path d="M173.151 105.598C173.52 105.187 173.487 104.553 173.078 104.183C172.668 103.812 172.037 103.845 171.668 104.256C171.299 104.667 171.332 105.3 171.741 105.671C172.151 106.042 172.782 106.009 173.151 105.598Z" fill="#343758"/>
<path d="M175 100.701C175 101.459 174.077 101.459 173.359 101.459C172.744 101.459 171 102 171 102C171 102 171.718 100.051 173.051 100.051C173.769 99.943 175 99.943 175 100.701Z" fill="#343758"/>
<path d="M183 101.748C182.357 102.031 181.821 102.031 181.286 101.961C180.857 101.89 180.321 101.677 180 101.252C180.643 100.969 181.179 100.969 181.714 101.039C182.25 101.181 182.679 101.323 183 101.748Z" fill="#343758"/>
<path d="M170.749 96.344C170.749 96.344 167.662 103.125 161.022 109.07C154.382 115.108 162.705 130.434 159.151 146.318C155.597 162.203 141.381 156.443 138.763 144.089C136.986 135.729 131 136.379 131 136.379C131 136.379 135.115 127.833 140.82 113.157C145.309 101.546 147.461 88.4484 159.151 83.4323C172.713 77.6732 187.677 90.2133 183.188 104.425C181.785 97.5515 175.986 96.2511 170.749 96.344Z" fill="#343758"/>
<path d="M218.941 79H198.059C193.574 79 190 75.3826 190 71C190 66.6174 193.644 63 198.059 63H218.941C223.426 63 227 66.6174 227 71C227 75.3826 223.356 79 218.941 79ZM197.989 64.2522C194.275 64.2522 191.261 67.2435 191.261 70.9304C191.261 74.6174 194.275 77.6087 197.989 77.6087H218.871C222.585 77.6087 225.598 74.6174 225.598 70.9304C225.598 67.2435 222.585 64.2522 218.871 64.2522H197.989Z" fill="#FFA52F"/>
<path d="M218 75C220.209 75 222 73.2091 222 71C222 68.7909 220.209 67 218 67C215.791 67 214 68.7909 214 71C214 73.2091 215.791 75 218 75Z" fill="#FFA52F"/>
</svg>
