<svg width="131" height="100" viewBox="0 0 131 100" fill="none" xmlns="http://www.w3.org/2000/svg">
<path d="M41.7783 1.82618C42.0377 1.82618 42.2481 1.61587 42.2481 1.35645C42.2481 1.09702 42.0377 0.886719 41.7783 0.886719C41.5189 0.886719 41.3086 1.09702 41.3086 1.35645C41.3086 1.61587 41.5189 1.82618 41.7783 1.82618Z" fill="#7C47E1"/>
<path d="M41.7783 6.99342C42.0377 6.99342 42.2481 6.78311 42.2481 6.52369C42.2481 6.26426 42.0377 6.05396 41.7783 6.05396C41.5189 6.05396 41.3086 6.26426 41.3086 6.52369C41.3086 6.78311 41.5189 6.99342 41.7783 6.99342Z" fill="#7C47E1"/>
<path d="M41.7783 12.1604C42.0377 12.1604 42.2481 11.9501 42.2481 11.6907C42.2481 11.4313 42.0377 11.2209 41.7783 11.2209C41.5189 11.2209 41.3086 11.4313 41.3086 11.6907C41.3086 11.9501 41.5189 12.1604 41.7783 12.1604Z" fill="#7C47E1"/>
<path d="M41.7783 17.3276C42.0377 17.3276 42.2481 17.1173 42.2481 16.8579C42.2481 16.5985 42.0377 16.3882 41.7783 16.3882C41.5189 16.3882 41.3086 16.5985 41.3086 16.8579C41.3086 17.1173 41.5189 17.3276 41.7783 17.3276Z" fill="#7C47E1"/>
<path d="M41.7783 22.4946C42.0377 22.4946 42.2481 22.2843 42.2481 22.0249C42.2481 21.7655 42.0377 21.5552 41.7783 21.5552C41.5189 21.5552 41.3086 21.7655 41.3086 22.0249C41.3086 22.2843 41.5189 22.4946 41.7783 22.4946Z" fill="#7C47E1"/>
<path d="M41.7783 27.6614C42.0377 27.6614 42.2481 27.4511 42.2481 27.1917C42.2481 26.9322 42.0377 26.7219 41.7783 26.7219C41.5189 26.7219 41.3086 26.9322 41.3086 27.1917C41.3086 27.4511 41.5189 27.6614 41.7783 27.6614Z" fill="#7C47E1"/>
<path d="M41.7783 32.8286C42.0377 32.8286 42.2481 32.6183 42.2481 32.3589C42.2481 32.0995 42.0377 31.8892 41.7783 31.8892C41.5189 31.8892 41.3086 32.0995 41.3086 32.3589C41.3086 32.6183 41.5189 32.8286 41.7783 32.8286Z" fill="#7C47E1"/>
<path d="M41.7783 37.9956C42.0377 37.9956 42.2481 37.7853 42.2481 37.5259C42.2481 37.2665 42.0377 37.0562 41.7783 37.0562C41.5189 37.0562 41.3086 37.2665 41.3086 37.5259C41.3086 37.7853 41.5189 37.9956 41.7783 37.9956Z" fill="#7C47E1"/>
<path d="M41.7783 43.1626C42.0377 43.1626 42.2481 42.9523 42.2481 42.6929C42.2481 42.4335 42.0377 42.2231 41.7783 42.2231C41.5189 42.2231 41.3086 42.4335 41.3086 42.6929C41.3086 42.9523 41.5189 43.1626 41.7783 43.1626Z" fill="#7C47E1"/>
<path d="M41.7783 48.3296C42.0377 48.3296 42.2481 48.1193 42.2481 47.8599C42.2481 47.6004 42.0377 47.3901 41.7783 47.3901C41.5189 47.3901 41.3086 47.6004 41.3086 47.8599C41.3086 48.1193 41.5189 48.3296 41.7783 48.3296Z" fill="#7C47E1"/>
<path d="M47.415 1.82642C47.6745 1.82642 47.8848 1.61612 47.8848 1.35669C47.8848 1.09727 47.6745 0.886963 47.415 0.886963C47.1556 0.886963 46.9453 1.09727 46.9453 1.35669C46.9453 1.61612 47.1556 1.82642 47.415 1.82642Z" fill="#7C47E1"/>
<path d="M47.415 6.99342C47.6745 6.99342 47.8848 6.78311 47.8848 6.52369C47.8848 6.26426 47.6745 6.05396 47.415 6.05396C47.1556 6.05396 46.9453 6.26426 46.9453 6.52369C46.9453 6.78311 47.1556 6.99342 47.415 6.99342Z" fill="#7C47E1"/>
<path d="M47.415 12.1604C47.6745 12.1604 47.8848 11.9501 47.8848 11.6907C47.8848 11.4313 47.6745 11.2209 47.415 11.2209C47.1556 11.2209 46.9453 11.4313 46.9453 11.6907C46.9453 11.9501 47.1556 12.1604 47.415 12.1604Z" fill="#7C47E1"/>
<path d="M47.415 17.3276C47.6745 17.3276 47.8848 17.1173 47.8848 16.8579C47.8848 16.5985 47.6745 16.3882 47.415 16.3882C47.1556 16.3882 46.9453 16.5985 46.9453 16.8579C46.9453 17.1173 47.1556 17.3276 47.415 17.3276Z" fill="#7C47E1"/>
<path d="M47.415 22.4946C47.6745 22.4946 47.8848 22.2843 47.8848 22.0249C47.8848 21.7655 47.6745 21.5552 47.415 21.5552C47.1556 21.5552 46.9453 21.7655 46.9453 22.0249C46.9453 22.2843 47.1556 22.4946 47.415 22.4946Z" fill="#7C47E1"/>
<path d="M47.415 27.6614C47.6745 27.6614 47.8848 27.4511 47.8848 27.1917C47.8848 26.9322 47.6745 26.7219 47.415 26.7219C47.1556 26.7219 46.9453 26.9322 46.9453 27.1917C46.9453 27.4511 47.1556 27.6614 47.415 27.6614Z" fill="#7C47E1"/>
<path d="M47.415 32.8286C47.6745 32.8286 47.8848 32.6183 47.8848 32.3589C47.8848 32.0995 47.6745 31.8892 47.415 31.8892C47.1556 31.8892 46.9453 32.0995 46.9453 32.3589C46.9453 32.6183 47.1556 32.8286 47.415 32.8286Z" fill="#7C47E1"/>
<path d="M47.415 37.9956C47.6745 37.9956 47.8848 37.7853 47.8848 37.5259C47.8848 37.2665 47.6745 37.0562 47.415 37.0562C47.1556 37.0562 46.9453 37.2665 46.9453 37.5259C46.9453 37.7853 47.1556 37.9956 47.415 37.9956Z" fill="#7C47E1"/>
<path d="M47.415 43.1626C47.6745 43.1626 47.8848 42.9523 47.8848 42.6929C47.8848 42.4335 47.6745 42.2231 47.415 42.2231C47.1556 42.2231 46.9453 42.4335 46.9453 42.6929C46.9453 42.9523 47.1556 43.1626 47.415 43.1626Z" fill="#7C47E1"/>
<path d="M47.415 48.3296C47.6745 48.3296 47.8848 48.1193 47.8848 47.8599C47.8848 47.6004 47.6745 47.3901 47.415 47.3901C47.1556 47.3901 46.9453 47.6004 46.9453 47.8599C46.9453 48.1193 47.1556 48.3296 47.415 48.3296Z" fill="#7C47E1"/>
<path d="M52.582 1.82642C52.8415 1.82642 53.0518 1.61612 53.0518 1.35669C53.0518 1.09727 52.8415 0.886963 52.582 0.886963C52.3226 0.886963 52.1123 1.09727 52.1123 1.35669C52.1123 1.61612 52.3226 1.82642 52.582 1.82642Z" fill="#7C47E1"/>
<path d="M52.582 6.99342C52.8415 6.99342 53.0518 6.78311 53.0518 6.52369C53.0518 6.26426 52.8415 6.05396 52.582 6.05396C52.3226 6.05396 52.1123 6.26426 52.1123 6.52369C52.1123 6.78311 52.3226 6.99342 52.582 6.99342Z" fill="#7C47E1"/>
<path d="M52.582 12.1604C52.8415 12.1604 53.0518 11.9501 53.0518 11.6907C53.0518 11.4313 52.8415 11.2209 52.582 11.2209C52.3226 11.2209 52.1123 11.4313 52.1123 11.6907C52.1123 11.9501 52.3226 12.1604 52.582 12.1604Z" fill="#7C47E1"/>
<path d="M52.582 17.3276C52.8415 17.3276 53.0518 17.1173 53.0518 16.8579C53.0518 16.5985 52.8415 16.3882 52.582 16.3882C52.3226 16.3882 52.1123 16.5985 52.1123 16.8579C52.1123 17.1173 52.3226 17.3276 52.582 17.3276Z" fill="#7C47E1"/>
<path d="M52.582 22.4946C52.8415 22.4946 53.0518 22.2843 53.0518 22.0249C53.0518 21.7655 52.8415 21.5552 52.582 21.5552C52.3226 21.5552 52.1123 21.7655 52.1123 22.0249C52.1123 22.2843 52.3226 22.4946 52.582 22.4946Z" fill="#7C47E1"/>
<path d="M52.582 27.6614C52.8415 27.6614 53.0518 27.4511 53.0518 27.1917C53.0518 26.9322 52.8415 26.7219 52.582 26.7219C52.3226 26.7219 52.1123 26.9322 52.1123 27.1917C52.1123 27.4511 52.3226 27.6614 52.582 27.6614Z" fill="#7C47E1"/>
<path d="M52.582 32.8286C52.8415 32.8286 53.0518 32.6183 53.0518 32.3589C53.0518 32.0995 52.8415 31.8892 52.582 31.8892C52.3226 31.8892 52.1123 32.0995 52.1123 32.3589C52.1123 32.6183 52.3226 32.8286 52.582 32.8286Z" fill="#7C47E1"/>
<path d="M52.582 37.9956C52.8415 37.9956 53.0518 37.7853 53.0518 37.5259C53.0518 37.2665 52.8415 37.0562 52.582 37.0562C52.3226 37.0562 52.1123 37.2665 52.1123 37.5259C52.1123 37.7853 52.3226 37.9956 52.582 37.9956Z" fill="#7C47E1"/>
<path d="M52.582 43.1626C52.8415 43.1626 53.0518 42.9523 53.0518 42.6929C53.0518 42.4335 52.8415 42.2231 52.582 42.2231C52.3226 42.2231 52.1123 42.4335 52.1123 42.6929C52.1123 42.9523 52.3226 43.1626 52.582 43.1626Z" fill="#7C47E1"/>
<path d="M52.582 48.3296C52.8415 48.3296 53.0518 48.1193 53.0518 47.8599C53.0518 47.6004 52.8415 47.3901 52.582 47.3901C52.3226 47.3901 52.1123 47.6004 52.1123 47.8599C52.1123 48.1193 52.3226 48.3296 52.582 48.3296Z" fill="#7C47E1"/>
<path d="M58.2192 1.82642C58.4787 1.82642 58.689 1.61612 58.689 1.35669C58.689 1.09727 58.4787 0.886963 58.2192 0.886963C57.9598 0.886963 57.7495 1.09727 57.7495 1.35669C57.7495 1.61612 57.9598 1.82642 58.2192 1.82642Z" fill="#7C47E1"/>
<path d="M58.2192 6.99342C58.4787 6.99342 58.689 6.78311 58.689 6.52369C58.689 6.26426 58.4787 6.05396 58.2192 6.05396C57.9598 6.05396 57.7495 6.26426 57.7495 6.52369C57.7495 6.78311 57.9598 6.99342 58.2192 6.99342Z" fill="#7C47E1"/>
<path d="M58.2192 12.1604C58.4787 12.1604 58.689 11.9501 58.689 11.6907C58.689 11.4313 58.4787 11.2209 58.2192 11.2209C57.9598 11.2209 57.7495 11.4313 57.7495 11.6907C57.7495 11.9501 57.9598 12.1604 58.2192 12.1604Z" fill="#7C47E1"/>
<path d="M58.2192 17.3276C58.4787 17.3276 58.689 17.1173 58.689 16.8579C58.689 16.5985 58.4787 16.3882 58.2192 16.3882C57.9598 16.3882 57.7495 16.5985 57.7495 16.8579C57.7495 17.1173 57.9598 17.3276 58.2192 17.3276Z" fill="#7C47E1"/>
<path d="M58.2192 22.4946C58.4787 22.4946 58.689 22.2843 58.689 22.0249C58.689 21.7655 58.4787 21.5552 58.2192 21.5552C57.9598 21.5552 57.7495 21.7655 57.7495 22.0249C57.7495 22.2843 57.9598 22.4946 58.2192 22.4946Z" fill="#7C47E1"/>
<path d="M58.2192 27.6614C58.4787 27.6614 58.689 27.4511 58.689 27.1917C58.689 26.9322 58.4787 26.7219 58.2192 26.7219C57.9598 26.7219 57.7495 26.9322 57.7495 27.1917C57.7495 27.4511 57.9598 27.6614 58.2192 27.6614Z" fill="#7C47E1"/>
<path d="M58.2192 32.8286C58.4787 32.8286 58.689 32.6183 58.689 32.3589C58.689 32.0995 58.4787 31.8892 58.2192 31.8892C57.9598 31.8892 57.7495 32.0995 57.7495 32.3589C57.7495 32.6183 57.9598 32.8286 58.2192 32.8286Z" fill="#7C47E1"/>
<path d="M58.2192 37.9956C58.4787 37.9956 58.689 37.7853 58.689 37.5259C58.689 37.2665 58.4787 37.0562 58.2192 37.0562C57.9598 37.0562 57.7495 37.2665 57.7495 37.5259C57.7495 37.7853 57.9598 37.9956 58.2192 37.9956Z" fill="#7C47E1"/>
<path d="M58.2192 43.1626C58.4787 43.1626 58.689 42.9523 58.689 42.6929C58.689 42.4335 58.4787 42.2231 58.2192 42.2231C57.9598 42.2231 57.7495 42.4335 57.7495 42.6929C57.7495 42.9523 57.9598 43.1626 58.2192 43.1626Z" fill="#7C47E1"/>
<path d="M58.2192 48.3296C58.4787 48.3296 58.689 48.1193 58.689 47.8599C58.689 47.6004 58.4787 47.3901 58.2192 47.3901C57.9598 47.3901 57.7495 47.6004 57.7495 47.8599C57.7495 48.1193 57.9598 48.3296 58.2192 48.3296Z" fill="#7C47E1"/>
<path d="M63.856 1.82642C64.1154 1.82642 64.3257 1.61612 64.3257 1.35669C64.3257 1.09727 64.1154 0.886963 63.856 0.886963C63.5965 0.886963 63.3862 1.09727 63.3862 1.35669C63.3862 1.61612 63.5965 1.82642 63.856 1.82642Z" fill="#7C47E1"/>
<path d="M63.856 6.99342C64.1154 6.99342 64.3257 6.78311 64.3257 6.52369C64.3257 6.26426 64.1154 6.05396 63.856 6.05396C63.5965 6.05396 63.3862 6.26426 63.3862 6.52369C63.3862 6.78311 63.5965 6.99342 63.856 6.99342Z" fill="#7C47E1"/>
<path d="M63.856 12.1604C64.1154 12.1604 64.3257 11.9501 64.3257 11.6907C64.3257 11.4313 64.1154 11.2209 63.856 11.2209C63.5965 11.2209 63.3862 11.4313 63.3862 11.6907C63.3862 11.9501 63.5965 12.1604 63.856 12.1604Z" fill="#7C47E1"/>
<path d="M63.856 17.3276C64.1154 17.3276 64.3257 17.1173 64.3257 16.8579C64.3257 16.5985 64.1154 16.3882 63.856 16.3882C63.5965 16.3882 63.3862 16.5985 63.3862 16.8579C63.3862 17.1173 63.5965 17.3276 63.856 17.3276Z" fill="#7C47E1"/>
<path d="M63.856 22.4946C64.1154 22.4946 64.3257 22.2843 64.3257 22.0249C64.3257 21.7655 64.1154 21.5552 63.856 21.5552C63.5965 21.5552 63.3862 21.7655 63.3862 22.0249C63.3862 22.2843 63.5965 22.4946 63.856 22.4946Z" fill="#7C47E1"/>
<path d="M63.856 27.6614C64.1154 27.6614 64.3257 27.4511 64.3257 27.1917C64.3257 26.9322 64.1154 26.7219 63.856 26.7219C63.5965 26.7219 63.3862 26.9322 63.3862 27.1917C63.3862 27.4511 63.5965 27.6614 63.856 27.6614Z" fill="#7C47E1"/>
<path d="M63.856 32.8286C64.1154 32.8286 64.3257 32.6183 64.3257 32.3589C64.3257 32.0995 64.1154 31.8892 63.856 31.8892C63.5965 31.8892 63.3862 32.0995 63.3862 32.3589C63.3862 32.6183 63.5965 32.8286 63.856 32.8286Z" fill="#7C47E1"/>
<path d="M63.856 37.9956C64.1154 37.9956 64.3257 37.7853 64.3257 37.5259C64.3257 37.2665 64.1154 37.0562 63.856 37.0562C63.5965 37.0562 63.3862 37.2665 63.3862 37.5259C63.3862 37.7853 63.5965 37.9956 63.856 37.9956Z" fill="#7C47E1"/>
<path d="M63.856 43.1626C64.1154 43.1626 64.3257 42.9523 64.3257 42.6929C64.3257 42.4335 64.1154 42.2231 63.856 42.2231C63.5965 42.2231 63.3862 42.4335 63.3862 42.6929C63.3862 42.9523 63.5965 43.1626 63.856 43.1626Z" fill="#7C47E1"/>
<path d="M63.856 48.3296C64.1154 48.3296 64.3257 48.1193 64.3257 47.8599C64.3257 47.6004 64.1154 47.3901 63.856 47.3901C63.5965 47.3901 63.3862 47.6004 63.3862 47.8599C63.3862 48.1193 63.5965 48.3296 63.856 48.3296Z" fill="#7C47E1"/>
<path d="M69.023 1.82642C69.2824 1.82642 69.4927 1.61612 69.4927 1.35669C69.4927 1.09727 69.2824 0.886963 69.023 0.886963C68.7635 0.886963 68.5532 1.09727 68.5532 1.35669C68.5532 1.61612 68.7635 1.82642 69.023 1.82642Z" fill="#7C47E1"/>
<path d="M69.023 6.99342C69.2824 6.99342 69.4927 6.78311 69.4927 6.52369C69.4927 6.26426 69.2824 6.05396 69.023 6.05396C68.7635 6.05396 68.5532 6.26426 68.5532 6.52369C68.5532 6.78311 68.7635 6.99342 69.023 6.99342Z" fill="#7C47E1"/>
<path d="M69.023 12.1604C69.2824 12.1604 69.4927 11.9501 69.4927 11.6907C69.4927 11.4313 69.2824 11.2209 69.023 11.2209C68.7635 11.2209 68.5532 11.4313 68.5532 11.6907C68.5532 11.9501 68.7635 12.1604 69.023 12.1604Z" fill="#7C47E1"/>
<path d="M69.023 17.3276C69.2824 17.3276 69.4927 17.1173 69.4927 16.8579C69.4927 16.5985 69.2824 16.3882 69.023 16.3882C68.7635 16.3882 68.5532 16.5985 68.5532 16.8579C68.5532 17.1173 68.7635 17.3276 69.023 17.3276Z" fill="#7C47E1"/>
<path d="M69.023 22.4946C69.2824 22.4946 69.4927 22.2843 69.4927 22.0249C69.4927 21.7655 69.2824 21.5552 69.023 21.5552C68.7635 21.5552 68.5532 21.7655 68.5532 22.0249C68.5532 22.2843 68.7635 22.4946 69.023 22.4946Z" fill="#7C47E1"/>
<path d="M69.023 27.6614C69.2824 27.6614 69.4927 27.4511 69.4927 27.1917C69.4927 26.9322 69.2824 26.7219 69.023 26.7219C68.7635 26.7219 68.5532 26.9322 68.5532 27.1917C68.5532 27.4511 68.7635 27.6614 69.023 27.6614Z" fill="#7C47E1"/>
<path d="M69.023 32.8286C69.2824 32.8286 69.4927 32.6183 69.4927 32.3589C69.4927 32.0995 69.2824 31.8892 69.023 31.8892C68.7635 31.8892 68.5532 32.0995 68.5532 32.3589C68.5532 32.6183 68.7635 32.8286 69.023 32.8286Z" fill="#7C47E1"/>
<path d="M69.023 37.9956C69.2824 37.9956 69.4927 37.7853 69.4927 37.5259C69.4927 37.2665 69.2824 37.0562 69.023 37.0562C68.7635 37.0562 68.5532 37.2665 68.5532 37.5259C68.5532 37.7853 68.7635 37.9956 69.023 37.9956Z" fill="#7C47E1"/>
<path d="M69.023 43.1626C69.2824 43.1626 69.4927 42.9523 69.4927 42.6929C69.4927 42.4335 69.2824 42.2231 69.023 42.2231C68.7635 42.2231 68.5532 42.4335 68.5532 42.6929C68.5532 42.9523 68.7635 43.1626 69.023 43.1626Z" fill="#7C47E1"/>
<path d="M69.023 48.3296C69.2824 48.3296 69.4927 48.1193 69.4927 47.8599C69.4927 47.6004 69.2824 47.3901 69.023 47.3901C68.7635 47.3901 68.5532 47.6004 68.5532 47.8599C68.5532 48.1193 68.7635 48.3296 69.023 48.3296Z" fill="#7C47E1"/>
<path d="M74.6597 1.82642C74.9191 1.82642 75.1294 1.61612 75.1294 1.35669C75.1294 1.09727 74.9191 0.886963 74.6597 0.886963C74.4002 0.886963 74.1899 1.09727 74.1899 1.35669C74.1899 1.61612 74.4002 1.82642 74.6597 1.82642Z" fill="#7C47E1"/>
<path d="M74.6597 6.99342C74.9191 6.99342 75.1294 6.78311 75.1294 6.52369C75.1294 6.26426 74.9191 6.05396 74.6597 6.05396C74.4002 6.05396 74.1899 6.26426 74.1899 6.52369C74.1899 6.78311 74.4002 6.99342 74.6597 6.99342Z" fill="#7C47E1"/>
<path d="M74.6597 12.1604C74.9191 12.1604 75.1294 11.9501 75.1294 11.6907C75.1294 11.4313 74.9191 11.2209 74.6597 11.2209C74.4002 11.2209 74.1899 11.4313 74.1899 11.6907C74.1899 11.9501 74.4002 12.1604 74.6597 12.1604Z" fill="#7C47E1"/>
<path d="M74.6597 17.3276C74.9191 17.3276 75.1294 17.1173 75.1294 16.8579C75.1294 16.5985 74.9191 16.3882 74.6597 16.3882C74.4002 16.3882 74.1899 16.5985 74.1899 16.8579C74.1899 17.1173 74.4002 17.3276 74.6597 17.3276Z" fill="#7C47E1"/>
<path d="M74.6597 22.4946C74.9191 22.4946 75.1294 22.2843 75.1294 22.0249C75.1294 21.7655 74.9191 21.5552 74.6597 21.5552C74.4002 21.5552 74.1899 21.7655 74.1899 22.0249C74.1899 22.2843 74.4002 22.4946 74.6597 22.4946Z" fill="#7C47E1"/>
<path d="M74.6597 27.6614C74.9191 27.6614 75.1294 27.4511 75.1294 27.1917C75.1294 26.9322 74.9191 26.7219 74.6597 26.7219C74.4002 26.7219 74.1899 26.9322 74.1899 27.1917C74.1899 27.4511 74.4002 27.6614 74.6597 27.6614Z" fill="#7C47E1"/>
<path d="M74.6597 32.8286C74.9191 32.8286 75.1294 32.6183 75.1294 32.3589C75.1294 32.0995 74.9191 31.8892 74.6597 31.8892C74.4002 31.8892 74.1899 32.0995 74.1899 32.3589C74.1899 32.6183 74.4002 32.8286 74.6597 32.8286Z" fill="#7C47E1"/>
<path d="M74.6597 37.9956C74.9191 37.9956 75.1294 37.7853 75.1294 37.5259C75.1294 37.2665 74.9191 37.0562 74.6597 37.0562C74.4002 37.0562 74.1899 37.2665 74.1899 37.5259C74.1899 37.7853 74.4002 37.9956 74.6597 37.9956Z" fill="#7C47E1"/>
<path d="M74.6597 43.1626C74.9191 43.1626 75.1294 42.9523 75.1294 42.6929C75.1294 42.4335 74.9191 42.2231 74.6597 42.2231C74.4002 42.2231 74.1899 42.4335 74.1899 42.6929C74.1899 42.9523 74.4002 43.1626 74.6597 43.1626Z" fill="#7C47E1"/>
<path d="M74.6597 48.3296C74.9191 48.3296 75.1294 48.1193 75.1294 47.8599C75.1294 47.6004 74.9191 47.3901 74.6597 47.3901C74.4002 47.3901 74.1899 47.6004 74.1899 47.8599C74.1899 48.1193 74.4002 48.3296 74.6597 48.3296Z" fill="#7C47E1"/>
<path d="M80.2964 1.82642C80.5558 1.82642 80.7661 1.61612 80.7661 1.35669C80.7661 1.09727 80.5558 0.886963 80.2964 0.886963C80.037 0.886963 79.8267 1.09727 79.8267 1.35669C79.8267 1.61612 80.037 1.82642 80.2964 1.82642Z" fill="#7C47E1"/>
<path d="M80.2964 6.99342C80.5558 6.99342 80.7661 6.78311 80.7661 6.52369C80.7661 6.26426 80.5558 6.05396 80.2964 6.05396C80.037 6.05396 79.8267 6.26426 79.8267 6.52369C79.8267 6.78311 80.037 6.99342 80.2964 6.99342Z" fill="#7C47E1"/>
<path d="M80.2964 12.1604C80.5558 12.1604 80.7661 11.9501 80.7661 11.6907C80.7661 11.4313 80.5558 11.2209 80.2964 11.2209C80.037 11.2209 79.8267 11.4313 79.8267 11.6907C79.8267 11.9501 80.037 12.1604 80.2964 12.1604Z" fill="#7C47E1"/>
<path d="M80.2964 17.3276C80.5558 17.3276 80.7661 17.1173 80.7661 16.8579C80.7661 16.5985 80.5558 16.3882 80.2964 16.3882C80.037 16.3882 79.8267 16.5985 79.8267 16.8579C79.8267 17.1173 80.037 17.3276 80.2964 17.3276Z" fill="#7C47E1"/>
<path d="M80.2964 22.4946C80.5558 22.4946 80.7661 22.2843 80.7661 22.0249C80.7661 21.7655 80.5558 21.5552 80.2964 21.5552C80.037 21.5552 79.8267 21.7655 79.8267 22.0249C79.8267 22.2843 80.037 22.4946 80.2964 22.4946Z" fill="#7C47E1"/>
<path d="M80.2964 27.6614C80.5558 27.6614 80.7661 27.4511 80.7661 27.1917C80.7661 26.9322 80.5558 26.7219 80.2964 26.7219C80.037 26.7219 79.8267 26.9322 79.8267 27.1917C79.8267 27.4511 80.037 27.6614 80.2964 27.6614Z" fill="#7C47E1"/>
<path d="M80.2964 32.8286C80.5558 32.8286 80.7661 32.6183 80.7661 32.3589C80.7661 32.0995 80.5558 31.8892 80.2964 31.8892C80.037 31.8892 79.8267 32.0995 79.8267 32.3589C79.8267 32.6183 80.037 32.8286 80.2964 32.8286Z" fill="#7C47E1"/>
<path d="M80.2964 37.9956C80.5558 37.9956 80.7661 37.7853 80.7661 37.5259C80.7661 37.2665 80.5558 37.0562 80.2964 37.0562C80.037 37.0562 79.8267 37.2665 79.8267 37.5259C79.8267 37.7853 80.037 37.9956 80.2964 37.9956Z" fill="#7C47E1"/>
<path d="M80.2964 43.1626C80.5558 43.1626 80.7661 42.9523 80.7661 42.6929C80.7661 42.4335 80.5558 42.2231 80.2964 42.2231C80.037 42.2231 79.8267 42.4335 79.8267 42.6929C79.8267 42.9523 80.037 43.1626 80.2964 43.1626Z" fill="#7C47E1"/>
<path d="M80.2964 48.3296C80.5558 48.3296 80.7661 48.1193 80.7661 47.8599C80.7661 47.6004 80.5558 47.3901 80.2964 47.3901C80.037 47.3901 79.8267 47.6004 79.8267 47.8599C79.8267 48.1193 80.037 48.3296 80.2964 48.3296Z" fill="#7C47E1"/>
<path d="M85.4639 1.82642C85.7233 1.82642 85.9336 1.61612 85.9336 1.35669C85.9336 1.09727 85.7233 0.886963 85.4639 0.886963C85.2044 0.886963 84.9941 1.09727 84.9941 1.35669C84.9941 1.61612 85.2044 1.82642 85.4639 1.82642Z" fill="#7C47E1"/>
<path d="M85.4639 6.99342C85.7233 6.99342 85.9336 6.78311 85.9336 6.52369C85.9336 6.26426 85.7233 6.05396 85.4639 6.05396C85.2044 6.05396 84.9941 6.26426 84.9941 6.52369C84.9941 6.78311 85.2044 6.99342 85.4639 6.99342Z" fill="#7C47E1"/>
<path d="M85.4639 12.1604C85.7233 12.1604 85.9336 11.9501 85.9336 11.6907C85.9336 11.4313 85.7233 11.2209 85.4639 11.2209C85.2044 11.2209 84.9941 11.4313 84.9941 11.6907C84.9941 11.9501 85.2044 12.1604 85.4639 12.1604Z" fill="#7C47E1"/>
<path d="M85.4639 17.3276C85.7233 17.3276 85.9336 17.1173 85.9336 16.8579C85.9336 16.5985 85.7233 16.3882 85.4639 16.3882C85.2044 16.3882 84.9941 16.5985 84.9941 16.8579C84.9941 17.1173 85.2044 17.3276 85.4639 17.3276Z" fill="#7C47E1"/>
<path d="M85.4639 22.4946C85.7233 22.4946 85.9336 22.2843 85.9336 22.0249C85.9336 21.7655 85.7233 21.5552 85.4639 21.5552C85.2044 21.5552 84.9941 21.7655 84.9941 22.0249C84.9941 22.2843 85.2044 22.4946 85.4639 22.4946Z" fill="#7C47E1"/>
<path d="M85.4639 27.6614C85.7233 27.6614 85.9336 27.4511 85.9336 27.1917C85.9336 26.9322 85.7233 26.7219 85.4639 26.7219C85.2044 26.7219 84.9941 26.9322 84.9941 27.1917C84.9941 27.4511 85.2044 27.6614 85.4639 27.6614Z" fill="#7C47E1"/>
<path d="M85.4639 32.8286C85.7233 32.8286 85.9336 32.6183 85.9336 32.3589C85.9336 32.0995 85.7233 31.8892 85.4639 31.8892C85.2044 31.8892 84.9941 32.0995 84.9941 32.3589C84.9941 32.6183 85.2044 32.8286 85.4639 32.8286Z" fill="#7C47E1"/>
<path d="M85.4639 37.9956C85.7233 37.9956 85.9336 37.7853 85.9336 37.5259C85.9336 37.2665 85.7233 37.0562 85.4639 37.0562C85.2044 37.0562 84.9941 37.2665 84.9941 37.5259C84.9941 37.7853 85.2044 37.9956 85.4639 37.9956Z" fill="#7C47E1"/>
<path d="M85.4639 43.1626C85.7233 43.1626 85.9336 42.9523 85.9336 42.6929C85.9336 42.4335 85.7233 42.2231 85.4639 42.2231C85.2044 42.2231 84.9941 42.4335 84.9941 42.6929C84.9941 42.9523 85.2044 43.1626 85.4639 43.1626Z" fill="#7C47E1"/>
<path d="M85.4639 48.3296C85.7233 48.3296 85.9336 48.1193 85.9336 47.8599C85.9336 47.6004 85.7233 47.3901 85.4639 47.3901C85.2044 47.3901 84.9941 47.6004 84.9941 47.8599C84.9941 48.1193 85.2044 48.3296 85.4639 48.3296Z" fill="#7C47E1"/>
<path d="M91.1006 1.82642C91.36 1.82642 91.5703 1.61612 91.5703 1.35669C91.5703 1.09727 91.36 0.886963 91.1006 0.886963C90.8412 0.886963 90.6309 1.09727 90.6309 1.35669C90.6309 1.61612 90.8412 1.82642 91.1006 1.82642Z" fill="#7C47E1"/>
<path d="M91.1006 6.99342C91.36 6.99342 91.5703 6.78311 91.5703 6.52369C91.5703 6.26426 91.36 6.05396 91.1006 6.05396C90.8412 6.05396 90.6309 6.26426 90.6309 6.52369C90.6309 6.78311 90.8412 6.99342 91.1006 6.99342Z" fill="#7C47E1"/>
<path d="M91.1006 12.1604C91.36 12.1604 91.5703 11.9501 91.5703 11.6907C91.5703 11.4313 91.36 11.2209 91.1006 11.2209C90.8412 11.2209 90.6309 11.4313 90.6309 11.6907C90.6309 11.9501 90.8412 12.1604 91.1006 12.1604Z" fill="#7C47E1"/>
<path d="M91.1006 17.3276C91.36 17.3276 91.5703 17.1173 91.5703 16.8579C91.5703 16.5985 91.36 16.3882 91.1006 16.3882C90.8412 16.3882 90.6309 16.5985 90.6309 16.8579C90.6309 17.1173 90.8412 17.3276 91.1006 17.3276Z" fill="#7C47E1"/>
<path d="M91.1006 22.4946C91.36 22.4946 91.5703 22.2843 91.5703 22.0249C91.5703 21.7655 91.36 21.5552 91.1006 21.5552C90.8412 21.5552 90.6309 21.7655 90.6309 22.0249C90.6309 22.2843 90.8412 22.4946 91.1006 22.4946Z" fill="#7C47E1"/>
<path d="M91.1006 27.6614C91.36 27.6614 91.5703 27.4511 91.5703 27.1917C91.5703 26.9322 91.36 26.7219 91.1006 26.7219C90.8412 26.7219 90.6309 26.9322 90.6309 27.1917C90.6309 27.4511 90.8412 27.6614 91.1006 27.6614Z" fill="#7C47E1"/>
<path d="M91.1006 32.8286C91.36 32.8286 91.5703 32.6183 91.5703 32.3589C91.5703 32.0995 91.36 31.8892 91.1006 31.8892C90.8412 31.8892 90.6309 32.0995 90.6309 32.3589C90.6309 32.6183 90.8412 32.8286 91.1006 32.8286Z" fill="#7C47E1"/>
<path d="M91.1006 37.9956C91.36 37.9956 91.5703 37.7853 91.5703 37.5259C91.5703 37.2665 91.36 37.0562 91.1006 37.0562C90.8412 37.0562 90.6309 37.2665 90.6309 37.5259C90.6309 37.7853 90.8412 37.9956 91.1006 37.9956Z" fill="#7C47E1"/>
<path d="M91.1006 43.1626C91.36 43.1626 91.5703 42.9523 91.5703 42.6929C91.5703 42.4335 91.36 42.2231 91.1006 42.2231C90.8412 42.2231 90.6309 42.4335 90.6309 42.6929C90.6309 42.9523 90.8412 43.1626 91.1006 43.1626Z" fill="#7C47E1"/>
<path d="M91.1006 48.3296C91.36 48.3296 91.5703 48.1193 91.5703 47.8599C91.5703 47.6004 91.36 47.3901 91.1006 47.3901C90.8412 47.3901 90.6309 47.6004 90.6309 47.8599C90.6309 48.1193 90.8412 48.3296 91.1006 48.3296Z" fill="#7C47E1"/>
<path d="M96.7373 1.82642C96.9967 1.82642 97.207 1.61612 97.207 1.35669C97.207 1.09727 96.9967 0.886963 96.7373 0.886963C96.4779 0.886963 96.2676 1.09727 96.2676 1.35669C96.2676 1.61612 96.4779 1.82642 96.7373 1.82642Z" fill="#7C47E1"/>
<path d="M96.7373 6.99342C96.9967 6.99342 97.207 6.78311 97.207 6.52369C97.207 6.26426 96.9967 6.05396 96.7373 6.05396C96.4779 6.05396 96.2676 6.26426 96.2676 6.52369C96.2676 6.78311 96.4779 6.99342 96.7373 6.99342Z" fill="#7C47E1"/>
<path d="M96.7373 12.1604C96.9967 12.1604 97.207 11.9501 97.207 11.6907C97.207 11.4313 96.9967 11.2209 96.7373 11.2209C96.4779 11.2209 96.2676 11.4313 96.2676 11.6907C96.2676 11.9501 96.4779 12.1604 96.7373 12.1604Z" fill="#7C47E1"/>
<path d="M96.7373 17.3276C96.9967 17.3276 97.207 17.1173 97.207 16.8579C97.207 16.5985 96.9967 16.3882 96.7373 16.3882C96.4779 16.3882 96.2676 16.5985 96.2676 16.8579C96.2676 17.1173 96.4779 17.3276 96.7373 17.3276Z" fill="#7C47E1"/>
<path d="M96.7373 22.4946C96.9967 22.4946 97.207 22.2843 97.207 22.0249C97.207 21.7655 96.9967 21.5552 96.7373 21.5552C96.4779 21.5552 96.2676 21.7655 96.2676 22.0249C96.2676 22.2843 96.4779 22.4946 96.7373 22.4946Z" fill="#7C47E1"/>
<path d="M96.7373 27.6614C96.9967 27.6614 97.207 27.4511 97.207 27.1917C97.207 26.9322 96.9967 26.7219 96.7373 26.7219C96.4779 26.7219 96.2676 26.9322 96.2676 27.1917C96.2676 27.4511 96.4779 27.6614 96.7373 27.6614Z" fill="#7C47E1"/>
<path d="M96.7373 32.8286C96.9967 32.8286 97.207 32.6183 97.207 32.3589C97.207 32.0995 96.9967 31.8892 96.7373 31.8892C96.4779 31.8892 96.2676 32.0995 96.2676 32.3589C96.2676 32.6183 96.4779 32.8286 96.7373 32.8286Z" fill="#7C47E1"/>
<path d="M96.7373 37.9956C96.9967 37.9956 97.207 37.7853 97.207 37.5259C97.207 37.2665 96.9967 37.0562 96.7373 37.0562C96.4779 37.0562 96.2676 37.2665 96.2676 37.5259C96.2676 37.7853 96.4779 37.9956 96.7373 37.9956Z" fill="#7C47E1"/>
<path d="M96.7373 43.1626C96.9967 43.1626 97.207 42.9523 97.207 42.6929C97.207 42.4335 96.9967 42.2231 96.7373 42.2231C96.4779 42.2231 96.2676 42.4335 96.2676 42.6929C96.2676 42.9523 96.4779 43.1626 96.7373 43.1626Z" fill="#7C47E1"/>
<path d="M96.7373 48.3296C96.9967 48.3296 97.207 48.1193 97.207 47.8599C97.207 47.6004 96.9967 47.3901 96.7373 47.3901C96.4779 47.3901 96.2676 47.6004 96.2676 47.8599C96.2676 48.1193 96.4779 48.3296 96.7373 48.3296Z" fill="#7C47E1"/>
<path d="M101.904 1.82642C102.163 1.82642 102.374 1.61612 102.374 1.35669C102.374 1.09727 102.163 0.886963 101.904 0.886963C101.644 0.886963 101.434 1.09727 101.434 1.35669C101.434 1.61612 101.644 1.82642 101.904 1.82642Z" fill="#7C47E1"/>
<path d="M123.981 1.82642C124.241 1.82642 124.451 1.61612 124.451 1.35669C124.451 1.09727 124.241 0.886963 123.981 0.886963C123.722 0.886963 123.512 1.09727 123.512 1.35669C123.512 1.61612 123.722 1.82642 123.981 1.82642Z" fill="#7C47E1"/>
<path d="M101.904 6.99342C102.163 6.99342 102.374 6.78311 102.374 6.52369C102.374 6.26426 102.163 6.05396 101.904 6.05396C101.644 6.05396 101.434 6.26426 101.434 6.52369C101.434 6.78311 101.644 6.99342 101.904 6.99342Z" fill="#7C47E1"/>
<path d="M123.981 6.99342C124.241 6.99342 124.451 6.78311 124.451 6.52369C124.451 6.26426 124.241 6.05396 123.981 6.05396C123.722 6.05396 123.512 6.26426 123.512 6.52369C123.512 6.78311 123.722 6.99342 123.981 6.99342Z" fill="#7C47E1"/>
<path d="M101.904 12.1604C102.163 12.1604 102.374 11.9501 102.374 11.6907C102.374 11.4313 102.163 11.2209 101.904 11.2209C101.644 11.2209 101.434 11.4313 101.434 11.6907C101.434 11.9501 101.644 12.1604 101.904 12.1604Z" fill="#7C47E1"/>
<path d="M123.981 12.1604C124.241 12.1604 124.451 11.9501 124.451 11.6907C124.451 11.4313 124.241 11.2209 123.981 11.2209C123.722 11.2209 123.512 11.4313 123.512 11.6907C123.512 11.9501 123.722 12.1604 123.981 12.1604Z" fill="#7C47E1"/>
<path d="M101.904 17.3276C102.163 17.3276 102.374 17.1173 102.374 16.8579C102.374 16.5985 102.163 16.3882 101.904 16.3882C101.644 16.3882 101.434 16.5985 101.434 16.8579C101.434 17.1173 101.644 17.3276 101.904 17.3276Z" fill="#7C47E1"/>
<path d="M123.981 17.3276C124.241 17.3276 124.451 17.1173 124.451 16.8579C124.451 16.5985 124.241 16.3882 123.981 16.3882C123.722 16.3882 123.512 16.5985 123.512 16.8579C123.512 17.1173 123.722 17.3276 123.981 17.3276Z" fill="#7C47E1"/>
<path d="M101.904 22.4946C102.163 22.4946 102.374 22.2843 102.374 22.0249C102.374 21.7655 102.163 21.5552 101.904 21.5552C101.644 21.5552 101.434 21.7655 101.434 22.0249C101.434 22.2843 101.644 22.4946 101.904 22.4946Z" fill="#7C47E1"/>
<path d="M123.981 22.4946C124.241 22.4946 124.451 22.2843 124.451 22.0249C124.451 21.7655 124.241 21.5552 123.981 21.5552C123.722 21.5552 123.512 21.7655 123.512 22.0249C123.512 22.2843 123.722 22.4946 123.981 22.4946Z" fill="#7C47E1"/>
<path d="M101.904 27.6614C102.163 27.6614 102.374 27.4511 102.374 27.1917C102.374 26.9322 102.163 26.7219 101.904 26.7219C101.644 26.7219 101.434 26.9322 101.434 27.1917C101.434 27.4511 101.644 27.6614 101.904 27.6614Z" fill="#7C47E1"/>
<path d="M123.981 27.6614C124.241 27.6614 124.451 27.4511 124.451 27.1917C124.451 26.9322 124.241 26.7219 123.981 26.7219C123.722 26.7219 123.512 26.9322 123.512 27.1917C123.512 27.4511 123.722 27.6614 123.981 27.6614Z" fill="#7C47E1"/>
<path d="M101.904 32.8286C102.163 32.8286 102.374 32.6183 102.374 32.3589C102.374 32.0995 102.163 31.8892 101.904 31.8892C101.644 31.8892 101.434 32.0995 101.434 32.3589C101.434 32.6183 101.644 32.8286 101.904 32.8286Z" fill="#7C47E1"/>
<path d="M123.981 32.8286C124.241 32.8286 124.451 32.6183 124.451 32.3589C124.451 32.0995 124.241 31.8892 123.981 31.8892C123.722 31.8892 123.512 32.0995 123.512 32.3589C123.512 32.6183 123.722 32.8286 123.981 32.8286Z" fill="#7C47E1"/>
<path d="M101.904 37.9956C102.163 37.9956 102.374 37.7853 102.374 37.5259C102.374 37.2665 102.163 37.0562 101.904 37.0562C101.644 37.0562 101.434 37.2665 101.434 37.5259C101.434 37.7853 101.644 37.9956 101.904 37.9956Z" fill="#7C47E1"/>
<path d="M123.981 37.9956C124.241 37.9956 124.451 37.7853 124.451 37.5259C124.451 37.2665 124.241 37.0562 123.981 37.0562C123.722 37.0562 123.512 37.2665 123.512 37.5259C123.512 37.7853 123.722 37.9956 123.981 37.9956Z" fill="#7C47E1"/>
<path d="M101.904 43.1626C102.163 43.1626 102.374 42.9523 102.374 42.6929C102.374 42.4335 102.163 42.2231 101.904 42.2231C101.644 42.2231 101.434 42.4335 101.434 42.6929C101.434 42.9523 101.644 43.1626 101.904 43.1626Z" fill="#7C47E1"/>
<path d="M123.981 43.1626C124.241 43.1626 124.451 42.9523 124.451 42.6929C124.451 42.4335 124.241 42.2231 123.981 42.2231C123.722 42.2231 123.512 42.4335 123.512 42.6929C123.512 42.9523 123.722 43.1626 123.981 43.1626Z" fill="#7C47E1"/>
<path d="M101.904 48.3296C102.163 48.3296 102.374 48.1193 102.374 47.8599C102.374 47.6004 102.163 47.3901 101.904 47.3901C101.644 47.3901 101.434 47.6004 101.434 47.8599C101.434 48.1193 101.644 48.3296 101.904 48.3296Z" fill="#7C47E1"/>
<path d="M123.981 48.3296C124.241 48.3296 124.451 48.1193 124.451 47.8599C124.451 47.6004 124.241 47.3901 123.981 47.3901C123.722 47.3901 123.512 47.6004 123.512 47.8599C123.512 48.1193 123.722 48.3296 123.981 48.3296Z" fill="#7C47E1"/>
<path d="M107.541 1.82642C107.8 1.82642 108.01 1.61612 108.01 1.35669C108.01 1.09727 107.8 0.886963 107.541 0.886963C107.281 0.886963 107.071 1.09727 107.071 1.35669C107.071 1.61612 107.281 1.82642 107.541 1.82642Z" fill="#7C47E1"/>
<path d="M129.618 1.82642C129.878 1.82642 130.088 1.61612 130.088 1.35669C130.088 1.09727 129.878 0.886963 129.618 0.886963C129.359 0.886963 129.148 1.09727 129.148 1.35669C129.148 1.61612 129.359 1.82642 129.618 1.82642Z" fill="#7C47E1"/>
<path d="M107.541 6.99342C107.8 6.99342 108.01 6.78311 108.01 6.52369C108.01 6.26426 107.8 6.05396 107.541 6.05396C107.281 6.05396 107.071 6.26426 107.071 6.52369C107.071 6.78311 107.281 6.99342 107.541 6.99342Z" fill="#7C47E1"/>
<path d="M129.618 6.99342C129.878 6.99342 130.088 6.78311 130.088 6.52369C130.088 6.26426 129.878 6.05396 129.618 6.05396C129.359 6.05396 129.148 6.26426 129.148 6.52369C129.148 6.78311 129.359 6.99342 129.618 6.99342Z" fill="#7C47E1"/>
<path d="M107.541 12.1604C107.8 12.1604 108.01 11.9501 108.01 11.6907C108.01 11.4313 107.8 11.2209 107.541 11.2209C107.281 11.2209 107.071 11.4313 107.071 11.6907C107.071 11.9501 107.281 12.1604 107.541 12.1604Z" fill="#7C47E1"/>
<path d="M129.618 12.1604C129.878 12.1604 130.088 11.9501 130.088 11.6907C130.088 11.4313 129.878 11.2209 129.618 11.2209C129.359 11.2209 129.148 11.4313 129.148 11.6907C129.148 11.9501 129.359 12.1604 129.618 12.1604Z" fill="#7C47E1"/>
<path d="M107.541 17.3276C107.8 17.3276 108.01 17.1173 108.01 16.8579C108.01 16.5985 107.8 16.3882 107.541 16.3882C107.281 16.3882 107.071 16.5985 107.071 16.8579C107.071 17.1173 107.281 17.3276 107.541 17.3276Z" fill="#7C47E1"/>
<path d="M129.618 17.3276C129.878 17.3276 130.088 17.1173 130.088 16.8579C130.088 16.5985 129.878 16.3882 129.618 16.3882C129.359 16.3882 129.148 16.5985 129.148 16.8579C129.148 17.1173 129.359 17.3276 129.618 17.3276Z" fill="#7C47E1"/>
<path d="M107.541 22.4946C107.8 22.4946 108.01 22.2843 108.01 22.0249C108.01 21.7655 107.8 21.5552 107.541 21.5552C107.281 21.5552 107.071 21.7655 107.071 22.0249C107.071 22.2843 107.281 22.4946 107.541 22.4946Z" fill="#7C47E1"/>
<path d="M129.618 22.4946C129.878 22.4946 130.088 22.2843 130.088 22.0249C130.088 21.7655 129.878 21.5552 129.618 21.5552C129.359 21.5552 129.148 21.7655 129.148 22.0249C129.148 22.2843 129.359 22.4946 129.618 22.4946Z" fill="#7C47E1"/>
<path d="M107.541 27.6614C107.8 27.6614 108.01 27.4511 108.01 27.1917C108.01 26.9322 107.8 26.7219 107.541 26.7219C107.281 26.7219 107.071 26.9322 107.071 27.1917C107.071 27.4511 107.281 27.6614 107.541 27.6614Z" fill="#7C47E1"/>
<path d="M129.618 27.6614C129.878 27.6614 130.088 27.4511 130.088 27.1917C130.088 26.9322 129.878 26.7219 129.618 26.7219C129.359 26.7219 129.148 26.9322 129.148 27.1917C129.148 27.4511 129.359 27.6614 129.618 27.6614Z" fill="#7C47E1"/>
<path d="M107.541 32.8286C107.8 32.8286 108.01 32.6183 108.01 32.3589C108.01 32.0995 107.8 31.8892 107.541 31.8892C107.281 31.8892 107.071 32.0995 107.071 32.3589C107.071 32.6183 107.281 32.8286 107.541 32.8286Z" fill="#7C47E1"/>
<path d="M129.618 32.8286C129.878 32.8286 130.088 32.6183 130.088 32.3589C130.088 32.0995 129.878 31.8892 129.618 31.8892C129.359 31.8892 129.148 32.0995 129.148 32.3589C129.148 32.6183 129.359 32.8286 129.618 32.8286Z" fill="#7C47E1"/>
<path d="M107.541 37.9956C107.8 37.9956 108.01 37.7853 108.01 37.5259C108.01 37.2665 107.8 37.0562 107.541 37.0562C107.281 37.0562 107.071 37.2665 107.071 37.5259C107.071 37.7853 107.281 37.9956 107.541 37.9956Z" fill="#7C47E1"/>
<path d="M129.618 37.9956C129.878 37.9956 130.088 37.7853 130.088 37.5259C130.088 37.2665 129.878 37.0562 129.618 37.0562C129.359 37.0562 129.148 37.2665 129.148 37.5259C129.148 37.7853 129.359 37.9956 129.618 37.9956Z" fill="#7C47E1"/>
<path d="M107.541 43.1626C107.8 43.1626 108.01 42.9523 108.01 42.6929C108.01 42.4335 107.8 42.2231 107.541 42.2231C107.281 42.2231 107.071 42.4335 107.071 42.6929C107.071 42.9523 107.281 43.1626 107.541 43.1626Z" fill="#7C47E1"/>
<path d="M129.618 43.1626C129.878 43.1626 130.088 42.9523 130.088 42.6929C130.088 42.4335 129.878 42.2231 129.618 42.2231C129.359 42.2231 129.148 42.4335 129.148 42.6929C129.148 42.9523 129.359 43.1626 129.618 43.1626Z" fill="#7C47E1"/>
<path d="M107.541 48.3296C107.8 48.3296 108.01 48.1193 108.01 47.8599C108.01 47.6004 107.8 47.3901 107.541 47.3901C107.281 47.3901 107.071 47.6004 107.071 47.8599C107.071 48.1193 107.281 48.3296 107.541 48.3296Z" fill="#7C47E1"/>
<path d="M129.618 48.3296C129.878 48.3296 130.088 48.1193 130.088 47.8599C130.088 47.6004 129.878 47.3901 129.618 47.3901C129.359 47.3901 129.148 47.6004 129.148 47.8599C129.148 48.1193 129.359 48.3296 129.618 48.3296Z" fill="#7C47E1"/>
<path d="M113.178 1.82642C113.437 1.82642 113.647 1.61612 113.647 1.35669C113.647 1.09727 113.437 0.886963 113.178 0.886963C112.918 0.886963 112.708 1.09727 112.708 1.35669C112.708 1.61612 112.918 1.82642 113.178 1.82642Z" fill="#7C47E1"/>
<path d="M113.178 6.99342C113.437 6.99342 113.647 6.78311 113.647 6.52369C113.647 6.26426 113.437 6.05396 113.178 6.05396C112.918 6.05396 112.708 6.26426 112.708 6.52369C112.708 6.78311 112.918 6.99342 113.178 6.99342Z" fill="#7C47E1"/>
<path d="M113.178 12.1604C113.437 12.1604 113.647 11.9501 113.647 11.6907C113.647 11.4313 113.437 11.2209 113.178 11.2209C112.918 11.2209 112.708 11.4313 112.708 11.6907C112.708 11.9501 112.918 12.1604 113.178 12.1604Z" fill="#7C47E1"/>
<path d="M113.178 17.3276C113.437 17.3276 113.647 17.1173 113.647 16.8579C113.647 16.5985 113.437 16.3882 113.178 16.3882C112.918 16.3882 112.708 16.5985 112.708 16.8579C112.708 17.1173 112.918 17.3276 113.178 17.3276Z" fill="#7C47E1"/>
<path d="M113.178 22.4946C113.437 22.4946 113.647 22.2843 113.647 22.0249C113.647 21.7655 113.437 21.5552 113.178 21.5552C112.918 21.5552 112.708 21.7655 112.708 22.0249C112.708 22.2843 112.918 22.4946 113.178 22.4946Z" fill="#7C47E1"/>
<path d="M113.178 27.6614C113.437 27.6614 113.647 27.4511 113.647 27.1917C113.647 26.9322 113.437 26.7219 113.178 26.7219C112.918 26.7219 112.708 26.9322 112.708 27.1917C112.708 27.4511 112.918 27.6614 113.178 27.6614Z" fill="#7C47E1"/>
<path d="M113.178 32.8286C113.437 32.8286 113.647 32.6183 113.647 32.3589C113.647 32.0995 113.437 31.8892 113.178 31.8892C112.918 31.8892 112.708 32.0995 112.708 32.3589C112.708 32.6183 112.918 32.8286 113.178 32.8286Z" fill="#7C47E1"/>
<path d="M113.178 37.9956C113.437 37.9956 113.647 37.7853 113.647 37.5259C113.647 37.2665 113.437 37.0562 113.178 37.0562C112.918 37.0562 112.708 37.2665 112.708 37.5259C112.708 37.7853 112.918 37.9956 113.178 37.9956Z" fill="#7C47E1"/>
<path d="M113.178 43.1626C113.437 43.1626 113.647 42.9523 113.647 42.6929C113.647 42.4335 113.437 42.2231 113.178 42.2231C112.918 42.2231 112.708 42.4335 112.708 42.6929C112.708 42.9523 112.918 43.1626 113.178 43.1626Z" fill="#7C47E1"/>
<path d="M113.178 48.3296C113.437 48.3296 113.647 48.1193 113.647 47.8599C113.647 47.6004 113.437 47.3901 113.178 47.3901C112.918 47.3901 112.708 47.6004 112.708 47.8599C112.708 48.1193 112.918 48.3296 113.178 48.3296Z" fill="#7C47E1"/>
<path d="M118.345 1.82642C118.604 1.82642 118.814 1.61612 118.814 1.35669C118.814 1.09727 118.604 0.886963 118.345 0.886963C118.085 0.886963 117.875 1.09727 117.875 1.35669C117.875 1.61612 118.085 1.82642 118.345 1.82642Z" fill="#7C47E1"/>
<path d="M118.345 6.99342C118.604 6.99342 118.814 6.78311 118.814 6.52369C118.814 6.26426 118.604 6.05396 118.345 6.05396C118.085 6.05396 117.875 6.26426 117.875 6.52369C117.875 6.78311 118.085 6.99342 118.345 6.99342Z" fill="#7C47E1"/>
<path d="M118.345 12.1604C118.604 12.1604 118.814 11.9501 118.814 11.6907C118.814 11.4313 118.604 11.2209 118.345 11.2209C118.085 11.2209 117.875 11.4313 117.875 11.6907C117.875 11.9501 118.085 12.1604 118.345 12.1604Z" fill="#7C47E1"/>
<path d="M118.345 17.3276C118.604 17.3276 118.814 17.1173 118.814 16.8579C118.814 16.5985 118.604 16.3882 118.345 16.3882C118.085 16.3882 117.875 16.5985 117.875 16.8579C117.875 17.1173 118.085 17.3276 118.345 17.3276Z" fill="#7C47E1"/>
<path d="M118.345 22.4946C118.604 22.4946 118.814 22.2843 118.814 22.0249C118.814 21.7655 118.604 21.5552 118.345 21.5552C118.085 21.5552 117.875 21.7655 117.875 22.0249C117.875 22.2843 118.085 22.4946 118.345 22.4946Z" fill="#7C47E1"/>
<path d="M118.345 27.6614C118.604 27.6614 118.814 27.4511 118.814 27.1917C118.814 26.9322 118.604 26.7219 118.345 26.7219C118.085 26.7219 117.875 26.9322 117.875 27.1917C117.875 27.4511 118.085 27.6614 118.345 27.6614Z" fill="#7C47E1"/>
<path d="M118.345 32.8286C118.604 32.8286 118.814 32.6183 118.814 32.3589C118.814 32.0995 118.604 31.8892 118.345 31.8892C118.085 31.8892 117.875 32.0995 117.875 32.3589C117.875 32.6183 118.085 32.8286 118.345 32.8286Z" fill="#7C47E1"/>
<path d="M118.345 37.9956C118.604 37.9956 118.814 37.7853 118.814 37.5259C118.814 37.2665 118.604 37.0562 118.345 37.0562C118.085 37.0562 117.875 37.2665 117.875 37.5259C117.875 37.7853 118.085 37.9956 118.345 37.9956Z" fill="#7C47E1"/>
<path d="M118.345 43.1626C118.604 43.1626 118.814 42.9523 118.814 42.6929C118.814 42.4335 118.604 42.2231 118.345 42.2231C118.085 42.2231 117.875 42.4335 117.875 42.6929C117.875 42.9523 118.085 43.1626 118.345 43.1626Z" fill="#7C47E1"/>
<path d="M118.345 48.3296C118.604 48.3296 118.814 48.1193 118.814 47.8599C118.814 47.6004 118.604 47.3901 118.345 47.3901C118.085 47.3901 117.875 47.6004 117.875 47.8599C117.875 48.1193 118.085 48.3296 118.345 48.3296Z" fill="#7C47E1"/>
<path d="M41.7783 53.4968C42.0377 53.4968 42.2481 53.2865 42.2481 53.0271C42.2481 52.7677 42.0377 52.5574 41.7783 52.5574C41.5189 52.5574 41.3086 52.7677 41.3086 53.0271C41.3086 53.2865 41.5189 53.4968 41.7783 53.4968Z" fill="#7C47E1"/>
<path d="M41.7783 58.6638C42.0377 58.6638 42.2481 58.4535 42.2481 58.1941C42.2481 57.9347 42.0377 57.7244 41.7783 57.7244C41.5189 57.7244 41.3086 57.9347 41.3086 58.1941C41.3086 58.4535 41.5189 58.6638 41.7783 58.6638Z" fill="#7C47E1"/>
<path d="M41.7783 63.8308C42.0377 63.8308 42.2481 63.6205 42.2481 63.3611C42.2481 63.1017 42.0377 62.8914 41.7783 62.8914C41.5189 62.8914 41.3086 63.1017 41.3086 63.3611C41.3086 63.6205 41.5189 63.8308 41.7783 63.8308Z" fill="#7C47E1"/>
<path d="M41.7783 68.9978C42.0377 68.9978 42.2481 68.7875 42.2481 68.5281C42.2481 68.2687 42.0377 68.0583 41.7783 68.0583C41.5189 68.0583 41.3086 68.2687 41.3086 68.5281C41.3086 68.7875 41.5189 68.9978 41.7783 68.9978Z" fill="#7C47E1"/>
<path d="M41.7783 74.165C42.0377 74.165 42.2481 73.9547 42.2481 73.6953C42.2481 73.4359 42.0377 73.2256 41.7783 73.2256C41.5189 73.2256 41.3086 73.4359 41.3086 73.6953C41.3086 73.9547 41.5189 74.165 41.7783 74.165Z" fill="#7C47E1"/>
<path d="M41.7783 79.3318C42.0377 79.3318 42.2481 79.1215 42.2481 78.8621C42.2481 78.6026 42.0377 78.3923 41.7783 78.3923C41.5189 78.3923 41.3086 78.6026 41.3086 78.8621C41.3086 79.1215 41.5189 79.3318 41.7783 79.3318Z" fill="#7C47E1"/>
<path d="M41.7783 84.4988C42.0377 84.4988 42.2481 84.2885 42.2481 84.0291C42.2481 83.7696 42.0377 83.5593 41.7783 83.5593C41.5189 83.5593 41.3086 83.7696 41.3086 84.0291C41.3086 84.2885 41.5189 84.4988 41.7783 84.4988Z" fill="#7C47E1"/>
<path d="M41.7783 89.666C42.0377 89.666 42.2481 89.4557 42.2481 89.1963C42.2481 88.9369 42.0377 88.7266 41.7783 88.7266C41.5189 88.7266 41.3086 88.9369 41.3086 89.1963C41.3086 89.4557 41.5189 89.666 41.7783 89.666Z" fill="#7C47E1"/>
<path d="M41.7783 94.833C42.0377 94.833 42.2481 94.6227 42.2481 94.3633C42.2481 94.1039 42.0377 93.8936 41.7783 93.8936C41.5189 93.8936 41.3086 94.1039 41.3086 94.3633C41.3086 94.6227 41.5189 94.833 41.7783 94.833Z" fill="#7C47E1"/>
<path d="M41.7783 100C42.0377 100 42.2481 99.7897 42.2481 99.5303C42.2481 99.2709 42.0377 99.0605 41.7783 99.0605C41.5189 99.0605 41.3086 99.2709 41.3086 99.5303C41.3086 99.7897 41.5189 100 41.7783 100Z" fill="#7C47E1"/>
<path d="M47.415 53.4968C47.6745 53.4968 47.8848 53.2865 47.8848 53.0271C47.8848 52.7677 47.6745 52.5574 47.415 52.5574C47.1556 52.5574 46.9453 52.7677 46.9453 53.0271C46.9453 53.2865 47.1556 53.4968 47.415 53.4968Z" fill="#7C47E1"/>
<path d="M47.415 58.6638C47.6745 58.6638 47.8848 58.4535 47.8848 58.1941C47.8848 57.9347 47.6745 57.7244 47.415 57.7244C47.1556 57.7244 46.9453 57.9347 46.9453 58.1941C46.9453 58.4535 47.1556 58.6638 47.415 58.6638Z" fill="#7C47E1"/>
<path d="M47.415 63.8308C47.6745 63.8308 47.8848 63.6205 47.8848 63.3611C47.8848 63.1017 47.6745 62.8914 47.415 62.8914C47.1556 62.8914 46.9453 63.1017 46.9453 63.3611C46.9453 63.6205 47.1556 63.8308 47.415 63.8308Z" fill="#7C47E1"/>
<path d="M47.415 68.9978C47.6745 68.9978 47.8848 68.7875 47.8848 68.5281C47.8848 68.2687 47.6745 68.0583 47.415 68.0583C47.1556 68.0583 46.9453 68.2687 46.9453 68.5281C46.9453 68.7875 47.1556 68.9978 47.415 68.9978Z" fill="#7C47E1"/>
<path d="M47.415 74.165C47.6745 74.165 47.8848 73.9547 47.8848 73.6953C47.8848 73.4359 47.6745 73.2256 47.415 73.2256C47.1556 73.2256 46.9453 73.4359 46.9453 73.6953C46.9453 73.9547 47.1556 74.165 47.415 74.165Z" fill="#7C47E1"/>
<path d="M47.415 79.3318C47.6745 79.3318 47.8848 79.1215 47.8848 78.8621C47.8848 78.6026 47.6745 78.3923 47.415 78.3923C47.1556 78.3923 46.9453 78.6026 46.9453 78.8621C46.9453 79.1215 47.1556 79.3318 47.415 79.3318Z" fill="#7C47E1"/>
<path d="M47.415 84.4988C47.6745 84.4988 47.8848 84.2885 47.8848 84.0291C47.8848 83.7696 47.6745 83.5593 47.415 83.5593C47.1556 83.5593 46.9453 83.7696 46.9453 84.0291C46.9453 84.2885 47.1556 84.4988 47.415 84.4988Z" fill="#7C47E1"/>
<path d="M47.415 89.666C47.6745 89.666 47.8848 89.4557 47.8848 89.1963C47.8848 88.9369 47.6745 88.7266 47.415 88.7266C47.1556 88.7266 46.9453 88.9369 46.9453 89.1963C46.9453 89.4557 47.1556 89.666 47.415 89.666Z" fill="#7C47E1"/>
<path d="M47.415 94.833C47.6745 94.833 47.8848 94.6227 47.8848 94.3633C47.8848 94.1039 47.6745 93.8936 47.415 93.8936C47.1556 93.8936 46.9453 94.1039 46.9453 94.3633C46.9453 94.6227 47.1556 94.833 47.415 94.833Z" fill="#7C47E1"/>
<path d="M47.415 100C47.6745 100 47.8848 99.7897 47.8848 99.5303C47.8848 99.2709 47.6745 99.0605 47.415 99.0605C47.1556 99.0605 46.9453 99.2709 46.9453 99.5303C46.9453 99.7897 47.1556 100 47.415 100Z" fill="#7C47E1"/>
<path d="M52.582 53.4968C52.8415 53.4968 53.0518 53.2865 53.0518 53.0271C53.0518 52.7677 52.8415 52.5574 52.582 52.5574C52.3226 52.5574 52.1123 52.7677 52.1123 53.0271C52.1123 53.2865 52.3226 53.4968 52.582 53.4968Z" fill="#7C47E1"/>
<path d="M52.582 58.6638C52.8415 58.6638 53.0518 58.4535 53.0518 58.1941C53.0518 57.9347 52.8415 57.7244 52.582 57.7244C52.3226 57.7244 52.1123 57.9347 52.1123 58.1941C52.1123 58.4535 52.3226 58.6638 52.582 58.6638Z" fill="#7C47E1"/>
<path d="M52.582 63.8308C52.8415 63.8308 53.0518 63.6205 53.0518 63.3611C53.0518 63.1017 52.8415 62.8914 52.582 62.8914C52.3226 62.8914 52.1123 63.1017 52.1123 63.3611C52.1123 63.6205 52.3226 63.8308 52.582 63.8308Z" fill="#7C47E1"/>
<path d="M52.582 68.9978C52.8415 68.9978 53.0518 68.7875 53.0518 68.5281C53.0518 68.2687 52.8415 68.0583 52.582 68.0583C52.3226 68.0583 52.1123 68.2687 52.1123 68.5281C52.1123 68.7875 52.3226 68.9978 52.582 68.9978Z" fill="#7C47E1"/>
<path d="M52.582 74.165C52.8415 74.165 53.0518 73.9547 53.0518 73.6953C53.0518 73.4359 52.8415 73.2256 52.582 73.2256C52.3226 73.2256 52.1123 73.4359 52.1123 73.6953C52.1123 73.9547 52.3226 74.165 52.582 74.165Z" fill="#7C47E1"/>
<path d="M52.582 79.3318C52.8415 79.3318 53.0518 79.1215 53.0518 78.8621C53.0518 78.6026 52.8415 78.3923 52.582 78.3923C52.3226 78.3923 52.1123 78.6026 52.1123 78.8621C52.1123 79.1215 52.3226 79.3318 52.582 79.3318Z" fill="#7C47E1"/>
<path d="M52.582 84.4988C52.8415 84.4988 53.0518 84.2885 53.0518 84.0291C53.0518 83.7696 52.8415 83.5593 52.582 83.5593C52.3226 83.5593 52.1123 83.7696 52.1123 84.0291C52.1123 84.2885 52.3226 84.4988 52.582 84.4988Z" fill="#7C47E1"/>
<path d="M52.582 89.666C52.8415 89.666 53.0518 89.4557 53.0518 89.1963C53.0518 88.9369 52.8415 88.7266 52.582 88.7266C52.3226 88.7266 52.1123 88.9369 52.1123 89.1963C52.1123 89.4557 52.3226 89.666 52.582 89.666Z" fill="#7C47E1"/>
<path d="M52.582 94.833C52.8415 94.833 53.0518 94.6227 53.0518 94.3633C53.0518 94.1039 52.8415 93.8936 52.582 93.8936C52.3226 93.8936 52.1123 94.1039 52.1123 94.3633C52.1123 94.6227 52.3226 94.833 52.582 94.833Z" fill="#7C47E1"/>
<path d="M52.582 100C52.8415 100 53.0518 99.7897 53.0518 99.5303C53.0518 99.2709 52.8415 99.0605 52.582 99.0605C52.3226 99.0605 52.1123 99.2709 52.1123 99.5303C52.1123 99.7897 52.3226 100 52.582 100Z" fill="#7C47E1"/>
<path d="M58.2192 53.4968C58.4787 53.4968 58.689 53.2865 58.689 53.0271C58.689 52.7677 58.4787 52.5574 58.2192 52.5574C57.9598 52.5574 57.7495 52.7677 57.7495 53.0271C57.7495 53.2865 57.9598 53.4968 58.2192 53.4968Z" fill="#7C47E1"/>
<path d="M58.2192 58.6638C58.4787 58.6638 58.689 58.4535 58.689 58.1941C58.689 57.9347 58.4787 57.7244 58.2192 57.7244C57.9598 57.7244 57.7495 57.9347 57.7495 58.1941C57.7495 58.4535 57.9598 58.6638 58.2192 58.6638Z" fill="#7C47E1"/>
<path d="M58.2192 63.8308C58.4787 63.8308 58.689 63.6205 58.689 63.3611C58.689 63.1017 58.4787 62.8914 58.2192 62.8914C57.9598 62.8914 57.7495 63.1017 57.7495 63.3611C57.7495 63.6205 57.9598 63.8308 58.2192 63.8308Z" fill="#7C47E1"/>
<path d="M58.2192 68.9978C58.4787 68.9978 58.689 68.7875 58.689 68.5281C58.689 68.2687 58.4787 68.0583 58.2192 68.0583C57.9598 68.0583 57.7495 68.2687 57.7495 68.5281C57.7495 68.7875 57.9598 68.9978 58.2192 68.9978Z" fill="#7C47E1"/>
<path d="M58.2192 74.165C58.4787 74.165 58.689 73.9547 58.689 73.6953C58.689 73.4359 58.4787 73.2256 58.2192 73.2256C57.9598 73.2256 57.7495 73.4359 57.7495 73.6953C57.7495 73.9547 57.9598 74.165 58.2192 74.165Z" fill="#7C47E1"/>
<path d="M58.2192 79.3318C58.4787 79.3318 58.689 79.1215 58.689 78.8621C58.689 78.6026 58.4787 78.3923 58.2192 78.3923C57.9598 78.3923 57.7495 78.6026 57.7495 78.8621C57.7495 79.1215 57.9598 79.3318 58.2192 79.3318Z" fill="#7C47E1"/>
<path d="M58.2192 84.4988C58.4787 84.4988 58.689 84.2885 58.689 84.0291C58.689 83.7696 58.4787 83.5593 58.2192 83.5593C57.9598 83.5593 57.7495 83.7696 57.7495 84.0291C57.7495 84.2885 57.9598 84.4988 58.2192 84.4988Z" fill="#7C47E1"/>
<path d="M58.2192 89.666C58.4787 89.666 58.689 89.4557 58.689 89.1963C58.689 88.9369 58.4787 88.7266 58.2192 88.7266C57.9598 88.7266 57.7495 88.9369 57.7495 89.1963C57.7495 89.4557 57.9598 89.666 58.2192 89.666Z" fill="#7C47E1"/>
<path d="M58.2192 94.833C58.4787 94.833 58.689 94.6227 58.689 94.3633C58.689 94.1039 58.4787 93.8936 58.2192 93.8936C57.9598 93.8936 57.7495 94.1039 57.7495 94.3633C57.7495 94.6227 57.9598 94.833 58.2192 94.833Z" fill="#7C47E1"/>
<path d="M58.2192 100C58.4787 100 58.689 99.7897 58.689 99.5303C58.689 99.2709 58.4787 99.0605 58.2192 99.0605C57.9598 99.0605 57.7495 99.2709 57.7495 99.5303C57.7495 99.7897 57.9598 100 58.2192 100Z" fill="#7C47E1"/>
<path d="M63.856 53.4968C64.1154 53.4968 64.3257 53.2865 64.3257 53.0271C64.3257 52.7677 64.1154 52.5574 63.856 52.5574C63.5965 52.5574 63.3862 52.7677 63.3862 53.0271C63.3862 53.2865 63.5965 53.4968 63.856 53.4968Z" fill="#7C47E1"/>
<path d="M63.856 58.6638C64.1154 58.6638 64.3257 58.4535 64.3257 58.1941C64.3257 57.9347 64.1154 57.7244 63.856 57.7244C63.5965 57.7244 63.3862 57.9347 63.3862 58.1941C63.3862 58.4535 63.5965 58.6638 63.856 58.6638Z" fill="#7C47E1"/>
<path d="M63.856 63.8308C64.1154 63.8308 64.3257 63.6205 64.3257 63.3611C64.3257 63.1017 64.1154 62.8914 63.856 62.8914C63.5965 62.8914 63.3862 63.1017 63.3862 63.3611C63.3862 63.6205 63.5965 63.8308 63.856 63.8308Z" fill="#7C47E1"/>
<path d="M63.856 68.9978C64.1154 68.9978 64.3257 68.7875 64.3257 68.5281C64.3257 68.2687 64.1154 68.0583 63.856 68.0583C63.5965 68.0583 63.3862 68.2687 63.3862 68.5281C63.3862 68.7875 63.5965 68.9978 63.856 68.9978Z" fill="#7C47E1"/>
<path d="M63.856 74.165C64.1154 74.165 64.3257 73.9547 64.3257 73.6953C64.3257 73.4359 64.1154 73.2256 63.856 73.2256C63.5965 73.2256 63.3862 73.4359 63.3862 73.6953C63.3862 73.9547 63.5965 74.165 63.856 74.165Z" fill="#7C47E1"/>
<path d="M63.856 79.3318C64.1154 79.3318 64.3257 79.1215 64.3257 78.8621C64.3257 78.6026 64.1154 78.3923 63.856 78.3923C63.5965 78.3923 63.3862 78.6026 63.3862 78.8621C63.3862 79.1215 63.5965 79.3318 63.856 79.3318Z" fill="#7C47E1"/>
<path d="M63.856 84.4988C64.1154 84.4988 64.3257 84.2885 64.3257 84.0291C64.3257 83.7696 64.1154 83.5593 63.856 83.5593C63.5965 83.5593 63.3862 83.7696 63.3862 84.0291C63.3862 84.2885 63.5965 84.4988 63.856 84.4988Z" fill="#7C47E1"/>
<path d="M63.856 89.666C64.1154 89.666 64.3257 89.4557 64.3257 89.1963C64.3257 88.9369 64.1154 88.7266 63.856 88.7266C63.5965 88.7266 63.3862 88.9369 63.3862 89.1963C63.3862 89.4557 63.5965 89.666 63.856 89.666Z" fill="#7C47E1"/>
<path d="M63.856 94.833C64.1154 94.833 64.3257 94.6227 64.3257 94.3633C64.3257 94.1039 64.1154 93.8936 63.856 93.8936C63.5965 93.8936 63.3862 94.1039 63.3862 94.3633C63.3862 94.6227 63.5965 94.833 63.856 94.833Z" fill="#7C47E1"/>
<path d="M63.856 100C64.1154 100 64.3257 99.7897 64.3257 99.5303C64.3257 99.2709 64.1154 99.0605 63.856 99.0605C63.5965 99.0605 63.3862 99.2709 63.3862 99.5303C63.3862 99.7897 63.5965 100 63.856 100Z" fill="#7C47E1"/>
<path d="M69.023 53.4968C69.2824 53.4968 69.4927 53.2865 69.4927 53.0271C69.4927 52.7677 69.2824 52.5574 69.023 52.5574C68.7635 52.5574 68.5532 52.7677 68.5532 53.0271C68.5532 53.2865 68.7635 53.4968 69.023 53.4968Z" fill="#7C47E1"/>
<path d="M69.023 58.6638C69.2824 58.6638 69.4927 58.4535 69.4927 58.1941C69.4927 57.9347 69.2824 57.7244 69.023 57.7244C68.7635 57.7244 68.5532 57.9347 68.5532 58.1941C68.5532 58.4535 68.7635 58.6638 69.023 58.6638Z" fill="#7C47E1"/>
<path d="M69.023 63.8308C69.2824 63.8308 69.4927 63.6205 69.4927 63.3611C69.4927 63.1017 69.2824 62.8914 69.023 62.8914C68.7635 62.8914 68.5532 63.1017 68.5532 63.3611C68.5532 63.6205 68.7635 63.8308 69.023 63.8308Z" fill="#7C47E1"/>
<path d="M69.023 68.9978C69.2824 68.9978 69.4927 68.7875 69.4927 68.5281C69.4927 68.2687 69.2824 68.0583 69.023 68.0583C68.7635 68.0583 68.5532 68.2687 68.5532 68.5281C68.5532 68.7875 68.7635 68.9978 69.023 68.9978Z" fill="#7C47E1"/>
<path d="M69.023 74.165C69.2824 74.165 69.4927 73.9547 69.4927 73.6953C69.4927 73.4359 69.2824 73.2256 69.023 73.2256C68.7635 73.2256 68.5532 73.4359 68.5532 73.6953C68.5532 73.9547 68.7635 74.165 69.023 74.165Z" fill="#7C47E1"/>
<path d="M69.023 79.3318C69.2824 79.3318 69.4927 79.1215 69.4927 78.8621C69.4927 78.6026 69.2824 78.3923 69.023 78.3923C68.7635 78.3923 68.5532 78.6026 68.5532 78.8621C68.5532 79.1215 68.7635 79.3318 69.023 79.3318Z" fill="#7C47E1"/>
<path d="M69.023 84.4988C69.2824 84.4988 69.4927 84.2885 69.4927 84.0291C69.4927 83.7696 69.2824 83.5593 69.023 83.5593C68.7635 83.5593 68.5532 83.7696 68.5532 84.0291C68.5532 84.2885 68.7635 84.4988 69.023 84.4988Z" fill="#7C47E1"/>
<path d="M69.023 89.666C69.2824 89.666 69.4927 89.4557 69.4927 89.1963C69.4927 88.9369 69.2824 88.7266 69.023 88.7266C68.7635 88.7266 68.5532 88.9369 68.5532 89.1963C68.5532 89.4557 68.7635 89.666 69.023 89.666Z" fill="#7C47E1"/>
<path d="M69.023 94.833C69.2824 94.833 69.4927 94.6227 69.4927 94.3633C69.4927 94.1039 69.2824 93.8936 69.023 93.8936C68.7635 93.8936 68.5532 94.1039 68.5532 94.3633C68.5532 94.6227 68.7635 94.833 69.023 94.833Z" fill="#7C47E1"/>
<path d="M69.023 100C69.2824 100 69.4927 99.7897 69.4927 99.5303C69.4927 99.2709 69.2824 99.0605 69.023 99.0605C68.7635 99.0605 68.5532 99.2709 68.5532 99.5303C68.5532 99.7897 68.7635 100 69.023 100Z" fill="#7C47E1"/>
<path d="M74.6597 53.4968C74.9191 53.4968 75.1294 53.2865 75.1294 53.0271C75.1294 52.7677 74.9191 52.5574 74.6597 52.5574C74.4002 52.5574 74.1899 52.7677 74.1899 53.0271C74.1899 53.2865 74.4002 53.4968 74.6597 53.4968Z" fill="#7C47E1"/>
<path d="M74.6597 58.6638C74.9191 58.6638 75.1294 58.4535 75.1294 58.1941C75.1294 57.9347 74.9191 57.7244 74.6597 57.7244C74.4002 57.7244 74.1899 57.9347 74.1899 58.1941C74.1899 58.4535 74.4002 58.6638 74.6597 58.6638Z" fill="#7C47E1"/>
<path d="M74.6597 63.8308C74.9191 63.8308 75.1294 63.6205 75.1294 63.3611C75.1294 63.1017 74.9191 62.8914 74.6597 62.8914C74.4002 62.8914 74.1899 63.1017 74.1899 63.3611C74.1899 63.6205 74.4002 63.8308 74.6597 63.8308Z" fill="#7C47E1"/>
<path d="M74.6597 68.9978C74.9191 68.9978 75.1294 68.7875 75.1294 68.5281C75.1294 68.2687 74.9191 68.0583 74.6597 68.0583C74.4002 68.0583 74.1899 68.2687 74.1899 68.5281C74.1899 68.7875 74.4002 68.9978 74.6597 68.9978Z" fill="#7C47E1"/>
<path d="M74.6597 74.165C74.9191 74.165 75.1294 73.9547 75.1294 73.6953C75.1294 73.4359 74.9191 73.2256 74.6597 73.2256C74.4002 73.2256 74.1899 73.4359 74.1899 73.6953C74.1899 73.9547 74.4002 74.165 74.6597 74.165Z" fill="#7C47E1"/>
<path d="M74.6597 79.3318C74.9191 79.3318 75.1294 79.1215 75.1294 78.8621C75.1294 78.6026 74.9191 78.3923 74.6597 78.3923C74.4002 78.3923 74.1899 78.6026 74.1899 78.8621C74.1899 79.1215 74.4002 79.3318 74.6597 79.3318Z" fill="#7C47E1"/>
<path d="M74.6597 84.4988C74.9191 84.4988 75.1294 84.2885 75.1294 84.0291C75.1294 83.7696 74.9191 83.5593 74.6597 83.5593C74.4002 83.5593 74.1899 83.7696 74.1899 84.0291C74.1899 84.2885 74.4002 84.4988 74.6597 84.4988Z" fill="#7C47E1"/>
<path d="M74.6597 89.666C74.9191 89.666 75.1294 89.4557 75.1294 89.1963C75.1294 88.9369 74.9191 88.7266 74.6597 88.7266C74.4002 88.7266 74.1899 88.9369 74.1899 89.1963C74.1899 89.4557 74.4002 89.666 74.6597 89.666Z" fill="#7C47E1"/>
<path d="M74.6597 94.833C74.9191 94.833 75.1294 94.6227 75.1294 94.3633C75.1294 94.1039 74.9191 93.8936 74.6597 93.8936C74.4002 93.8936 74.1899 94.1039 74.1899 94.3633C74.1899 94.6227 74.4002 94.833 74.6597 94.833Z" fill="#7C47E1"/>
<path d="M74.6597 100C74.9191 100 75.1294 99.7897 75.1294 99.5303C75.1294 99.2709 74.9191 99.0605 74.6597 99.0605C74.4002 99.0605 74.1899 99.2709 74.1899 99.5303C74.1899 99.7897 74.4002 100 74.6597 100Z" fill="#7C47E1"/>
<path d="M80.2964 53.4968C80.5558 53.4968 80.7661 53.2865 80.7661 53.0271C80.7661 52.7677 80.5558 52.5574 80.2964 52.5574C80.037 52.5574 79.8267 52.7677 79.8267 53.0271C79.8267 53.2865 80.037 53.4968 80.2964 53.4968Z" fill="#7C47E1"/>
<path d="M80.2964 58.6638C80.5558 58.6638 80.7661 58.4535 80.7661 58.1941C80.7661 57.9347 80.5558 57.7244 80.2964 57.7244C80.037 57.7244 79.8267 57.9347 79.8267 58.1941C79.8267 58.4535 80.037 58.6638 80.2964 58.6638Z" fill="#7C47E1"/>
<path d="M80.2964 63.8308C80.5558 63.8308 80.7661 63.6205 80.7661 63.3611C80.7661 63.1017 80.5558 62.8914 80.2964 62.8914C80.037 62.8914 79.8267 63.1017 79.8267 63.3611C79.8267 63.6205 80.037 63.8308 80.2964 63.8308Z" fill="#7C47E1"/>
<path d="M80.2964 68.9978C80.5558 68.9978 80.7661 68.7875 80.7661 68.5281C80.7661 68.2687 80.5558 68.0583 80.2964 68.0583C80.037 68.0583 79.8267 68.2687 79.8267 68.5281C79.8267 68.7875 80.037 68.9978 80.2964 68.9978Z" fill="#7C47E1"/>
<path d="M80.2964 74.165C80.5558 74.165 80.7661 73.9547 80.7661 73.6953C80.7661 73.4359 80.5558 73.2256 80.2964 73.2256C80.037 73.2256 79.8267 73.4359 79.8267 73.6953C79.8267 73.9547 80.037 74.165 80.2964 74.165Z" fill="#7C47E1"/>
<path d="M80.2964 79.3318C80.5558 79.3318 80.7661 79.1215 80.7661 78.8621C80.7661 78.6026 80.5558 78.3923 80.2964 78.3923C80.037 78.3923 79.8267 78.6026 79.8267 78.8621C79.8267 79.1215 80.037 79.3318 80.2964 79.3318Z" fill="#7C47E1"/>
<path d="M80.2964 84.4988C80.5558 84.4988 80.7661 84.2885 80.7661 84.0291C80.7661 83.7696 80.5558 83.5593 80.2964 83.5593C80.037 83.5593 79.8267 83.7696 79.8267 84.0291C79.8267 84.2885 80.037 84.4988 80.2964 84.4988Z" fill="#7C47E1"/>
<path d="M80.2964 89.666C80.5558 89.666 80.7661 89.4557 80.7661 89.1963C80.7661 88.9369 80.5558 88.7266 80.2964 88.7266C80.037 88.7266 79.8267 88.9369 79.8267 89.1963C79.8267 89.4557 80.037 89.666 80.2964 89.666Z" fill="#7C47E1"/>
<path d="M80.2964 94.833C80.5558 94.833 80.7661 94.6227 80.7661 94.3633C80.7661 94.1039 80.5558 93.8936 80.2964 93.8936C80.037 93.8936 79.8267 94.1039 79.8267 94.3633C79.8267 94.6227 80.037 94.833 80.2964 94.833Z" fill="#7C47E1"/>
<path d="M80.2964 100C80.5558 100 80.7661 99.7897 80.7661 99.5303C80.7661 99.2709 80.5558 99.0605 80.2964 99.0605C80.037 99.0605 79.8267 99.2709 79.8267 99.5303C79.8267 99.7897 80.037 100 80.2964 100Z" fill="#7C47E1"/>
<path d="M85.4639 53.4968C85.7233 53.4968 85.9336 53.2865 85.9336 53.0271C85.9336 52.7677 85.7233 52.5574 85.4639 52.5574C85.2044 52.5574 84.9941 52.7677 84.9941 53.0271C84.9941 53.2865 85.2044 53.4968 85.4639 53.4968Z" fill="#7C47E1"/>
<path d="M85.4639 58.6638C85.7233 58.6638 85.9336 58.4535 85.9336 58.1941C85.9336 57.9347 85.7233 57.7244 85.4639 57.7244C85.2044 57.7244 84.9941 57.9347 84.9941 58.1941C84.9941 58.4535 85.2044 58.6638 85.4639 58.6638Z" fill="#7C47E1"/>
<path d="M85.4639 63.8308C85.7233 63.8308 85.9336 63.6205 85.9336 63.3611C85.9336 63.1017 85.7233 62.8914 85.4639 62.8914C85.2044 62.8914 84.9941 63.1017 84.9941 63.3611C84.9941 63.6205 85.2044 63.8308 85.4639 63.8308Z" fill="#7C47E1"/>
<path d="M85.4639 68.9978C85.7233 68.9978 85.9336 68.7875 85.9336 68.5281C85.9336 68.2687 85.7233 68.0583 85.4639 68.0583C85.2044 68.0583 84.9941 68.2687 84.9941 68.5281C84.9941 68.7875 85.2044 68.9978 85.4639 68.9978Z" fill="#7C47E1"/>
<path d="M85.4639 74.165C85.7233 74.165 85.9336 73.9547 85.9336 73.6953C85.9336 73.4359 85.7233 73.2256 85.4639 73.2256C85.2044 73.2256 84.9941 73.4359 84.9941 73.6953C84.9941 73.9547 85.2044 74.165 85.4639 74.165Z" fill="#7C47E1"/>
<path d="M85.4639 79.3318C85.7233 79.3318 85.9336 79.1215 85.9336 78.8621C85.9336 78.6026 85.7233 78.3923 85.4639 78.3923C85.2044 78.3923 84.9941 78.6026 84.9941 78.8621C84.9941 79.1215 85.2044 79.3318 85.4639 79.3318Z" fill="#7C47E1"/>
<path d="M85.4639 84.4988C85.7233 84.4988 85.9336 84.2885 85.9336 84.0291C85.9336 83.7696 85.7233 83.5593 85.4639 83.5593C85.2044 83.5593 84.9941 83.7696 84.9941 84.0291C84.9941 84.2885 85.2044 84.4988 85.4639 84.4988Z" fill="#7C47E1"/>
<path d="M85.4639 89.666C85.7233 89.666 85.9336 89.4557 85.9336 89.1963C85.9336 88.9369 85.7233 88.7266 85.4639 88.7266C85.2044 88.7266 84.9941 88.9369 84.9941 89.1963C84.9941 89.4557 85.2044 89.666 85.4639 89.666Z" fill="#7C47E1"/>
<path d="M85.4639 94.833C85.7233 94.833 85.9336 94.6227 85.9336 94.3633C85.9336 94.1039 85.7233 93.8936 85.4639 93.8936C85.2044 93.8936 84.9941 94.1039 84.9941 94.3633C84.9941 94.6227 85.2044 94.833 85.4639 94.833Z" fill="#7C47E1"/>
<path d="M85.4639 100C85.7233 100 85.9336 99.7897 85.9336 99.5303C85.9336 99.2709 85.7233 99.0605 85.4639 99.0605C85.2044 99.0605 84.9941 99.2709 84.9941 99.5303C84.9941 99.7897 85.2044 100 85.4639 100Z" fill="#7C47E1"/>
<path d="M91.1006 53.4968C91.36 53.4968 91.5703 53.2865 91.5703 53.0271C91.5703 52.7677 91.36 52.5574 91.1006 52.5574C90.8412 52.5574 90.6309 52.7677 90.6309 53.0271C90.6309 53.2865 90.8412 53.4968 91.1006 53.4968Z" fill="#7C47E1"/>
<path d="M91.1006 58.6638C91.36 58.6638 91.5703 58.4535 91.5703 58.1941C91.5703 57.9347 91.36 57.7244 91.1006 57.7244C90.8412 57.7244 90.6309 57.9347 90.6309 58.1941C90.6309 58.4535 90.8412 58.6638 91.1006 58.6638Z" fill="#7C47E1"/>
<path d="M91.1006 63.8308C91.36 63.8308 91.5703 63.6205 91.5703 63.3611C91.5703 63.1017 91.36 62.8914 91.1006 62.8914C90.8412 62.8914 90.6309 63.1017 90.6309 63.3611C90.6309 63.6205 90.8412 63.8308 91.1006 63.8308Z" fill="#7C47E1"/>
<path d="M91.1006 68.9978C91.36 68.9978 91.5703 68.7875 91.5703 68.5281C91.5703 68.2687 91.36 68.0583 91.1006 68.0583C90.8412 68.0583 90.6309 68.2687 90.6309 68.5281C90.6309 68.7875 90.8412 68.9978 91.1006 68.9978Z" fill="#7C47E1"/>
<path d="M91.1006 74.165C91.36 74.165 91.5703 73.9547 91.5703 73.6953C91.5703 73.4359 91.36 73.2256 91.1006 73.2256C90.8412 73.2256 90.6309 73.4359 90.6309 73.6953C90.6309 73.9547 90.8412 74.165 91.1006 74.165Z" fill="#7C47E1"/>
<path d="M91.1006 79.3318C91.36 79.3318 91.5703 79.1215 91.5703 78.8621C91.5703 78.6026 91.36 78.3923 91.1006 78.3923C90.8412 78.3923 90.6309 78.6026 90.6309 78.8621C90.6309 79.1215 90.8412 79.3318 91.1006 79.3318Z" fill="#7C47E1"/>
<path d="M91.1006 84.4988C91.36 84.4988 91.5703 84.2885 91.5703 84.0291C91.5703 83.7696 91.36 83.5593 91.1006 83.5593C90.8412 83.5593 90.6309 83.7696 90.6309 84.0291C90.6309 84.2885 90.8412 84.4988 91.1006 84.4988Z" fill="#7C47E1"/>
<path d="M91.1006 89.666C91.36 89.666 91.5703 89.4557 91.5703 89.1963C91.5703 88.9369 91.36 88.7266 91.1006 88.7266C90.8412 88.7266 90.6309 88.9369 90.6309 89.1963C90.6309 89.4557 90.8412 89.666 91.1006 89.666Z" fill="#7C47E1"/>
<path d="M91.1006 94.833C91.36 94.833 91.5703 94.6227 91.5703 94.3633C91.5703 94.1039 91.36 93.8936 91.1006 93.8936C90.8412 93.8936 90.6309 94.1039 90.6309 94.3633C90.6309 94.6227 90.8412 94.833 91.1006 94.833Z" fill="#7C47E1"/>
<path d="M91.1006 100C91.36 100 91.5703 99.7897 91.5703 99.5303C91.5703 99.2709 91.36 99.0605 91.1006 99.0605C90.8412 99.0605 90.6309 99.2709 90.6309 99.5303C90.6309 99.7897 90.8412 100 91.1006 100Z" fill="#7C47E1"/>
<path d="M96.7373 53.4968C96.9967 53.4968 97.207 53.2865 97.207 53.0271C97.207 52.7677 96.9967 52.5574 96.7373 52.5574C96.4779 52.5574 96.2676 52.7677 96.2676 53.0271C96.2676 53.2865 96.4779 53.4968 96.7373 53.4968Z" fill="#7C47E1"/>
<path d="M96.7373 58.6638C96.9967 58.6638 97.207 58.4535 97.207 58.1941C97.207 57.9347 96.9967 57.7244 96.7373 57.7244C96.4779 57.7244 96.2676 57.9347 96.2676 58.1941C96.2676 58.4535 96.4779 58.6638 96.7373 58.6638Z" fill="#7C47E1"/>
<path d="M96.7373 63.8308C96.9967 63.8308 97.207 63.6205 97.207 63.3611C97.207 63.1017 96.9967 62.8914 96.7373 62.8914C96.4779 62.8914 96.2676 63.1017 96.2676 63.3611C96.2676 63.6205 96.4779 63.8308 96.7373 63.8308Z" fill="#7C47E1"/>
<path d="M96.7373 68.9978C96.9967 68.9978 97.207 68.7875 97.207 68.5281C97.207 68.2687 96.9967 68.0583 96.7373 68.0583C96.4779 68.0583 96.2676 68.2687 96.2676 68.5281C96.2676 68.7875 96.4779 68.9978 96.7373 68.9978Z" fill="#7C47E1"/>
<path d="M96.7373 74.165C96.9967 74.165 97.207 73.9547 97.207 73.6953C97.207 73.4359 96.9967 73.2256 96.7373 73.2256C96.4779 73.2256 96.2676 73.4359 96.2676 73.6953C96.2676 73.9547 96.4779 74.165 96.7373 74.165Z" fill="#7C47E1"/>
<path d="M96.7373 79.3318C96.9967 79.3318 97.207 79.1215 97.207 78.8621C97.207 78.6026 96.9967 78.3923 96.7373 78.3923C96.4779 78.3923 96.2676 78.6026 96.2676 78.8621C96.2676 79.1215 96.4779 79.3318 96.7373 79.3318Z" fill="#7C47E1"/>
<path d="M96.7373 84.4988C96.9967 84.4988 97.207 84.2885 97.207 84.0291C97.207 83.7696 96.9967 83.5593 96.7373 83.5593C96.4779 83.5593 96.2676 83.7696 96.2676 84.0291C96.2676 84.2885 96.4779 84.4988 96.7373 84.4988Z" fill="#7C47E1"/>
<path d="M96.7373 89.666C96.9967 89.666 97.207 89.4557 97.207 89.1963C97.207 88.9369 96.9967 88.7266 96.7373 88.7266C96.4779 88.7266 96.2676 88.9369 96.2676 89.1963C96.2676 89.4557 96.4779 89.666 96.7373 89.666Z" fill="#7C47E1"/>
<path d="M96.7373 94.833C96.9967 94.833 97.207 94.6227 97.207 94.3633C97.207 94.1039 96.9967 93.8936 96.7373 93.8936C96.4779 93.8936 96.2676 94.1039 96.2676 94.3633C96.2676 94.6227 96.4779 94.833 96.7373 94.833Z" fill="#7C47E1"/>
<path d="M96.7373 100C96.9967 100 97.207 99.7897 97.207 99.5303C97.207 99.2709 96.9967 99.0605 96.7373 99.0605C96.4779 99.0605 96.2676 99.2709 96.2676 99.5303C96.2676 99.7897 96.4779 100 96.7373 100Z" fill="#7C47E1"/>
<path d="M101.904 53.4968C102.163 53.4968 102.374 53.2865 102.374 53.0271C102.374 52.7677 102.163 52.5574 101.904 52.5574C101.644 52.5574 101.434 52.7677 101.434 53.0271C101.434 53.2865 101.644 53.4968 101.904 53.4968Z" fill="#7C47E1"/>
<path d="M123.981 53.4968C124.241 53.4968 124.451 53.2865 124.451 53.0271C124.451 52.7677 124.241 52.5574 123.981 52.5574C123.722 52.5574 123.512 52.7677 123.512 53.0271C123.512 53.2865 123.722 53.4968 123.981 53.4968Z" fill="#7C47E1"/>
<path d="M101.904 58.6638C102.163 58.6638 102.374 58.4535 102.374 58.1941C102.374 57.9347 102.163 57.7244 101.904 57.7244C101.644 57.7244 101.434 57.9347 101.434 58.1941C101.434 58.4535 101.644 58.6638 101.904 58.6638Z" fill="#7C47E1"/>
<path d="M123.981 58.6638C124.241 58.6638 124.451 58.4535 124.451 58.1941C124.451 57.9347 124.241 57.7244 123.981 57.7244C123.722 57.7244 123.512 57.9347 123.512 58.1941C123.512 58.4535 123.722 58.6638 123.981 58.6638Z" fill="#7C47E1"/>
<path d="M101.904 63.8308C102.163 63.8308 102.374 63.6205 102.374 63.3611C102.374 63.1017 102.163 62.8914 101.904 62.8914C101.644 62.8914 101.434 63.1017 101.434 63.3611C101.434 63.6205 101.644 63.8308 101.904 63.8308Z" fill="#7C47E1"/>
<path d="M123.981 63.8308C124.241 63.8308 124.451 63.6205 124.451 63.3611C124.451 63.1017 124.241 62.8914 123.981 62.8914C123.722 62.8914 123.512 63.1017 123.512 63.3611C123.512 63.6205 123.722 63.8308 123.981 63.8308Z" fill="#7C47E1"/>
<path d="M101.904 68.9978C102.163 68.9978 102.374 68.7875 102.374 68.5281C102.374 68.2687 102.163 68.0583 101.904 68.0583C101.644 68.0583 101.434 68.2687 101.434 68.5281C101.434 68.7875 101.644 68.9978 101.904 68.9978Z" fill="#7C47E1"/>
<path d="M123.981 68.9978C124.241 68.9978 124.451 68.7875 124.451 68.5281C124.451 68.2687 124.241 68.0583 123.981 68.0583C123.722 68.0583 123.512 68.2687 123.512 68.5281C123.512 68.7875 123.722 68.9978 123.981 68.9978Z" fill="#7C47E1"/>
<path d="M101.904 74.165C102.163 74.165 102.374 73.9547 102.374 73.6953C102.374 73.4359 102.163 73.2256 101.904 73.2256C101.644 73.2256 101.434 73.4359 101.434 73.6953C101.434 73.9547 101.644 74.165 101.904 74.165Z" fill="#7C47E1"/>
<path d="M123.981 74.165C124.241 74.165 124.451 73.9547 124.451 73.6953C124.451 73.4359 124.241 73.2256 123.981 73.2256C123.722 73.2256 123.512 73.4359 123.512 73.6953C123.512 73.9547 123.722 74.165 123.981 74.165Z" fill="#7C47E1"/>
<path d="M101.904 79.3318C102.163 79.3318 102.374 79.1215 102.374 78.8621C102.374 78.6026 102.163 78.3923 101.904 78.3923C101.644 78.3923 101.434 78.6026 101.434 78.8621C101.434 79.1215 101.644 79.3318 101.904 79.3318Z" fill="#7C47E1"/>
<path d="M123.981 79.3318C124.241 79.3318 124.451 79.1215 124.451 78.8621C124.451 78.6026 124.241 78.3923 123.981 78.3923C123.722 78.3923 123.512 78.6026 123.512 78.8621C123.512 79.1215 123.722 79.3318 123.981 79.3318Z" fill="#7C47E1"/>
<path d="M101.904 84.4988C102.163 84.4988 102.374 84.2885 102.374 84.0291C102.374 83.7696 102.163 83.5593 101.904 83.5593C101.644 83.5593 101.434 83.7696 101.434 84.0291C101.434 84.2885 101.644 84.4988 101.904 84.4988Z" fill="#7C47E1"/>
<path d="M123.981 84.4988C124.241 84.4988 124.451 84.2885 124.451 84.0291C124.451 83.7696 124.241 83.5593 123.981 83.5593C123.722 83.5593 123.512 83.7696 123.512 84.0291C123.512 84.2885 123.722 84.4988 123.981 84.4988Z" fill="#7C47E1"/>
<path d="M101.904 89.666C102.163 89.666 102.374 89.4557 102.374 89.1963C102.374 88.9369 102.163 88.7266 101.904 88.7266C101.644 88.7266 101.434 88.9369 101.434 89.1963C101.434 89.4557 101.644 89.666 101.904 89.666Z" fill="#7C47E1"/>
<path d="M123.981 89.666C124.241 89.666 124.451 89.4557 124.451 89.1963C124.451 88.9369 124.241 88.7266 123.981 88.7266C123.722 88.7266 123.512 88.9369 123.512 89.1963C123.512 89.4557 123.722 89.666 123.981 89.666Z" fill="#7C47E1"/>
<path d="M101.904 94.833C102.163 94.833 102.374 94.6227 102.374 94.3633C102.374 94.1039 102.163 93.8936 101.904 93.8936C101.644 93.8936 101.434 94.1039 101.434 94.3633C101.434 94.6227 101.644 94.833 101.904 94.833Z" fill="#7C47E1"/>
<path d="M123.981 94.833C124.241 94.833 124.451 94.6227 124.451 94.3633C124.451 94.1039 124.241 93.8936 123.981 93.8936C123.722 93.8936 123.512 94.1039 123.512 94.3633C123.512 94.6227 123.722 94.833 123.981 94.833Z" fill="#7C47E1"/>
<path d="M101.904 100C102.163 100 102.374 99.7897 102.374 99.5303C102.374 99.2709 102.163 99.0605 101.904 99.0605C101.644 99.0605 101.434 99.2709 101.434 99.5303C101.434 99.7897 101.644 100 101.904 100Z" fill="#7C47E1"/>
<path d="M123.981 100C124.241 100 124.451 99.7897 124.451 99.5303C124.451 99.2709 124.241 99.0605 123.981 99.0605C123.722 99.0605 123.512 99.2709 123.512 99.5303C123.512 99.7897 123.722 100 123.981 100Z" fill="#7C47E1"/>
<path d="M107.541 53.4968C107.8 53.4968 108.01 53.2865 108.01 53.0271C108.01 52.7677 107.8 52.5574 107.541 52.5574C107.281 52.5574 107.071 52.7677 107.071 53.0271C107.071 53.2865 107.281 53.4968 107.541 53.4968Z" fill="#7C47E1"/>
<path d="M129.618 53.4968C129.878 53.4968 130.088 53.2865 130.088 53.0271C130.088 52.7677 129.878 52.5574 129.618 52.5574C129.359 52.5574 129.148 52.7677 129.148 53.0271C129.148 53.2865 129.359 53.4968 129.618 53.4968Z" fill="#7C47E1"/>
<path d="M107.541 58.6638C107.8 58.6638 108.01 58.4535 108.01 58.1941C108.01 57.9347 107.8 57.7244 107.541 57.7244C107.281 57.7244 107.071 57.9347 107.071 58.1941C107.071 58.4535 107.281 58.6638 107.541 58.6638Z" fill="#7C47E1"/>
<path d="M129.618 58.6638C129.878 58.6638 130.088 58.4535 130.088 58.1941C130.088 57.9347 129.878 57.7244 129.618 57.7244C129.359 57.7244 129.148 57.9347 129.148 58.1941C129.148 58.4535 129.359 58.6638 129.618 58.6638Z" fill="#7C47E1"/>
<path d="M107.541 63.8308C107.8 63.8308 108.01 63.6205 108.01 63.3611C108.01 63.1017 107.8 62.8914 107.541 62.8914C107.281 62.8914 107.071 63.1017 107.071 63.3611C107.071 63.6205 107.281 63.8308 107.541 63.8308Z" fill="#7C47E1"/>
<path d="M129.618 63.8308C129.878 63.8308 130.088 63.6205 130.088 63.3611C130.088 63.1017 129.878 62.8914 129.618 62.8914C129.359 62.8914 129.148 63.1017 129.148 63.3611C129.148 63.6205 129.359 63.8308 129.618 63.8308Z" fill="#7C47E1"/>
<path d="M107.541 68.9978C107.8 68.9978 108.01 68.7875 108.01 68.5281C108.01 68.2687 107.8 68.0583 107.541 68.0583C107.281 68.0583 107.071 68.2687 107.071 68.5281C107.071 68.7875 107.281 68.9978 107.541 68.9978Z" fill="#7C47E1"/>
<path d="M129.618 68.9978C129.878 68.9978 130.088 68.7875 130.088 68.5281C130.088 68.2687 129.878 68.0583 129.618 68.0583C129.359 68.0583 129.148 68.2687 129.148 68.5281C129.148 68.7875 129.359 68.9978 129.618 68.9978Z" fill="#7C47E1"/>
<path d="M107.541 74.165C107.8 74.165 108.01 73.9547 108.01 73.6953C108.01 73.4359 107.8 73.2256 107.541 73.2256C107.281 73.2256 107.071 73.4359 107.071 73.6953C107.071 73.9547 107.281 74.165 107.541 74.165Z" fill="#7C47E1"/>
<path d="M129.618 74.165C129.878 74.165 130.088 73.9547 130.088 73.6953C130.088 73.4359 129.878 73.2256 129.618 73.2256C129.359 73.2256 129.148 73.4359 129.148 73.6953C129.148 73.9547 129.359 74.165 129.618 74.165Z" fill="#7C47E1"/>
<path d="M107.541 79.3318C107.8 79.3318 108.01 79.1215 108.01 78.8621C108.01 78.6026 107.8 78.3923 107.541 78.3923C107.281 78.3923 107.071 78.6026 107.071 78.8621C107.071 79.1215 107.281 79.3318 107.541 79.3318Z" fill="#7C47E1"/>
<path d="M129.618 79.3318C129.878 79.3318 130.088 79.1215 130.088 78.8621C130.088 78.6026 129.878 78.3923 129.618 78.3923C129.359 78.3923 129.148 78.6026 129.148 78.8621C129.148 79.1215 129.359 79.3318 129.618 79.3318Z" fill="#7C47E1"/>
<path d="M107.541 84.4988C107.8 84.4988 108.01 84.2885 108.01 84.0291C108.01 83.7696 107.8 83.5593 107.541 83.5593C107.281 83.5593 107.071 83.7696 107.071 84.0291C107.071 84.2885 107.281 84.4988 107.541 84.4988Z" fill="#7C47E1"/>
<path d="M129.618 84.4988C129.878 84.4988 130.088 84.2885 130.088 84.0291C130.088 83.7696 129.878 83.5593 129.618 83.5593C129.359 83.5593 129.148 83.7696 129.148 84.0291C129.148 84.2885 129.359 84.4988 129.618 84.4988Z" fill="#7C47E1"/>
<path d="M107.541 89.666C107.8 89.666 108.01 89.4557 108.01 89.1963C108.01 88.9369 107.8 88.7266 107.541 88.7266C107.281 88.7266 107.071 88.9369 107.071 89.1963C107.071 89.4557 107.281 89.666 107.541 89.666Z" fill="#7C47E1"/>
<path d="M129.618 89.666C129.878 89.666 130.088 89.4557 130.088 89.1963C130.088 88.9369 129.878 88.7266 129.618 88.7266C129.359 88.7266 129.148 88.9369 129.148 89.1963C129.148 89.4557 129.359 89.666 129.618 89.666Z" fill="#7C47E1"/>
<path d="M107.541 94.833C107.8 94.833 108.01 94.6227 108.01 94.3633C108.01 94.1039 107.8 93.8936 107.541 93.8936C107.281 93.8936 107.071 94.1039 107.071 94.3633C107.071 94.6227 107.281 94.833 107.541 94.833Z" fill="#7C47E1"/>
<path d="M129.618 94.833C129.878 94.833 130.088 94.6227 130.088 94.3633C130.088 94.1039 129.878 93.8936 129.618 93.8936C129.359 93.8936 129.148 94.1039 129.148 94.3633C129.148 94.6227 129.359 94.833 129.618 94.833Z" fill="#7C47E1"/>
<path d="M107.541 100C107.8 100 108.01 99.7897 108.01 99.5303C108.01 99.2709 107.8 99.0605 107.541 99.0605C107.281 99.0605 107.071 99.2709 107.071 99.5303C107.071 99.7897 107.281 100 107.541 100Z" fill="#7C47E1"/>
<path d="M129.618 100C129.878 100 130.088 99.7897 130.088 99.5303C130.088 99.2709 129.878 99.0605 129.618 99.0605C129.359 99.0605 129.148 99.2709 129.148 99.5303C129.148 99.7897 129.359 100 129.618 100Z" fill="#7C47E1"/>
<path d="M113.178 53.4968C113.437 53.4968 113.647 53.2865 113.647 53.0271C113.647 52.7677 113.437 52.5574 113.178 52.5574C112.918 52.5574 112.708 52.7677 112.708 53.0271C112.708 53.2865 112.918 53.4968 113.178 53.4968Z" fill="#7C47E1"/>
<path d="M113.178 58.6638C113.437 58.6638 113.647 58.4535 113.647 58.1941C113.647 57.9347 113.437 57.7244 113.178 57.7244C112.918 57.7244 112.708 57.9347 112.708 58.1941C112.708 58.4535 112.918 58.6638 113.178 58.6638Z" fill="#7C47E1"/>
<path d="M113.178 63.8308C113.437 63.8308 113.647 63.6205 113.647 63.3611C113.647 63.1017 113.437 62.8914 113.178 62.8914C112.918 62.8914 112.708 63.1017 112.708 63.3611C112.708 63.6205 112.918 63.8308 113.178 63.8308Z" fill="#7C47E1"/>
<path d="M113.178 68.9978C113.437 68.9978 113.647 68.7875 113.647 68.5281C113.647 68.2687 113.437 68.0583 113.178 68.0583C112.918 68.0583 112.708 68.2687 112.708 68.5281C112.708 68.7875 112.918 68.9978 113.178 68.9978Z" fill="#7C47E1"/>
<path d="M113.178 74.165C113.437 74.165 113.647 73.9547 113.647 73.6953C113.647 73.4359 113.437 73.2256 113.178 73.2256C112.918 73.2256 112.708 73.4359 112.708 73.6953C112.708 73.9547 112.918 74.165 113.178 74.165Z" fill="#7C47E1"/>
<path d="M113.178 79.3318C113.437 79.3318 113.647 79.1215 113.647 78.8621C113.647 78.6026 113.437 78.3923 113.178 78.3923C112.918 78.3923 112.708 78.6026 112.708 78.8621C112.708 79.1215 112.918 79.3318 113.178 79.3318Z" fill="#7C47E1"/>
<path d="M113.178 84.4988C113.437 84.4988 113.647 84.2885 113.647 84.0291C113.647 83.7696 113.437 83.5593 113.178 83.5593C112.918 83.5593 112.708 83.7696 112.708 84.0291C112.708 84.2885 112.918 84.4988 113.178 84.4988Z" fill="#7C47E1"/>
<path d="M113.178 89.666C113.437 89.666 113.647 89.4557 113.647 89.1963C113.647 88.9369 113.437 88.7266 113.178 88.7266C112.918 88.7266 112.708 88.9369 112.708 89.1963C112.708 89.4557 112.918 89.666 113.178 89.666Z" fill="#7C47E1"/>
<path d="M113.178 94.833C113.437 94.833 113.647 94.6227 113.647 94.3633C113.647 94.1039 113.437 93.8936 113.178 93.8936C112.918 93.8936 112.708 94.1039 112.708 94.3633C112.708 94.6227 112.918 94.833 113.178 94.833Z" fill="#7C47E1"/>
<path d="M113.178 100C113.437 100 113.647 99.7897 113.647 99.5303C113.647 99.2709 113.437 99.0605 113.178 99.0605C112.918 99.0605 112.708 99.2709 112.708 99.5303C112.708 99.7897 112.918 100 113.178 100Z" fill="#7C47E1"/>
<path d="M118.345 53.4968C118.604 53.4968 118.814 53.2865 118.814 53.0271C118.814 52.7677 118.604 52.5574 118.345 52.5574C118.085 52.5574 117.875 52.7677 117.875 53.0271C117.875 53.2865 118.085 53.4968 118.345 53.4968Z" fill="#7C47E1"/>
<path d="M118.345 58.6638C118.604 58.6638 118.814 58.4535 118.814 58.1941C118.814 57.9347 118.604 57.7244 118.345 57.7244C118.085 57.7244 117.875 57.9347 117.875 58.1941C117.875 58.4535 118.085 58.6638 118.345 58.6638Z" fill="#7C47E1"/>
<path d="M118.345 63.8308C118.604 63.8308 118.814 63.6205 118.814 63.3611C118.814 63.1017 118.604 62.8914 118.345 62.8914C118.085 62.8914 117.875 63.1017 117.875 63.3611C117.875 63.6205 118.085 63.8308 118.345 63.8308Z" fill="#7C47E1"/>
<path d="M118.345 68.9978C118.604 68.9978 118.814 68.7875 118.814 68.5281C118.814 68.2687 118.604 68.0583 118.345 68.0583C118.085 68.0583 117.875 68.2687 117.875 68.5281C117.875 68.7875 118.085 68.9978 118.345 68.9978Z" fill="#7C47E1"/>
<path d="M118.345 74.165C118.604 74.165 118.814 73.9547 118.814 73.6953C118.814 73.4359 118.604 73.2256 118.345 73.2256C118.085 73.2256 117.875 73.4359 117.875 73.6953C117.875 73.9547 118.085 74.165 118.345 74.165Z" fill="#7C47E1"/>
<path d="M118.345 79.3318C118.604 79.3318 118.814 79.1215 118.814 78.8621C118.814 78.6026 118.604 78.3923 118.345 78.3923C118.085 78.3923 117.875 78.6026 117.875 78.8621C117.875 79.1215 118.085 79.3318 118.345 79.3318Z" fill="#7C47E1"/>
<path d="M118.345 84.4988C118.604 84.4988 118.814 84.2885 118.814 84.0291C118.814 83.7696 118.604 83.5593 118.345 83.5593C118.085 83.5593 117.875 83.7696 117.875 84.0291C117.875 84.2885 118.085 84.4988 118.345 84.4988Z" fill="#7C47E1"/>
<path d="M118.345 89.666C118.604 89.666 118.814 89.4557 118.814 89.1963C118.814 88.9369 118.604 88.7266 118.345 88.7266C118.085 88.7266 117.875 88.9369 117.875 89.1963C117.875 89.4557 118.085 89.666 118.345 89.666Z" fill="#7C47E1"/>
<path d="M118.345 94.833C118.604 94.833 118.814 94.6227 118.814 94.3633C118.814 94.1039 118.604 93.8936 118.345 93.8936C118.085 93.8936 117.875 94.1039 117.875 94.3633C117.875 94.6227 118.085 94.833 118.345 94.833Z" fill="#7C47E1"/>
<path d="M118.345 100C118.604 100 118.814 99.7897 118.814 99.5303C118.814 99.2709 118.604 99.0605 118.345 99.0605C118.085 99.0605 117.875 99.2709 117.875 99.5303C117.875 99.7897 118.085 100 118.345 100Z" fill="#7C47E1"/>
<path d="M86.0028 79.8015H35.1334C31.8074 79.8015 29.0962 77.1143 29.0962 73.8177L29.0962 26.1296C29.0962 22.8329 31.8074 20.1458 35.1334 20.1458H86.0028C89.3289 20.1458 92.0401 22.8329 92.0401 26.1296V73.8177C92.0401 77.1143 89.3289 79.8015 86.0028 79.8015Z" fill="#7C47E1"/>
<path d="M40.5566 21.9684L42.1644 20.3485C42.2766 20.2355 42.2766 20.0848 42.1644 19.9718L40.5566 18.3519C40.4444 18.2388 40.2949 18.2388 40.1827 18.3519L38.5749 19.9718C38.4627 20.0848 38.4627 20.2355 38.5749 20.3485L40.1827 21.9684C40.2575 22.0438 40.4444 22.0438 40.5566 21.9684Z" fill="#0091DD"/>
<path d="M78.4175 53.0269C79.1958 53.0269 79.8267 52.396 79.8267 51.6177C79.8267 50.8394 79.1958 50.2085 78.4175 50.2085C77.6392 50.2085 77.0083 50.8394 77.0083 51.6177C77.0083 52.396 77.6392 53.0269 78.4175 53.0269Z" fill="#FFA52F"/>
<path d="M56.8101 51.1482C57.3289 51.1482 57.7495 50.7276 57.7495 50.2087C57.7495 49.6899 57.3289 49.2693 56.8101 49.2693C56.2912 49.2693 55.8706 49.6899 55.8706 50.2087C55.8706 50.7276 56.2912 51.1482 56.8101 51.1482Z" fill="#A892F7"/>
<path d="M58.6895 60.089C58.6895 60.089 65.2031 49.8995 67.9472 51.8708C70.6912 53.8421 66.7276 73.6379 66.7276 73.6379C66.7276 73.6379 73.9896 62.1435 76.9555 63.1153C79.8935 64.1148 69.4994 79.8015 69.4994 79.8015H59.4656L58.6895 60.089Z" fill="#A892F7"/>
<path d="M64.8649 57.1828C64.1969 59.1047 58.2197 79.3318 58.2197 79.3318L59.1211 79.5967C59.1211 79.5967 64.8011 59.2385 65.3764 57.3284C65.9516 55.4182 66.6909 52.9352 66.6909 52.9352C66.6909 52.9352 65.5329 55.2608 64.8649 57.1828Z" fill="#9364ED"/>
<path d="M26.3311 58.1703C29.7742 52.3797 38.6875 49.9855 38.6875 49.9855C50.1277 47.0066 54.0429 53.716 60.5682 62.7917L51.5716 70.0857L55.9588 79.8018H33.5506L31.0238 72.8418L21.1108 70.1692C21.1386 70.1692 22.8324 64.1002 26.3311 58.1703Z" fill="#FFC800"/>
<path d="M29.3878 49.1976C29.3878 49.1976 31.2149 53.8456 31.8333 54.9937C32.4517 56.1417 36.0497 57.1497 36.6119 50.7936C34.8691 49.5896 34.0821 48.0495 33.4918 46.3415C32.3393 43.0095 31.7771 39.6774 29.7532 38.5574C27.111 37.1014 23.4848 38.3334 24.6092 43.9335C25.8179 50.0096 29.3878 49.1976 29.3878 49.1976Z" fill="#FF92AC"/>
<path d="M29.5664 49.1148C29.5664 49.1148 31.6035 48.8624 32.3848 46.4507C32.3848 46.4507 32.3569 49.1429 30.0129 50.2085L29.5664 49.1148Z" fill="#343758"/>
<path d="M26.7476 44.9646L26.8905 43.6323L27.0743 43.6836L26.9518 44.7853L27.2173 44.8109L27.1969 45.0415L26.7476 44.9646Z" fill="#343758"/>
<path d="M28.6619 45.0813C28.2658 45.3073 27.6057 45.5897 26.576 45.5897C26.3647 45.5897 26.2063 45.844 26.3119 46.0417C26.576 46.6349 27.1569 47.5388 28.1074 47.3693C29.0579 47.1999 29.1371 46.0417 29.0843 45.3355C29.0843 45.1095 28.8467 44.9683 28.6619 45.0813Z" fill="#343758"/>
<path d="M28.1121 43.4729C28.2275 43.4138 28.2728 43.2725 28.2131 43.1573C28.1535 43.0421 28.0115 42.9967 27.8961 43.0558C27.7806 43.1149 27.7354 43.2562 27.795 43.3714C27.8547 43.4866 27.9966 43.532 28.1121 43.4729Z" fill="#343758"/>
<path d="M25.7634 43.9424C25.8789 43.8833 25.9241 43.742 25.8645 43.6268C25.8048 43.5116 25.6629 43.4662 25.5474 43.5253C25.432 43.5844 25.3867 43.7257 25.4464 43.8409C25.506 43.9561 25.648 44.0015 25.7634 43.9424Z" fill="#343758"/>
<path d="M28.895 41.9107C28.895 41.9107 28.2219 41.6507 27.7731 41.7993C27.3243 41.9478 28.7668 42.3007 28.9591 42.2078C29.1514 42.115 29.1514 41.985 28.895 41.9107Z" fill="#343758"/>
<path d="M25.7005 41.8126C25.7005 41.8126 24.8376 42.1317 24.8695 42.5668C24.9015 43.0019 26.3397 42.1897 26.2758 41.9576C26.2119 41.7545 25.9881 41.6965 25.7005 41.8126Z" fill="#343758"/>
<path d="M27.687 47.2836C27.687 47.2836 28.1418 46.8608 28.824 46.9276C29.6687 46.9943 28.3367 47.6397 27.687 47.2836Z" fill="#F75276"/>
<path d="M26.7476 46.089C26.7476 46.089 27.128 46.6665 27.9143 46.3625C28.7006 46.0586 28.6245 45.5115 28.6245 45.5115C28.6245 45.5115 27.7621 46.0586 26.7476 46.089Z" fill="white"/>
<path d="M34.2632 79.69C34.0612 79.7179 33.657 79.8016 33.657 79.8016C33.657 79.8016 30.7127 70.9279 29.0962 65.7097C30.857 70.8721 32.3869 74.5555 34.2632 79.69Z" fill="#231F20"/>
<path d="M32.3843 42.3206C32.3843 42.3206 32.6749 41.6343 33.2298 41.7716C33.7846 41.9088 34.2602 44.4894 32.9656 44.5718L32.3843 42.3206Z" fill="#FF92AC"/>
<path d="M32.3258 42.1552C32.3258 42.1552 32.41 43.6322 32.2134 43.6322C32.0169 43.6595 31.1465 41.1431 29.6303 40.514C28.6476 40.1311 26.8506 40.5687 25.3344 41.2525C23.6778 41.991 21.2069 41.3893 21.6281 38.7909C21.8527 37.4506 23.2285 36.4386 25.9521 35.8915C28.9283 35.2624 31.68 35.8095 32.6346 37.9703C33.14 39.1191 32.6065 40.432 32.6627 41.6628C32.6908 41.6628 32.3819 41.8543 32.3258 42.1552Z" fill="#343758"/>
<path d="M51.6431 70.48C51.6431 70.48 52.7163 72.8755 53.3242 75.3559C53.9321 77.8363 53.9058 80.2714 53.9058 80.2714H64.3258C64.3258 80.2714 63.3201 70.2275 59.8561 63.8308L51.6431 70.48Z" fill="#FF92AC"/>
<path d="M45.0669 61.9519L51.7467 70.4804C53.4219 74.0786 53.9262 76.2207 53.9918 80.2714H51.7467C51.7467 80.2714 48.3375 66.8053 45.0669 61.9519Z" fill="#231F20"/>
<path d="M21.0757 70.3304L20.7976 71.7672L7.86687 56.6254C7.86687 56.6254 9.28508 51.1821 8.6733 50.9334C8.03372 50.6847 7.6166 52.8399 7.6166 52.8399C7.6166 52.8399 6.11496 47.4242 5.39195 47.4519C4.66895 47.4795 5.53099 51.4031 5.53099 51.4031C5.53099 51.4031 3.30635 47.2032 2.86142 47.3966C2.41649 47.59 3.8069 51.7347 3.8069 51.7347C3.8069 51.7347 1.86033 49.0821 1.49883 49.3032C1.13733 49.5242 2.55553 52.9505 2.55553 52.9505C2.55553 52.9505 1.27637 51.2926 0.942669 51.4308C0.608973 51.5965 3.1395 56.9846 4.22402 57.9793C4.89141 59.7201 14.2338 83.5525 21.881 83.0828C27.2202 82.7512 30.9753 72.983 30.9753 72.983L21.0757 70.3304Z" fill="#FF92AC"/>
<path d="M80.9275 34.2377H64.1645C62.6946 34.2377 61.5073 33.0819 61.5073 31.651V16.626C61.5073 15.1951 62.6946 14.0393 64.1645 14.0393H80.9275C82.3974 14.0393 83.5847 15.1951 83.5847 16.626V31.651C83.5847 33.0819 82.3974 34.2377 80.9275 34.2377Z" fill="#9364ED"/>
<path d="M67.3794 25.3128C68.028 25.3128 68.5537 24.787 68.5537 24.1384C68.5537 23.4899 68.028 22.9641 67.3794 22.9641C66.7308 22.9641 66.2051 23.4899 66.2051 24.1384C66.2051 24.787 66.7308 25.3128 67.3794 25.3128Z" fill="white"/>
<path d="M72.5459 25.3128C73.1945 25.3128 73.7202 24.787 73.7202 24.1384C73.7202 23.4899 73.1945 22.9641 72.5459 22.9641C71.8973 22.9641 71.3716 23.4899 71.3716 24.1384C71.3716 24.787 71.8973 25.3128 72.5459 25.3128Z" fill="white"/>
<path d="M77.7134 25.3128C78.3619 25.3128 78.8877 24.787 78.8877 24.1384C78.8877 23.4899 78.3619 22.9641 77.7134 22.9641C77.0648 22.9641 76.5391 23.4899 76.5391 24.1384C76.5391 24.787 77.0648 25.3128 77.7134 25.3128Z" fill="white"/>
</svg>
