<svg width="101" height="100" viewBox="0 0 101 100" fill="none" xmlns="http://www.w3.org/2000/svg">
<g clip-path="url(#clip0)">
<path d="M50.8857 100C78.5 100 100.886 77.6142 100.886 50C100.886 22.3858 78.5 0 50.8857 0C23.2715 0 0.885742 22.3858 0.885742 50C0.885742 77.6142 23.2715 100 50.8857 100Z" fill="#F1F3F8"/>
<path d="M51.6806 72.5551C64.2537 72.5551 74.4462 62.3626 74.4462 49.7895C74.4462 37.2164 64.2537 27.0239 51.6806 27.0239C39.1075 27.0239 28.915 37.2164 28.915 49.7895C28.915 62.3626 39.1075 72.5551 51.6806 72.5551Z" fill="#E4F6FE"/>
<path d="M30.7706 28.8792C19.2536 40.3962 19.2536 59.1601 30.7706 70.6771C42.2875 82.1941 61.0515 82.1941 72.5684 70.6771C84.0854 59.1601 84.0854 40.3962 72.5684 28.8792C61.0515 17.3622 42.3119 17.3622 30.7706 28.8792ZM71.446 65.9922L67.0539 65.6018L67.42 69.8963C57.3914 77.7532 42.8244 77.0944 33.601 67.871C24.28 58.5501 23.67 43.739 31.8198 33.7105L35.9434 34.0765L35.5774 29.9528C44.8984 22.3887 58.3186 22.3643 67.664 29.8796L67.2736 34.3205L71.69 33.9301C79.1321 43.2754 79.0589 56.6957 71.446 65.9922Z" fill="#16C2F8"/>
<path d="M51.5351 66.4321C50.5103 67.2861 49.2903 68.3353 48.0947 69.0429C46.8991 69.7749 45.3618 69.7261 44.2394 68.8477C42.751 67.7009 40.3597 65.7489 38.1149 63.504C35.8701 61.2592 33.918 58.8435 32.7712 57.3795C31.8928 56.2571 31.844 54.7443 32.576 53.5243C33.308 52.3286 34.3572 51.1086 35.1869 50.0838C36.0409 49.0346 36.0165 47.4974 35.1137 46.4725C32.6248 43.5689 29.6968 41.1289 26.3295 39.0792C25.0851 38.3228 23.4991 38.6644 22.6451 39.8112C21.4006 41.4949 20.327 43.2273 19.3754 45.0329C17.4234 48.7662 17.6186 53.2559 19.8634 56.7939C22.1082 60.332 25.6707 65.2365 30.868 70.4825C30.9168 70.5313 30.9412 70.5557 30.99 70.6045C31.0388 70.6533 31.0632 70.6777 31.112 70.7265C36.3581 75.9238 41.2626 79.4863 44.8006 81.7311C48.3631 83.976 52.8284 84.1712 56.5616 82.2191C58.3672 81.2919 60.0997 80.1939 61.7833 78.9495C62.9545 78.0955 63.2717 76.485 62.5153 75.265C60.4657 71.8978 58.0256 68.9697 55.122 66.4809C54.1216 65.6025 52.6087 65.5537 51.5351 66.4321Z" fill="#7C47E1"/>
<path d="M41.7997 52.7186L46.631 48.4974C47.729 47.5213 48.339 46.8381 48.339 45.8621C48.339 44.7641 47.5582 44.1053 46.4846 44.1053C45.3866 44.1053 44.6545 44.7885 44.6545 45.9841H41.6045C41.6045 43.3001 43.5565 41.592 46.4846 41.592C49.4858 41.592 51.4379 43.2025 51.4379 45.5937C51.4379 47.1065 50.6815 48.3753 47.8266 50.8886L46.2406 52.3526V52.4258H51.6087V55.0123H41.7997V52.7186Z" fill="#0091DD"/>
<path d="M52.9736 50.3268L58.3905 41.7866H62.4166V50.3024H64.0026V52.8156H62.4166V55.0116H59.3665V52.8156H52.9736V50.3268ZM59.4397 45.1783H59.3177L56.1457 50.2048V50.3024H59.4153V45.1783H59.4397Z" fill="#0091DD"/>
</g>
<defs>
<clipPath id="clip0">
<rect width="100" height="100" fill="white" transform="translate(0.885742)"/>
</clipPath>
</defs>
</svg>
