<svg fill="none" height="27" viewBox="0 0 27 27" width="27" xmlns="http://www.w3.org/2000/svg"><rect fill="#00ffa3" height="26" rx="6.406" width="26" x=".185" y=".453"/><g fill="#161e2e"><path d="m5.94577 20.3729c.54278-.8001 4.07793-5.6925 4.75853-6.6309.097-.1339.3179-.251.5192-.0738.0098.0088.188.1722.1973.1806.9079.805 1.5649 1.3517 2.4718 2.1578.0423.0374.0851.0738.1289.1102.0925.0768.2313.0586.2987-.0403.0246-.036.0463-.0724.0709-.1063.743-1.0246 1.4836-2.0511 2.2247-3.0771.9252-1.2804 1.8498-2.5608 2.7759-3.84028l.0015-.00197c.091-.12549.2815-.1058.3479.03395.003.00591.0054.01181.0084.01772.2701.53638.4335 1.10918.5615 1.69278.2096.9557.1614 1.9098-.0138 2.8665-.2844 1.5515-.968 2.9072-1.9812 4.1045-.993 1.1741-2.2085 2.0412-3.6484 2.5791-.8375.3129-1.7065.4906-2.6071.4901-1.8202-.001-3.64048.0015-5.46074.001-.09399 0-.18847-.0045-.28098-.0192-.1619-.0251-.29132-.0935-.37399-.2175-.04626-.0684-.04577-.1585.00098-.2269z"/><path d="m13.8042 13.146c-.0192.0344-.0984.156-.2579.0384-.0856-.0635-.0556-.036-.1245-.0945-.9138-.7825-1.6952-1.4556-2.6081-2.24-.2578-.2328-.5098-.126-.6353.1574-.59295 1.2234-1.09586 2.2445-1.68785 3.4683-.80605 1.6662-1.61259 3.3325-2.42012 4.9982-.07381.1683-.17567.126-.16485.0492.11761-.807.23621-1.6141.35529-2.4206.17863-1.2105.35726-2.4206.53589-3.6312.17863-1.2105.35628-2.4206.53442-3.63111.1614-1.09638.32232-2.19326.48471-3.28964.01968-.13434.03789-.26967.07037-.40155.06298-.25441.21012-.43009.48372-.46946.10285-.01476.20718-.02805.31101-.02805 1.79961-.00147 3.59871-.01033 5.39831.00246 1.0496.00738 2.0535.23522 2.9909.7219.0064.00345.0128.00689.0192.01034-.0586.12893-2.1667 4.45151-3.2852 6.75991z"/></g></svg>