<svg fill="none" height="27" viewBox="0 0 28 27" width="28" xmlns="http://www.w3.org/2000/svg"><rect fill="#293887" height="26" rx="6.406" width="26.692" x=".721" y=".027"/><path d="m13.413 7.94782c.8848-.24667 1.8547-.10978 2.6707.28846 1.1438.63669 1.9855 1.79262 2.1575 3.07332.0335.5128.0468 1.0332-.0287 1.5433-.1165.5399-.3154 1.0668-.6 1.5432-.7474 1.0536-2.0171 1.788-3.3463 1.7814-.7827.0037-1.4448-.4311-2.1356-.7213-.042 1.1139-.0163 2.23-.0123 3.3452-.7912-.0224-1.5825-.0011-2.37358-.014-.03823-3.5667.00574-7.1334-.0228-10.70007.73858-.00455 1.47618 0 2.21378-.00559.0162.18146.0336.36205.0526.54351.4616-.24929.9029-.55645 1.4247-.67743zm-.1452 2.21148c-.5666.2848-1.1696.7557-1.2145 1.4241-.0765.5612-.0106 1.1757.3535 1.6382.4654.6096 1.3158.8367 2.062.7009.4683-.0829.8313-.4206 1.1303-.7586.4606-.5279.4491-1.2994.261-1.9303-.3372-1.0073-1.6244-1.42324-2.5923-1.0743z" fill="#fff"/><g fill="#22beee"><path d="m20.725 9.82808c1.1628-.29317 2.4432.56592 2.6334 1.70882.1434.6962-.1242 1.4334-.6527 1.9145-.8762.9542-2.6115.7066-3.3129-.3285-.5828-.7968-.493-1.9863.2179-2.6824.2905-.3165.6994-.50263 1.1143-.61242z"/><path d="m6.17473 9.82808c1.16281-.29317 2.44317.56592 2.63341 1.70882.1434.6962-.12419 1.4334-.65274 1.9145-.87619.9542-2.61152.7066-3.3129-.3285-.58275-.7968-.49302-1.9863.21788-2.6824.29056-.3165.69941-.50263 1.11435-.61242z"/></g></svg>