<svg fill="none" height="27" viewBox="0 0 27 27" width="27" xmlns="http://www.w3.org/2000/svg" xmlns:xlink="http://www.w3.org/1999/xlink"><linearGradient id="a" gradientUnits="userSpaceOnUse" x1="7.909" x2="18.211" y1="18.005" y2="7.429"><stop offset="0" stop-color="#44e08d"/><stop offset="1" stop-color="#69f"/></linearGradient><rect fill="#eaecf6" height="26" rx="6.406" width="26.692" x=".073" y=".027"/><path d="m18.3449 5.22165h-10.32622c-1.4438 0-2.60511 1.1312-2.60511 2.53756v10.08909c0 1.4064 1.16131 2.5376 2.60511 2.5376h10.32622c1.4438 0 2.6051-1.1312 2.6051-2.5376v-10.08909c.0314-1.40636-1.1299-2.53756-2.6051-2.53756zm1.8518 12.62665c0 .9783-.816 1.8038-1.8518 1.8038h-10.32622c-1.00438 0-1.85182-.7949-1.85182-1.8038v-10.08909c0-.97834.81605-1.80381 1.85182-1.80381h10.32622c1.0044 0 1.8518.7949 1.8518 1.80381z" fill="#69f"/><path d="m19.4439 9.74611c0 .88659-.3452 1.58979-.9416 2.14009-.4394.428-.973.6726-1.6007.7644-.2511.0305-.5336.0305-.7847.0611-.5335.0306-1.0985.1223-1.6007.2752-.6905.214-1.0671.6726-1.2241 1.3452-.1255.5197-.1883 1.0395-.2197 1.5592-.0628.8255-.3452 1.5286-.973 2.1095-.4708.4281-1.0043.6726-1.6007.7338-.81605.0917-1.56933-.0612-2.22845-.5503-.65913-.4892-1.03577-1.1618-1.16132-1.9567-.25109-1.3758.69051-2.8433 2.25985-3.2102.2511-.0611.53358-.0917.78472-.0917.6277-.0306 1.224-.0917 1.8204-.2446.6905-.1528 1.0985-.5809 1.2868-1.2535.157-.4891.2198-1.0089.1884-1.52862-.0942-1.46751.973-2.75157 2.4481-3.02673 1.5066-.27516 2.9504.58089 3.3898 2.01782.0314.12229.0628.24458.0942.39745.0314.18344.0627.36687.0627.45859z" fill="url(#a)"/><path d="m16.8384 18.8005c-1.4124 0-2.5738-1.1312-2.5738-2.507s1.1614-2.5376 2.6052-2.507c1.4124 0 2.5737 1.1006 2.5737 2.507 0 1.3758-1.1613 2.507-2.6051 2.507z" fill="#ffc840"/><path d="m9.61986 11.8865c-1.41241 0-2.57372-1.1312-2.57372-2.50695 0-1.37579 1.16131-2.50699 2.57372-2.50699 1.44374 0 2.57374 1.1312 2.57374 2.50699 0 1.37575-1.1613 2.50695-2.57374 2.50695z" fill="#f45d5d"/></svg>