<svg fill="none" height="27" viewBox="0 0 27 27" width="27" xmlns="http://www.w3.org/2000/svg"><rect fill="#f47920" height="26" rx="6.406" width="26" x=".759" y=".453"/><circle cx="13.74" cy="13.473" fill="#671773" r="10.9"/><g clip-rule="evenodd" fill="#f47920" fill-rule="evenodd"><path d="m8.18872 13.909h2.29558l-1.1489-2.7316z"/><path d="m21.3153 13.7691c0 2.507-1.4082 3.7365-3.6318 3.7365s-3.5818-1.2404-3.5818-3.6711v-3.89783c.0115-.23368.1123-.45401.2818-.61535.1694-.16134.3944-.25133.6284-.25133.2339 0 .4589.08999.6284.25133.1694.16134.2703.38167.2817.61535v3.84333c0 1.3494.6736 2.047 1.7854 2.047s1.7876-.6736 1.7876-1.986v-3.90433c.0115-.23368.1124-.45401.2818-.61535s.3944-.25133.6284-.25133.4589.08999.6284.25133c.1694.16134.2703.38167.2817.61535zm-8.72 3.6777c-.1922-.0012-.3793-.0621-.5355-.1741-.1562-.1121-.2737-.2699-.3365-.4516l-.5559-1.308h-3.65363l-.57988 1.3734c-.06615.1683-.18178.3126-.33163.4138-.14985.1011-.32686.1545-.50767.153-.11141.0003-.22177-.0216-.32459-.0645-.10283-.0429-.19606-.1059-.27422-.1853-.07817-.0794-.13971-.1735-.181-.277-.0413-.1035-.06152-.2142-.05949-.3256.00783-.1354.04423-.2677.10682-.388l2.88414-6.52039c.08268-.21495.22911-.39948.41965-.52884.19054-.12937.41607-.19738.64637-.19492h.10682c.22951-.00381.45453.06379.64391.19345.1894.12966.3339.31497.4134.53031l2.8798 6.51379c.0584.1136.0911.2387.0959.3663 0 .2313-.0919.4531-.2554.6166-.1636.1635-.3853.2554-.6166.2554zm1.1445-14.87417c-2.1558 0-4.26317.63928-6.05567 1.83698-1.79249 1.19771-3.18957 2.90006-4.01457 4.89177-.82499 1.99172-1.04085 4.18332-.62027 6.29772s1.4587 4.0566 2.98309 5.581c1.5244 1.5244 3.46659 2.5625 5.58102 2.9831 2.1144.4206 4.306.2047 6.2977-.6203s3.6941-2.2221 4.8918-4.0146 1.8369-3.8999 1.8369-6.0557c0-1.4319-.2821-2.8499-.8303-4.17273-.5482-1.32287-1.3517-2.52477-2.3645-3.53701-1.0129-1.01225-2.2152-1.815-3.5384-2.36239s-2.7413-.8287-4.1733-.82784z"/></g></svg>