<svg fill="none" height="27" viewBox="0 0 27 27" width="27" xmlns="http://www.w3.org/2000/svg" xmlns:xlink="http://www.w3.org/1999/xlink"><clipPath id="a"><path d="m4 4h20v20h-20z"/></clipPath><rect fill="#eaecf6" height="26" rx="6.406" width="26" x=".886" y=".602"/><g clip-path="url(#a)"><g fill="#4bad4f"><path d="m22.6433 19.0757c.877-1.4689 1.3861-3.2203 1.3861-5.0565 0-2.3446-.792-4.51975-2.1782-6.21467l-6.8175 11.27117z"/><path d="m20.7485 6.59377c-1.7539-1.61017-4.1302-2.59887-6.7327-2.59887-2.9703 0-5.62944 1.29944-7.46819 3.36158h9.22209l-8.43002 14.09602c1.75389 1.6102 4.10182 2.5706 6.70442 2.5706 2.9703 0 5.686-1.2994 7.4964-3.3615h-9.3069z"/><path d="m5.38833 8.93716c-.87694 1.46894-1.38613 3.19214-1.38613 5.05654 0 2.3728.82036 4.548 2.2065 6.2712l6.7893-11.32774z"/></g><g fill="#fff"><path d="m7.34061 21.4533 8.42999-14.06774h-9.22207c-.42432.48022-.79208.9887-1.13154 1.58192h7.63791l-6.81754 11.29942c.33946.3955.67892.791 1.10325 1.1864z"/><path d="m20.749 6.59735-8.4865 14.01125h9.2786c.4243-.4802.7921-.9886 1.1315-1.5819h-7.6379l6.8176-11.29941c-.3395-.36723-.679-.79096-1.1033-1.12994z"/></g></g></svg>